<?xml version="1.0" encoding="utf-8" standalone="no"?>
<!DOCTYPE svg PUBLIC "-//W3C//DTD SVG 1.1//EN"
  "http://www.w3.org/Graphics/SVG/1.1/DTD/svg11.dtd">
<svg xmlns:xlink="http://www.w3.org/1999/xlink" width="460.8pt" height="345.6pt" viewBox="0 0 460.8 345.6" xmlns="http://www.w3.org/2000/svg" version="1.1">
 <metadata>
  <rdf:RDF xmlns:dc="http://purl.org/dc/elements/1.1/" xmlns:cc="http://creativecommons.org/ns#" xmlns:rdf="http://www.w3.org/1999/02/22-rdf-syntax-ns#">
   <cc:Work>
    <dc:type rdf:resource="http://purl.org/dc/dcmitype/StillImage"/>
    <dc:date>2026-01-13T18:46:58.631299</dc:date>
    <dc:format>image/svg+xml</dc:format>
    <dc:creator>
     <cc:Agent>
      <dc:title>Matplotlib v3.9.4, https://matplotlib.org/</dc:title>
     </cc:Agent>
    </dc:creator>
   </cc:Work>
  </rdf:RDF>
 </metadata>
 <defs>
  <style type="text/css">*{stroke-linejoin: round; stroke-linecap: butt}</style>
 </defs>
 <g id="figure_1">
  <g id="patch_1">
   <path d="M 0 345.6 
L 460.8 345.6 
L 460.8 0 
L 0 0 
z
" style="fill: #ffffff"/>
  </g>
  <g id="axes_1">
   <g id="patch_2">
    <path d="M 57.6 119.740235 
L 414.72 119.740235 
L 414.72 41.472 
L 57.6 41.472 
z
" style="fill: #ffffff"/>
   </g>
   <g id="matplotlib.axis_1">
    <g id="xtick_1">
     <g id="line2d_1">
      <path d="M 73.832727 119.740235 
L 73.832727 41.472 
" clip-path="url(#pc61cda6133)" style="fill: none; stroke: #b0b0b0; stroke-width: 0.8; stroke-linecap: square"/>
     </g>
     <g id="line2d_2">
      <defs>
       <path id="m40d993a1fa" d="M 0 0 
L 0 3.5 
" style="stroke: #000000; stroke-width: 0.8"/>
      </defs>
      <g>
       <use xlink:href="#m40d993a1fa" x="73.832727" y="119.740235" style="stroke: #000000; stroke-width: 0.8"/>
      </g>
     </g>
     <g id="text_1">
      <!-- 0 -->
      <g transform="translate(70.651477 134.338673) scale(0.1 -0.1)">
       <defs>
        <path id="DejaVuSans-30" d="M 2034 4250 
Q 1547 4250 1301 3770 
Q 1056 3291 1056 2328 
Q 1056 1369 1301 889 
Q 1547 409 2034 409 
Q 2525 409 2770 889 
Q 3016 1369 3016 2328 
Q 3016 3291 2770 3770 
Q 2525 4250 2034 4250 
z
M 2034 4750 
Q 2819 4750 3233 4129 
Q 3647 3509 3647 2328 
Q 3647 1150 3233 529 
Q 2819 -91 2034 -91 
Q 1250 -91 836 529 
Q 422 1150 422 2328 
Q 422 3509 836 4129 
Q 1250 4750 2034 4750 
z
" transform="scale(0.015625)"/>
       </defs>
       <use xlink:href="#DejaVuSans-30"/>
      </g>
     </g>
    </g>
    <g id="xtick_2">
     <g id="line2d_3">
      <path d="M 137.570696 119.740235 
L 137.570696 41.472 
" clip-path="url(#pc61cda6133)" style="fill: none; stroke: #b0b0b0; stroke-width: 0.8; stroke-linecap: square"/>
     </g>
     <g id="line2d_4">
      <g>
       <use xlink:href="#m40d993a1fa" x="137.570696" y="119.740235" style="stroke: #000000; stroke-width: 0.8"/>
      </g>
     </g>
     <g id="text_2">
      <!-- 50 -->
      <g transform="translate(131.208196 134.338673) scale(0.1 -0.1)">
       <defs>
        <path id="DejaVuSans-35" d="M 691 4666 
L 3169 4666 
L 3169 4134 
L 1269 4134 
L 1269 2991 
Q 1406 3038 1543 3061 
Q 1681 3084 1819 3084 
Q 2600 3084 3056 2656 
Q 3513 2228 3513 1497 
Q 3513 744 3044 326 
Q 2575 -91 1722 -91 
Q 1428 -91 1123 -41 
Q 819 9 494 109 
L 494 744 
Q 775 591 1075 516 
Q 1375 441 1709 441 
Q 2250 441 2565 725 
Q 2881 1009 2881 1497 
Q 2881 1984 2565 2268 
Q 2250 2553 1709 2553 
Q 1456 2553 1204 2497 
Q 953 2441 691 2322 
L 691 4666 
z
" transform="scale(0.015625)"/>
       </defs>
       <use xlink:href="#DejaVuSans-35"/>
       <use xlink:href="#DejaVuSans-30" x="63.623047"/>
      </g>
     </g>
    </g>
    <g id="xtick_3">
     <g id="line2d_5">
      <path d="M 201.308665 119.740235 
L 201.308665 41.472 
" clip-path="url(#pc61cda6133)" style="fill: none; stroke: #b0b0b0; stroke-width: 0.8; stroke-linecap: square"/>
     </g>
     <g id="line2d_6">
      <g>
       <use xlink:href="#m40d993a1fa" x="201.308665" y="119.740235" style="stroke: #000000; stroke-width: 0.8"/>
      </g>
     </g>
     <g id="text_3">
      <!-- 100 -->
      <g transform="translate(191.764915 134.338673) scale(0.1 -0.1)">
       <defs>
        <path id="DejaVuSans-31" d="M 794 531 
L 1825 531 
L 1825 4091 
L 703 3866 
L 703 4441 
L 1819 4666 
L 2450 4666 
L 2450 531 
L 3481 531 
L 3481 0 
L 794 0 
L 794 531 
z
" transform="scale(0.015625)"/>
       </defs>
       <use xlink:href="#DejaVuSans-31"/>
       <use xlink:href="#DejaVuSans-30" x="63.623047"/>
       <use xlink:href="#DejaVuSans-30" x="127.246094"/>
      </g>
     </g>
    </g>
    <g id="xtick_4">
     <g id="line2d_7">
      <path d="M 265.046634 119.740235 
L 265.046634 41.472 
" clip-path="url(#pc61cda6133)" style="fill: none; stroke: #b0b0b0; stroke-width: 0.8; stroke-linecap: square"/>
     </g>
     <g id="line2d_8">
      <g>
       <use xlink:href="#m40d993a1fa" x="265.046634" y="119.740235" style="stroke: #000000; stroke-width: 0.8"/>
      </g>
     </g>
     <g id="text_4">
      <!-- 150 -->
      <g transform="translate(255.502884 134.338673) scale(0.1 -0.1)">
       <use xlink:href="#DejaVuSans-31"/>
       <use xlink:href="#DejaVuSans-35" x="63.623047"/>
       <use xlink:href="#DejaVuSans-30" x="127.246094"/>
      </g>
     </g>
    </g>
    <g id="xtick_5">
     <g id="line2d_9">
      <path d="M 328.784603 119.740235 
L 328.784603 41.472 
" clip-path="url(#pc61cda6133)" style="fill: none; stroke: #b0b0b0; stroke-width: 0.8; stroke-linecap: square"/>
     </g>
     <g id="line2d_10">
      <g>
       <use xlink:href="#m40d993a1fa" x="328.784603" y="119.740235" style="stroke: #000000; stroke-width: 0.8"/>
      </g>
     </g>
     <g id="text_5">
      <!-- 200 -->
      <g transform="translate(319.240853 134.338673) scale(0.1 -0.1)">
       <defs>
        <path id="DejaVuSans-32" d="M 1228 531 
L 3431 531 
L 3431 0 
L 469 0 
L 469 531 
Q 828 903 1448 1529 
Q 2069 2156 2228 2338 
Q 2531 2678 2651 2914 
Q 2772 3150 2772 3378 
Q 2772 3750 2511 3984 
Q 2250 4219 1831 4219 
Q 1534 4219 1204 4116 
Q 875 4013 500 3803 
L 500 4441 
Q 881 4594 1212 4672 
Q 1544 4750 1819 4750 
Q 2544 4750 2975 4387 
Q 3406 4025 3406 3419 
Q 3406 3131 3298 2873 
Q 3191 2616 2906 2266 
Q 2828 2175 2409 1742 
Q 1991 1309 1228 531 
z
" transform="scale(0.015625)"/>
       </defs>
       <use xlink:href="#DejaVuSans-32"/>
       <use xlink:href="#DejaVuSans-30" x="63.623047"/>
       <use xlink:href="#DejaVuSans-30" x="127.246094"/>
      </g>
     </g>
    </g>
    <g id="xtick_6">
     <g id="line2d_11">
      <path d="M 392.522572 119.740235 
L 392.522572 41.472 
" clip-path="url(#pc61cda6133)" style="fill: none; stroke: #b0b0b0; stroke-width: 0.8; stroke-linecap: square"/>
     </g>
     <g id="line2d_12">
      <g>
       <use xlink:href="#m40d993a1fa" x="392.522572" y="119.740235" style="stroke: #000000; stroke-width: 0.8"/>
      </g>
     </g>
     <g id="text_6">
      <!-- 250 -->
      <g transform="translate(382.978822 134.338673) scale(0.1 -0.1)">
       <use xlink:href="#DejaVuSans-32"/>
       <use xlink:href="#DejaVuSans-35" x="63.623047"/>
       <use xlink:href="#DejaVuSans-30" x="127.246094"/>
      </g>
     </g>
    </g>
   </g>
   <g id="matplotlib.axis_2">
    <g id="ytick_1">
     <g id="line2d_13">
      <path d="M 57.6 110.253142 
L 414.72 110.253142 
" clip-path="url(#pc61cda6133)" style="fill: none; stroke: #b0b0b0; stroke-width: 0.8; stroke-linecap: square"/>
     </g>
     <g id="line2d_14">
      <defs>
       <path id="m646da31e6b" d="M 0 0 
L -3.5 0 
" style="stroke: #000000; stroke-width: 0.8"/>
      </defs>
      <g>
       <use xlink:href="#m646da31e6b" x="57.6" y="110.253142" style="stroke: #000000; stroke-width: 0.8"/>
      </g>
     </g>
     <g id="text_7">
      <!-- −0.05 -->
      <g transform="translate(19.954687 114.052361) scale(0.1 -0.1)">
       <defs>
        <path id="DejaVuSans-2212" d="M 678 2272 
L 4684 2272 
L 4684 1741 
L 678 1741 
L 678 2272 
z
" transform="scale(0.015625)"/>
        <path id="DejaVuSans-2e" d="M 684 794 
L 1344 794 
L 1344 0 
L 684 0 
L 684 794 
z
" transform="scale(0.015625)"/>
       </defs>
       <use xlink:href="#DejaVuSans-2212"/>
       <use xlink:href="#DejaVuSans-30" x="83.789062"/>
       <use xlink:href="#DejaVuSans-2e" x="147.412109"/>
       <use xlink:href="#DejaVuSans-30" x="179.199219"/>
       <use xlink:href="#DejaVuSans-35" x="242.822266"/>
      </g>
     </g>
    </g>
    <g id="ytick_2">
     <g id="line2d_15">
      <path d="M 57.6 80.606118 
L 414.72 80.606118 
" clip-path="url(#pc61cda6133)" style="fill: none; stroke: #b0b0b0; stroke-width: 0.8; stroke-linecap: square"/>
     </g>
     <g id="line2d_16">
      <g>
       <use xlink:href="#m646da31e6b" x="57.6" y="80.606118" style="stroke: #000000; stroke-width: 0.8"/>
      </g>
     </g>
     <g id="text_8">
      <!-- 0.00 -->
      <g transform="translate(28.334375 84.405336) scale(0.1 -0.1)">
       <use xlink:href="#DejaVuSans-30"/>
       <use xlink:href="#DejaVuSans-2e" x="63.623047"/>
       <use xlink:href="#DejaVuSans-30" x="95.410156"/>
       <use xlink:href="#DejaVuSans-30" x="159.033203"/>
      </g>
     </g>
    </g>
    <g id="ytick_3">
     <g id="line2d_17">
      <path d="M 57.6 50.959093 
L 414.72 50.959093 
" clip-path="url(#pc61cda6133)" style="fill: none; stroke: #b0b0b0; stroke-width: 0.8; stroke-linecap: square"/>
     </g>
     <g id="line2d_18">
      <g>
       <use xlink:href="#m646da31e6b" x="57.6" y="50.959093" style="stroke: #000000; stroke-width: 0.8"/>
      </g>
     </g>
     <g id="text_9">
      <!-- 0.05 -->
      <g transform="translate(28.334375 54.758312) scale(0.1 -0.1)">
       <use xlink:href="#DejaVuSans-30"/>
       <use xlink:href="#DejaVuSans-2e" x="63.623047"/>
       <use xlink:href="#DejaVuSans-30" x="95.410156"/>
       <use xlink:href="#DejaVuSans-35" x="159.033203"/>
      </g>
     </g>
    </g>
    <g id="text_10">
     <!-- ba_x -->
     <g transform="translate(13.596875 92.303774) rotate(-90) scale(0.1 -0.1)">
      <defs>
       <path id="DejaVuSans-62" d="M 3116 1747 
Q 3116 2381 2855 2742 
Q 2594 3103 2138 3103 
Q 1681 3103 1420 2742 
Q 1159 2381 1159 1747 
Q 1159 1113 1420 752 
Q 1681 391 2138 391 
Q 2594 391 2855 752 
Q 3116 1113 3116 1747 
z
M 1159 2969 
Q 1341 3281 1617 3432 
Q 1894 3584 2278 3584 
Q 2916 3584 3314 3078 
Q 3713 2572 3713 1747 
Q 3713 922 3314 415 
Q 2916 -91 2278 -91 
Q 1894 -91 1617 61 
Q 1341 213 1159 525 
L 1159 0 
L 581 0 
L 581 4863 
L 1159 4863 
L 1159 2969 
z
" transform="scale(0.015625)"/>
       <path id="DejaVuSans-61" d="M 2194 1759 
Q 1497 1759 1228 1600 
Q 959 1441 959 1056 
Q 959 750 1161 570 
Q 1363 391 1709 391 
Q 2188 391 2477 730 
Q 2766 1069 2766 1631 
L 2766 1759 
L 2194 1759 
z
M 3341 1997 
L 3341 0 
L 2766 0 
L 2766 531 
Q 2569 213 2275 61 
Q 1981 -91 1556 -91 
Q 1019 -91 701 211 
Q 384 513 384 1019 
Q 384 1609 779 1909 
Q 1175 2209 1959 2209 
L 2766 2209 
L 2766 2266 
Q 2766 2663 2505 2880 
Q 2244 3097 1772 3097 
Q 1472 3097 1187 3025 
Q 903 2953 641 2809 
L 641 3341 
Q 956 3463 1253 3523 
Q 1550 3584 1831 3584 
Q 2591 3584 2966 3190 
Q 3341 2797 3341 1997 
z
" transform="scale(0.015625)"/>
       <path id="DejaVuSans-5f" d="M 3263 -1063 
L 3263 -1509 
L -63 -1509 
L -63 -1063 
L 3263 -1063 
z
" transform="scale(0.015625)"/>
       <path id="DejaVuSans-78" d="M 3513 3500 
L 2247 1797 
L 3578 0 
L 2900 0 
L 1881 1375 
L 863 0 
L 184 0 
L 1544 1831 
L 300 3500 
L 978 3500 
L 1906 2253 
L 2834 3500 
L 3513 3500 
z
" transform="scale(0.015625)"/>
      </defs>
      <use xlink:href="#DejaVuSans-62"/>
      <use xlink:href="#DejaVuSans-61" x="63.476562"/>
      <use xlink:href="#DejaVuSans-5f" x="124.755859"/>
      <use xlink:href="#DejaVuSans-78" x="174.755859"/>
     </g>
    </g>
   </g>
   <g id="line2d_19">
    <path d="M 73.832727 80.606118 
L 398.487273 80.606118 
L 398.487273 80.606118 
" clip-path="url(#pc61cda6133)" style="fill: none; stroke: #1f77b4; stroke-width: 1.5; stroke-linecap: square"/>
   </g>
   <g id="line2d_20">
    <path d="M 73.832727 45.029666 
L 80.132756 45.138366 
L 80.281021 45.142877 
L 85.168642 45.250925 
L 85.305458 45.256581 
L 88.865048 45.366303 
L 88.997914 45.372218 
L 92.75303 45.480796 
L 92.893623 45.486041 
L 97.40536 45.59503 
L 97.561288 45.599033 
L 103.779274 45.707463 
L 103.967156 45.710407 
L 111.428687 45.818513 
L 111.656188 45.821514 
L 142.787617 45.92144 
L 143.41637 45.92371 
L 148.587422 46.031735 
L 148.703726 46.041593 
L 149.735127 46.14581 
L 149.850152 46.162132 
L 150.563315 46.26521 
L 150.677063 46.286217 
L 151.264978 46.388612 
L 151.378727 46.413277 
L 151.901461 46.520153 
L 152.015261 46.548535 
L 152.475365 46.656769 
L 152.589054 46.689773 
L 152.985256 46.794332 
L 153.099005 46.83084 
L 153.431303 46.927071 
L 153.545051 46.96773 
L 153.877351 47.072325 
L 153.991099 47.116083 
L 154.323398 47.226764 
L 154.437204 47.271229 
L 154.769504 47.381734 
L 154.883193 47.424536 
L 155.215492 47.527958 
L 155.32924 47.568281 
L 155.662817 47.663593 
L 155.776566 47.699836 
L 156.172768 47.803771 
L 156.286546 47.836883 
L 156.745345 47.944781 
L 156.859153 47.974108 
L 157.383163 48.084968 
L 157.496853 48.111116 
L 158.020864 48.211336 
L 158.134612 48.23543 
L 158.721249 48.340039 
L 158.834998 48.362559 
L 159.422913 48.463053 
L 159.536665 48.485208 
L 160.187232 48.593334 
L 160.300952 48.614096 
L 161.016679 48.723312 
L 161.130424 48.741364 
L 161.972678 48.845417 
L 162.087706 48.859629 
L 163.246925 48.968479 
L 163.36323 48.978727 
L 165.222839 49.087814 
L 165.348091 49.093354 
L 168.282574 49.203096 
L 168.414213 49.209779 
L 171.150595 49.317008 
L 171.273291 49.322902 
L 173.444762 49.431141 
L 173.564903 49.438063 
L 175.42069 49.547188 
L 175.539552 49.555166 
L 177.268812 49.664614 
L 177.387674 49.672968 
L 178.990409 49.783225 
L 179.10799 49.79244 
L 180.58419 49.902236 
L 180.700498 49.912085 
L 182.050229 50.018365 
L 182.166477 50.028766 
L 183.452245 50.135369 
L 183.568551 50.146287 
L 184.790416 50.252293 
L 184.906782 50.263645 
L 186.128589 50.372634 
L 186.243619 50.384227 
L 187.468042 50.494627 
L 187.584408 50.506325 
L 188.742313 50.611769 
L 188.857342 50.623491 
L 190.016585 50.728933 
L 190.131618 50.7406 
L 191.356041 50.85078 
L 191.47235 50.86229 
L 192.694221 50.970299 
L 192.81053 50.981519 
L 194.096367 51.091702 
L 194.212616 51.102406 
L 195.562303 51.210664 
L 195.678611 51.220583 
L 197.156111 51.329705 
L 197.273696 51.338777 
L 198.876512 51.446736 
L 198.99404 51.454956 
L 200.788516 51.56345 
L 200.907381 51.570755 
L 202.956205 51.679625 
L 203.077626 51.685952 
L 205.44215 51.793506 
L 205.567465 51.798831 
L 208.500758 51.907869 
L 208.632345 51.914015 
L 212.898753 52.02315 
L 213.052108 52.027234 
L 219.591026 52.134744 
L 219.794249 52.138089 
L 229.789278 52.244834 
L 230.083245 52.247341 
L 245.915637 52.35121 
L 246.228776 52.353552 
L 257.89833 52.45928 
L 258.115617 52.462327 
L 266.183427 52.569366 
L 266.367424 52.572148 
L 274.725352 52.679419 
L 274.987376 52.682411 
L 283.138329 52.789696 
L 283.291709 52.793623 
L 288.046508 52.901871 
L 288.199888 52.905803 
L 291.679013 53.012101 
L 291.795325 53.022479 
L 292.826868 53.126038 
L 292.940574 53.141563 
L 293.718977 53.244757 
L 293.83273 53.263745 
L 294.547226 53.374452 
L 294.660987 53.395224 
L 295.311578 53.501724 
L 295.425328 53.523102 
L 296.077198 53.627296 
L 296.190951 53.64777 
L 296.905447 53.758173 
L 297.019263 53.777949 
L 297.7337 53.885037 
L 297.847457 53.905191 
L 298.499322 54.013 
L 298.613079 54.035808 
L 299.199758 54.146606 
L 299.313575 54.173105 
L 299.837623 54.282674 
L 299.95132 54.311219 
L 300.411461 54.41253 
L 300.525241 54.442004 
L 300.985358 54.546501 
L 301.099115 54.577245 
L 301.495347 54.671949 
L 301.609104 54.704683 
L 302.004116 54.805356 
L 302.117814 54.840417 
L 302.514047 54.950199 
L 302.627804 54.987903 
L 302.960127 55.086032 
L 303.073884 55.126129 
L 303.407486 55.227951 
L 303.521243 55.270741 
L 303.853571 55.379131 
L 303.967323 55.423321 
L 304.235739 55.514078 
L 304.348218 55.559659 
L 304.617969 55.651903 
L 304.731668 55.699541 
L 305.000082 55.795602 
L 305.113839 55.843878 
L 305.382254 55.942669 
L 305.496012 55.992667 
L 305.765704 56.092134 
L 305.879461 56.142152 
L 306.147877 56.245029 
L 306.261634 56.296748 
L 306.530052 56.400447 
L 306.642527 56.453194 
L 306.912279 56.558881 
L 307.024702 56.611099 
L 307.294392 56.717815 
L 307.408149 56.771818 
L 307.677841 56.87949 
L 307.791598 56.933637 
L 308.060012 57.042949 
L 308.173769 57.097034 
L 308.442184 57.204618 
L 308.555941 57.259581 
L 308.824355 57.369383 
L 308.936834 57.423959 
L 309.206584 57.534116 
L 309.319004 57.588983 
L 309.590033 57.69678 
L 309.702453 57.750941 
L 309.972146 57.861038 
L 310.085903 57.915508 
L 310.35432 58.023741 
L 310.468073 58.078341 
L 310.736487 58.186439 
L 310.850244 58.239356 
L 311.118657 58.3467 
L 311.231136 58.400685 
L 311.502106 58.507801 
L 311.614584 58.560681 
L 311.884335 58.667019 
L 311.996755 58.719606 
L 312.266447 58.822601 
L 312.380202 58.87505 
L 312.648617 58.979286 
L 312.762373 59.030745 
L 313.030787 59.133516 
L 313.144543 59.18457 
L 313.414235 59.284498 
L 313.527992 59.334192 
L 313.796405 59.434404 
L 313.908884 59.484013 
L 314.178634 59.582181 
L 314.291053 59.631477 
L 314.560745 59.728167 
L 314.674502 59.775319 
L 314.942915 59.871663 
L 315.056671 59.919501 
L 315.326362 60.013764 
L 315.440118 60.060523 
L 315.708532 60.153293 
L 315.822289 60.198572 
L 316.090702 60.289186 
L 316.204516 60.33401 
L 316.47293 60.423413 
L 316.586627 60.467564 
L 316.918949 60.577091 
L 317.032704 60.619533 
L 317.365027 60.725251 
L 317.478782 60.76719 
L 317.811103 60.870743 
L 317.924863 60.911949 
L 318.258458 61.012854 
L 318.372215 61.051996 
L 318.704536 61.151061 
L 318.818352 61.190087 
L 319.150672 61.28629 
L 319.26437 61.324721 
L 319.66066 61.435568 
L 319.774355 61.472689 
L 320.170583 61.58174 
L 320.28434 61.617526 
L 320.679291 61.723302 
L 320.793106 61.757372 
L 321.189335 61.860113 
L 321.303032 61.893874 
L 321.699261 61.993192 
L 321.813018 62.02559 
L 322.273155 62.13578 
L 322.386928 62.167143 
L 322.847048 62.274543 
L 322.960805 62.304966 
L 323.420942 62.406951 
L 323.534757 62.435961 
L 323.994895 62.535142 
L 324.108592 62.562956 
L 324.631359 62.670657 
L 324.745115 62.697215 
L 325.269161 62.800981 
L 325.382916 62.826512 
L 325.969651 62.936928 
L 326.083348 62.961249 
L 326.671309 63.067229 
L 326.785059 63.09009 
L 327.435642 63.200381 
L 327.549398 63.221827 
L 328.20126 63.325704 
L 328.315076 63.345588 
L 329.029508 63.453209 
L 329.143265 63.472338 
L 329.921665 63.581111 
L 330.035422 63.59862 
L 330.87779 63.707554 
L 330.991487 63.723806 
L 331.897719 63.831946 
L 332.012738 63.846425 
L 332.981586 63.951689 
L 333.09662 63.964891 
L 334.192006 64.071367 
L 334.307041 64.08314 
L 335.530302 64.18826 
L 335.646555 64.198542 
L 337.124128 64.307752 
L 337.241703 64.316507 
L 338.972338 64.422851 
L 339.092486 64.430016 
L 341.330553 64.537506 
L 341.454593 64.542844 
L 344.708746 64.651425 
L 344.850622 64.656432 
L 352.039037 64.761719 
L 352.364969 64.764196 
L 375.366724 64.856892 
L 375.502207 64.862668 
L 378.298808 64.971309 
L 378.42023 64.977928 
L 380.147013 65.083832 
L 380.264603 65.092708 
L 381.740868 65.198159 
L 381.858459 65.207449 
L 383.334726 65.314926 
L 383.451038 65.324573 
L 384.863398 65.432954 
L 384.979713 65.44303 
L 386.32944 65.552011 
L 386.445812 65.56279 
L 387.732853 65.669924 
L 387.84917 65.680475 
L 389.134989 65.785432 
L 389.251361 65.795751 
L 390.601032 65.902239 
L 390.717345 65.911932 
L 392.193614 66.018195 
L 392.311204 66.026961 
L 393.91529 66.133298 
L 394.034158 66.14148 
L 395.763563 66.24859 
L 395.881095 66.256557 
L 397.866132 66.363978 
L 397.987579 66.370189 
L 398.487273 66.394212 
L 398.487273 66.394212 
" clip-path="url(#pc61cda6133)" style="fill: none; stroke: #ff0000; stroke-width: 0.5; stroke-linecap: square"/>
   </g>
   <g id="line2d_21">
    <path d="M 73.832727 116.18257 
L 80.132756 116.07387 
L 80.281021 116.069358 
L 85.168642 115.96131 
L 85.305458 115.955654 
L 88.865048 115.845933 
L 88.997914 115.840017 
L 92.75303 115.731439 
L 92.893623 115.726195 
L 97.40536 115.617205 
L 97.561288 115.613203 
L 103.779274 115.504772 
L 103.967156 115.501829 
L 111.428687 115.393722 
L 111.656188 115.390721 
L 142.787617 115.290795 
L 143.41637 115.288525 
L 148.587422 115.1805 
L 148.703726 115.170643 
L 149.735127 115.066425 
L 149.850152 115.050104 
L 150.563315 114.947025 
L 150.677063 114.926018 
L 151.264978 114.823623 
L 151.378727 114.798958 
L 151.901461 114.692083 
L 152.015261 114.663701 
L 152.475365 114.555467 
L 152.589054 114.522462 
L 152.985256 114.417903 
L 153.099005 114.381396 
L 153.431303 114.285164 
L 153.545051 114.244505 
L 153.877351 114.13991 
L 153.991099 114.096152 
L 154.323398 113.985471 
L 154.437204 113.941007 
L 154.769504 113.830502 
L 154.883193 113.7877 
L 155.215492 113.684277 
L 155.32924 113.643954 
L 155.662817 113.548643 
L 155.776566 113.5124 
L 156.172768 113.408464 
L 156.286546 113.375352 
L 156.745345 113.267454 
L 156.859153 113.238127 
L 157.383163 113.127267 
L 157.496853 113.101119 
L 158.020864 113.0009 
L 158.134612 112.976805 
L 158.721249 112.872197 
L 158.834998 112.849676 
L 159.422913 112.749182 
L 159.536665 112.727027 
L 160.187232 112.618901 
L 160.300952 112.598139 
L 161.016679 112.488924 
L 161.130424 112.470872 
L 161.972678 112.366818 
L 162.087706 112.352607 
L 163.246925 112.243756 
L 163.36323 112.233508 
L 165.222839 112.124421 
L 165.348091 112.118882 
L 168.282574 112.00914 
L 168.414213 112.002456 
L 171.150595 111.895228 
L 171.273291 111.889334 
L 173.444762 111.781094 
L 173.564903 111.774172 
L 175.42069 111.665047 
L 175.539552 111.657069 
L 177.268812 111.547621 
L 177.387674 111.539268 
L 178.990409 111.42901 
L 179.10799 111.419795 
L 180.58419 111.31 
L 180.700498 111.30015 
L 182.050229 111.193871 
L 182.166477 111.183469 
L 183.452245 111.076866 
L 183.568551 111.065948 
L 184.790416 110.959942 
L 184.906782 110.94859 
L 186.128589 110.839602 
L 186.243619 110.828009 
L 187.468042 110.717608 
L 187.584408 110.705911 
L 188.742313 110.600466 
L 188.857342 110.588744 
L 190.016585 110.483303 
L 190.131618 110.471636 
L 191.356041 110.361455 
L 191.47235 110.349946 
L 192.694221 110.241936 
L 192.81053 110.230717 
L 194.096367 110.120533 
L 194.212616 110.109829 
L 195.562303 110.001571 
L 195.678611 109.991652 
L 197.156111 109.882531 
L 197.273696 109.873459 
L 198.876512 109.765499 
L 198.99404 109.75728 
L 200.788516 109.648785 
L 200.907381 109.641481 
L 202.956205 109.532611 
L 203.077626 109.526284 
L 205.44215 109.41873 
L 205.567465 109.413404 
L 208.500758 109.304367 
L 208.632345 109.298221 
L 212.898753 109.189086 
L 213.052108 109.185001 
L 219.591026 109.077491 
L 219.794249 109.074147 
L 229.789278 108.967402 
L 230.083245 108.964895 
L 245.915637 108.861026 
L 246.228776 108.858684 
L 257.89833 108.752955 
L 258.115617 108.749908 
L 266.183427 108.642869 
L 266.367424 108.640088 
L 274.725352 108.532816 
L 274.987376 108.529824 
L 283.138329 108.422539 
L 283.291709 108.418612 
L 288.046508 108.310365 
L 288.199888 108.306432 
L 291.679013 108.200135 
L 291.795325 108.189756 
L 292.826868 108.086197 
L 292.940574 108.070673 
L 293.718977 107.967478 
L 293.83273 107.94849 
L 294.547226 107.837783 
L 294.660987 107.817011 
L 295.311578 107.710511 
L 295.425328 107.689133 
L 296.077198 107.58494 
L 296.190951 107.564465 
L 296.905447 107.454062 
L 297.019263 107.434286 
L 297.7337 107.327199 
L 297.847457 107.307044 
L 298.499322 107.199236 
L 298.613079 107.176427 
L 299.199758 107.065629 
L 299.313575 107.03913 
L 299.837623 106.929561 
L 299.95132 106.901016 
L 300.411461 106.799705 
L 300.525241 106.770232 
L 300.985358 106.665734 
L 301.099115 106.63499 
L 301.495347 106.540286 
L 301.609104 106.507552 
L 302.004116 106.406879 
L 302.117814 106.371818 
L 302.514047 106.262037 
L 302.627804 106.224332 
L 302.960127 106.126203 
L 303.073884 106.086106 
L 303.407486 105.984285 
L 303.521243 105.941494 
L 303.853571 105.833104 
L 303.967323 105.788915 
L 304.235739 105.698157 
L 304.348218 105.652576 
L 304.617969 105.560332 
L 304.731668 105.512694 
L 305.000082 105.416633 
L 305.113839 105.368358 
L 305.382254 105.269566 
L 305.496012 105.219569 
L 305.765704 105.120101 
L 305.879461 105.070084 
L 306.147877 104.967206 
L 306.261634 104.915488 
L 306.530052 104.811789 
L 306.642527 104.759041 
L 306.912279 104.653354 
L 307.024702 104.601136 
L 307.294392 104.49442 
L 307.408149 104.440418 
L 307.677841 104.332745 
L 307.791598 104.278598 
L 308.060012 104.169287 
L 308.173769 104.115201 
L 308.442184 104.007618 
L 308.555941 103.952654 
L 308.824355 103.842852 
L 308.936834 103.788276 
L 309.206584 103.678119 
L 309.319004 103.623252 
L 309.590033 103.515455 
L 309.702453 103.461294 
L 309.972146 103.351197 
L 310.085903 103.296727 
L 310.35432 103.188494 
L 310.468073 103.133894 
L 310.736487 103.025796 
L 310.850244 102.972879 
L 311.118657 102.865536 
L 311.231136 102.81155 
L 311.502106 102.704434 
L 311.614584 102.651554 
L 311.884335 102.545217 
L 311.996755 102.492629 
L 312.266447 102.389635 
L 312.380202 102.337185 
L 312.648617 102.232949 
L 312.762373 102.18149 
L 313.030787 102.078719 
L 313.144543 102.027666 
L 313.414235 101.927737 
L 313.527992 101.878043 
L 313.796405 101.777831 
L 313.908884 101.728222 
L 314.178634 101.630054 
L 314.291053 101.580758 
L 314.560745 101.484068 
L 314.674502 101.436917 
L 314.942915 101.340572 
L 315.056671 101.292734 
L 315.326362 101.198471 
L 315.440118 101.151712 
L 315.708532 101.058943 
L 315.822289 101.013663 
L 316.090702 100.92305 
L 316.204516 100.878225 
L 316.47293 100.788822 
L 316.586627 100.744672 
L 316.918949 100.635144 
L 317.032704 100.592702 
L 317.365027 100.486985 
L 317.478782 100.445045 
L 317.811103 100.341492 
L 317.924863 100.300286 
L 318.258458 100.199381 
L 318.372215 100.16024 
L 318.704536 100.061175 
L 318.818352 100.022148 
L 319.150672 99.925945 
L 319.26437 99.887515 
L 319.66066 99.776667 
L 319.774355 99.739547 
L 320.170583 99.630495 
L 320.28434 99.59471 
L 320.679291 99.488934 
L 320.793106 99.454864 
L 321.189335 99.352122 
L 321.303032 99.318361 
L 321.699261 99.219043 
L 321.813018 99.186646 
L 322.273155 99.076455 
L 322.386928 99.045092 
L 322.847048 98.937693 
L 322.960805 98.907269 
L 323.420942 98.805284 
L 323.534757 98.776274 
L 323.994895 98.677093 
L 324.108592 98.649279 
L 324.631359 98.541579 
L 324.745115 98.51502 
L 325.269161 98.411254 
L 325.382916 98.385723 
L 325.969651 98.275307 
L 326.083348 98.250986 
L 326.671309 98.145006 
L 326.785059 98.122145 
L 327.435642 98.011854 
L 327.549398 97.990409 
L 328.20126 97.886531 
L 328.315076 97.866647 
L 329.029508 97.759026 
L 329.143265 97.739898 
L 329.921665 97.631125 
L 330.035422 97.613615 
L 330.87779 97.504681 
L 330.991487 97.488429 
L 331.897719 97.380289 
L 332.012738 97.36581 
L 332.981586 97.260546 
L 333.09662 97.247344 
L 334.192006 97.140868 
L 334.307041 97.129095 
L 335.530302 97.023975 
L 335.646555 97.013693 
L 337.124128 96.904483 
L 337.241703 96.895729 
L 338.972338 96.789385 
L 339.092486 96.782219 
L 341.330553 96.67473 
L 341.454593 96.669391 
L 344.708746 96.56081 
L 344.850622 96.555803 
L 352.039037 96.450516 
L 352.364969 96.44804 
L 375.366724 96.355343 
L 375.502207 96.349567 
L 378.298808 96.240926 
L 378.42023 96.234308 
L 380.147013 96.128404 
L 380.264603 96.119527 
L 381.740868 96.014076 
L 381.858459 96.004786 
L 383.334726 95.897309 
L 383.451038 95.887662 
L 384.863398 95.779281 
L 384.979713 95.769206 
L 386.32944 95.660224 
L 386.445812 95.649445 
L 387.732853 95.542311 
L 387.84917 95.53176 
L 389.134989 95.426803 
L 389.251361 95.416484 
L 390.601032 95.309996 
L 390.717345 95.300303 
L 392.193614 95.19404 
L 392.311204 95.185274 
L 393.91529 95.078938 
L 394.034158 95.070755 
L 395.763563 94.963645 
L 395.881095 94.955678 
L 397.866132 94.848257 
L 397.987579 94.842047 
L 398.487273 94.818023 
L 398.487273 94.818023 
" clip-path="url(#pc61cda6133)" style="fill: none; stroke: #ff0000; stroke-width: 0.5; stroke-linecap: square"/>
   </g>
   <g id="patch_3">
    <path d="M 57.6 119.740235 
L 57.6 41.472 
" style="fill: none; stroke: #000000; stroke-width: 0.8; stroke-linejoin: miter; stroke-linecap: square"/>
   </g>
   <g id="patch_4">
    <path d="M 414.72 119.740235 
L 414.72 41.472 
" style="fill: none; stroke: #000000; stroke-width: 0.8; stroke-linejoin: miter; stroke-linecap: square"/>
   </g>
   <g id="patch_5">
    <path d="M 57.6 119.740235 
L 414.72 119.740235 
" style="fill: none; stroke: #000000; stroke-width: 0.8; stroke-linejoin: miter; stroke-linecap: square"/>
   </g>
   <g id="patch_6">
    <path d="M 57.6 41.472 
L 414.72 41.472 
" style="fill: none; stroke: #000000; stroke-width: 0.8; stroke-linejoin: miter; stroke-linecap: square"/>
   </g>
   <g id="text_11">
    <!-- accel bias error -->
    <g transform="translate(189.91125 35.472) scale(0.12 -0.12)">
     <defs>
      <path id="DejaVuSans-63" d="M 3122 3366 
L 3122 2828 
Q 2878 2963 2633 3030 
Q 2388 3097 2138 3097 
Q 1578 3097 1268 2742 
Q 959 2388 959 1747 
Q 959 1106 1268 751 
Q 1578 397 2138 397 
Q 2388 397 2633 464 
Q 2878 531 3122 666 
L 3122 134 
Q 2881 22 2623 -34 
Q 2366 -91 2075 -91 
Q 1284 -91 818 406 
Q 353 903 353 1747 
Q 353 2603 823 3093 
Q 1294 3584 2113 3584 
Q 2378 3584 2631 3529 
Q 2884 3475 3122 3366 
z
" transform="scale(0.015625)"/>
      <path id="DejaVuSans-65" d="M 3597 1894 
L 3597 1613 
L 953 1613 
Q 991 1019 1311 708 
Q 1631 397 2203 397 
Q 2534 397 2845 478 
Q 3156 559 3463 722 
L 3463 178 
Q 3153 47 2828 -22 
Q 2503 -91 2169 -91 
Q 1331 -91 842 396 
Q 353 884 353 1716 
Q 353 2575 817 3079 
Q 1281 3584 2069 3584 
Q 2775 3584 3186 3129 
Q 3597 2675 3597 1894 
z
M 3022 2063 
Q 3016 2534 2758 2815 
Q 2500 3097 2075 3097 
Q 1594 3097 1305 2825 
Q 1016 2553 972 2059 
L 3022 2063 
z
" transform="scale(0.015625)"/>
      <path id="DejaVuSans-6c" d="M 603 4863 
L 1178 4863 
L 1178 0 
L 603 0 
L 603 4863 
z
" transform="scale(0.015625)"/>
      <path id="DejaVuSans-20" transform="scale(0.015625)"/>
      <path id="DejaVuSans-69" d="M 603 3500 
L 1178 3500 
L 1178 0 
L 603 0 
L 603 3500 
z
M 603 4863 
L 1178 4863 
L 1178 4134 
L 603 4134 
L 603 4863 
z
" transform="scale(0.015625)"/>
      <path id="DejaVuSans-73" d="M 2834 3397 
L 2834 2853 
Q 2591 2978 2328 3040 
Q 2066 3103 1784 3103 
Q 1356 3103 1142 2972 
Q 928 2841 928 2578 
Q 928 2378 1081 2264 
Q 1234 2150 1697 2047 
L 1894 2003 
Q 2506 1872 2764 1633 
Q 3022 1394 3022 966 
Q 3022 478 2636 193 
Q 2250 -91 1575 -91 
Q 1294 -91 989 -36 
Q 684 19 347 128 
L 347 722 
Q 666 556 975 473 
Q 1284 391 1588 391 
Q 1994 391 2212 530 
Q 2431 669 2431 922 
Q 2431 1156 2273 1281 
Q 2116 1406 1581 1522 
L 1381 1569 
Q 847 1681 609 1914 
Q 372 2147 372 2553 
Q 372 3047 722 3315 
Q 1072 3584 1716 3584 
Q 2034 3584 2315 3537 
Q 2597 3491 2834 3397 
z
" transform="scale(0.015625)"/>
      <path id="DejaVuSans-72" d="M 2631 2963 
Q 2534 3019 2420 3045 
Q 2306 3072 2169 3072 
Q 1681 3072 1420 2755 
Q 1159 2438 1159 1844 
L 1159 0 
L 581 0 
L 581 3500 
L 1159 3500 
L 1159 2956 
Q 1341 3275 1631 3429 
Q 1922 3584 2338 3584 
Q 2397 3584 2469 3576 
Q 2541 3569 2628 3553 
L 2631 2963 
z
" transform="scale(0.015625)"/>
      <path id="DejaVuSans-6f" d="M 1959 3097 
Q 1497 3097 1228 2736 
Q 959 2375 959 1747 
Q 959 1119 1226 758 
Q 1494 397 1959 397 
Q 2419 397 2687 759 
Q 2956 1122 2956 1747 
Q 2956 2369 2687 2733 
Q 2419 3097 1959 3097 
z
M 1959 3584 
Q 2709 3584 3137 3096 
Q 3566 2609 3566 1747 
Q 3566 888 3137 398 
Q 2709 -91 1959 -91 
Q 1206 -91 779 398 
Q 353 888 353 1747 
Q 353 2609 779 3096 
Q 1206 3584 1959 3584 
z
" transform="scale(0.015625)"/>
     </defs>
     <use xlink:href="#DejaVuSans-61"/>
     <use xlink:href="#DejaVuSans-63" x="61.279297"/>
     <use xlink:href="#DejaVuSans-63" x="116.259766"/>
     <use xlink:href="#DejaVuSans-65" x="171.240234"/>
     <use xlink:href="#DejaVuSans-6c" x="232.763672"/>
     <use xlink:href="#DejaVuSans-20" x="260.546875"/>
     <use xlink:href="#DejaVuSans-62" x="292.333984"/>
     <use xlink:href="#DejaVuSans-69" x="355.810547"/>
     <use xlink:href="#DejaVuSans-61" x="383.59375"/>
     <use xlink:href="#DejaVuSans-73" x="444.873047"/>
     <use xlink:href="#DejaVuSans-20" x="496.972656"/>
     <use xlink:href="#DejaVuSans-65" x="528.759766"/>
     <use xlink:href="#DejaVuSans-72" x="590.283203"/>
     <use xlink:href="#DejaVuSans-72" x="629.646484"/>
     <use xlink:href="#DejaVuSans-6f" x="668.509766"/>
     <use xlink:href="#DejaVuSans-72" x="729.691406"/>
    </g>
   </g>
  </g>
  <g id="axes_2">
   <g id="patch_7">
    <path d="M 57.6 213.662118 
L 414.72 213.662118 
L 414.72 135.393882 
L 57.6 135.393882 
z
" style="fill: #ffffff"/>
   </g>
   <g id="matplotlib.axis_3">
    <g id="xtick_7">
     <g id="line2d_22">
      <path d="M 73.832727 213.662118 
L 73.832727 135.393882 
" clip-path="url(#p8ecc4647cd)" style="fill: none; stroke: #b0b0b0; stroke-width: 0.8; stroke-linecap: square"/>
     </g>
     <g id="line2d_23">
      <g>
       <use xlink:href="#m40d993a1fa" x="73.832727" y="213.662118" style="stroke: #000000; stroke-width: 0.8"/>
      </g>
     </g>
     <g id="text_12">
      <!-- 0 -->
      <g transform="translate(70.651477 228.260555) scale(0.1 -0.1)">
       <use xlink:href="#DejaVuSans-30"/>
      </g>
     </g>
    </g>
    <g id="xtick_8">
     <g id="line2d_24">
      <path d="M 137.570696 213.662118 
L 137.570696 135.393882 
" clip-path="url(#p8ecc4647cd)" style="fill: none; stroke: #b0b0b0; stroke-width: 0.8; stroke-linecap: square"/>
     </g>
     <g id="line2d_25">
      <g>
       <use xlink:href="#m40d993a1fa" x="137.570696" y="213.662118" style="stroke: #000000; stroke-width: 0.8"/>
      </g>
     </g>
     <g id="text_13">
      <!-- 50 -->
      <g transform="translate(131.208196 228.260555) scale(0.1 -0.1)">
       <use xlink:href="#DejaVuSans-35"/>
       <use xlink:href="#DejaVuSans-30" x="63.623047"/>
      </g>
     </g>
    </g>
    <g id="xtick_9">
     <g id="line2d_26">
      <path d="M 201.308665 213.662118 
L 201.308665 135.393882 
" clip-path="url(#p8ecc4647cd)" style="fill: none; stroke: #b0b0b0; stroke-width: 0.8; stroke-linecap: square"/>
     </g>
     <g id="line2d_27">
      <g>
       <use xlink:href="#m40d993a1fa" x="201.308665" y="213.662118" style="stroke: #000000; stroke-width: 0.8"/>
      </g>
     </g>
     <g id="text_14">
      <!-- 100 -->
      <g transform="translate(191.764915 228.260555) scale(0.1 -0.1)">
       <use xlink:href="#DejaVuSans-31"/>
       <use xlink:href="#DejaVuSans-30" x="63.623047"/>
       <use xlink:href="#DejaVuSans-30" x="127.246094"/>
      </g>
     </g>
    </g>
    <g id="xtick_10">
     <g id="line2d_28">
      <path d="M 265.046634 213.662118 
L 265.046634 135.393882 
" clip-path="url(#p8ecc4647cd)" style="fill: none; stroke: #b0b0b0; stroke-width: 0.8; stroke-linecap: square"/>
     </g>
     <g id="line2d_29">
      <g>
       <use xlink:href="#m40d993a1fa" x="265.046634" y="213.662118" style="stroke: #000000; stroke-width: 0.8"/>
      </g>
     </g>
     <g id="text_15">
      <!-- 150 -->
      <g transform="translate(255.502884 228.260555) scale(0.1 -0.1)">
       <use xlink:href="#DejaVuSans-31"/>
       <use xlink:href="#DejaVuSans-35" x="63.623047"/>
       <use xlink:href="#DejaVuSans-30" x="127.246094"/>
      </g>
     </g>
    </g>
    <g id="xtick_11">
     <g id="line2d_30">
      <path d="M 328.784603 213.662118 
L 328.784603 135.393882 
" clip-path="url(#p8ecc4647cd)" style="fill: none; stroke: #b0b0b0; stroke-width: 0.8; stroke-linecap: square"/>
     </g>
     <g id="line2d_31">
      <g>
       <use xlink:href="#m40d993a1fa" x="328.784603" y="213.662118" style="stroke: #000000; stroke-width: 0.8"/>
      </g>
     </g>
     <g id="text_16">
      <!-- 200 -->
      <g transform="translate(319.240853 228.260555) scale(0.1 -0.1)">
       <use xlink:href="#DejaVuSans-32"/>
       <use xlink:href="#DejaVuSans-30" x="63.623047"/>
       <use xlink:href="#DejaVuSans-30" x="127.246094"/>
      </g>
     </g>
    </g>
    <g id="xtick_12">
     <g id="line2d_32">
      <path d="M 392.522572 213.662118 
L 392.522572 135.393882 
" clip-path="url(#p8ecc4647cd)" style="fill: none; stroke: #b0b0b0; stroke-width: 0.8; stroke-linecap: square"/>
     </g>
     <g id="line2d_33">
      <g>
       <use xlink:href="#m40d993a1fa" x="392.522572" y="213.662118" style="stroke: #000000; stroke-width: 0.8"/>
      </g>
     </g>
     <g id="text_17">
      <!-- 250 -->
      <g transform="translate(382.978822 228.260555) scale(0.1 -0.1)">
       <use xlink:href="#DejaVuSans-32"/>
       <use xlink:href="#DejaVuSans-35" x="63.623047"/>
       <use xlink:href="#DejaVuSans-30" x="127.246094"/>
      </g>
     </g>
    </g>
   </g>
   <g id="matplotlib.axis_4">
    <g id="ytick_4">
     <g id="line2d_34">
      <path d="M 57.6 204.175021 
L 414.72 204.175021 
" clip-path="url(#p8ecc4647cd)" style="fill: none; stroke: #b0b0b0; stroke-width: 0.8; stroke-linecap: square"/>
     </g>
     <g id="line2d_35">
      <g>
       <use xlink:href="#m646da31e6b" x="57.6" y="204.175021" style="stroke: #000000; stroke-width: 0.8"/>
      </g>
     </g>
     <g id="text_18">
      <!-- −0.05 -->
      <g transform="translate(19.954687 207.97424) scale(0.1 -0.1)">
       <use xlink:href="#DejaVuSans-2212"/>
       <use xlink:href="#DejaVuSans-30" x="83.789062"/>
       <use xlink:href="#DejaVuSans-2e" x="147.412109"/>
       <use xlink:href="#DejaVuSans-30" x="179.199219"/>
       <use xlink:href="#DejaVuSans-35" x="242.822266"/>
      </g>
     </g>
    </g>
    <g id="ytick_5">
     <g id="line2d_36">
      <path d="M 57.6 174.528 
L 414.72 174.528 
" clip-path="url(#p8ecc4647cd)" style="fill: none; stroke: #b0b0b0; stroke-width: 0.8; stroke-linecap: square"/>
     </g>
     <g id="line2d_37">
      <g>
       <use xlink:href="#m646da31e6b" x="57.6" y="174.528" style="stroke: #000000; stroke-width: 0.8"/>
      </g>
     </g>
     <g id="text_19">
      <!-- 0.00 -->
      <g transform="translate(28.334375 178.327219) scale(0.1 -0.1)">
       <use xlink:href="#DejaVuSans-30"/>
       <use xlink:href="#DejaVuSans-2e" x="63.623047"/>
       <use xlink:href="#DejaVuSans-30" x="95.410156"/>
       <use xlink:href="#DejaVuSans-30" x="159.033203"/>
      </g>
     </g>
    </g>
    <g id="ytick_6">
     <g id="line2d_38">
      <path d="M 57.6 144.880979 
L 414.72 144.880979 
" clip-path="url(#p8ecc4647cd)" style="fill: none; stroke: #b0b0b0; stroke-width: 0.8; stroke-linecap: square"/>
     </g>
     <g id="line2d_39">
      <g>
       <use xlink:href="#m646da31e6b" x="57.6" y="144.880979" style="stroke: #000000; stroke-width: 0.8"/>
      </g>
     </g>
     <g id="text_20">
      <!-- 0.05 -->
      <g transform="translate(28.334375 148.680198) scale(0.1 -0.1)">
       <use xlink:href="#DejaVuSans-30"/>
       <use xlink:href="#DejaVuSans-2e" x="63.623047"/>
       <use xlink:href="#DejaVuSans-30" x="95.410156"/>
       <use xlink:href="#DejaVuSans-35" x="159.033203"/>
      </g>
     </g>
    </g>
    <g id="text_21">
     <!-- ba_y -->
     <g transform="translate(13.596875 186.225656) rotate(-90) scale(0.1 -0.1)">
      <defs>
       <path id="DejaVuSans-79" d="M 2059 -325 
Q 1816 -950 1584 -1140 
Q 1353 -1331 966 -1331 
L 506 -1331 
L 506 -850 
L 844 -850 
Q 1081 -850 1212 -737 
Q 1344 -625 1503 -206 
L 1606 56 
L 191 3500 
L 800 3500 
L 1894 763 
L 2988 3500 
L 3597 3500 
L 2059 -325 
z
" transform="scale(0.015625)"/>
      </defs>
      <use xlink:href="#DejaVuSans-62"/>
      <use xlink:href="#DejaVuSans-61" x="63.476562"/>
      <use xlink:href="#DejaVuSans-5f" x="124.755859"/>
      <use xlink:href="#DejaVuSans-79" x="174.755859"/>
     </g>
    </g>
   </g>
   <g id="line2d_40">
    <path d="M 73.832727 174.528 
L 398.487273 174.528 
L 398.487273 174.528 
" clip-path="url(#p8ecc4647cd)" style="fill: none; stroke: #1f77b4; stroke-width: 1.5; stroke-linecap: square"/>
   </g>
   <g id="line2d_41">
    <path d="M 73.832727 138.951548 
L 78.730623 139.05993 
L 78.850829 139.067294 
L 80.324479 139.175454 
L 80.440789 139.187058 
L 81.471036 139.294182 
L 81.584733 139.309414 
L 82.42703 139.418918 
L 82.540784 139.437232 
L 83.256548 139.54801 
L 83.370298 139.569778 
L 83.957024 139.673122 
L 84.07072 139.697641 
L 84.594756 139.801384 
L 84.70851 139.828579 
L 85.168642 139.927089 
L 85.282393 139.956507 
L 85.741244 140.064604 
L 85.855057 140.09667 
L 86.251278 140.195197 
L 86.364972 140.229344 
L 86.761193 140.335039 
L 86.874946 140.371181 
L 87.207259 140.464746 
L 87.321014 140.50292 
L 87.653327 140.600115 
L 87.76708 140.640247 
L 88.10067 140.743281 
L 88.214424 140.785776 
L 88.546737 140.893143 
L 88.660549 140.936767 
L 88.928954 141.025717 
L 89.042649 141.071517 
L 89.311054 141.16414 
L 89.424808 141.211593 
L 89.693213 141.307646 
L 89.806966 141.356248 
L 90.075371 141.454285 
L 90.189124 141.504257 
L 90.458807 141.606659 
L 90.57256 141.658771 
L 90.840966 141.764583 
L 90.953502 141.817613 
L 91.223182 141.924916 
L 91.335598 141.979673 
L 91.60528 142.090402 
L 91.719033 142.146518 
L 91.92481 142.231806 
L 92.038563 142.289499 
L 92.243061 142.375963 
L 92.356813 142.43417 
L 92.561314 142.521478 
L 92.675064 142.58076 
L 92.880841 142.67109 
L 92.994593 142.731895 
L 93.199092 142.82382 
L 93.311566 142.885153 
L 93.517401 142.97753 
L 93.629816 143.039303 
L 93.836875 143.133341 
L 93.950623 143.196591 
L 94.155121 143.292368 
L 94.268873 143.356694 
L 94.473372 143.454155 
L 94.585846 143.519163 
L 94.7929 143.617082 
L 94.906652 143.682095 
L 95.11115 143.781254 
L 95.224902 143.847643 
L 95.4294 143.948789 
L 95.541873 144.016508 
L 95.748931 144.118776 
L 95.861402 144.186605 
L 96.067236 144.288973 
L 96.179652 144.356681 
L 96.385427 144.46031 
L 96.499179 144.530147 
L 96.704955 144.635153 
L 96.818707 144.704926 
L 97.023203 144.810931 
L 97.135678 144.880994 
L 97.341453 144.986477 
L 97.453987 145.056903 
L 97.660981 145.163723 
L 97.773514 145.235522 
L 97.97923 145.342766 
L 98.091704 145.415043 
L 98.297538 145.524283 
L 98.409953 145.59652 
L 98.617066 145.704151 
L 98.72948 145.776337 
L 98.935256 145.885583 
L 99.049008 145.959359 
L 99.254782 146.069359 
L 99.368534 146.143393 
L 99.573031 146.253836 
L 99.685504 146.326957 
L 99.891279 146.436877 
L 100.003813 146.510548 
L 100.146901 146.584334 
L 100.259434 146.658785 
L 100.465149 146.769648 
L 100.577623 146.84424 
L 100.72077 146.919073 
L 100.833244 146.992856 
L 100.975173 147.066851 
L 101.08759 147.140344 
L 101.229457 147.214104 
L 101.343209 147.28839 
L 101.485078 147.363189 
L 101.598829 147.437621 
L 101.73942 147.512297 
L 101.851894 147.587415 
L 101.995042 147.661957 
L 102.107515 147.735938 
L 102.313289 147.8465 
L 102.425821 147.920263 
L 102.56891 147.994364 
L 102.681442 148.069224 
L 102.823253 148.143369 
L 102.935726 148.21754 
L 103.078874 148.292335 
L 103.191347 148.367108 
L 103.39718 148.477351 
L 103.509597 148.550911 
L 103.715369 148.660933 
L 103.82912 148.735022 
L 103.971051 148.809795 
L 104.084741 148.88341 
L 104.289238 148.99426 
L 104.40171 149.068289 
L 104.608762 149.178125 
L 104.721236 149.251424 
L 104.92701 149.359909 
L 105.039542 149.43277 
L 105.245256 149.542903 
L 105.357729 149.615606 
L 105.564782 149.72557 
L 105.677254 149.798021 
L 105.883087 149.905968 
L 105.995502 149.976972 
L 106.201275 150.084396 
L 106.315026 150.15637 
L 106.520799 150.264772 
L 106.63455 150.336489 
L 106.839047 150.443777 
L 106.951519 150.51492 
L 107.157293 150.620614 
L 107.269825 150.690037 
L 107.476818 150.794888 
L 107.589349 150.865008 
L 107.795063 150.969956 
L 107.907536 151.039744 
L 108.113369 151.14469 
L 108.225782 151.213769 
L 108.432893 151.31681 
L 108.545306 151.384424 
L 108.75108 151.486574 
L 108.864831 151.555362 
L 109.069326 151.658131 
L 109.183077 151.726108 
L 109.38885 151.828192 
L 109.501322 151.895146 
L 109.707099 151.995048 
L 109.820846 152.061321 
L 110.025341 152.161263 
L 110.137813 152.228145 
L 110.344865 152.327472 
L 110.457337 152.393592 
L 110.663168 152.492006 
L 110.775585 152.557231 
L 110.981355 152.653949 
L 111.095105 152.718772 
L 111.300878 152.815833 
L 111.414631 152.880555 
L 111.619123 152.976396 
L 111.731595 153.040797 
L 111.938645 153.135496 
L 112.052396 153.198652 
L 112.256892 153.292087 
L 112.370641 153.354455 
L 112.575135 153.448623 
L 112.68767 153.51111 
L 112.894659 153.60451 
L 113.007131 153.666654 
L 113.212962 153.758516 
L 113.325376 153.819425 
L 113.531147 153.909764 
L 113.644898 153.970314 
L 113.850671 154.061129 
L 113.96442 154.121643 
L 114.168918 154.212131 
L 114.282665 154.271616 
L 114.48716 154.360406 
L 114.600909 154.418877 
L 114.806698 154.507025 
L 114.920432 154.56536 
L 115.124926 154.652895 
L 115.237398 154.710997 
L 115.443229 154.797955 
L 115.555641 154.85516 
L 115.762751 154.940429 
L 115.875165 154.997016 
L 116.080936 155.082477 
L 116.194686 155.138973 
L 116.39918 155.223862 
L 116.512931 155.280003 
L 116.718706 155.363819 
L 116.832452 155.419357 
L 117.100851 155.528962 
L 117.2146 155.583144 
L 117.482998 155.692236 
L 117.59547 155.746438 
L 117.865206 155.855232 
L 117.977618 155.909074 
L 118.248632 156.0156 
L 118.361044 156.067929 
L 118.63072 156.173304 
L 118.74447 156.225893 
L 119.012868 156.330764 
L 119.126617 156.383145 
L 119.395015 156.486283 
L 119.508768 156.53758 
L 119.778441 156.638885 
L 119.89219 156.689546 
L 120.160587 156.790872 
L 120.273059 156.841523 
L 120.542793 156.941853 
L 120.655206 156.9913 
L 120.924882 157.088966 
L 121.038631 157.137855 
L 121.307028 157.235138 
L 121.420777 157.283744 
L 121.690453 157.38067 
L 121.804202 157.428382 
L 122.072599 157.522902 
L 122.186348 157.570064 
L 122.454745 157.664348 
L 122.568555 157.711177 
L 122.836949 157.804611 
L 122.949362 157.851002 
L 123.219037 157.942555 
L 123.332785 157.987414 
L 123.60246 158.07769 
L 123.716208 158.122995 
L 123.984605 158.212982 
L 124.098354 158.258032 
L 124.36675 158.346922 
L 124.480499 158.390607 
L 124.812798 158.499502 
L 124.926606 158.54314 
L 125.258906 158.651452 
L 125.372595 158.694497 
L 125.704894 158.800435 
L 125.818644 158.842172 
L 126.152221 158.947131 
L 126.265969 158.988672 
L 126.598269 159.092311 
L 126.712017 159.133015 
L 127.044316 159.234034 
L 127.158065 159.274172 
L 127.490363 159.37461 
L 127.604171 159.414571 
L 127.93647 159.514182 
L 128.05016 159.553398 
L 128.382457 159.650293 
L 128.496207 159.688911 
L 128.828505 159.785355 
L 128.942253 159.823627 
L 129.274551 159.917855 
L 129.388299 159.955385 
L 129.720616 160.048026 
L 129.834405 160.085294 
L 130.230607 160.195908 
L 130.344296 160.232519 
L 130.740497 160.33988 
L 130.854246 160.375392 
L 131.250447 160.48164 
L 131.36422 160.516588 
L 131.760396 160.620956 
L 131.874146 160.655177 
L 132.270346 160.757479 
L 132.384154 160.791638 
L 132.780357 160.892662 
L 132.894044 160.925921 
L 133.29025 161.023811 
L 133.403993 161.056408 
L 133.800195 161.153809 
L 133.913943 161.18634 
L 134.310143 161.281755 
L 134.423891 161.313229 
L 134.883997 161.42252 
L 134.997803 161.453918 
L 135.457907 161.561808 
L 135.571597 161.592289 
L 136.030422 161.697324 
L 136.14417 161.727213 
L 136.604274 161.831072 
L 136.718022 161.860304 
L 137.178126 161.961364 
L 137.291934 161.990008 
L 137.752037 162.090052 
L 137.865726 162.118235 
L 138.32583 162.215506 
L 138.439579 162.243146 
L 138.962308 162.353295 
L 139.076056 162.380215 
L 139.600063 162.486449 
L 139.71387 162.512929 
L 140.237876 162.61752 
L 140.351565 162.643155 
L 140.875572 162.744689 
L 140.989323 162.769957 
L 141.512049 162.870335 
L 141.625798 162.894904 
L 142.213708 163.003915 
L 142.327514 163.027953 
L 142.914087 163.135099 
L 143.027835 163.158607 
L 143.615745 163.262646 
L 143.729493 163.285848 
L 144.317403 163.387604 
L 144.431152 163.409684 
L 145.081745 163.51942 
L 145.195435 163.540978 
L 145.847249 163.6464 
L 145.960995 163.667037 
L 146.611532 163.768088 
L 146.725279 163.787995 
L 147.439777 163.894229 
L 147.553466 163.913098 
L 148.269183 164.014575 
L 148.382931 164.032809 
L 149.161274 164.139585 
L 149.275022 164.157073 
L 150.053424 164.25976 
L 150.167114 164.276445 
L 151.009361 164.382681 
L 151.123109 164.398817 
L 151.965357 164.501136 
L 152.080383 164.516593 
L 152.985256 164.623334 
L 153.100283 164.638405 
L 154.005158 164.74487 
L 154.120185 164.760082 
L 155.025117 164.865211 
L 155.140144 164.879915 
L 156.108868 164.984807 
L 156.223891 164.998045 
L 157.319259 165.10392 
L 157.434286 165.115636 
L 158.657346 165.222598 
L 158.77365 165.233518 
L 160.060733 165.341319 
L 160.176978 165.351812 
L 161.52663 165.458255 
L 161.642935 165.467732 
L 163.183025 165.573647 
L 163.300664 165.581955 
L 165.09503 165.687697 
L 165.216449 165.69442 
L 167.516998 165.801094 
L 167.643528 165.806204 
L 170.83235 165.911146 
L 170.971662 165.916277 
L 176.250172 166.019379 
L 176.432998 166.022129 
L 186.320304 166.118569 
L 186.578481 166.12134 
L 195.880556 166.21841 
L 196.076104 166.221762 
L 203.020111 166.321473 
L 203.191379 166.324601 
L 209.074577 166.426302 
L 209.240734 166.429791 
L 214.746908 166.531723 
L 214.905396 166.535418 
L 220.292721 166.637285 
L 220.452488 166.640912 
L 226.02899 166.742959 
L 226.19387 166.746495 
L 231.765277 166.848597 
L 231.925045 166.852204 
L 237.501641 166.953951 
L 237.658797 166.957482 
L 243.365724 167.058754 
L 243.530609 167.062064 
L 249.676014 167.162645 
L 249.843392 167.16573 
L 256.368375 167.264905 
L 256.548596 167.267696 
L 263.69862 167.365805 
L 263.890344 167.369229 
L 271.983682 167.465823 
L 272.203586 167.468502 
L 284.094342 167.55845 
L 284.397328 167.560491 
L 298.627161 167.64616 
L 298.899389 167.648678 
L 306.147877 167.745712 
L 306.302535 167.749565 
L 310.864303 167.851776 
L 311.007457 167.856543 
L 315.134639 167.959441 
L 315.275236 167.9644 
L 319.341059 168.066875 
L 319.484212 168.071873 
L 323.675354 168.174217 
L 323.815953 168.17893 
L 328.20126 168.280688 
L 328.34703 168.285152 
L 332.917677 168.385878 
L 333.065945 168.390164 
L 337.761916 168.490307 
L 337.910183 168.494512 
L 342.670074 168.59554 
L 342.818366 168.599775 
L 347.450415 168.700751 
L 347.596185 168.705181 
L 352.039037 168.806776 
L 352.182192 168.811401 
L 356.373297 168.912067 
L 356.515174 168.916974 
L 360.579731 169.019047 
L 360.719051 169.024054 
L 364.595768 169.124781 
L 364.732472 169.130043 
L 368.546492 169.231519 
L 368.684533 169.236836 
L 372.434639 169.337762 
L 372.571462 169.343233 
L 376.196245 169.445626 
L 376.330451 169.451456 
L 379.764849 169.552385 
L 379.897773 169.558378 
L 383.206911 169.659254 
L 383.339897 169.665264 
L 386.712886 169.765907 
L 386.84843 169.771835 
L 390.345401 169.872568 
L 390.480886 169.878077 
L 394.105735 169.977641 
L 394.241219 169.983069 
L 398.185671 170.083371 
L 398.323657 170.088218 
L 398.487273 170.091212 
L 398.487273 170.091212 
" clip-path="url(#p8ecc4647cd)" style="fill: none; stroke: #ff0000; stroke-width: 0.5; stroke-linecap: square"/>
   </g>
   <g id="line2d_42">
    <path d="M 73.832727 210.104452 
L 78.730623 209.99607 
L 78.850829 209.988706 
L 80.324479 209.880546 
L 80.440789 209.868942 
L 81.471036 209.761818 
L 81.584733 209.746586 
L 82.42703 209.637082 
L 82.540784 209.618768 
L 83.256548 209.50799 
L 83.370298 209.486222 
L 83.957024 209.382878 
L 84.07072 209.358359 
L 84.594756 209.254616 
L 84.70851 209.227421 
L 85.168642 209.128911 
L 85.282393 209.099493 
L 85.741244 208.991396 
L 85.855057 208.95933 
L 86.251278 208.860803 
L 86.364972 208.826656 
L 86.761193 208.720961 
L 86.874946 208.684819 
L 87.207259 208.591254 
L 87.321014 208.55308 
L 87.653327 208.455885 
L 87.76708 208.415753 
L 88.10067 208.312719 
L 88.214424 208.270224 
L 88.546737 208.162857 
L 88.660549 208.119233 
L 88.928954 208.030283 
L 89.042649 207.984483 
L 89.311054 207.89186 
L 89.424808 207.844407 
L 89.693213 207.748354 
L 89.806966 207.699752 
L 90.075371 207.601715 
L 90.189124 207.551743 
L 90.458807 207.449341 
L 90.57256 207.397229 
L 90.840966 207.291417 
L 90.953502 207.238387 
L 91.223182 207.131084 
L 91.335598 207.076327 
L 91.60528 206.965598 
L 91.719033 206.909482 
L 91.92481 206.824194 
L 92.038563 206.766501 
L 92.243061 206.680037 
L 92.356813 206.62183 
L 92.561314 206.534522 
L 92.675064 206.47524 
L 92.880841 206.38491 
L 92.994593 206.324105 
L 93.199092 206.23218 
L 93.311566 206.170847 
L 93.517401 206.07847 
L 93.629816 206.016697 
L 93.836875 205.922659 
L 93.950623 205.859409 
L 94.155121 205.763632 
L 94.268873 205.699306 
L 94.473372 205.601845 
L 94.585846 205.536837 
L 94.7929 205.438918 
L 94.906652 205.373905 
L 95.11115 205.274746 
L 95.224902 205.208357 
L 95.4294 205.107211 
L 95.541873 205.039492 
L 95.748931 204.937224 
L 95.861402 204.869395 
L 96.067236 204.767027 
L 96.179652 204.699319 
L 96.385427 204.59569 
L 96.499179 204.525853 
L 96.704955 204.420847 
L 96.818707 204.351074 
L 97.023203 204.245069 
L 97.135678 204.175006 
L 97.341453 204.069523 
L 97.453987 203.999097 
L 97.660981 203.892277 
L 97.773514 203.820478 
L 97.97923 203.713234 
L 98.091704 203.640957 
L 98.297538 203.531717 
L 98.409953 203.45948 
L 98.617066 203.351849 
L 98.72948 203.279663 
L 98.935256 203.170417 
L 99.049008 203.096641 
L 99.254782 202.986641 
L 99.368534 202.912607 
L 99.573031 202.802164 
L 99.685504 202.729043 
L 99.891279 202.619123 
L 100.003813 202.545452 
L 100.146901 202.471666 
L 100.259434 202.397215 
L 100.465149 202.286352 
L 100.577623 202.21176 
L 100.72077 202.136927 
L 100.833244 202.063144 
L 100.975173 201.989149 
L 101.08759 201.915656 
L 101.229457 201.841896 
L 101.343209 201.76761 
L 101.485078 201.692811 
L 101.598829 201.618379 
L 101.73942 201.543703 
L 101.851894 201.468585 
L 101.995042 201.394043 
L 102.107515 201.320062 
L 102.313289 201.2095 
L 102.425821 201.135737 
L 102.56891 201.061636 
L 102.681442 200.986776 
L 102.823253 200.912631 
L 102.935726 200.83846 
L 103.078874 200.763665 
L 103.191347 200.688892 
L 103.39718 200.578649 
L 103.509597 200.505089 
L 103.715369 200.395067 
L 103.82912 200.320978 
L 103.971051 200.246205 
L 104.084741 200.17259 
L 104.289238 200.06174 
L 104.40171 199.987711 
L 104.608762 199.877875 
L 104.721236 199.804576 
L 104.92701 199.696091 
L 105.039542 199.62323 
L 105.245256 199.513097 
L 105.357729 199.440394 
L 105.564782 199.33043 
L 105.677254 199.257979 
L 105.883087 199.150032 
L 105.995502 199.079028 
L 106.201275 198.971604 
L 106.315026 198.89963 
L 106.520799 198.791228 
L 106.63455 198.719511 
L 106.839047 198.612223 
L 106.951519 198.54108 
L 107.157293 198.435386 
L 107.269825 198.365963 
L 107.476818 198.261112 
L 107.589349 198.190992 
L 107.795063 198.086044 
L 107.907536 198.016256 
L 108.113369 197.91131 
L 108.225782 197.842231 
L 108.432893 197.73919 
L 108.545306 197.671576 
L 108.75108 197.569426 
L 108.864831 197.500638 
L 109.069326 197.397869 
L 109.183077 197.329892 
L 109.38885 197.227808 
L 109.501322 197.160854 
L 109.707099 197.060952 
L 109.820846 196.994679 
L 110.025341 196.894737 
L 110.137813 196.827855 
L 110.344865 196.728528 
L 110.457337 196.662408 
L 110.663168 196.563994 
L 110.775585 196.498769 
L 110.981355 196.402051 
L 111.095105 196.337228 
L 111.300878 196.240167 
L 111.414631 196.175445 
L 111.619123 196.079604 
L 111.731595 196.015203 
L 111.938645 195.920504 
L 112.052396 195.857348 
L 112.256892 195.763913 
L 112.370641 195.701545 
L 112.575135 195.607377 
L 112.68767 195.54489 
L 112.894659 195.45149 
L 113.007131 195.389346 
L 113.212962 195.297484 
L 113.325376 195.236575 
L 113.531147 195.146236 
L 113.644898 195.085686 
L 113.850671 194.994871 
L 113.96442 194.934357 
L 114.168918 194.843869 
L 114.282665 194.784384 
L 114.48716 194.695594 
L 114.600909 194.637123 
L 114.806698 194.548975 
L 114.920432 194.49064 
L 115.124926 194.403105 
L 115.237398 194.345003 
L 115.443229 194.258045 
L 115.555641 194.20084 
L 115.762751 194.115571 
L 115.875165 194.058984 
L 116.080936 193.973523 
L 116.194686 193.917027 
L 116.39918 193.832138 
L 116.512931 193.775997 
L 116.718706 193.692181 
L 116.832452 193.636643 
L 117.100851 193.527038 
L 117.2146 193.472856 
L 117.482998 193.363764 
L 117.59547 193.309562 
L 117.865206 193.200768 
L 117.977618 193.146926 
L 118.248632 193.0404 
L 118.361044 192.988071 
L 118.63072 192.882696 
L 118.74447 192.830107 
L 119.012868 192.725236 
L 119.126617 192.672855 
L 119.395015 192.569717 
L 119.508768 192.51842 
L 119.778441 192.417115 
L 119.89219 192.366454 
L 120.160587 192.265128 
L 120.273059 192.214477 
L 120.542793 192.114147 
L 120.655206 192.0647 
L 120.924882 191.967034 
L 121.038631 191.918145 
L 121.307028 191.820862 
L 121.420777 191.772256 
L 121.690453 191.67533 
L 121.804202 191.627618 
L 122.072599 191.533098 
L 122.186348 191.485936 
L 122.454745 191.391652 
L 122.568555 191.344823 
L 122.836949 191.251389 
L 122.949362 191.204998 
L 123.219037 191.113445 
L 123.332785 191.068586 
L 123.60246 190.97831 
L 123.716208 190.933005 
L 123.984605 190.843018 
L 124.098354 190.797968 
L 124.36675 190.709078 
L 124.480499 190.665393 
L 124.812798 190.556498 
L 124.926606 190.51286 
L 125.258906 190.404548 
L 125.372595 190.361503 
L 125.704894 190.255565 
L 125.818644 190.213828 
L 126.152221 190.108869 
L 126.265969 190.067328 
L 126.598269 189.963689 
L 126.712017 189.922985 
L 127.044316 189.821966 
L 127.158065 189.781828 
L 127.490363 189.68139 
L 127.604171 189.641429 
L 127.93647 189.541818 
L 128.05016 189.502602 
L 128.382457 189.405707 
L 128.496207 189.367089 
L 128.828505 189.270645 
L 128.942253 189.232373 
L 129.274551 189.138145 
L 129.388299 189.100615 
L 129.720616 189.007974 
L 129.834405 188.970706 
L 130.230607 188.860092 
L 130.344296 188.823481 
L 130.740497 188.71612 
L 130.854246 188.680608 
L 131.250447 188.57436 
L 131.36422 188.539412 
L 131.760396 188.435044 
L 131.874146 188.400823 
L 132.270346 188.298521 
L 132.384154 188.264362 
L 132.780357 188.163338 
L 132.894044 188.130079 
L 133.29025 188.032189 
L 133.403993 187.999592 
L 133.800195 187.902191 
L 133.913943 187.86966 
L 134.310143 187.774245 
L 134.423891 187.742771 
L 134.883997 187.63348 
L 134.997803 187.602082 
L 135.457907 187.494192 
L 135.571597 187.463711 
L 136.030422 187.358676 
L 136.14417 187.328787 
L 136.604274 187.224928 
L 136.718022 187.195696 
L 137.178126 187.094636 
L 137.291934 187.065992 
L 137.752037 186.965948 
L 137.865726 186.937765 
L 138.32583 186.840494 
L 138.439579 186.812854 
L 138.962308 186.702705 
L 139.076056 186.675785 
L 139.600063 186.569551 
L 139.71387 186.543071 
L 140.237876 186.43848 
L 140.351565 186.412845 
L 140.875572 186.311311 
L 140.989323 186.286043 
L 141.512049 186.185665 
L 141.625798 186.161096 
L 142.213708 186.052085 
L 142.327514 186.028047 
L 142.914087 185.920901 
L 143.027835 185.897393 
L 143.615745 185.793354 
L 143.729493 185.770152 
L 144.317403 185.668396 
L 144.431152 185.646316 
L 145.081745 185.53658 
L 145.195435 185.515022 
L 145.847249 185.4096 
L 145.960995 185.388963 
L 146.611532 185.287912 
L 146.725279 185.268005 
L 147.439777 185.161771 
L 147.553466 185.142902 
L 148.269183 185.041425 
L 148.382931 185.023191 
L 149.161274 184.916415 
L 149.275022 184.898927 
L 150.053424 184.79624 
L 150.167114 184.779555 
L 151.009361 184.673319 
L 151.123109 184.657183 
L 151.965357 184.554864 
L 152.080383 184.539407 
L 152.985256 184.432666 
L 153.100283 184.417595 
L 154.005158 184.31113 
L 154.120185 184.295918 
L 155.025117 184.190789 
L 155.140144 184.176085 
L 156.108868 184.071193 
L 156.223891 184.057955 
L 157.319259 183.95208 
L 157.434286 183.940364 
L 158.657346 183.833402 
L 158.77365 183.822482 
L 160.060733 183.714681 
L 160.176978 183.704188 
L 161.52663 183.597745 
L 161.642935 183.588268 
L 163.183025 183.482353 
L 163.300664 183.474045 
L 165.09503 183.368303 
L 165.216449 183.36158 
L 167.516998 183.254906 
L 167.643528 183.249796 
L 170.83235 183.144854 
L 170.971662 183.139723 
L 176.250172 183.036621 
L 176.432998 183.033871 
L 186.320304 182.937431 
L 186.578481 182.93466 
L 195.880556 182.83759 
L 196.076104 182.834238 
L 203.020111 182.734527 
L 203.191379 182.731399 
L 209.074577 182.629698 
L 209.240734 182.626209 
L 214.746908 182.524277 
L 214.905396 182.520582 
L 220.292721 182.418715 
L 220.452488 182.415088 
L 226.02899 182.313041 
L 226.19387 182.309505 
L 231.765277 182.207403 
L 231.925045 182.203796 
L 237.501641 182.102049 
L 237.658797 182.098518 
L 243.365724 181.997246 
L 243.530609 181.993936 
L 249.676014 181.893355 
L 249.843392 181.89027 
L 256.368375 181.791095 
L 256.548596 181.788304 
L 263.69862 181.690195 
L 263.890344 181.686771 
L 271.983682 181.590177 
L 272.203586 181.587498 
L 284.094342 181.49755 
L 284.397328 181.495509 
L 298.627161 181.40984 
L 298.899389 181.407322 
L 306.147877 181.310288 
L 306.302535 181.306435 
L 310.864303 181.204224 
L 311.007457 181.199457 
L 315.134639 181.096559 
L 315.275236 181.0916 
L 319.341059 180.989125 
L 319.484212 180.984127 
L 323.675354 180.881783 
L 323.815953 180.87707 
L 328.20126 180.775312 
L 328.34703 180.770848 
L 332.917677 180.670122 
L 333.065945 180.665836 
L 337.761916 180.565693 
L 337.910183 180.561488 
L 342.670074 180.46046 
L 342.818366 180.456225 
L 347.450415 180.355249 
L 347.596185 180.350819 
L 352.039037 180.249224 
L 352.182192 180.244599 
L 356.373297 180.143933 
L 356.515174 180.139026 
L 360.579731 180.036953 
L 360.719051 180.031946 
L 364.595768 179.931219 
L 364.732472 179.925957 
L 368.546492 179.824481 
L 368.684533 179.819164 
L 372.434639 179.718238 
L 372.571462 179.712767 
L 376.196245 179.610374 
L 376.330451 179.604544 
L 379.764849 179.503615 
L 379.897773 179.497622 
L 383.206911 179.396746 
L 383.339897 179.390736 
L 386.712886 179.290093 
L 386.84843 179.284165 
L 390.345401 179.183432 
L 390.480886 179.177923 
L 394.105735 179.078359 
L 394.241219 179.072931 
L 398.185671 178.972629 
L 398.323657 178.967782 
L 398.487273 178.964788 
L 398.487273 178.964788 
" clip-path="url(#p8ecc4647cd)" style="fill: none; stroke: #ff0000; stroke-width: 0.5; stroke-linecap: square"/>
   </g>
   <g id="patch_8">
    <path d="M 57.6 213.662118 
L 57.6 135.393882 
" style="fill: none; stroke: #000000; stroke-width: 0.8; stroke-linejoin: miter; stroke-linecap: square"/>
   </g>
   <g id="patch_9">
    <path d="M 414.72 213.662118 
L 414.72 135.393882 
" style="fill: none; stroke: #000000; stroke-width: 0.8; stroke-linejoin: miter; stroke-linecap: square"/>
   </g>
   <g id="patch_10">
    <path d="M 57.6 213.662118 
L 414.72 213.662118 
" style="fill: none; stroke: #000000; stroke-width: 0.8; stroke-linejoin: miter; stroke-linecap: square"/>
   </g>
   <g id="patch_11">
    <path d="M 57.6 135.393882 
L 414.72 135.393882 
" style="fill: none; stroke: #000000; stroke-width: 0.8; stroke-linejoin: miter; stroke-linecap: square"/>
   </g>
   <g id="text_22">
    <!-- accel bias error -->
    <g transform="translate(189.91125 129.393882) scale(0.12 -0.12)">
     <use xlink:href="#DejaVuSans-61"/>
     <use xlink:href="#DejaVuSans-63" x="61.279297"/>
     <use xlink:href="#DejaVuSans-63" x="116.259766"/>
     <use xlink:href="#DejaVuSans-65" x="171.240234"/>
     <use xlink:href="#DejaVuSans-6c" x="232.763672"/>
     <use xlink:href="#DejaVuSans-20" x="260.546875"/>
     <use xlink:href="#DejaVuSans-62" x="292.333984"/>
     <use xlink:href="#DejaVuSans-69" x="355.810547"/>
     <use xlink:href="#DejaVuSans-61" x="383.59375"/>
     <use xlink:href="#DejaVuSans-73" x="444.873047"/>
     <use xlink:href="#DejaVuSans-20" x="496.972656"/>
     <use xlink:href="#DejaVuSans-65" x="528.759766"/>
     <use xlink:href="#DejaVuSans-72" x="590.283203"/>
     <use xlink:href="#DejaVuSans-72" x="629.646484"/>
     <use xlink:href="#DejaVuSans-6f" x="668.509766"/>
     <use xlink:href="#DejaVuSans-72" x="729.691406"/>
    </g>
   </g>
  </g>
  <g id="axes_3">
   <g id="patch_12">
    <path d="M 57.6 307.584 
L 414.72 307.584 
L 414.72 229.315765 
L 57.6 229.315765 
z
" style="fill: #ffffff"/>
   </g>
   <g id="matplotlib.axis_5">
    <g id="xtick_13">
     <g id="line2d_43">
      <path d="M 73.832727 307.584 
L 73.832727 229.315765 
" clip-path="url(#pba254ec731)" style="fill: none; stroke: #b0b0b0; stroke-width: 0.8; stroke-linecap: square"/>
     </g>
     <g id="line2d_44">
      <g>
       <use xlink:href="#m40d993a1fa" x="73.832727" y="307.584" style="stroke: #000000; stroke-width: 0.8"/>
      </g>
     </g>
     <g id="text_23">
      <!-- 0 -->
      <g transform="translate(70.651477 322.182437) scale(0.1 -0.1)">
       <use xlink:href="#DejaVuSans-30"/>
      </g>
     </g>
    </g>
    <g id="xtick_14">
     <g id="line2d_45">
      <path d="M 137.570696 307.584 
L 137.570696 229.315765 
" clip-path="url(#pba254ec731)" style="fill: none; stroke: #b0b0b0; stroke-width: 0.8; stroke-linecap: square"/>
     </g>
     <g id="line2d_46">
      <g>
       <use xlink:href="#m40d993a1fa" x="137.570696" y="307.584" style="stroke: #000000; stroke-width: 0.8"/>
      </g>
     </g>
     <g id="text_24">
      <!-- 50 -->
      <g transform="translate(131.208196 322.182437) scale(0.1 -0.1)">
       <use xlink:href="#DejaVuSans-35"/>
       <use xlink:href="#DejaVuSans-30" x="63.623047"/>
      </g>
     </g>
    </g>
    <g id="xtick_15">
     <g id="line2d_47">
      <path d="M 201.308665 307.584 
L 201.308665 229.315765 
" clip-path="url(#pba254ec731)" style="fill: none; stroke: #b0b0b0; stroke-width: 0.8; stroke-linecap: square"/>
     </g>
     <g id="line2d_48">
      <g>
       <use xlink:href="#m40d993a1fa" x="201.308665" y="307.584" style="stroke: #000000; stroke-width: 0.8"/>
      </g>
     </g>
     <g id="text_25">
      <!-- 100 -->
      <g transform="translate(191.764915 322.182437) scale(0.1 -0.1)">
       <use xlink:href="#DejaVuSans-31"/>
       <use xlink:href="#DejaVuSans-30" x="63.623047"/>
       <use xlink:href="#DejaVuSans-30" x="127.246094"/>
      </g>
     </g>
    </g>
    <g id="xtick_16">
     <g id="line2d_49">
      <path d="M 265.046634 307.584 
L 265.046634 229.315765 
" clip-path="url(#pba254ec731)" style="fill: none; stroke: #b0b0b0; stroke-width: 0.8; stroke-linecap: square"/>
     </g>
     <g id="line2d_50">
      <g>
       <use xlink:href="#m40d993a1fa" x="265.046634" y="307.584" style="stroke: #000000; stroke-width: 0.8"/>
      </g>
     </g>
     <g id="text_26">
      <!-- 150 -->
      <g transform="translate(255.502884 322.182437) scale(0.1 -0.1)">
       <use xlink:href="#DejaVuSans-31"/>
       <use xlink:href="#DejaVuSans-35" x="63.623047"/>
       <use xlink:href="#DejaVuSans-30" x="127.246094"/>
      </g>
     </g>
    </g>
    <g id="xtick_17">
     <g id="line2d_51">
      <path d="M 328.784603 307.584 
L 328.784603 229.315765 
" clip-path="url(#pba254ec731)" style="fill: none; stroke: #b0b0b0; stroke-width: 0.8; stroke-linecap: square"/>
     </g>
     <g id="line2d_52">
      <g>
       <use xlink:href="#m40d993a1fa" x="328.784603" y="307.584" style="stroke: #000000; stroke-width: 0.8"/>
      </g>
     </g>
     <g id="text_27">
      <!-- 200 -->
      <g transform="translate(319.240853 322.182437) scale(0.1 -0.1)">
       <use xlink:href="#DejaVuSans-32"/>
       <use xlink:href="#DejaVuSans-30" x="63.623047"/>
       <use xlink:href="#DejaVuSans-30" x="127.246094"/>
      </g>
     </g>
    </g>
    <g id="xtick_18">
     <g id="line2d_53">
      <path d="M 392.522572 307.584 
L 392.522572 229.315765 
" clip-path="url(#pba254ec731)" style="fill: none; stroke: #b0b0b0; stroke-width: 0.8; stroke-linecap: square"/>
     </g>
     <g id="line2d_54">
      <g>
       <use xlink:href="#m40d993a1fa" x="392.522572" y="307.584" style="stroke: #000000; stroke-width: 0.8"/>
      </g>
     </g>
     <g id="text_28">
      <!-- 250 -->
      <g transform="translate(382.978822 322.182437) scale(0.1 -0.1)">
       <use xlink:href="#DejaVuSans-32"/>
       <use xlink:href="#DejaVuSans-35" x="63.623047"/>
       <use xlink:href="#DejaVuSans-30" x="127.246094"/>
      </g>
     </g>
    </g>
    <g id="text_29">
     <!-- t (s) -->
     <g transform="translate(226.104531 335.860562) scale(0.1 -0.1)">
      <defs>
       <path id="DejaVuSans-74" d="M 1172 4494 
L 1172 3500 
L 2356 3500 
L 2356 3053 
L 1172 3053 
L 1172 1153 
Q 1172 725 1289 603 
Q 1406 481 1766 481 
L 2356 481 
L 2356 0 
L 1766 0 
Q 1100 0 847 248 
Q 594 497 594 1153 
L 594 3053 
L 172 3053 
L 172 3500 
L 594 3500 
L 594 4494 
L 1172 4494 
z
" transform="scale(0.015625)"/>
       <path id="DejaVuSans-28" d="M 1984 4856 
Q 1566 4138 1362 3434 
Q 1159 2731 1159 2009 
Q 1159 1288 1364 580 
Q 1569 -128 1984 -844 
L 1484 -844 
Q 1016 -109 783 600 
Q 550 1309 550 2009 
Q 550 2706 781 3412 
Q 1013 4119 1484 4856 
L 1984 4856 
z
" transform="scale(0.015625)"/>
       <path id="DejaVuSans-29" d="M 513 4856 
L 1013 4856 
Q 1481 4119 1714 3412 
Q 1947 2706 1947 2009 
Q 1947 1309 1714 600 
Q 1481 -109 1013 -844 
L 513 -844 
Q 928 -128 1133 580 
Q 1338 1288 1338 2009 
Q 1338 2731 1133 3434 
Q 928 4138 513 4856 
z
" transform="scale(0.015625)"/>
      </defs>
      <use xlink:href="#DejaVuSans-74"/>
      <use xlink:href="#DejaVuSans-20" x="39.208984"/>
      <use xlink:href="#DejaVuSans-28" x="70.996094"/>
      <use xlink:href="#DejaVuSans-73" x="110.009766"/>
      <use xlink:href="#DejaVuSans-29" x="162.109375"/>
     </g>
    </g>
   </g>
   <g id="matplotlib.axis_6">
    <g id="ytick_7">
     <g id="line2d_55">
      <path d="M 57.6 298.096903 
L 414.72 298.096903 
" clip-path="url(#pba254ec731)" style="fill: none; stroke: #b0b0b0; stroke-width: 0.8; stroke-linecap: square"/>
     </g>
     <g id="line2d_56">
      <g>
       <use xlink:href="#m646da31e6b" x="57.6" y="298.096903" style="stroke: #000000; stroke-width: 0.8"/>
      </g>
     </g>
     <g id="text_30">
      <!-- −0.05 -->
      <g transform="translate(19.954687 301.896122) scale(0.1 -0.1)">
       <use xlink:href="#DejaVuSans-2212"/>
       <use xlink:href="#DejaVuSans-30" x="83.789062"/>
       <use xlink:href="#DejaVuSans-2e" x="147.412109"/>
       <use xlink:href="#DejaVuSans-30" x="179.199219"/>
       <use xlink:href="#DejaVuSans-35" x="242.822266"/>
      </g>
     </g>
    </g>
    <g id="ytick_8">
     <g id="line2d_57">
      <path d="M 57.6 268.449882 
L 414.72 268.449882 
" clip-path="url(#pba254ec731)" style="fill: none; stroke: #b0b0b0; stroke-width: 0.8; stroke-linecap: square"/>
     </g>
     <g id="line2d_58">
      <g>
       <use xlink:href="#m646da31e6b" x="57.6" y="268.449882" style="stroke: #000000; stroke-width: 0.8"/>
      </g>
     </g>
     <g id="text_31">
      <!-- 0.00 -->
      <g transform="translate(28.334375 272.249101) scale(0.1 -0.1)">
       <use xlink:href="#DejaVuSans-30"/>
       <use xlink:href="#DejaVuSans-2e" x="63.623047"/>
       <use xlink:href="#DejaVuSans-30" x="95.410156"/>
       <use xlink:href="#DejaVuSans-30" x="159.033203"/>
      </g>
     </g>
    </g>
    <g id="ytick_9">
     <g id="line2d_59">
      <path d="M 57.6 238.802862 
L 414.72 238.802862 
" clip-path="url(#pba254ec731)" style="fill: none; stroke: #b0b0b0; stroke-width: 0.8; stroke-linecap: square"/>
     </g>
     <g id="line2d_60">
      <g>
       <use xlink:href="#m646da31e6b" x="57.6" y="238.802862" style="stroke: #000000; stroke-width: 0.8"/>
      </g>
     </g>
     <g id="text_32">
      <!-- 0.05 -->
      <g transform="translate(28.334375 242.602081) scale(0.1 -0.1)">
       <use xlink:href="#DejaVuSans-30"/>
       <use xlink:href="#DejaVuSans-2e" x="63.623047"/>
       <use xlink:href="#DejaVuSans-30" x="95.410156"/>
       <use xlink:href="#DejaVuSans-35" x="159.033203"/>
      </g>
     </g>
    </g>
    <g id="text_33">
     <!-- ba_z -->
     <g transform="translate(13.596875 279.812382) rotate(-90) scale(0.1 -0.1)">
      <defs>
       <path id="DejaVuSans-7a" d="M 353 3500 
L 3084 3500 
L 3084 2975 
L 922 459 
L 3084 459 
L 3084 0 
L 275 0 
L 275 525 
L 2438 3041 
L 353 3041 
L 353 3500 
z
" transform="scale(0.015625)"/>
      </defs>
      <use xlink:href="#DejaVuSans-62"/>
      <use xlink:href="#DejaVuSans-61" x="63.476562"/>
      <use xlink:href="#DejaVuSans-5f" x="124.755859"/>
      <use xlink:href="#DejaVuSans-7a" x="174.755859"/>
     </g>
    </g>
   </g>
   <g id="line2d_61">
    <path d="M 73.832727 268.449882 
L 398.487273 268.449882 
L 398.487273 268.449882 
" clip-path="url(#pba254ec731)" style="fill: none; stroke: #1f77b4; stroke-width: 1.5; stroke-linecap: square"/>
   </g>
   <g id="line2d_62">
    <path d="M 73.832727 232.87343 
L 80.004941 232.98125 
L 80.146816 232.986259 
L 84.466942 233.095295 
L 84.602483 233.101569 
L 87.653327 233.210513 
L 87.782418 233.217786 
L 90.713153 233.3276 
L 90.842243 233.334868 
L 93.836875 233.443363 
L 93.967238 233.450314 
L 97.151015 233.558309 
L 97.283939 233.564512 
L 100.975173 233.673367 
L 101.111872 233.678745 
L 105.245256 233.787355 
L 105.388404 233.792367 
L 109.643191 233.901404 
L 109.79145 233.905921 
L 115.124926 234.014687 
L 115.298747 234.017893 
L 145.145649 234.11813 
L 145.45616 234.12047 
L 148.651325 234.228904 
L 148.767629 234.239498 
L 149.735127 234.342457 
L 149.848934 234.359314 
L 150.563315 234.46595 
L 150.677063 234.487673 
L 151.264978 234.593841 
L 151.378727 234.619481 
L 151.837549 234.716114 
L 151.951357 234.745393 
L 152.411463 234.85599 
L 152.525151 234.889935 
L 152.921354 234.996748 
L 153.035102 235.03393 
L 153.367406 235.131755 
L 153.481148 235.172868 
L 153.813447 235.279797 
L 153.927195 235.323829 
L 154.196868 235.414231 
L 154.310617 235.459218 
L 154.579011 235.549458 
L 154.692819 235.595049 
L 154.961215 235.684453 
L 155.074904 235.728182 
L 155.407203 235.835755 
L 155.520951 235.876941 
L 155.853251 235.97648 
L 155.966999 236.01459 
L 156.299298 236.10808 
L 156.413046 236.144126 
L 156.809249 236.247839 
L 156.923057 236.281472 
L 157.319259 236.378989 
L 157.432949 236.410589 
L 157.893057 236.517782 
L 158.006805 236.547494 
L 158.466913 236.649555 
L 158.580661 236.677807 
L 159.104672 236.787969 
L 159.218434 236.814827 
L 159.741213 236.920341 
L 159.854902 236.946348 
L 160.378915 237.048846 
L 160.492663 237.073814 
L 161.08058 237.181032 
L 161.194329 237.203231 
L 161.844871 237.306043 
L 161.958623 237.325504 
L 162.73697 237.434634 
L 162.851998 237.451343 
L 163.756878 237.559121 
L 163.871906 237.57323 
L 164.968559 237.682613 
L 165.083605 237.694722 
L 166.242749 237.803913 
L 166.357779 237.816556 
L 167.45443 237.926966 
L 167.569458 237.940162 
L 168.600814 238.049738 
L 168.715842 238.064102 
L 169.620784 238.171462 
L 169.734475 238.187831 
L 170.512829 238.291631 
L 170.626578 238.309646 
L 171.342307 238.411542 
L 171.456057 238.430548 
L 172.170567 238.537607 
L 172.284258 238.557624 
L 172.934804 238.660189 
L 173.048555 238.681278 
L 173.70038 238.789711 
L 173.814137 238.812008 
L 174.400832 238.914527 
L 174.514523 238.93785 
L 175.102507 239.044987 
L 175.216195 239.069339 
L 175.804117 239.17997 
L 175.917868 239.204707 
L 176.440607 239.305838 
L 176.554361 239.33149 
L 177.078435 239.435083 
L 177.192126 239.461325 
L 177.716144 239.568133 
L 177.829894 239.595297 
L 178.28873 239.692241 
L 178.402482 239.720145 
L 178.862596 239.81925 
L 178.976405 239.848042 
L 179.43652 239.949356 
L 179.550211 239.97884 
L 180.010326 240.082796 
L 180.124076 240.112833 
L 180.58419 240.219132 
L 180.697942 240.249853 
L 181.158057 240.35868 
L 181.271807 240.390162 
L 181.666799 240.485643 
L 181.780491 240.517787 
L 182.176701 240.615226 
L 182.290452 240.648055 
L 182.686663 240.747517 
L 182.800413 240.780991 
L 183.196625 240.882247 
L 183.310376 240.916343 
L 183.706586 241.019539 
L 183.820397 241.054217 
L 184.216607 241.159222 
L 184.3303 241.19452 
L 184.726511 241.301235 
L 184.840263 241.337056 
L 185.236473 241.445394 
L 185.350225 241.481653 
L 185.74644 241.591239 
L 185.860188 241.627981 
L 186.256403 241.738841 
L 186.37021 241.776106 
L 186.702517 241.869674 
L 186.816209 241.907134 
L 187.148515 242.001522 
L 187.262267 242.039397 
L 187.594574 242.134686 
L 187.708326 242.172976 
L 188.040633 242.269059 
L 188.154387 242.307644 
L 188.48797 242.4044 
L 188.601721 242.443228 
L 188.934029 242.540956 
L 189.047838 242.5801 
L 189.380146 242.678562 
L 189.493839 242.718113 
L 189.826148 242.817153 
L 189.939898 242.856863 
L 190.272227 242.956613 
L 190.385958 242.996617 
L 190.718266 243.096946 
L 190.832017 243.137122 
L 191.164325 243.237859 
L 191.278135 243.27828 
L 191.610444 243.379496 
L 191.724148 243.420145 
L 192.056445 243.52173 
L 192.170197 243.562372 
L 192.502505 243.664231 
L 192.616257 243.705015 
L 192.948566 243.80708 
L 193.062318 243.847971 
L 193.394626 243.950383 
L 193.508437 243.991354 
L 193.840746 244.093713 
L 193.954438 244.134805 
L 194.288085 244.237168 
L 194.401777 244.277984 
L 194.734086 244.379635 
L 194.847838 244.420254 
L 195.180147 244.521981 
L 195.293899 244.562795 
L 195.626208 244.664309 
L 195.73996 244.704875 
L 196.07227 244.806165 
L 196.186081 244.846686 
L 196.518423 244.947697 
L 196.632084 244.988053 
L 196.964393 245.088882 
L 197.078145 245.129183 
L 197.410455 245.229598 
L 197.524207 245.269775 
L 197.856517 245.369906 
L 197.970269 245.409911 
L 198.302582 245.509919 
L 198.41639 245.549802 
L 198.748701 245.649241 
L 198.862394 245.689032 
L 199.194703 245.78808 
L 199.308457 245.827661 
L 199.642045 245.926274 
L 199.755798 245.96572 
L 200.088107 246.064103 
L 200.20186 246.103351 
L 200.534171 246.201313 
L 200.647923 246.240399 
L 200.980233 246.337769 
L 201.094045 246.376727 
L 201.426356 246.473778 
L 201.540049 246.512427 
L 201.87236 246.608914 
L 201.986113 246.647367 
L 202.318424 246.743278 
L 202.432175 246.78157 
L 202.764486 246.876979 
L 202.878239 246.915053 
L 203.210551 247.00996 
L 203.324362 247.04785 
L 203.656674 247.142342 
L 203.770383 247.179977 
L 204.102679 247.273749 
L 204.216432 247.311248 
L 204.548743 247.404458 
L 204.662496 247.441579 
L 204.996085 247.534209 
L 205.109838 247.571148 
L 205.50478 247.681305 
L 205.618589 247.717949 
L 206.014808 247.827483 
L 206.128501 247.863761 
L 206.524719 247.972292 
L 206.638472 248.008296 
L 207.03469 248.115973 
L 207.148444 248.151669 
L 207.544662 248.258074 
L 207.658415 248.293444 
L 208.054633 248.398468 
L 208.168445 248.433389 
L 208.564664 248.537619 
L 208.678359 248.572126 
L 209.074577 248.674802 
L 209.18833 248.708943 
L 209.584549 248.810752 
L 209.698303 248.844566 
L 210.094522 248.945151 
L 210.208275 248.978546 
L 210.604493 249.078207 
L 210.718306 249.111247 
L 211.114526 249.20984 
L 211.22822 249.242592 
L 211.62444 249.340185 
L 211.738193 249.37267 
L 212.134412 249.469233 
L 212.248169 249.501253 
L 212.644385 249.596877 
L 212.758142 249.62857 
L 213.218265 249.738766 
L 213.332077 249.770062 
L 213.790867 249.878931 
L 213.904621 249.909853 
L 214.364747 250.017341 
L 214.4785 250.047854 
L 214.938628 250.153835 
L 215.052381 250.183937 
L 215.512508 250.288581 
L 215.626321 250.318245 
L 216.086392 250.421493 
L 216.200143 250.450809 
L 216.658991 250.552598 
L 216.772746 250.581433 
L 217.232878 250.681784 
L 217.346626 250.710208 
L 217.806754 250.809194 
L 217.920566 250.837181 
L 218.380694 250.934578 
L 218.494388 250.962183 
L 219.018423 251.071841 
L 219.132203 251.098892 
L 219.654932 251.205944 
L 219.768686 251.232431 
L 220.292721 251.337761 
L 220.406534 251.363855 
L 220.930568 251.467034 
L 221.044264 251.49252 
L 221.56702 251.594089 
L 221.680774 251.619312 
L 222.204809 251.718921 
L 222.318567 251.743626 
L 222.905287 251.853715 
L 223.018981 251.877969 
L 223.606923 251.986102 
L 223.720676 252.009958 
L 224.308619 252.116113 
L 224.422374 252.139546 
L 225.009037 252.243805 
L 225.122795 252.266745 
L 225.710794 252.368943 
L 225.824488 252.391551 
L 226.411153 252.492468 
L 226.524907 252.514722 
L 227.176757 252.624893 
L 227.290511 252.646781 
L 227.941143 252.755233 
L 228.054838 252.776803 
L 228.705411 252.883693 
L 228.819166 252.904914 
L 229.471016 253.010117 
L 229.584771 253.03103 
L 230.235402 253.13475 
L 230.349097 253.155349 
L 231.000949 253.257597 
L 231.114704 253.277908 
L 231.765277 253.37865 
L 231.879035 253.398649 
L 232.593571 253.507739 
L 232.707267 253.527248 
L 233.423027 253.633936 
L 233.536781 253.653205 
L 234.251262 253.757951 
L 234.365018 253.776843 
L 235.079559 253.879585 
L 235.193253 253.898092 
L 235.971643 254.008009 
L 236.085397 254.026144 
L 236.865066 254.133826 
L 236.97882 254.151601 
L 237.75727 254.257321 
L 237.870965 254.274781 
L 238.649356 254.378447 
L 238.763111 254.395541 
L 239.605409 254.505734 
L 239.719168 254.52253 
L 240.561464 254.630418 
L 240.676497 254.646931 
L 241.517518 254.752595 
L 241.631272 254.768664 
L 242.473632 254.871541 
L 242.587328 254.887095 
L 243.493535 254.994169 
L 243.608568 255.009218 
L 244.513498 255.113102 
L 244.628532 255.127726 
L 245.596095 255.235894 
L 245.711126 255.250122 
L 246.679967 255.355187 
L 246.794998 255.369044 
L 247.827745 255.478007 
L 247.942778 255.491424 
L 248.974248 255.597157 
L 249.089281 255.610189 
L 250.185936 255.719394 
L 250.300971 255.732065 
L 251.39635 255.838066 
L 251.511383 255.850391 
L 252.671948 255.959 
L 252.788318 255.970874 
L 253.946269 256.075441 
L 254.062582 256.086894 
L 255.284499 256.193098 
L 255.400811 256.204067 
L 256.686697 256.311472 
L 256.80295 256.322009 
L 258.152684 256.43018 
L 258.268997 256.440269 
L 259.68264 256.548772 
L 259.80023 256.558429 
L 261.276505 256.666789 
L 261.394096 256.675999 
L 262.933001 256.783962 
L 263.050611 256.792753 
L 264.654685 256.899953 
L 264.773555 256.908317 
L 266.43906 257.014278 
L 266.556593 257.022242 
L 268.351135 257.13057 
L 268.470004 257.138115 
L 270.327178 257.244171 
L 270.447327 257.2513 
L 272.49367 257.359888 
L 272.615096 257.366341 
L 274.787986 257.472173 
L 274.910686 257.478116 
L 277.27402 257.583969 
L 277.398003 257.589463 
L 279.951787 257.696333 
L 280.077108 257.701574 
L 282.692187 257.807495 
L 282.817449 257.812617 
L 285.496556 257.918562 
L 285.621758 257.923524 
L 288.428622 258.029006 
L 288.560274 258.035809 
L 291.679013 258.142631 
L 291.804332 258.147715 
L 294.228962 258.255753 
L 294.350388 258.261907 
L 296.587183 258.367592 
L 296.709887 258.373289 
L 299.13585 258.479707 
L 299.257276 258.485783 
L 301.367531 258.591341 
L 301.487678 258.598222 
L 303.27967 258.703089 
L 303.398538 258.711184 
L 305.000082 258.818457 
L 305.117678 258.827379 
L 306.593956 258.933565 
L 306.71027 258.943129 
L 308.12393 259.048823 
L 308.240234 259.058496 
L 309.652605 259.164871 
L 309.770196 259.174583 
L 311.182566 259.279628 
L 311.298879 259.289134 
L 312.776433 259.39499 
L 312.894083 259.40395 
L 314.432928 259.509344 
L 314.55052 259.517936 
L 316.218517 259.625435 
L 316.337387 259.633432 
L 318.130643 259.740196 
L 318.249571 259.74751 
L 320.233213 259.854431 
L 320.354638 259.860926 
L 322.591416 259.968028 
L 322.714123 259.973703 
L 325.269161 260.079578 
L 325.395698 260.084449 
L 328.39171 260.189179 
L 328.524635 260.195302 
L 332.343783 260.299839 
L 332.486937 260.304565 
L 337.506283 260.407077 
L 337.672446 260.410415 
L 344.644838 260.510343 
L 344.84551 260.513523 
L 353.632911 260.610182 
L 353.84892 260.613 
L 362.427952 260.709904 
L 362.635013 260.713094 
L 370.332075 260.811627 
L 370.518686 260.814269 
L 376.450655 260.915643 
L 376.600141 260.919645 
L 380.976534 261.023393 
L 381.114574 261.028614 
L 385.05512 261.132034 
L 385.19322 261.137337 
L 389.007174 261.240674 
L 389.149108 261.245847 
L 393.277549 261.34867 
L 393.419365 261.353362 
L 398.121764 261.455508 
L 398.275143 261.459232 
L 398.487273 261.462782 
L 398.487273 261.462782 
" clip-path="url(#pba254ec731)" style="fill: none; stroke: #ff0000; stroke-width: 0.5; stroke-linecap: square"/>
   </g>
   <g id="line2d_63">
    <path d="M 73.832727 304.026334 
L 80.004941 303.918515 
L 80.146816 303.913506 
L 84.466942 303.804469 
L 84.602483 303.798196 
L 87.653327 303.689252 
L 87.782418 303.681979 
L 90.713153 303.572165 
L 90.842243 303.564897 
L 93.836875 303.456402 
L 93.967238 303.44945 
L 97.151015 303.341455 
L 97.283939 303.335253 
L 100.975173 303.226398 
L 101.111872 303.221019 
L 105.245256 303.11241 
L 105.388404 303.107397 
L 109.643191 302.998361 
L 109.79145 302.993844 
L 115.124926 302.885078 
L 115.298747 302.881871 
L 145.145649 302.781634 
L 145.45616 302.779295 
L 148.651325 302.670861 
L 148.767629 302.660267 
L 149.735127 302.557308 
L 149.848934 302.54045 
L 150.563315 302.433815 
L 150.677063 302.412092 
L 151.264978 302.305923 
L 151.378727 302.280283 
L 151.837549 302.18365 
L 151.951357 302.154372 
L 152.411463 302.043774 
L 152.525151 302.009829 
L 152.921354 301.903016 
L 153.035102 301.865835 
L 153.367406 301.768009 
L 153.481148 301.726897 
L 153.813447 301.619967 
L 153.927195 301.575936 
L 154.196868 301.485534 
L 154.310617 301.440547 
L 154.579011 301.350307 
L 154.692819 301.304716 
L 154.961215 301.215311 
L 155.074904 301.171582 
L 155.407203 301.06401 
L 155.520951 301.022824 
L 155.853251 300.923285 
L 155.966999 300.885174 
L 156.299298 300.791685 
L 156.413046 300.755639 
L 156.809249 300.651926 
L 156.923057 300.618293 
L 157.319259 300.520776 
L 157.432949 300.489176 
L 157.893057 300.381983 
L 158.006805 300.352271 
L 158.466913 300.25021 
L 158.580661 300.221957 
L 159.104672 300.111795 
L 159.218434 300.084938 
L 159.741213 299.979424 
L 159.854902 299.953417 
L 160.378915 299.850918 
L 160.492663 299.825951 
L 161.08058 299.718733 
L 161.194329 299.696534 
L 161.844871 299.593722 
L 161.958623 299.574261 
L 162.73697 299.46513 
L 162.851998 299.448422 
L 163.756878 299.340644 
L 163.871906 299.326535 
L 164.968559 299.217152 
L 165.083605 299.205043 
L 166.242749 299.095852 
L 166.357779 299.083209 
L 167.45443 298.972799 
L 167.569458 298.959602 
L 168.600814 298.850026 
L 168.715842 298.835662 
L 169.620784 298.728303 
L 169.734475 298.711934 
L 170.512829 298.608134 
L 170.626578 298.590119 
L 171.342307 298.488222 
L 171.456057 298.469216 
L 172.170567 298.362158 
L 172.284258 298.342141 
L 172.934804 298.239576 
L 173.048555 298.218487 
L 173.70038 298.110053 
L 173.814137 298.087757 
L 174.400832 297.985237 
L 174.514523 297.961915 
L 175.102507 297.854778 
L 175.216195 297.830426 
L 175.804117 297.719794 
L 175.917868 297.695058 
L 176.440607 297.593927 
L 176.554361 297.568274 
L 177.078435 297.464682 
L 177.192126 297.438439 
L 177.716144 297.331632 
L 177.829894 297.304468 
L 178.28873 297.207524 
L 178.402482 297.17962 
L 178.862596 297.080515 
L 178.976405 297.051723 
L 179.43652 296.950409 
L 179.550211 296.920925 
L 180.010326 296.816969 
L 180.124076 296.786931 
L 180.58419 296.680632 
L 180.697942 296.649912 
L 181.158057 296.541085 
L 181.271807 296.509603 
L 181.666799 296.414121 
L 181.780491 296.381978 
L 182.176701 296.284539 
L 182.290452 296.25171 
L 182.686663 296.152248 
L 182.800413 296.118773 
L 183.196625 296.017517 
L 183.310376 295.983422 
L 183.706586 295.880225 
L 183.820397 295.845548 
L 184.216607 295.740543 
L 184.3303 295.705245 
L 184.726511 295.59853 
L 184.840263 295.562708 
L 185.236473 295.45437 
L 185.350225 295.418111 
L 185.74644 295.308526 
L 185.860188 295.271784 
L 186.256403 295.160924 
L 186.37021 295.123659 
L 186.702517 295.03009 
L 186.816209 294.99263 
L 187.148515 294.898242 
L 187.262267 294.860368 
L 187.594574 294.765079 
L 187.708326 294.726788 
L 188.040633 294.630706 
L 188.154387 294.592121 
L 188.48797 294.495365 
L 188.601721 294.456536 
L 188.934029 294.358809 
L 189.047838 294.319665 
L 189.380146 294.221202 
L 189.493839 294.181652 
L 189.826148 294.082612 
L 189.939898 294.042901 
L 190.272227 293.943152 
L 190.385958 293.903147 
L 190.718266 293.802818 
L 190.832017 293.762643 
L 191.164325 293.661905 
L 191.278135 293.621485 
L 191.610444 293.520269 
L 191.724148 293.47962 
L 192.056445 293.378035 
L 192.170197 293.337393 
L 192.502505 293.235534 
L 192.616257 293.19475 
L 192.948566 293.092685 
L 193.062318 293.051794 
L 193.394626 292.949381 
L 193.508437 292.90841 
L 193.840746 292.806052 
L 193.954438 292.76496 
L 194.288085 292.662596 
L 194.401777 292.62178 
L 194.734086 292.52013 
L 194.847838 292.479511 
L 195.180147 292.377783 
L 195.293899 292.336969 
L 195.626208 292.235456 
L 195.73996 292.19489 
L 196.07227 292.0936 
L 196.186081 292.053079 
L 196.518423 291.952067 
L 196.632084 291.911711 
L 196.964393 291.810882 
L 197.078145 291.770582 
L 197.410455 291.670167 
L 197.524207 291.62999 
L 197.856517 291.529859 
L 197.970269 291.489854 
L 198.302582 291.389846 
L 198.41639 291.349963 
L 198.748701 291.250524 
L 198.862394 291.210733 
L 199.194703 291.111685 
L 199.308457 291.072103 
L 199.642045 290.97349 
L 199.755798 290.934044 
L 200.088107 290.835662 
L 200.20186 290.796414 
L 200.534171 290.698452 
L 200.647923 290.659365 
L 200.980233 290.561995 
L 201.094045 290.523037 
L 201.426356 290.425987 
L 201.540049 290.387338 
L 201.87236 290.29085 
L 201.986113 290.252398 
L 202.318424 290.156487 
L 202.432175 290.118195 
L 202.764486 290.022786 
L 202.878239 289.984712 
L 203.210551 289.889804 
L 203.324362 289.851914 
L 203.656674 289.757423 
L 203.770383 289.719788 
L 204.102679 289.626016 
L 204.216432 289.588516 
L 204.548743 289.495306 
L 204.662496 289.458185 
L 204.996085 289.365556 
L 205.109838 289.328616 
L 205.50478 289.218459 
L 205.618589 289.181816 
L 206.014808 289.072282 
L 206.128501 289.036004 
L 206.524719 288.927473 
L 206.638472 288.891469 
L 207.03469 288.783792 
L 207.148444 288.748096 
L 207.544662 288.641691 
L 207.658415 288.60632 
L 208.054633 288.501297 
L 208.168445 288.466376 
L 208.564664 288.362146 
L 208.678359 288.327639 
L 209.074577 288.224963 
L 209.18833 288.190822 
L 209.584549 288.089012 
L 209.698303 288.055198 
L 210.094522 287.954613 
L 210.208275 287.921219 
L 210.604493 287.821558 
L 210.718306 287.788518 
L 211.114526 287.689925 
L 211.22822 287.657173 
L 211.62444 287.559579 
L 211.738193 287.527095 
L 212.134412 287.430532 
L 212.248169 287.398512 
L 212.644385 287.302888 
L 212.758142 287.271194 
L 213.218265 287.160999 
L 213.332077 287.129703 
L 213.790867 287.020833 
L 213.904621 286.989912 
L 214.364747 286.882424 
L 214.4785 286.851911 
L 214.938628 286.74593 
L 215.052381 286.715828 
L 215.512508 286.611184 
L 215.626321 286.58152 
L 216.086392 286.478271 
L 216.200143 286.448955 
L 216.658991 286.347166 
L 216.772746 286.318331 
L 217.232878 286.217981 
L 217.346626 286.189557 
L 217.806754 286.090571 
L 217.920566 286.062584 
L 218.380694 285.965187 
L 218.494388 285.937581 
L 219.018423 285.827924 
L 219.132203 285.800873 
L 219.654932 285.69382 
L 219.768686 285.667334 
L 220.292721 285.562004 
L 220.406534 285.53591 
L 220.930568 285.43273 
L 221.044264 285.407245 
L 221.56702 285.305676 
L 221.680774 285.280453 
L 222.204809 285.180844 
L 222.318567 285.156139 
L 222.905287 285.04605 
L 223.018981 285.021796 
L 223.606923 284.913663 
L 223.720676 284.889807 
L 224.308619 284.783652 
L 224.422374 284.760218 
L 225.009037 284.65596 
L 225.122795 284.633019 
L 225.710794 284.530821 
L 225.824488 284.508214 
L 226.411153 284.407296 
L 226.524907 284.385043 
L 227.176757 284.274872 
L 227.290511 284.252983 
L 227.941143 284.144532 
L 228.054838 284.122962 
L 228.705411 284.016072 
L 228.819166 283.994851 
L 229.471016 283.889648 
L 229.584771 283.868735 
L 230.235402 283.765015 
L 230.349097 283.744415 
L 231.000949 283.642168 
L 231.114704 283.621857 
L 231.765277 283.521114 
L 231.879035 283.501116 
L 232.593571 283.392026 
L 232.707267 283.372516 
L 233.423027 283.265828 
L 233.536781 283.246559 
L 234.251262 283.141814 
L 234.365018 283.122922 
L 235.079559 283.02018 
L 235.193253 283.001673 
L 235.971643 282.891756 
L 236.085397 282.873621 
L 236.865066 282.765938 
L 236.97882 282.748164 
L 237.75727 282.642444 
L 237.870965 282.624984 
L 238.649356 282.521318 
L 238.763111 282.504223 
L 239.605409 282.39403 
L 239.719168 282.377235 
L 240.561464 282.269347 
L 240.676497 282.252834 
L 241.517518 282.14717 
L 241.631272 282.131101 
L 242.473632 282.028224 
L 242.587328 282.01267 
L 243.493535 281.905595 
L 243.608568 281.890547 
L 244.513498 281.786663 
L 244.628532 281.772038 
L 245.596095 281.663871 
L 245.711126 281.649642 
L 246.679967 281.544578 
L 246.794998 281.530721 
L 247.827745 281.421758 
L 247.942778 281.408341 
L 248.974248 281.302608 
L 249.089281 281.289575 
L 250.185936 281.180371 
L 250.300971 281.1677 
L 251.39635 281.061698 
L 251.511383 281.049374 
L 252.671948 280.940765 
L 252.788318 280.928891 
L 253.946269 280.824323 
L 254.062582 280.812871 
L 255.284499 280.706667 
L 255.400811 280.695698 
L 256.686697 280.588293 
L 256.80295 280.577756 
L 258.152684 280.469584 
L 258.268997 280.459496 
L 259.68264 280.350993 
L 259.80023 280.341335 
L 261.276505 280.232976 
L 261.394096 280.223766 
L 262.933001 280.115803 
L 263.050611 280.107012 
L 264.654685 279.999812 
L 264.773555 279.991448 
L 266.43906 279.885487 
L 266.556593 279.877523 
L 268.351135 279.769194 
L 268.470004 279.76165 
L 270.327178 279.655593 
L 270.447327 279.648465 
L 272.49367 279.539877 
L 272.615096 279.533424 
L 274.787986 279.427592 
L 274.910686 279.421649 
L 277.27402 279.315795 
L 277.398003 279.310302 
L 279.951787 279.203432 
L 280.077108 279.198191 
L 282.692187 279.09227 
L 282.817449 279.087148 
L 285.496556 278.981203 
L 285.621758 278.976241 
L 288.428622 278.870758 
L 288.560274 278.863955 
L 291.679013 278.757134 
L 291.804332 278.75205 
L 294.228962 278.644011 
L 294.350388 278.637858 
L 296.587183 278.532173 
L 296.709887 278.526475 
L 299.13585 278.420058 
L 299.257276 278.413981 
L 301.367531 278.308424 
L 301.487678 278.301543 
L 303.27967 278.196675 
L 303.398538 278.188581 
L 305.000082 278.081307 
L 305.117678 278.072386 
L 306.593956 277.966199 
L 306.71027 277.956636 
L 308.12393 277.850941 
L 308.240234 277.841269 
L 309.652605 277.734894 
L 309.770196 277.725182 
L 311.182566 277.620137 
L 311.298879 277.610631 
L 312.776433 277.504775 
L 312.894083 277.495814 
L 314.432928 277.390421 
L 314.55052 277.381829 
L 316.218517 277.27433 
L 316.337387 277.266333 
L 318.130643 277.159569 
L 318.249571 277.152255 
L 320.233213 277.045334 
L 320.354638 277.038838 
L 322.591416 276.931736 
L 322.714123 276.926062 
L 325.269161 276.820187 
L 325.395698 276.815316 
L 328.39171 276.710586 
L 328.524635 276.704462 
L 332.343783 276.599926 
L 332.486937 276.5952 
L 337.506283 276.492687 
L 337.672446 276.48935 
L 344.644838 276.389422 
L 344.84551 276.386242 
L 353.632911 276.289582 
L 353.84892 276.286765 
L 362.427952 276.18986 
L 362.635013 276.18667 
L 370.332075 276.088137 
L 370.518686 276.085496 
L 376.450655 275.984122 
L 376.600141 275.98012 
L 380.976534 275.876372 
L 381.114574 275.871151 
L 385.05512 275.767731 
L 385.19322 275.762428 
L 389.007174 275.659091 
L 389.149108 275.653917 
L 393.277549 275.551095 
L 393.419365 275.546402 
L 398.121764 275.444257 
L 398.275143 275.440532 
L 398.487273 275.436983 
L 398.487273 275.436983 
" clip-path="url(#pba254ec731)" style="fill: none; stroke: #ff0000; stroke-width: 0.5; stroke-linecap: square"/>
   </g>
   <g id="patch_13">
    <path d="M 57.6 307.584 
L 57.6 229.315765 
" style="fill: none; stroke: #000000; stroke-width: 0.8; stroke-linejoin: miter; stroke-linecap: square"/>
   </g>
   <g id="patch_14">
    <path d="M 414.72 307.584 
L 414.72 229.315765 
" style="fill: none; stroke: #000000; stroke-width: 0.8; stroke-linejoin: miter; stroke-linecap: square"/>
   </g>
   <g id="patch_15">
    <path d="M 57.6 307.584 
L 414.72 307.584 
" style="fill: none; stroke: #000000; stroke-width: 0.8; stroke-linejoin: miter; stroke-linecap: square"/>
   </g>
   <g id="patch_16">
    <path d="M 57.6 229.315765 
L 414.72 229.315765 
" style="fill: none; stroke: #000000; stroke-width: 0.8; stroke-linejoin: miter; stroke-linecap: square"/>
   </g>
   <g id="text_34">
    <!-- accel bias error -->
    <g transform="translate(189.91125 223.315765) scale(0.12 -0.12)">
     <use xlink:href="#DejaVuSans-61"/>
     <use xlink:href="#DejaVuSans-63" x="61.279297"/>
     <use xlink:href="#DejaVuSans-63" x="116.259766"/>
     <use xlink:href="#DejaVuSans-65" x="171.240234"/>
     <use xlink:href="#DejaVuSans-6c" x="232.763672"/>
     <use xlink:href="#DejaVuSans-20" x="260.546875"/>
     <use xlink:href="#DejaVuSans-62" x="292.333984"/>
     <use xlink:href="#DejaVuSans-69" x="355.810547"/>
     <use xlink:href="#DejaVuSans-61" x="383.59375"/>
     <use xlink:href="#DejaVuSans-73" x="444.873047"/>
     <use xlink:href="#DejaVuSans-20" x="496.972656"/>
     <use xlink:href="#DejaVuSans-65" x="528.759766"/>
     <use xlink:href="#DejaVuSans-72" x="590.283203"/>
     <use xlink:href="#DejaVuSans-72" x="629.646484"/>
     <use xlink:href="#DejaVuSans-6f" x="668.509766"/>
     <use xlink:href="#DejaVuSans-72" x="729.691406"/>
    </g>
   </g>
   <g id="legend_1">
    <g id="patch_17">
     <path d="M 212.752187 251.99389 
L 259.567813 251.99389 
Q 261.567813 251.99389 261.567813 249.99389 
L 261.567813 236.315765 
Q 261.567813 234.315765 259.567813 234.315765 
L 212.752187 234.315765 
Q 210.752187 234.315765 210.752187 236.315765 
L 210.752187 249.99389 
Q 210.752187 251.99389 212.752187 251.99389 
z
" style="fill: #ffffff; opacity: 0.8; stroke: #cccccc; stroke-linejoin: miter"/>
    </g>
    <g id="line2d_64">
     <path d="M 214.752187 242.414202 
L 224.752187 242.414202 
L 234.752187 242.414202 
" style="fill: none; stroke: #1f77b4; stroke-width: 1.5; stroke-linecap: square"/>
    </g>
    <g id="text_35">
     <!-- vio -->
     <g transform="translate(242.752187 245.914202) scale(0.1 -0.1)">
      <defs>
       <path id="DejaVuSans-76" d="M 191 3500 
L 800 3500 
L 1894 563 
L 2988 3500 
L 3597 3500 
L 2284 0 
L 1503 0 
L 191 3500 
z
" transform="scale(0.015625)"/>
      </defs>
      <use xlink:href="#DejaVuSans-76"/>
      <use xlink:href="#DejaVuSans-69" x="59.179688"/>
      <use xlink:href="#DejaVuSans-6f" x="86.962891"/>
     </g>
    </g>
   </g>
  </g>
 </g>
 <defs>
  <clipPath id="pc61cda6133">
   <rect x="57.6" y="41.472" width="357.12" height="78.268235"/>
  </clipPath>
  <clipPath id="p8ecc4647cd">
   <rect x="57.6" y="135.393882" width="357.12" height="78.268235"/>
  </clipPath>
  <clipPath id="pba254ec731">
   <rect x="57.6" y="229.315765" width="357.12" height="78.268235"/>
  </clipPath>
 </defs>
</svg>
