<?xml version="1.0" encoding="utf-8" standalone="no"?>
<!DOCTYPE svg PUBLIC "-//W3C//DTD SVG 1.1//EN"
  "http://www.w3.org/Graphics/SVG/1.1/DTD/svg11.dtd">
<svg xmlns:xlink="http://www.w3.org/1999/xlink" width="460.8pt" height="345.6pt" viewBox="0 0 460.8 345.6" xmlns="http://www.w3.org/2000/svg" version="1.1">
 <metadata>
  <rdf:RDF xmlns:dc="http://purl.org/dc/elements/1.1/" xmlns:cc="http://creativecommons.org/ns#" xmlns:rdf="http://www.w3.org/1999/02/22-rdf-syntax-ns#">
   <cc:Work>
    <dc:type rdf:resource="http://purl.org/dc/dcmitype/StillImage"/>
    <dc:date>2026-01-13T18:46:51.581614</dc:date>
    <dc:format>image/svg+xml</dc:format>
    <dc:creator>
     <cc:Agent>
      <dc:title>Matplotlib v3.9.4, https://matplotlib.org/</dc:title>
     </cc:Agent>
    </dc:creator>
   </cc:Work>
  </rdf:RDF>
 </metadata>
 <defs>
  <style type="text/css">*{stroke-linejoin: round; stroke-linecap: butt}</style>
 </defs>
 <g id="figure_1">
  <g id="patch_1">
   <path d="M 0 345.6 
L 460.8 345.6 
L 460.8 0 
L 0 0 
z
" style="fill: #ffffff"/>
  </g>
  <g id="axes_1">
   <g id="patch_2">
    <path d="M 57.6 119.740235 
L 414.72 119.740235 
L 414.72 41.472 
L 57.6 41.472 
z
" style="fill: #ffffff"/>
   </g>
   <g id="matplotlib.axis_1">
    <g id="xtick_1">
     <g id="line2d_1">
      <path d="M 73.832727 119.740235 
L 73.832727 41.472 
" clip-path="url(#p1434491822)" style="fill: none; stroke: #b0b0b0; stroke-width: 0.8; stroke-linecap: square"/>
     </g>
     <g id="line2d_2">
      <defs>
       <path id="m0c2b04e825" d="M 0 0 
L 0 3.5 
" style="stroke: #000000; stroke-width: 0.8"/>
      </defs>
      <g>
       <use xlink:href="#m0c2b04e825" x="73.832727" y="119.740235" style="stroke: #000000; stroke-width: 0.8"/>
      </g>
     </g>
     <g id="text_1">
      <!-- 0 -->
      <g transform="translate(70.651477 134.338673) scale(0.1 -0.1)">
       <defs>
        <path id="DejaVuSans-30" d="M 2034 4250 
Q 1547 4250 1301 3770 
Q 1056 3291 1056 2328 
Q 1056 1369 1301 889 
Q 1547 409 2034 409 
Q 2525 409 2770 889 
Q 3016 1369 3016 2328 
Q 3016 3291 2770 3770 
Q 2525 4250 2034 4250 
z
M 2034 4750 
Q 2819 4750 3233 4129 
Q 3647 3509 3647 2328 
Q 3647 1150 3233 529 
Q 2819 -91 2034 -91 
Q 1250 -91 836 529 
Q 422 1150 422 2328 
Q 422 3509 836 4129 
Q 1250 4750 2034 4750 
z
" transform="scale(0.015625)"/>
       </defs>
       <use xlink:href="#DejaVuSans-30"/>
      </g>
     </g>
    </g>
    <g id="xtick_2">
     <g id="line2d_3">
      <path d="M 137.570696 119.740235 
L 137.570696 41.472 
" clip-path="url(#p1434491822)" style="fill: none; stroke: #b0b0b0; stroke-width: 0.8; stroke-linecap: square"/>
     </g>
     <g id="line2d_4">
      <g>
       <use xlink:href="#m0c2b04e825" x="137.570696" y="119.740235" style="stroke: #000000; stroke-width: 0.8"/>
      </g>
     </g>
     <g id="text_2">
      <!-- 50 -->
      <g transform="translate(131.208196 134.338673) scale(0.1 -0.1)">
       <defs>
        <path id="DejaVuSans-35" d="M 691 4666 
L 3169 4666 
L 3169 4134 
L 1269 4134 
L 1269 2991 
Q 1406 3038 1543 3061 
Q 1681 3084 1819 3084 
Q 2600 3084 3056 2656 
Q 3513 2228 3513 1497 
Q 3513 744 3044 326 
Q 2575 -91 1722 -91 
Q 1428 -91 1123 -41 
Q 819 9 494 109 
L 494 744 
Q 775 591 1075 516 
Q 1375 441 1709 441 
Q 2250 441 2565 725 
Q 2881 1009 2881 1497 
Q 2881 1984 2565 2268 
Q 2250 2553 1709 2553 
Q 1456 2553 1204 2497 
Q 953 2441 691 2322 
L 691 4666 
z
" transform="scale(0.015625)"/>
       </defs>
       <use xlink:href="#DejaVuSans-35"/>
       <use xlink:href="#DejaVuSans-30" x="63.623047"/>
      </g>
     </g>
    </g>
    <g id="xtick_3">
     <g id="line2d_5">
      <path d="M 201.308665 119.740235 
L 201.308665 41.472 
" clip-path="url(#p1434491822)" style="fill: none; stroke: #b0b0b0; stroke-width: 0.8; stroke-linecap: square"/>
     </g>
     <g id="line2d_6">
      <g>
       <use xlink:href="#m0c2b04e825" x="201.308665" y="119.740235" style="stroke: #000000; stroke-width: 0.8"/>
      </g>
     </g>
     <g id="text_3">
      <!-- 100 -->
      <g transform="translate(191.764915 134.338673) scale(0.1 -0.1)">
       <defs>
        <path id="DejaVuSans-31" d="M 794 531 
L 1825 531 
L 1825 4091 
L 703 3866 
L 703 4441 
L 1819 4666 
L 2450 4666 
L 2450 531 
L 3481 531 
L 3481 0 
L 794 0 
L 794 531 
z
" transform="scale(0.015625)"/>
       </defs>
       <use xlink:href="#DejaVuSans-31"/>
       <use xlink:href="#DejaVuSans-30" x="63.623047"/>
       <use xlink:href="#DejaVuSans-30" x="127.246094"/>
      </g>
     </g>
    </g>
    <g id="xtick_4">
     <g id="line2d_7">
      <path d="M 265.046634 119.740235 
L 265.046634 41.472 
" clip-path="url(#p1434491822)" style="fill: none; stroke: #b0b0b0; stroke-width: 0.8; stroke-linecap: square"/>
     </g>
     <g id="line2d_8">
      <g>
       <use xlink:href="#m0c2b04e825" x="265.046634" y="119.740235" style="stroke: #000000; stroke-width: 0.8"/>
      </g>
     </g>
     <g id="text_4">
      <!-- 150 -->
      <g transform="translate(255.502884 134.338673) scale(0.1 -0.1)">
       <use xlink:href="#DejaVuSans-31"/>
       <use xlink:href="#DejaVuSans-35" x="63.623047"/>
       <use xlink:href="#DejaVuSans-30" x="127.246094"/>
      </g>
     </g>
    </g>
    <g id="xtick_5">
     <g id="line2d_9">
      <path d="M 328.784603 119.740235 
L 328.784603 41.472 
" clip-path="url(#p1434491822)" style="fill: none; stroke: #b0b0b0; stroke-width: 0.8; stroke-linecap: square"/>
     </g>
     <g id="line2d_10">
      <g>
       <use xlink:href="#m0c2b04e825" x="328.784603" y="119.740235" style="stroke: #000000; stroke-width: 0.8"/>
      </g>
     </g>
     <g id="text_5">
      <!-- 200 -->
      <g transform="translate(319.240853 134.338673) scale(0.1 -0.1)">
       <defs>
        <path id="DejaVuSans-32" d="M 1228 531 
L 3431 531 
L 3431 0 
L 469 0 
L 469 531 
Q 828 903 1448 1529 
Q 2069 2156 2228 2338 
Q 2531 2678 2651 2914 
Q 2772 3150 2772 3378 
Q 2772 3750 2511 3984 
Q 2250 4219 1831 4219 
Q 1534 4219 1204 4116 
Q 875 4013 500 3803 
L 500 4441 
Q 881 4594 1212 4672 
Q 1544 4750 1819 4750 
Q 2544 4750 2975 4387 
Q 3406 4025 3406 3419 
Q 3406 3131 3298 2873 
Q 3191 2616 2906 2266 
Q 2828 2175 2409 1742 
Q 1991 1309 1228 531 
z
" transform="scale(0.015625)"/>
       </defs>
       <use xlink:href="#DejaVuSans-32"/>
       <use xlink:href="#DejaVuSans-30" x="63.623047"/>
       <use xlink:href="#DejaVuSans-30" x="127.246094"/>
      </g>
     </g>
    </g>
    <g id="xtick_6">
     <g id="line2d_11">
      <path d="M 392.522572 119.740235 
L 392.522572 41.472 
" clip-path="url(#p1434491822)" style="fill: none; stroke: #b0b0b0; stroke-width: 0.8; stroke-linecap: square"/>
     </g>
     <g id="line2d_12">
      <g>
       <use xlink:href="#m0c2b04e825" x="392.522572" y="119.740235" style="stroke: #000000; stroke-width: 0.8"/>
      </g>
     </g>
     <g id="text_6">
      <!-- 250 -->
      <g transform="translate(382.978822 134.338673) scale(0.1 -0.1)">
       <use xlink:href="#DejaVuSans-32"/>
       <use xlink:href="#DejaVuSans-35" x="63.623047"/>
       <use xlink:href="#DejaVuSans-30" x="127.246094"/>
      </g>
     </g>
    </g>
   </g>
   <g id="matplotlib.axis_2">
    <g id="ytick_1">
     <g id="line2d_13">
      <path d="M 57.6 110.339968 
L 414.72 110.339968 
" clip-path="url(#p1434491822)" style="fill: none; stroke: #b0b0b0; stroke-width: 0.8; stroke-linecap: square"/>
     </g>
     <g id="line2d_14">
      <defs>
       <path id="ma6194a2ebb" d="M 0 0 
L -3.5 0 
" style="stroke: #000000; stroke-width: 0.8"/>
      </defs>
      <g>
       <use xlink:href="#ma6194a2ebb" x="57.6" y="110.339968" style="stroke: #000000; stroke-width: 0.8"/>
      </g>
     </g>
     <g id="text_7">
      <!-- 0.00025 -->
      <g transform="translate(9.246875 114.139187) scale(0.1 -0.1)">
       <defs>
        <path id="DejaVuSans-2e" d="M 684 794 
L 1344 794 
L 1344 0 
L 684 0 
L 684 794 
z
" transform="scale(0.015625)"/>
       </defs>
       <use xlink:href="#DejaVuSans-30"/>
       <use xlink:href="#DejaVuSans-2e" x="63.623047"/>
       <use xlink:href="#DejaVuSans-30" x="95.410156"/>
       <use xlink:href="#DejaVuSans-30" x="159.033203"/>
       <use xlink:href="#DejaVuSans-30" x="222.65625"/>
       <use xlink:href="#DejaVuSans-32" x="286.279297"/>
       <use xlink:href="#DejaVuSans-35" x="349.902344"/>
      </g>
     </g>
    </g>
    <g id="ytick_2">
     <g id="line2d_15">
      <path d="M 57.6 80.70009 
L 414.72 80.70009 
" clip-path="url(#p1434491822)" style="fill: none; stroke: #b0b0b0; stroke-width: 0.8; stroke-linecap: square"/>
     </g>
     <g id="line2d_16">
      <g>
       <use xlink:href="#ma6194a2ebb" x="57.6" y="80.70009" style="stroke: #000000; stroke-width: 0.8"/>
      </g>
     </g>
     <g id="text_8">
      <!-- 0.00050 -->
      <g transform="translate(9.246875 84.499309) scale(0.1 -0.1)">
       <use xlink:href="#DejaVuSans-30"/>
       <use xlink:href="#DejaVuSans-2e" x="63.623047"/>
       <use xlink:href="#DejaVuSans-30" x="95.410156"/>
       <use xlink:href="#DejaVuSans-30" x="159.033203"/>
       <use xlink:href="#DejaVuSans-30" x="222.65625"/>
       <use xlink:href="#DejaVuSans-35" x="286.279297"/>
       <use xlink:href="#DejaVuSans-30" x="349.902344"/>
      </g>
     </g>
    </g>
    <g id="ytick_3">
     <g id="line2d_17">
      <path d="M 57.6 51.060212 
L 414.72 51.060212 
" clip-path="url(#p1434491822)" style="fill: none; stroke: #b0b0b0; stroke-width: 0.8; stroke-linecap: square"/>
     </g>
     <g id="line2d_18">
      <g>
       <use xlink:href="#ma6194a2ebb" x="57.6" y="51.060212" style="stroke: #000000; stroke-width: 0.8"/>
      </g>
     </g>
     <g id="text_9">
      <!-- 0.00075 -->
      <g transform="translate(9.246875 54.859431) scale(0.1 -0.1)">
       <defs>
        <path id="DejaVuSans-37" d="M 525 4666 
L 3525 4666 
L 3525 4397 
L 1831 0 
L 1172 0 
L 2766 4134 
L 525 4134 
L 525 4666 
z
" transform="scale(0.015625)"/>
       </defs>
       <use xlink:href="#DejaVuSans-30"/>
       <use xlink:href="#DejaVuSans-2e" x="63.623047"/>
       <use xlink:href="#DejaVuSans-30" x="95.410156"/>
       <use xlink:href="#DejaVuSans-30" x="159.033203"/>
       <use xlink:href="#DejaVuSans-30" x="222.65625"/>
       <use xlink:href="#DejaVuSans-37" x="286.279297"/>
       <use xlink:href="#DejaVuSans-35" x="349.902344"/>
      </g>
     </g>
    </g>
    <g id="text_10">
     <!-- bg_x -->
     <g transform="translate(2.889062 92.41393) rotate(-90) scale(0.1 -0.1)">
      <defs>
       <path id="DejaVuSans-62" d="M 3116 1747 
Q 3116 2381 2855 2742 
Q 2594 3103 2138 3103 
Q 1681 3103 1420 2742 
Q 1159 2381 1159 1747 
Q 1159 1113 1420 752 
Q 1681 391 2138 391 
Q 2594 391 2855 752 
Q 3116 1113 3116 1747 
z
M 1159 2969 
Q 1341 3281 1617 3432 
Q 1894 3584 2278 3584 
Q 2916 3584 3314 3078 
Q 3713 2572 3713 1747 
Q 3713 922 3314 415 
Q 2916 -91 2278 -91 
Q 1894 -91 1617 61 
Q 1341 213 1159 525 
L 1159 0 
L 581 0 
L 581 4863 
L 1159 4863 
L 1159 2969 
z
" transform="scale(0.015625)"/>
       <path id="DejaVuSans-67" d="M 2906 1791 
Q 2906 2416 2648 2759 
Q 2391 3103 1925 3103 
Q 1463 3103 1205 2759 
Q 947 2416 947 1791 
Q 947 1169 1205 825 
Q 1463 481 1925 481 
Q 2391 481 2648 825 
Q 2906 1169 2906 1791 
z
M 3481 434 
Q 3481 -459 3084 -895 
Q 2688 -1331 1869 -1331 
Q 1566 -1331 1297 -1286 
Q 1028 -1241 775 -1147 
L 775 -588 
Q 1028 -725 1275 -790 
Q 1522 -856 1778 -856 
Q 2344 -856 2625 -561 
Q 2906 -266 2906 331 
L 2906 616 
Q 2728 306 2450 153 
Q 2172 0 1784 0 
Q 1141 0 747 490 
Q 353 981 353 1791 
Q 353 2603 747 3093 
Q 1141 3584 1784 3584 
Q 2172 3584 2450 3431 
Q 2728 3278 2906 2969 
L 2906 3500 
L 3481 3500 
L 3481 434 
z
" transform="scale(0.015625)"/>
       <path id="DejaVuSans-5f" d="M 3263 -1063 
L 3263 -1509 
L -63 -1509 
L -63 -1063 
L 3263 -1063 
z
" transform="scale(0.015625)"/>
       <path id="DejaVuSans-78" d="M 3513 3500 
L 2247 1797 
L 3578 0 
L 2900 0 
L 1881 1375 
L 863 0 
L 184 0 
L 1544 1831 
L 300 3500 
L 978 3500 
L 1906 2253 
L 2834 3500 
L 3513 3500 
z
" transform="scale(0.015625)"/>
      </defs>
      <use xlink:href="#DejaVuSans-62"/>
      <use xlink:href="#DejaVuSans-67" x="63.476562"/>
      <use xlink:href="#DejaVuSans-5f" x="126.953125"/>
      <use xlink:href="#DejaVuSans-78" x="176.953125"/>
     </g>
    </g>
   </g>
   <g id="line2d_19">
    <path d="M 73.832727 80.606118 
L 398.487273 80.606118 
L 398.487273 80.606118 
" clip-path="url(#p1434491822)" style="fill: none; stroke: #1f77b4; stroke-width: 1.5; stroke-linecap: square"/>
   </g>
   <g id="line2d_20">
    <path d="M 73.832727 45.036563 
L 96.195047 45.115912 
L 96.348421 45.119745 
L 100.146901 45.224212 
L 100.276004 45.231282 
L 102.695449 45.336036 
L 102.815642 45.342666 
L 104.608762 45.448153 
L 104.726406 45.456601 
L 106.201275 45.562825 
L 106.317641 45.572815 
L 107.603349 45.681562 
L 107.718377 45.693183 
L 108.814985 45.799077 
L 108.930013 45.812099 
L 109.89881 45.916576 
L 110.013838 45.931123 
L 110.918787 46.038636 
L 111.032479 46.054764 
L 111.874742 46.163298 
L 111.988491 46.180654 
L 112.766849 46.288624 
L 112.880658 46.30754 
L 113.595052 46.414614 
L 113.708802 46.434463 
L 114.360628 46.537624 
L 114.474378 46.558882 
L 115.124926 46.667693 
L 115.238739 46.69013 
L 115.826655 46.794089 
L 115.940347 46.817795 
L 116.526989 46.926349 
L 116.640739 46.951324 
L 117.164755 47.052863 
L 117.278504 47.078573 
L 117.802521 47.183643 
L 117.916329 47.210623 
L 118.439007 47.320183 
L 118.552761 47.347921 
L 119.012868 47.446977 
L 119.126617 47.476216 
L 119.586729 47.579131 
L 119.700478 47.608892 
L 120.160587 47.714299 
L 120.274396 47.745215 
L 120.734507 47.854718 
L 120.848196 47.886236 
L 121.244402 47.981677 
L 121.358151 48.014007 
L 121.753079 48.113381 
L 121.866827 48.146806 
L 122.263032 48.247365 
L 122.37684 48.281011 
L 122.773046 48.383924 
L 122.886735 48.41901 
L 123.282941 48.524173 
L 123.396689 48.559745 
L 123.792893 48.666537 
L 123.906642 48.703201 
L 124.302846 48.813393 
L 124.416594 48.850382 
L 124.748895 48.943342 
L 124.862703 48.980582 
L 125.195002 49.07488 
L 125.308691 49.113551 
L 125.642329 49.210039 
L 125.756018 49.24874 
L 126.088318 49.345721 
L 126.202066 49.38486 
L 126.534365 49.484269 
L 126.648113 49.524604 
L 126.980412 49.624883 
L 127.094161 49.665162 
L 127.426459 49.765807 
L 127.540267 49.806427 
L 127.872566 49.91045 
L 127.982421 49.951759 
L 128.318554 50.055796 
L 128.432332 50.09758 
L 128.764601 50.202133 
L 128.878349 50.244443 
L 129.210647 50.351639 
L 129.324396 50.394263 
L 129.656694 50.501227 
L 129.770502 50.543884 
L 130.1028 50.651824 
L 130.215211 50.695481 
L 130.550125 50.80523 
L 130.663814 50.849019 
L 130.996112 50.958462 
L 131.10986 51.002109 
L 131.378254 51.090499 
L 131.492002 51.135256 
L 131.760396 51.224531 
L 131.874146 51.269061 
L 132.14254 51.358645 
L 132.256347 51.402656 
L 132.525961 51.492164 
L 132.639768 51.537295 
L 132.908162 51.627995 
L 133.020573 51.67295 
L 133.29025 51.763745 
L 133.403993 51.809031 
L 133.672388 51.899343 
L 133.786136 51.945302 
L 134.05453 52.037773 
L 134.168278 52.08342 
L 134.437951 52.175216 
L 134.551699 52.221188 
L 134.820093 52.312581 
L 134.9339 52.358352 
L 135.202294 52.451116 
L 135.314705 52.497393 
L 135.584378 52.589555 
L 135.698126 52.635517 
L 135.967797 52.727412 
L 136.081549 52.772915 
L 136.349939 52.864899 
L 136.463687 52.911827 
L 136.732082 53.004252 
L 136.84583 53.050205 
L 137.114224 53.142592 
L 137.228031 53.188432 
L 137.496425 53.280429 
L 137.610113 53.326674 
L 137.879844 53.419398 
L 137.992255 53.465261 
L 138.261927 53.556911 
L 138.375675 53.602695 
L 138.644069 53.693678 
L 138.757817 53.739766 
L 139.026214 53.831678 
L 139.139958 53.877206 
L 139.409631 53.968323 
L 139.523381 54.013726 
L 139.791772 54.104131 
L 139.905579 54.149242 
L 140.173973 54.240914 
L 140.286384 54.286535 
L 140.556055 54.376356 
L 140.669804 54.421424 
L 140.938197 54.511367 
L 141.051945 54.555949 
L 141.321618 54.645619 
L 141.435365 54.690577 
L 141.703759 54.779978 
L 141.817507 54.824376 
L 142.085902 54.913467 
L 142.199708 54.957771 
L 142.468101 55.046238 
L 142.581791 55.090736 
L 142.851521 55.179568 
L 142.96521 55.223439 
L 143.297507 55.332976 
L 143.411259 55.376886 
L 143.743551 55.485381 
L 143.857299 55.52893 
L 144.189597 55.637066 
L 144.303344 55.679775 
L 144.635642 55.787327 
L 144.749449 55.829697 
L 145.081745 55.935523 
L 145.195435 55.978439 
L 145.527731 56.083316 
L 145.641479 56.125856 
L 145.973776 56.229788 
L 146.087524 56.270735 
L 146.419822 56.373682 
L 146.533569 56.414756 
L 146.865869 56.516586 
L 146.979673 56.557324 
L 147.313193 56.658576 
L 147.426997 56.698901 
L 147.759293 56.797661 
L 147.872983 56.836843 
L 148.205281 56.933345 
L 148.319031 56.971573 
L 148.651325 57.066592 
L 148.765073 57.103895 
L 149.097371 57.196095 
L 149.211118 57.232685 
L 149.60732 57.33961 
L 149.721126 57.374961 
L 150.117328 57.479133 
L 150.231017 57.513303 
L 150.627218 57.613528 
L 150.74097 57.646166 
L 151.137167 57.740889 
L 151.250915 57.771764 
L 151.711021 57.877394 
L 151.824769 57.907027 
L 152.283655 58.007809 
L 152.397345 58.036107 
L 152.921354 58.144834 
L 153.035102 58.170889 
L 153.559111 58.27199 
L 153.672863 58.296635 
L 154.259494 58.403701 
L 154.373301 58.426553 
L 154.961215 58.528782 
L 155.074904 58.55144 
L 155.662817 58.654026 
L 155.776566 58.676617 
L 156.363201 58.777586 
L 156.476949 58.799819 
L 157.064863 58.898685 
L 157.178671 58.920489 
L 157.829153 59.028756 
L 157.942901 59.05027 
L 158.59472 59.157558 
L 158.708468 59.178862 
L 159.35901 59.285201 
L 159.472818 59.306388 
L 160.123299 59.410795 
L 160.237049 59.431476 
L 160.888869 59.534067 
L 161.002621 59.554248 
L 161.717063 59.659739 
L 161.830871 59.678215 
L 162.609163 59.785065 
L 162.72419 59.80222 
L 163.565166 59.907594 
L 163.680194 59.923075 
L 164.585134 60.029266 
L 164.698825 60.044359 
L 165.604985 60.148876 
L 165.720013 60.163786 
L 166.624896 60.269842 
L 166.739924 60.285177 
L 167.644807 60.39372 
L 167.759835 60.409332 
L 168.600814 60.510924 
L 168.714563 60.526713 
L 169.556879 60.628409 
L 169.67057 60.644302 
L 170.512829 60.7481 
L 170.626578 60.764116 
L 171.468837 60.868451 
L 171.582647 60.884734 
L 172.424847 60.98943 
L 172.539875 61.005506 
L 173.380858 61.109894 
L 173.494607 61.126079 
L 174.336928 61.230965 
L 174.450619 61.247109 
L 175.29416 61.352049 
L 175.409188 61.368366 
L 176.250172 61.47256 
L 176.363921 61.488727 
L 177.206244 61.592933 
L 177.319936 61.608933 
L 178.1622 61.712715 
L 178.275949 61.728729 
L 179.118215 61.832169 
L 179.232024 61.848138 
L 180.074231 61.951693 
L 180.189259 61.967499 
L 181.030247 62.069955 
L 181.143997 62.085769 
L 181.986324 62.187998 
L 182.100016 62.203738 
L 182.942282 62.305517 
L 183.057312 62.321153 
L 183.898301 62.4223 
L 184.01333 62.437856 
L 184.918227 62.546134 
L 185.033255 62.561635 
L 185.938152 62.669152 
L 186.053181 62.684502 
L 186.958138 62.791368 
L 187.07183 62.806551 
L 187.978005 62.912306 
L 188.093034 62.927355 
L 188.996714 63.032134 
L 189.110407 63.047124 
L 190.016585 63.150868 
L 190.131618 63.16567 
L 191.036515 63.268525 
L 191.151544 63.283163 
L 192.056445 63.384947 
L 192.171474 63.399437 
L 193.140284 63.507057 
L 193.255311 63.521375 
L 194.224178 63.627953 
L 194.339209 63.64213 
L 195.30668 63.746657 
L 195.421714 63.7605 
L 196.39058 63.863588 
L 196.505609 63.877291 
L 197.474361 63.979084 
L 197.589391 63.992582 
L 198.622108 64.09964 
L 198.737139 64.112979 
L 199.768581 64.2183 
L 199.883609 64.231463 
L 200.916327 64.33538 
L 201.031358 64.348325 
L 202.064077 64.450728 
L 202.179108 64.463464 
L 203.274456 64.570708 
L 203.389488 64.583266 
L 204.486115 64.688946 
L 204.601145 64.701318 
L 205.696507 64.805406 
L 205.811527 64.817623 
L 206.908156 64.920182 
L 207.023187 64.932204 
L 208.182445 65.038963 
L 208.297477 65.050715 
L 209.456737 65.155762 
L 209.571767 65.167379 
L 210.732307 65.27085 
L 210.847338 65.282282 
L 212.0066 65.384063 
L 212.12163 65.395344 
L 213.344859 65.501037 
L 213.459891 65.512102 
L 214.684279 65.616131 
L 214.80059 65.627042 
L 216.022541 65.729441 
L 216.137572 65.740171 
L 217.424592 65.846298 
L 217.540902 65.856837 
L 218.826703 65.961047 
L 218.943072 65.971469 
L 220.228815 66.073415 
L 220.345125 66.083574 
L 221.694834 66.188595 
L 221.811144 66.198541 
L 223.160913 66.301567 
L 223.277167 66.31136 
L 224.690781 66.417103 
L 224.807092 66.426663 
L 226.22071 66.530059 
L 226.338299 66.539404 
L 227.749422 66.640965 
L 227.865674 66.650144 
L 229.343203 66.754297 
L 229.459513 66.763307 
L 230.937104 66.865458 
L 231.054631 66.874292 
L 232.593571 66.978653 
L 232.709823 66.987319 
L 234.251262 67.089221 
L 234.368851 67.097679 
L 235.971643 67.201383 
L 236.089292 67.209605 
L 237.693362 67.310762 
L 237.810892 67.318813 
L 239.477594 67.421527 
L 239.595185 67.42936 
L 241.325797 67.533208 
L 241.444667 67.540843 
L 243.173998 67.641669 
L 243.292865 67.649083 
L 245.08611 67.75085 
L 245.206256 67.758048 
L 247.062191 67.860259 
L 247.181004 67.867221 
L 249.102067 67.969729 
L 249.220931 67.976501 
L 251.205905 68.079089 
L 251.326051 68.085632 
L 253.372377 68.188003 
L 253.492523 68.194312 
L 255.604037 68.295974 
L 255.725463 68.302037 
L 257.89833 68.402851 
L 258.019756 68.408699 
L 260.256533 68.508599 
L 260.379238 68.514207 
L 262.678647 68.612938 
L 262.801352 68.618342 
L 265.227302 68.718376 
L 265.351284 68.723558 
L 267.841147 68.821782 
L 267.965129 68.826719 
L 270.581533 68.925302 
L 270.706794 68.929994 
L 273.38589 69.027312 
L 273.511092 69.031858 
L 276.254042 69.129843 
L 276.380579 69.134448 
L 279.186194 69.232731 
L 279.312702 69.23717 
L 282.118288 69.333726 
L 282.244828 69.338127 
L 285.114323 69.434259 
L 285.243419 69.440834 
L 288.300805 69.537587 
L 288.432457 69.543871 
L 291.679013 69.639869 
L 291.810667 69.645814 
L 295.249 69.740468 
L 295.38187 69.745786 
L 299.263666 69.838152 
L 299.405546 69.842607 
L 304.299647 69.9308 
L 304.46459 69.93364 
L 315.4529 69.993597 
L 316.100927 69.992877 
L 338.908429 69.996568 
L 339.115551 69.999009 
L 345.728729 70.078762 
L 345.89233 70.081865 
L 350.827334 70.168684 
L 350.974324 70.172669 
L 355.289414 70.263121 
L 355.431349 70.267708 
L 359.369313 70.358903 
L 359.507354 70.363798 
L 363.257477 70.455481 
L 363.394299 70.460548 
L 367.080447 70.553097 
L 367.218488 70.558214 
L 370.905967 70.649858 
L 371.04273 70.654819 
L 375.048463 70.745153 
L 375.191675 70.749367 
L 379.892661 70.835463 
L 380.047317 70.838811 
L 386.521164 70.916575 
L 386.735893 70.918763 
L 398.487273 70.954384 
L 398.487273 70.954384 
" clip-path="url(#p1434491822)" style="fill: none; stroke: #1f77b4; stroke-width: 0.5; stroke-linecap: square"/>
   </g>
   <g id="line2d_21">
    <path d="M 73.832727 116.175672 
L 96.195047 116.096323 
L 96.348421 116.09249 
L 100.146901 115.988023 
L 100.276004 115.980954 
L 102.695449 115.876199 
L 102.815642 115.869569 
L 104.608762 115.764082 
L 104.726406 115.755634 
L 106.201275 115.64941 
L 106.317641 115.63942 
L 107.603349 115.530673 
L 107.718377 115.519052 
L 108.814985 115.413159 
L 108.930013 115.400136 
L 109.89881 115.29566 
L 110.013838 115.281112 
L 110.918787 115.173599 
L 111.032479 115.157472 
L 111.874742 115.048937 
L 111.988491 115.031581 
L 112.766849 114.923611 
L 112.880658 114.904696 
L 113.595052 114.797621 
L 113.708802 114.777772 
L 114.360628 114.674612 
L 114.474378 114.653353 
L 115.124926 114.544542 
L 115.238739 114.522105 
L 115.826655 114.418146 
L 115.940347 114.39444 
L 116.526989 114.285887 
L 116.640739 114.260912 
L 117.164755 114.159372 
L 117.278504 114.133662 
L 117.802521 114.028592 
L 117.916329 114.001612 
L 118.439007 113.892053 
L 118.552761 113.864315 
L 119.012868 113.765258 
L 119.126617 113.73602 
L 119.586729 113.633105 
L 119.700478 113.603343 
L 120.160587 113.497936 
L 120.274396 113.46702 
L 120.734507 113.357518 
L 120.848196 113.325999 
L 121.244402 113.230558 
L 121.358151 113.198228 
L 121.753079 113.098854 
L 121.866827 113.065429 
L 122.263032 112.96487 
L 122.37684 112.931224 
L 122.773046 112.828312 
L 122.886735 112.793225 
L 123.282941 112.688063 
L 123.396689 112.65249 
L 123.792893 112.545698 
L 123.906642 112.509034 
L 124.302846 112.398842 
L 124.416594 112.361853 
L 124.748895 112.268894 
L 124.862703 112.231654 
L 125.195002 112.137355 
L 125.308691 112.098684 
L 125.642329 112.002196 
L 125.756018 111.963495 
L 126.088318 111.866514 
L 126.202066 111.827375 
L 126.534365 111.727966 
L 126.648113 111.687632 
L 126.980412 111.587352 
L 127.094161 111.547073 
L 127.426459 111.446428 
L 127.540267 111.405809 
L 127.872566 111.301786 
L 127.982421 111.260477 
L 128.318554 111.15644 
L 128.432332 111.114656 
L 128.764601 111.010102 
L 128.878349 110.967792 
L 129.210647 110.860596 
L 129.324396 110.817972 
L 129.656694 110.711008 
L 129.770502 110.668351 
L 130.1028 110.560411 
L 130.215211 110.516755 
L 130.550125 110.407005 
L 130.663814 110.363217 
L 130.996112 110.253774 
L 131.10986 110.210126 
L 131.378254 110.121736 
L 131.492002 110.07698 
L 131.760396 109.987704 
L 131.874146 109.943174 
L 132.14254 109.85359 
L 132.256347 109.80958 
L 132.525961 109.720071 
L 132.639768 109.67494 
L 132.908162 109.584241 
L 133.020573 109.539285 
L 133.29025 109.448491 
L 133.403993 109.403204 
L 133.672388 109.312893 
L 133.786136 109.266933 
L 134.05453 109.174462 
L 134.168278 109.128815 
L 134.437951 109.03702 
L 134.551699 108.991047 
L 134.820093 108.899654 
L 134.9339 108.853884 
L 135.202294 108.76112 
L 135.314705 108.714842 
L 135.584378 108.62268 
L 135.698126 108.576718 
L 135.967797 108.484824 
L 136.081549 108.43932 
L 136.349939 108.347337 
L 136.463687 108.300409 
L 136.732082 108.207983 
L 136.84583 108.162031 
L 137.114224 108.069644 
L 137.228031 108.023804 
L 137.496425 107.931806 
L 137.610113 107.885562 
L 137.879844 107.792837 
L 137.992255 107.746974 
L 138.261927 107.655324 
L 138.375675 107.609541 
L 138.644069 107.518557 
L 138.757817 107.47247 
L 139.026214 107.380557 
L 139.139958 107.335029 
L 139.409631 107.243912 
L 139.523381 107.198509 
L 139.791772 107.108105 
L 139.905579 107.062993 
L 140.173973 106.971322 
L 140.286384 106.9257 
L 140.556055 106.835879 
L 140.669804 106.790812 
L 140.938197 106.700868 
L 141.051945 106.656286 
L 141.321618 106.566616 
L 141.435365 106.521658 
L 141.703759 106.432257 
L 141.817507 106.387859 
L 142.085902 106.298768 
L 142.199708 106.254464 
L 142.468101 106.165997 
L 142.581791 106.1215 
L 142.851521 106.032667 
L 142.96521 105.988796 
L 143.297507 105.87926 
L 143.411259 105.83535 
L 143.743551 105.726855 
L 143.857299 105.683306 
L 144.189597 105.57517 
L 144.303344 105.53246 
L 144.635642 105.424908 
L 144.749449 105.382538 
L 145.081745 105.276712 
L 145.195435 105.233796 
L 145.527731 105.128919 
L 145.641479 105.086379 
L 145.973776 104.982448 
L 146.087524 104.941501 
L 146.419822 104.838553 
L 146.533569 104.79748 
L 146.865869 104.69565 
L 146.979673 104.654911 
L 147.313193 104.553659 
L 147.426997 104.513334 
L 147.759293 104.414575 
L 147.872983 104.375392 
L 148.205281 104.27889 
L 148.319031 104.240662 
L 148.651325 104.145644 
L 148.765073 104.10834 
L 149.097371 104.01614 
L 149.211118 103.97955 
L 149.60732 103.872625 
L 149.721126 103.837274 
L 150.117328 103.733102 
L 150.231017 103.698932 
L 150.627218 103.598707 
L 150.74097 103.56607 
L 151.137167 103.471346 
L 151.250915 103.440471 
L 151.711021 103.334841 
L 151.824769 103.305208 
L 152.283655 103.204426 
L 152.397345 103.176129 
L 152.921354 103.067401 
L 153.035102 103.041346 
L 153.559111 102.940246 
L 153.672863 102.9156 
L 154.259494 102.808534 
L 154.373301 102.785682 
L 154.961215 102.683453 
L 155.074904 102.660796 
L 155.662817 102.558209 
L 155.776566 102.535618 
L 156.363201 102.43465 
L 156.476949 102.412416 
L 157.064863 102.31355 
L 157.178671 102.291746 
L 157.829153 102.18348 
L 157.942901 102.161965 
L 158.59472 102.054678 
L 158.708468 102.033374 
L 159.35901 101.927034 
L 159.472818 101.905847 
L 160.123299 101.80144 
L 160.237049 101.78076 
L 160.888869 101.678168 
L 161.002621 101.657987 
L 161.717063 101.552496 
L 161.830871 101.53402 
L 162.609163 101.42717 
L 162.72419 101.410015 
L 163.565166 101.304641 
L 163.680194 101.28916 
L 164.585134 101.182969 
L 164.698825 101.167876 
L 165.604985 101.063359 
L 165.720013 101.048449 
L 166.624896 100.942393 
L 166.739924 100.927058 
L 167.644807 100.818515 
L 167.759835 100.802903 
L 168.600814 100.701311 
L 168.714563 100.685523 
L 169.556879 100.583826 
L 169.67057 100.567934 
L 170.512829 100.464135 
L 170.626578 100.448119 
L 171.468837 100.343784 
L 171.582647 100.327501 
L 172.424847 100.222805 
L 172.539875 100.206729 
L 173.380858 100.102341 
L 173.494607 100.086156 
L 174.336928 99.981271 
L 174.450619 99.965127 
L 175.29416 99.860187 
L 175.409188 99.84387 
L 176.250172 99.739675 
L 176.363921 99.723508 
L 177.206244 99.619302 
L 177.319936 99.603302 
L 178.1622 99.49952 
L 178.275949 99.483506 
L 179.118215 99.380066 
L 179.232024 99.364098 
L 180.074231 99.260542 
L 180.189259 99.244736 
L 181.030247 99.14228 
L 181.143997 99.126466 
L 181.986324 99.024237 
L 182.100016 99.008497 
L 182.942282 98.906718 
L 183.057312 98.891082 
L 183.898301 98.789935 
L 184.01333 98.774379 
L 184.918227 98.666101 
L 185.033255 98.6506 
L 185.938152 98.543083 
L 186.053181 98.527733 
L 186.958138 98.420867 
L 187.07183 98.405684 
L 187.978005 98.299929 
L 188.093034 98.28488 
L 188.996714 98.180101 
L 189.110407 98.165111 
L 190.016585 98.061368 
L 190.131618 98.046565 
L 191.036515 97.943711 
L 191.151544 97.929072 
L 192.056445 97.827289 
L 192.171474 97.812798 
L 193.140284 97.705178 
L 193.255311 97.690861 
L 194.224178 97.584283 
L 194.339209 97.570105 
L 195.30668 97.465578 
L 195.421714 97.451735 
L 196.39058 97.348648 
L 196.505609 97.334944 
L 197.474361 97.233151 
L 197.589391 97.219653 
L 198.622108 97.112596 
L 198.737139 97.099256 
L 199.768581 96.993935 
L 199.883609 96.980773 
L 200.916327 96.876855 
L 201.031358 96.86391 
L 202.064077 96.761507 
L 202.179108 96.748772 
L 203.274456 96.641527 
L 203.389488 96.628969 
L 204.486115 96.523289 
L 204.601145 96.510917 
L 205.696507 96.40683 
L 205.811527 96.394612 
L 206.908156 96.292054 
L 207.023187 96.280032 
L 208.182445 96.173273 
L 208.297477 96.16152 
L 209.456737 96.056474 
L 209.571767 96.044857 
L 210.732307 95.941386 
L 210.847338 95.929953 
L 212.0066 95.828173 
L 212.12163 95.816891 
L 213.344859 95.711199 
L 213.459891 95.700134 
L 214.684279 95.596104 
L 214.80059 95.585193 
L 216.022541 95.482794 
L 216.137572 95.472064 
L 217.424592 95.365937 
L 217.540902 95.355399 
L 218.826703 95.251189 
L 218.943072 95.240767 
L 220.228815 95.138821 
L 220.345125 95.128661 
L 221.694834 95.02364 
L 221.811144 95.013694 
L 223.160913 94.910669 
L 223.277167 94.900875 
L 224.690781 94.795132 
L 224.807092 94.785572 
L 226.22071 94.682176 
L 226.338299 94.672832 
L 227.749422 94.571271 
L 227.865674 94.562092 
L 229.343203 94.457938 
L 229.459513 94.448929 
L 230.937104 94.346777 
L 231.054631 94.337944 
L 232.593571 94.233582 
L 232.709823 94.224917 
L 234.251262 94.123014 
L 234.368851 94.114556 
L 235.971643 94.010852 
L 236.089292 94.00263 
L 237.693362 93.901473 
L 237.810892 93.893423 
L 239.477594 93.790709 
L 239.595185 93.782875 
L 241.325797 93.679028 
L 241.444667 93.671393 
L 243.173998 93.570567 
L 243.292865 93.563153 
L 245.08611 93.461385 
L 245.206256 93.454187 
L 247.062191 93.351977 
L 247.181004 93.345014 
L 249.102067 93.242506 
L 249.220931 93.235734 
L 251.205905 93.133147 
L 251.326051 93.126603 
L 253.372377 93.024233 
L 253.492523 93.017923 
L 255.604037 92.916261 
L 255.725463 92.910198 
L 257.89833 92.809385 
L 258.019756 92.803536 
L 260.256533 92.703636 
L 260.379238 92.698028 
L 262.678647 92.599297 
L 262.801352 92.593893 
L 265.227302 92.493859 
L 265.351284 92.488677 
L 267.841147 92.390453 
L 267.965129 92.385517 
L 270.581533 92.286933 
L 270.706794 92.282241 
L 273.38589 92.184923 
L 273.511092 92.180377 
L 276.254042 92.082392 
L 276.380579 92.077787 
L 279.186194 91.979504 
L 279.312702 91.975065 
L 282.118288 91.878509 
L 282.244828 91.874109 
L 285.114323 91.777976 
L 285.243419 91.771401 
L 288.300805 91.674648 
L 288.432457 91.668364 
L 291.679013 91.572366 
L 291.810667 91.566421 
L 295.249 91.471767 
L 295.38187 91.466449 
L 299.263666 91.374084 
L 299.405546 91.369629 
L 304.299647 91.281435 
L 304.46459 91.278595 
L 315.4529 91.218638 
L 316.100927 91.219358 
L 338.908429 91.215668 
L 339.115551 91.213226 
L 345.728729 91.133473 
L 345.89233 91.130371 
L 350.827334 91.043551 
L 350.974324 91.039566 
L 355.289414 90.949115 
L 355.431349 90.944527 
L 359.369313 90.853332 
L 359.507354 90.848437 
L 363.257477 90.756755 
L 363.394299 90.751687 
L 367.080447 90.659139 
L 367.218488 90.654021 
L 370.905967 90.562378 
L 371.04273 90.557416 
L 375.048463 90.467082 
L 375.191675 90.462868 
L 379.892661 90.376772 
L 380.047317 90.373424 
L 386.521164 90.295661 
L 386.735893 90.293473 
L 398.487273 90.257852 
L 398.487273 90.257852 
" clip-path="url(#p1434491822)" style="fill: none; stroke: #1f77b4; stroke-width: 0.5; stroke-linecap: square"/>
   </g>
   <g id="line2d_22">
    <path d="M 73.832727 80.606118 
L 398.487273 80.606118 
L 398.487273 80.606118 
" clip-path="url(#p1434491822)" style="fill: none; stroke: #2ca02c; stroke-width: 1.5; stroke-linecap: square"/>
   </g>
   <g id="line2d_23">
    <path d="M 73.832727 83.332479 
L 398.487273 83.332479 
L 398.487273 83.332479 
" clip-path="url(#p1434491822)" style="fill: none; stroke: #2ca02c; stroke-width: 1.5; stroke-linecap: square"/>
   </g>
   <g id="patch_3">
    <path d="M 57.6 119.740235 
L 57.6 41.472 
" style="fill: none; stroke: #000000; stroke-width: 0.8; stroke-linejoin: miter; stroke-linecap: square"/>
   </g>
   <g id="patch_4">
    <path d="M 414.72 119.740235 
L 414.72 41.472 
" style="fill: none; stroke: #000000; stroke-width: 0.8; stroke-linejoin: miter; stroke-linecap: square"/>
   </g>
   <g id="patch_5">
    <path d="M 57.6 119.740235 
L 414.72 119.740235 
" style="fill: none; stroke: #000000; stroke-width: 0.8; stroke-linejoin: miter; stroke-linecap: square"/>
   </g>
   <g id="patch_6">
    <path d="M 57.6 41.472 
L 414.72 41.472 
" style="fill: none; stroke: #000000; stroke-width: 0.8; stroke-linejoin: miter; stroke-linecap: square"/>
   </g>
   <g id="text_11">
    <!-- gyro bias -->
    <g transform="translate(208.611562 35.472) scale(0.12 -0.12)">
     <defs>
      <path id="DejaVuSans-79" d="M 2059 -325 
Q 1816 -950 1584 -1140 
Q 1353 -1331 966 -1331 
L 506 -1331 
L 506 -850 
L 844 -850 
Q 1081 -850 1212 -737 
Q 1344 -625 1503 -206 
L 1606 56 
L 191 3500 
L 800 3500 
L 1894 763 
L 2988 3500 
L 3597 3500 
L 2059 -325 
z
" transform="scale(0.015625)"/>
      <path id="DejaVuSans-72" d="M 2631 2963 
Q 2534 3019 2420 3045 
Q 2306 3072 2169 3072 
Q 1681 3072 1420 2755 
Q 1159 2438 1159 1844 
L 1159 0 
L 581 0 
L 581 3500 
L 1159 3500 
L 1159 2956 
Q 1341 3275 1631 3429 
Q 1922 3584 2338 3584 
Q 2397 3584 2469 3576 
Q 2541 3569 2628 3553 
L 2631 2963 
z
" transform="scale(0.015625)"/>
      <path id="DejaVuSans-6f" d="M 1959 3097 
Q 1497 3097 1228 2736 
Q 959 2375 959 1747 
Q 959 1119 1226 758 
Q 1494 397 1959 397 
Q 2419 397 2687 759 
Q 2956 1122 2956 1747 
Q 2956 2369 2687 2733 
Q 2419 3097 1959 3097 
z
M 1959 3584 
Q 2709 3584 3137 3096 
Q 3566 2609 3566 1747 
Q 3566 888 3137 398 
Q 2709 -91 1959 -91 
Q 1206 -91 779 398 
Q 353 888 353 1747 
Q 353 2609 779 3096 
Q 1206 3584 1959 3584 
z
" transform="scale(0.015625)"/>
      <path id="DejaVuSans-20" transform="scale(0.015625)"/>
      <path id="DejaVuSans-69" d="M 603 3500 
L 1178 3500 
L 1178 0 
L 603 0 
L 603 3500 
z
M 603 4863 
L 1178 4863 
L 1178 4134 
L 603 4134 
L 603 4863 
z
" transform="scale(0.015625)"/>
      <path id="DejaVuSans-61" d="M 2194 1759 
Q 1497 1759 1228 1600 
Q 959 1441 959 1056 
Q 959 750 1161 570 
Q 1363 391 1709 391 
Q 2188 391 2477 730 
Q 2766 1069 2766 1631 
L 2766 1759 
L 2194 1759 
z
M 3341 1997 
L 3341 0 
L 2766 0 
L 2766 531 
Q 2569 213 2275 61 
Q 1981 -91 1556 -91 
Q 1019 -91 701 211 
Q 384 513 384 1019 
Q 384 1609 779 1909 
Q 1175 2209 1959 2209 
L 2766 2209 
L 2766 2266 
Q 2766 2663 2505 2880 
Q 2244 3097 1772 3097 
Q 1472 3097 1187 3025 
Q 903 2953 641 2809 
L 641 3341 
Q 956 3463 1253 3523 
Q 1550 3584 1831 3584 
Q 2591 3584 2966 3190 
Q 3341 2797 3341 1997 
z
" transform="scale(0.015625)"/>
      <path id="DejaVuSans-73" d="M 2834 3397 
L 2834 2853 
Q 2591 2978 2328 3040 
Q 2066 3103 1784 3103 
Q 1356 3103 1142 2972 
Q 928 2841 928 2578 
Q 928 2378 1081 2264 
Q 1234 2150 1697 2047 
L 1894 2003 
Q 2506 1872 2764 1633 
Q 3022 1394 3022 966 
Q 3022 478 2636 193 
Q 2250 -91 1575 -91 
Q 1294 -91 989 -36 
Q 684 19 347 128 
L 347 722 
Q 666 556 975 473 
Q 1284 391 1588 391 
Q 1994 391 2212 530 
Q 2431 669 2431 922 
Q 2431 1156 2273 1281 
Q 2116 1406 1581 1522 
L 1381 1569 
Q 847 1681 609 1914 
Q 372 2147 372 2553 
Q 372 3047 722 3315 
Q 1072 3584 1716 3584 
Q 2034 3584 2315 3537 
Q 2597 3491 2834 3397 
z
" transform="scale(0.015625)"/>
     </defs>
     <use xlink:href="#DejaVuSans-67"/>
     <use xlink:href="#DejaVuSans-79" x="63.476562"/>
     <use xlink:href="#DejaVuSans-72" x="122.65625"/>
     <use xlink:href="#DejaVuSans-6f" x="161.519531"/>
     <use xlink:href="#DejaVuSans-20" x="222.701172"/>
     <use xlink:href="#DejaVuSans-62" x="254.488281"/>
     <use xlink:href="#DejaVuSans-69" x="317.964844"/>
     <use xlink:href="#DejaVuSans-61" x="345.748047"/>
     <use xlink:href="#DejaVuSans-73" x="407.027344"/>
    </g>
   </g>
  </g>
  <g id="axes_2">
   <g id="patch_7">
    <path d="M 57.6 213.662118 
L 414.72 213.662118 
L 414.72 135.393882 
L 57.6 135.393882 
z
" style="fill: #ffffff"/>
   </g>
   <g id="matplotlib.axis_3">
    <g id="xtick_7">
     <g id="line2d_24">
      <path d="M 73.832727 213.662118 
L 73.832727 135.393882 
" clip-path="url(#ped26703f4c)" style="fill: none; stroke: #b0b0b0; stroke-width: 0.8; stroke-linecap: square"/>
     </g>
     <g id="line2d_25">
      <g>
       <use xlink:href="#m0c2b04e825" x="73.832727" y="213.662118" style="stroke: #000000; stroke-width: 0.8"/>
      </g>
     </g>
     <g id="text_12">
      <!-- 0 -->
      <g transform="translate(70.651477 228.260555) scale(0.1 -0.1)">
       <use xlink:href="#DejaVuSans-30"/>
      </g>
     </g>
    </g>
    <g id="xtick_8">
     <g id="line2d_26">
      <path d="M 137.570696 213.662118 
L 137.570696 135.393882 
" clip-path="url(#ped26703f4c)" style="fill: none; stroke: #b0b0b0; stroke-width: 0.8; stroke-linecap: square"/>
     </g>
     <g id="line2d_27">
      <g>
       <use xlink:href="#m0c2b04e825" x="137.570696" y="213.662118" style="stroke: #000000; stroke-width: 0.8"/>
      </g>
     </g>
     <g id="text_13">
      <!-- 50 -->
      <g transform="translate(131.208196 228.260555) scale(0.1 -0.1)">
       <use xlink:href="#DejaVuSans-35"/>
       <use xlink:href="#DejaVuSans-30" x="63.623047"/>
      </g>
     </g>
    </g>
    <g id="xtick_9">
     <g id="line2d_28">
      <path d="M 201.308665 213.662118 
L 201.308665 135.393882 
" clip-path="url(#ped26703f4c)" style="fill: none; stroke: #b0b0b0; stroke-width: 0.8; stroke-linecap: square"/>
     </g>
     <g id="line2d_29">
      <g>
       <use xlink:href="#m0c2b04e825" x="201.308665" y="213.662118" style="stroke: #000000; stroke-width: 0.8"/>
      </g>
     </g>
     <g id="text_14">
      <!-- 100 -->
      <g transform="translate(191.764915 228.260555) scale(0.1 -0.1)">
       <use xlink:href="#DejaVuSans-31"/>
       <use xlink:href="#DejaVuSans-30" x="63.623047"/>
       <use xlink:href="#DejaVuSans-30" x="127.246094"/>
      </g>
     </g>
    </g>
    <g id="xtick_10">
     <g id="line2d_30">
      <path d="M 265.046634 213.662118 
L 265.046634 135.393882 
" clip-path="url(#ped26703f4c)" style="fill: none; stroke: #b0b0b0; stroke-width: 0.8; stroke-linecap: square"/>
     </g>
     <g id="line2d_31">
      <g>
       <use xlink:href="#m0c2b04e825" x="265.046634" y="213.662118" style="stroke: #000000; stroke-width: 0.8"/>
      </g>
     </g>
     <g id="text_15">
      <!-- 150 -->
      <g transform="translate(255.502884 228.260555) scale(0.1 -0.1)">
       <use xlink:href="#DejaVuSans-31"/>
       <use xlink:href="#DejaVuSans-35" x="63.623047"/>
       <use xlink:href="#DejaVuSans-30" x="127.246094"/>
      </g>
     </g>
    </g>
    <g id="xtick_11">
     <g id="line2d_32">
      <path d="M 328.784603 213.662118 
L 328.784603 135.393882 
" clip-path="url(#ped26703f4c)" style="fill: none; stroke: #b0b0b0; stroke-width: 0.8; stroke-linecap: square"/>
     </g>
     <g id="line2d_33">
      <g>
       <use xlink:href="#m0c2b04e825" x="328.784603" y="213.662118" style="stroke: #000000; stroke-width: 0.8"/>
      </g>
     </g>
     <g id="text_16">
      <!-- 200 -->
      <g transform="translate(319.240853 228.260555) scale(0.1 -0.1)">
       <use xlink:href="#DejaVuSans-32"/>
       <use xlink:href="#DejaVuSans-30" x="63.623047"/>
       <use xlink:href="#DejaVuSans-30" x="127.246094"/>
      </g>
     </g>
    </g>
    <g id="xtick_12">
     <g id="line2d_34">
      <path d="M 392.522572 213.662118 
L 392.522572 135.393882 
" clip-path="url(#ped26703f4c)" style="fill: none; stroke: #b0b0b0; stroke-width: 0.8; stroke-linecap: square"/>
     </g>
     <g id="line2d_35">
      <g>
       <use xlink:href="#m0c2b04e825" x="392.522572" y="213.662118" style="stroke: #000000; stroke-width: 0.8"/>
      </g>
     </g>
     <g id="text_17">
      <!-- 250 -->
      <g transform="translate(382.978822 228.260555) scale(0.1 -0.1)">
       <use xlink:href="#DejaVuSans-32"/>
       <use xlink:href="#DejaVuSans-35" x="63.623047"/>
       <use xlink:href="#DejaVuSans-30" x="127.246094"/>
      </g>
     </g>
    </g>
   </g>
   <g id="matplotlib.axis_4">
    <g id="ytick_4">
     <g id="line2d_36">
      <path d="M 57.6 186.134325 
L 414.72 186.134325 
" clip-path="url(#ped26703f4c)" style="fill: none; stroke: #b0b0b0; stroke-width: 0.8; stroke-linecap: square"/>
     </g>
     <g id="line2d_37">
      <g>
       <use xlink:href="#ma6194a2ebb" x="57.6" y="186.134325" style="stroke: #000000; stroke-width: 0.8"/>
      </g>
     </g>
     <g id="text_18">
      <!-- 0.00375 -->
      <g transform="translate(9.246875 189.933544) scale(0.1 -0.1)">
       <defs>
        <path id="DejaVuSans-33" d="M 2597 2516 
Q 3050 2419 3304 2112 
Q 3559 1806 3559 1356 
Q 3559 666 3084 287 
Q 2609 -91 1734 -91 
Q 1441 -91 1130 -33 
Q 819 25 488 141 
L 488 750 
Q 750 597 1062 519 
Q 1375 441 1716 441 
Q 2309 441 2620 675 
Q 2931 909 2931 1356 
Q 2931 1769 2642 2001 
Q 2353 2234 1838 2234 
L 1294 2234 
L 1294 2753 
L 1863 2753 
Q 2328 2753 2575 2939 
Q 2822 3125 2822 3475 
Q 2822 3834 2567 4026 
Q 2313 4219 1838 4219 
Q 1578 4219 1281 4162 
Q 984 4106 628 3988 
L 628 4550 
Q 988 4650 1302 4700 
Q 1616 4750 1894 4750 
Q 2613 4750 3031 4423 
Q 3450 4097 3450 3541 
Q 3450 3153 3228 2886 
Q 3006 2619 2597 2516 
z
" transform="scale(0.015625)"/>
       </defs>
       <use xlink:href="#DejaVuSans-30"/>
       <use xlink:href="#DejaVuSans-2e" x="63.623047"/>
       <use xlink:href="#DejaVuSans-30" x="95.410156"/>
       <use xlink:href="#DejaVuSans-30" x="159.033203"/>
       <use xlink:href="#DejaVuSans-33" x="222.65625"/>
       <use xlink:href="#DejaVuSans-37" x="286.279297"/>
       <use xlink:href="#DejaVuSans-35" x="349.902344"/>
      </g>
     </g>
    </g>
    <g id="ytick_5">
     <g id="line2d_38">
      <path d="M 57.6 156.514148 
L 414.72 156.514148 
" clip-path="url(#ped26703f4c)" style="fill: none; stroke: #b0b0b0; stroke-width: 0.8; stroke-linecap: square"/>
     </g>
     <g id="line2d_39">
      <g>
       <use xlink:href="#ma6194a2ebb" x="57.6" y="156.514148" style="stroke: #000000; stroke-width: 0.8"/>
      </g>
     </g>
     <g id="text_19">
      <!-- 0.00400 -->
      <g transform="translate(9.246875 160.313366) scale(0.1 -0.1)">
       <defs>
        <path id="DejaVuSans-34" d="M 2419 4116 
L 825 1625 
L 2419 1625 
L 2419 4116 
z
M 2253 4666 
L 3047 4666 
L 3047 1625 
L 3713 1625 
L 3713 1100 
L 3047 1100 
L 3047 0 
L 2419 0 
L 2419 1100 
L 313 1100 
L 313 1709 
L 2253 4666 
z
" transform="scale(0.015625)"/>
       </defs>
       <use xlink:href="#DejaVuSans-30"/>
       <use xlink:href="#DejaVuSans-2e" x="63.623047"/>
       <use xlink:href="#DejaVuSans-30" x="95.410156"/>
       <use xlink:href="#DejaVuSans-30" x="159.033203"/>
       <use xlink:href="#DejaVuSans-34" x="222.65625"/>
       <use xlink:href="#DejaVuSans-30" x="286.279297"/>
       <use xlink:href="#DejaVuSans-30" x="349.902344"/>
      </g>
     </g>
    </g>
    <g id="text_20">
     <!-- bg_y -->
     <g transform="translate(2.889062 186.335813) rotate(-90) scale(0.1 -0.1)">
      <use xlink:href="#DejaVuSans-62"/>
      <use xlink:href="#DejaVuSans-67" x="63.476562"/>
      <use xlink:href="#DejaVuSans-5f" x="126.953125"/>
      <use xlink:href="#DejaVuSans-79" x="176.953125"/>
     </g>
    </g>
   </g>
   <g id="line2d_40">
    <path d="M 73.832727 174.528 
L 398.487273 174.528 
L 398.487273 174.528 
" clip-path="url(#ped26703f4c)" style="fill: none; stroke: #1f77b4; stroke-width: 1.5; stroke-linecap: square"/>
   </g>
   <g id="line2d_41">
    <path d="M 73.832727 138.982087 
L 126.214846 139.019871 
L 126.605937 139.022006 
L 152.283655 139.097172 
L 152.9827 139.09835 
L 172.298376 139.181899 
L 172.49648 139.185072 
L 178.034393 139.288008 
L 178.173729 139.293297 
L 181.348493 139.397695 
L 181.473747 139.402851 
L 183.770491 139.508798 
L 183.890692 139.515482 
L 185.74644 139.622088 
L 185.864022 139.630163 
L 187.404137 139.734396 
L 187.521722 139.743725 
L 188.870123 139.847787 
L 188.98643 139.858276 
L 190.2083 139.963417 
L 190.32333 139.975021 
L 191.482634 140.084441 
L 191.597663 140.097175 
L 192.630316 140.202763 
L 192.745345 140.216507 
L 193.714153 140.322948 
L 193.829183 140.337636 
L 194.734086 140.443032 
L 194.849116 140.458606 
L 195.690113 140.562427 
L 195.803866 140.578824 
L 196.646202 140.68796 
L 196.759895 140.705175 
L 197.538267 140.810693 
L 197.652018 140.828722 
L 198.366485 140.929467 
L 198.480296 140.948167 
L 199.194703 141.052734 
L 199.308457 141.072127 
L 200.024201 141.180345 
L 200.137954 141.200425 
L 200.788516 141.30198 
L 200.902327 141.322657 
L 201.554167 141.427176 
L 201.66786 141.448372 
L 202.318424 141.555735 
L 202.432175 141.5775 
L 203.020111 141.676567 
L 203.133867 141.69886 
L 203.72058 141.800065 
L 203.834273 141.822819 
L 204.422209 141.926015 
L 204.535962 141.949284 
L 205.122619 142.054439 
L 205.236372 142.07803 
L 205.824309 142.185304 
L 205.938121 142.209398 
L 206.524719 142.3184 
L 206.638472 142.342845 
L 207.162503 142.441322 
L 207.276256 142.466197 
L 207.800287 142.565467 
L 207.914044 142.590455 
L 208.436852 142.691224 
L 208.550546 142.7167 
L 209.074577 142.81903 
L 209.18833 142.844841 
L 209.712362 142.948547 
L 209.826115 142.974573 
L 210.348872 143.078987 
L 210.462682 143.105281 
L 210.986713 143.210734 
L 211.100407 143.23722 
L 211.62444 143.343594 
L 211.738193 143.370297 
L 212.262225 143.477438 
L 212.375978 143.504373 
L 212.898753 143.612231 
L 213.012546 143.639306 
L 213.536579 143.747754 
L 213.650273 143.77494 
L 214.174305 143.883845 
L 214.288058 143.911121 
L 214.810814 144.020444 
L 214.924568 144.047904 
L 215.448602 144.157678 
L 215.562414 144.185168 
L 216.086392 144.295238 
L 216.200143 144.322779 
L 216.722897 144.432801 
L 216.836652 144.460448 
L 217.296779 144.557063 
L 217.410533 144.584746 
L 217.87066 144.681434 
L 217.984472 144.709062 
L 218.4446 144.805941 
L 218.558295 144.833635 
L 219.08105 144.943588 
L 219.194805 144.971024 
L 219.654932 145.06801 
L 219.768686 145.095637 
L 220.228815 145.192358 
L 220.342628 145.220002 
L 220.866662 145.330207 
L 220.980357 145.357852 
L 221.503114 145.467954 
L 221.616868 145.495409 
L 222.140903 145.604982 
L 222.254657 145.63234 
L 222.778691 145.741458 
L 222.892505 145.768706 
L 223.415203 145.877601 
L 223.528956 145.904815 
L 224.052992 146.013082 
L 224.166746 146.04017 
L 224.690781 146.147798 
L 224.804535 146.174635 
L 225.327352 146.281475 
L 225.441048 146.308273 
L 225.965084 146.414941 
L 226.078838 146.441418 
L 226.602874 146.547073 
L 226.716628 146.573402 
L 227.239386 146.678219 
L 227.353199 146.704324 
L 227.877236 146.808501 
L 227.990931 146.834476 
L 228.514967 146.93783 
L 228.628723 146.963541 
L 229.15276 147.066002 
L 229.266513 147.091566 
L 229.789278 147.193361 
L 229.903086 147.218728 
L 230.427123 147.319666 
L 230.540819 147.344865 
L 231.064856 147.444974 
L 231.178611 147.469974 
L 231.70137 147.56914 
L 231.815124 147.593913 
L 232.339162 147.692318 
L 232.452976 147.716542 
L 233.039584 147.825593 
L 233.153339 147.849873 
L 233.741284 147.958686 
L 233.855039 147.982727 
L 234.442985 148.090225 
L 234.556739 148.114042 
L 235.143465 148.220486 
L 235.257161 148.244054 
L 235.845108 148.349408 
L 235.958862 148.37267 
L 236.545529 148.476748 
L 236.659288 148.499781 
L 237.247231 148.602711 
L 237.361045 148.625496 
L 237.947655 148.727203 
L 238.061409 148.749763 
L 238.649356 148.850338 
L 238.763111 148.872638 
L 239.349781 148.972139 
L 239.463594 148.994198 
L 240.11545 149.103326 
L 240.229145 149.125085 
L 240.879723 149.232583 
L 240.993477 149.253991 
L 241.645332 149.360011 
L 241.759087 149.380966 
L 242.409668 149.485816 
L 242.52342 149.506833 
L 243.173998 149.610714 
L 243.287753 149.631361 
L 243.939609 149.733748 
L 244.053365 149.754078 
L 244.704002 149.855031 
L 244.817698 149.875112 
L 245.532184 149.984479 
L 245.64594 150.004228 
L 246.361704 150.111925 
L 246.47546 150.131413 
L 247.190006 150.237318 
L 247.303703 150.256453 
L 248.018189 150.360604 
L 248.131949 150.379413 
L 248.847711 150.481964 
L 248.961466 150.500526 
L 249.676014 150.601462 
L 249.789709 150.619686 
L 250.568106 150.727973 
L 250.681866 150.745891 
L 251.46026 150.85231 
L 251.574072 150.869928 
L 252.352409 150.974434 
L 252.466165 150.991692 
L 253.244562 151.09427 
L 253.358321 151.111275 
L 254.137993 151.212579 
L 254.251807 151.229331 
L 255.094053 151.337074 
L 255.209088 151.353566 
L 256.050115 151.459343 
L 256.163871 151.475493 
L 257.006236 151.579368 
L 257.119933 151.595268 
L 257.962239 151.697261 
L 258.077273 151.712823 
L 258.98099 151.820649 
L 259.094687 151.835939 
L 260.000902 151.941711 
L 260.115936 151.956704 
L 261.020874 152.060475 
L 261.135908 152.075191 
L 262.040846 152.177026 
L 262.15588 152.191465 
L 263.124726 152.298485 
L 263.239761 152.31264 
L 264.208666 152.417455 
L 264.3237 152.431359 
L 265.29121 152.534207 
L 265.406245 152.547806 
L 266.43906 152.655333 
L 266.554095 152.66868 
L 267.585515 152.773958 
L 267.700549 152.787019 
L 268.733373 152.890205 
L 268.8484 152.903041 
L 269.945006 153.009991 
L 270.060042 153.022489 
L 271.155489 153.126967 
L 271.270524 153.139146 
L 272.429762 153.247072 
L 272.54483 153.258837 
L 273.705432 153.362938 
L 273.820467 153.374316 
L 275.043616 153.480315 
L 275.159928 153.491307 
L 276.445767 153.598059 
L 276.562138 153.608435 
L 277.911827 153.716201 
L 278.028141 153.726178 
L 279.441798 153.83301 
L 279.558111 153.842476 
L 281.034398 153.948283 
L 281.151991 153.95725 
L 282.692187 154.060495 
L 282.80978 154.068899 
L 284.476516 154.172911 
L 284.595445 154.180609 
L 286.38866 154.28472 
L 286.507531 154.291783 
L 288.492531 154.396465 
L 288.612678 154.402853 
L 290.722941 154.507278 
L 290.844366 154.513788 
L 292.88944 154.617308 
L 293.010866 154.623664 
L 295.249 154.728458 
L 295.370426 154.734033 
L 298.053242 154.836584 
L 298.184894 154.84328 
L 301.495347 154.945281 
L 301.629555 154.950896 
L 305.956152 155.050756 
L 306.11081 155.054421 
L 313.540774 155.1465 
L 313.776014 155.148697 
L 325.077439 155.230505 
L 325.322843 155.232554 
L 334.065468 155.320379 
L 334.259749 155.323735 
L 340.630177 155.417272 
L 340.789947 155.420602 
L 345.98442 155.518037 
L 346.135181 155.522059 
L 350.700795 155.620992 
L 350.847785 155.625541 
L 355.035117 155.724405 
L 355.171822 155.729278 
L 359.241497 155.829134 
L 359.382095 155.834091 
L 363.384015 155.933113 
L 363.524612 155.937995 
L 367.65434 156.036779 
L 367.797552 156.041345 
L 372.052472 156.140707 
L 372.195626 156.145525 
L 376.196245 156.245398 
L 376.336841 156.250328 
L 380.402643 156.350398 
L 380.54324 156.355258 
L 385.373381 156.452708 
L 385.535707 156.455928 
L 393.977919 156.543389 
L 394.278285 156.545143 
L 398.487273 156.561971 
L 398.487273 156.561971 
" clip-path="url(#ped26703f4c)" style="fill: none; stroke: #1f77b4; stroke-width: 0.5; stroke-linecap: square"/>
   </g>
   <g id="line2d_42">
    <path d="M 73.832727 210.073913 
L 126.214846 210.036129 
L 126.605937 210.033994 
L 152.283655 209.958828 
L 152.9827 209.95765 
L 172.298376 209.874101 
L 172.49648 209.870928 
L 178.034393 209.767992 
L 178.173729 209.762703 
L 181.348493 209.658305 
L 181.473747 209.653149 
L 183.770491 209.547202 
L 183.890692 209.540518 
L 185.74644 209.433912 
L 185.864022 209.425837 
L 187.404137 209.321604 
L 187.521722 209.312275 
L 188.870123 209.208213 
L 188.98643 209.197724 
L 190.2083 209.092583 
L 190.32333 209.080979 
L 191.482634 208.971559 
L 191.597663 208.958825 
L 192.630316 208.853237 
L 192.745345 208.839493 
L 193.714153 208.733052 
L 193.829183 208.718364 
L 194.734086 208.612968 
L 194.849116 208.597394 
L 195.690113 208.493573 
L 195.803866 208.477176 
L 196.646202 208.36804 
L 196.759895 208.350825 
L 197.538267 208.245307 
L 197.652018 208.227278 
L 198.366485 208.126533 
L 198.480296 208.107833 
L 199.194703 208.003266 
L 199.308457 207.983873 
L 200.024201 207.875655 
L 200.137954 207.855575 
L 200.788516 207.75402 
L 200.902327 207.733343 
L 201.554167 207.628824 
L 201.66786 207.607628 
L 202.318424 207.500265 
L 202.432175 207.4785 
L 203.020111 207.379433 
L 203.133867 207.35714 
L 203.72058 207.255935 
L 203.834273 207.233181 
L 204.422209 207.129985 
L 204.535962 207.106716 
L 205.122619 207.001561 
L 205.236372 206.97797 
L 205.824309 206.870696 
L 205.938121 206.846602 
L 206.524719 206.7376 
L 206.638472 206.713155 
L 207.162503 206.614678 
L 207.276256 206.589803 
L 207.800287 206.490533 
L 207.914044 206.465545 
L 208.436852 206.364776 
L 208.550546 206.3393 
L 209.074577 206.23697 
L 209.18833 206.211159 
L 209.712362 206.107453 
L 209.826115 206.081427 
L 210.348872 205.977013 
L 210.462682 205.950719 
L 210.986713 205.845266 
L 211.100407 205.81878 
L 211.62444 205.712406 
L 211.738193 205.685703 
L 212.262225 205.578562 
L 212.375978 205.551627 
L 212.898753 205.443769 
L 213.012546 205.416694 
L 213.536579 205.308246 
L 213.650273 205.28106 
L 214.174305 205.172155 
L 214.288058 205.144879 
L 214.810814 205.035556 
L 214.924568 205.008096 
L 215.448602 204.898322 
L 215.562414 204.870832 
L 216.086392 204.760762 
L 216.200143 204.733221 
L 216.722897 204.623199 
L 216.836652 204.595552 
L 217.296779 204.498937 
L 217.410533 204.471254 
L 217.87066 204.374566 
L 217.984472 204.346938 
L 218.4446 204.250059 
L 218.558295 204.222365 
L 219.08105 204.112412 
L 219.194805 204.084976 
L 219.654932 203.98799 
L 219.768686 203.960363 
L 220.228815 203.863642 
L 220.342628 203.835998 
L 220.866662 203.725793 
L 220.980357 203.698148 
L 221.503114 203.588046 
L 221.616868 203.560591 
L 222.140903 203.451018 
L 222.254657 203.42366 
L 222.778691 203.314542 
L 222.892505 203.287294 
L 223.415203 203.178399 
L 223.528956 203.151185 
L 224.052992 203.042918 
L 224.166746 203.01583 
L 224.690781 202.908202 
L 224.804535 202.881365 
L 225.327352 202.774525 
L 225.441048 202.747727 
L 225.965084 202.641059 
L 226.078838 202.614582 
L 226.602874 202.508927 
L 226.716628 202.482598 
L 227.239386 202.377781 
L 227.353199 202.351676 
L 227.877236 202.247499 
L 227.990931 202.221524 
L 228.514967 202.11817 
L 228.628723 202.092459 
L 229.15276 201.989998 
L 229.266513 201.964434 
L 229.789278 201.862639 
L 229.903086 201.837272 
L 230.427123 201.736334 
L 230.540819 201.711135 
L 231.064856 201.611026 
L 231.178611 201.586026 
L 231.70137 201.48686 
L 231.815124 201.462087 
L 232.339162 201.363682 
L 232.452976 201.339458 
L 233.039584 201.230407 
L 233.153339 201.206127 
L 233.741284 201.097314 
L 233.855039 201.073273 
L 234.442985 200.965775 
L 234.556739 200.941958 
L 235.143465 200.835514 
L 235.257161 200.811946 
L 235.845108 200.706592 
L 235.958862 200.68333 
L 236.545529 200.579252 
L 236.659288 200.556219 
L 237.247231 200.453289 
L 237.361045 200.430504 
L 237.947655 200.328797 
L 238.061409 200.306237 
L 238.649356 200.205662 
L 238.763111 200.183362 
L 239.349781 200.083861 
L 239.463594 200.061802 
L 240.11545 199.952674 
L 240.229145 199.930915 
L 240.879723 199.823417 
L 240.993477 199.802009 
L 241.645332 199.695989 
L 241.759087 199.675034 
L 242.409668 199.570184 
L 242.52342 199.549167 
L 243.173998 199.445286 
L 243.287753 199.424639 
L 243.939609 199.322252 
L 244.053365 199.301922 
L 244.704002 199.200969 
L 244.817698 199.180888 
L 245.532184 199.071521 
L 245.64594 199.051772 
L 246.361704 198.944075 
L 246.47546 198.924587 
L 247.190006 198.818682 
L 247.303703 198.799547 
L 248.018189 198.695396 
L 248.131949 198.676587 
L 248.847711 198.574036 
L 248.961466 198.555474 
L 249.676014 198.454538 
L 249.789709 198.436314 
L 250.568106 198.328027 
L 250.681866 198.310109 
L 251.46026 198.20369 
L 251.574072 198.186072 
L 252.352409 198.081566 
L 252.466165 198.064308 
L 253.244562 197.96173 
L 253.358321 197.944725 
L 254.137993 197.843421 
L 254.251807 197.826669 
L 255.094053 197.718926 
L 255.209088 197.702434 
L 256.050115 197.596657 
L 256.163871 197.580507 
L 257.006236 197.476632 
L 257.119933 197.460732 
L 257.962239 197.358739 
L 258.077273 197.343177 
L 258.98099 197.235351 
L 259.094687 197.220061 
L 260.000902 197.114289 
L 260.115936 197.099296 
L 261.020874 196.995525 
L 261.135908 196.980809 
L 262.040846 196.878974 
L 262.15588 196.864535 
L 263.124726 196.757515 
L 263.239761 196.74336 
L 264.208666 196.638545 
L 264.3237 196.624641 
L 265.29121 196.521793 
L 265.406245 196.508194 
L 266.43906 196.400667 
L 266.554095 196.38732 
L 267.585515 196.282042 
L 267.700549 196.268981 
L 268.733373 196.165795 
L 268.8484 196.152959 
L 269.945006 196.046009 
L 270.060042 196.033511 
L 271.155489 195.929033 
L 271.270524 195.916854 
L 272.429762 195.808928 
L 272.54483 195.797163 
L 273.705432 195.693062 
L 273.820467 195.681684 
L 275.043616 195.575685 
L 275.159928 195.564693 
L 276.445767 195.457941 
L 276.562138 195.447565 
L 277.911827 195.339799 
L 278.028141 195.329822 
L 279.441798 195.22299 
L 279.558111 195.213524 
L 281.034398 195.107717 
L 281.151991 195.09875 
L 282.692187 194.995505 
L 282.80978 194.987101 
L 284.476516 194.883089 
L 284.595445 194.875391 
L 286.38866 194.77128 
L 286.507531 194.764217 
L 288.492531 194.659535 
L 288.612678 194.653147 
L 290.722941 194.548722 
L 290.844366 194.542212 
L 292.88944 194.438692 
L 293.010866 194.432336 
L 295.249 194.327542 
L 295.370426 194.321967 
L 298.053242 194.219416 
L 298.184894 194.21272 
L 301.495347 194.110719 
L 301.629555 194.105104 
L 305.956152 194.005244 
L 306.11081 194.001579 
L 313.540774 193.9095 
L 313.776014 193.907303 
L 325.077439 193.825495 
L 325.322843 193.823446 
L 334.065468 193.735621 
L 334.259749 193.732265 
L 340.630177 193.638728 
L 340.789947 193.635398 
L 345.98442 193.537963 
L 346.135181 193.533941 
L 350.700795 193.435008 
L 350.847785 193.430459 
L 355.035117 193.331595 
L 355.171822 193.326722 
L 359.241497 193.226866 
L 359.382095 193.221909 
L 363.384015 193.122887 
L 363.524612 193.118005 
L 367.65434 193.019221 
L 367.797552 193.014655 
L 372.052472 192.915293 
L 372.195626 192.910475 
L 376.196245 192.810602 
L 376.336841 192.805672 
L 380.402643 192.705602 
L 380.54324 192.700742 
L 385.373381 192.603292 
L 385.535707 192.600072 
L 393.977919 192.512611 
L 394.278285 192.510857 
L 398.487273 192.494029 
L 398.487273 192.494029 
" clip-path="url(#ped26703f4c)" style="fill: none; stroke: #1f77b4; stroke-width: 0.5; stroke-linecap: square"/>
   </g>
   <g id="line2d_43">
    <path d="M 73.832727 174.528 
L 398.487273 174.528 
L 398.487273 174.528 
" clip-path="url(#ped26703f4c)" style="fill: none; stroke: #2ca02c; stroke-width: 1.5; stroke-linecap: square"/>
   </g>
   <g id="line2d_44">
    <path d="M 73.832727 173.974106 
L 398.487273 173.974106 
L 398.487273 173.974106 
" clip-path="url(#ped26703f4c)" style="fill: none; stroke: #2ca02c; stroke-width: 1.5; stroke-linecap: square"/>
   </g>
   <g id="patch_8">
    <path d="M 57.6 213.662118 
L 57.6 135.393882 
" style="fill: none; stroke: #000000; stroke-width: 0.8; stroke-linejoin: miter; stroke-linecap: square"/>
   </g>
   <g id="patch_9">
    <path d="M 414.72 213.662118 
L 414.72 135.393882 
" style="fill: none; stroke: #000000; stroke-width: 0.8; stroke-linejoin: miter; stroke-linecap: square"/>
   </g>
   <g id="patch_10">
    <path d="M 57.6 213.662118 
L 414.72 213.662118 
" style="fill: none; stroke: #000000; stroke-width: 0.8; stroke-linejoin: miter; stroke-linecap: square"/>
   </g>
   <g id="patch_11">
    <path d="M 57.6 135.393882 
L 414.72 135.393882 
" style="fill: none; stroke: #000000; stroke-width: 0.8; stroke-linejoin: miter; stroke-linecap: square"/>
   </g>
   <g id="text_21">
    <!-- gyro bias -->
    <g transform="translate(208.611562 129.393882) scale(0.12 -0.12)">
     <use xlink:href="#DejaVuSans-67"/>
     <use xlink:href="#DejaVuSans-79" x="63.476562"/>
     <use xlink:href="#DejaVuSans-72" x="122.65625"/>
     <use xlink:href="#DejaVuSans-6f" x="161.519531"/>
     <use xlink:href="#DejaVuSans-20" x="222.701172"/>
     <use xlink:href="#DejaVuSans-62" x="254.488281"/>
     <use xlink:href="#DejaVuSans-69" x="317.964844"/>
     <use xlink:href="#DejaVuSans-61" x="345.748047"/>
     <use xlink:href="#DejaVuSans-73" x="407.027344"/>
    </g>
   </g>
  </g>
  <g id="axes_3">
   <g id="patch_12">
    <path d="M 57.6 307.584 
L 414.72 307.584 
L 414.72 229.315765 
L 57.6 229.315765 
z
" style="fill: #ffffff"/>
   </g>
   <g id="matplotlib.axis_5">
    <g id="xtick_13">
     <g id="line2d_45">
      <path d="M 73.832727 307.584 
L 73.832727 229.315765 
" clip-path="url(#pc39cae1a04)" style="fill: none; stroke: #b0b0b0; stroke-width: 0.8; stroke-linecap: square"/>
     </g>
     <g id="line2d_46">
      <g>
       <use xlink:href="#m0c2b04e825" x="73.832727" y="307.584" style="stroke: #000000; stroke-width: 0.8"/>
      </g>
     </g>
     <g id="text_22">
      <!-- 0 -->
      <g transform="translate(70.651477 322.182437) scale(0.1 -0.1)">
       <use xlink:href="#DejaVuSans-30"/>
      </g>
     </g>
    </g>
    <g id="xtick_14">
     <g id="line2d_47">
      <path d="M 137.570696 307.584 
L 137.570696 229.315765 
" clip-path="url(#pc39cae1a04)" style="fill: none; stroke: #b0b0b0; stroke-width: 0.8; stroke-linecap: square"/>
     </g>
     <g id="line2d_48">
      <g>
       <use xlink:href="#m0c2b04e825" x="137.570696" y="307.584" style="stroke: #000000; stroke-width: 0.8"/>
      </g>
     </g>
     <g id="text_23">
      <!-- 50 -->
      <g transform="translate(131.208196 322.182437) scale(0.1 -0.1)">
       <use xlink:href="#DejaVuSans-35"/>
       <use xlink:href="#DejaVuSans-30" x="63.623047"/>
      </g>
     </g>
    </g>
    <g id="xtick_15">
     <g id="line2d_49">
      <path d="M 201.308665 307.584 
L 201.308665 229.315765 
" clip-path="url(#pc39cae1a04)" style="fill: none; stroke: #b0b0b0; stroke-width: 0.8; stroke-linecap: square"/>
     </g>
     <g id="line2d_50">
      <g>
       <use xlink:href="#m0c2b04e825" x="201.308665" y="307.584" style="stroke: #000000; stroke-width: 0.8"/>
      </g>
     </g>
     <g id="text_24">
      <!-- 100 -->
      <g transform="translate(191.764915 322.182437) scale(0.1 -0.1)">
       <use xlink:href="#DejaVuSans-31"/>
       <use xlink:href="#DejaVuSans-30" x="63.623047"/>
       <use xlink:href="#DejaVuSans-30" x="127.246094"/>
      </g>
     </g>
    </g>
    <g id="xtick_16">
     <g id="line2d_51">
      <path d="M 265.046634 307.584 
L 265.046634 229.315765 
" clip-path="url(#pc39cae1a04)" style="fill: none; stroke: #b0b0b0; stroke-width: 0.8; stroke-linecap: square"/>
     </g>
     <g id="line2d_52">
      <g>
       <use xlink:href="#m0c2b04e825" x="265.046634" y="307.584" style="stroke: #000000; stroke-width: 0.8"/>
      </g>
     </g>
     <g id="text_25">
      <!-- 150 -->
      <g transform="translate(255.502884 322.182437) scale(0.1 -0.1)">
       <use xlink:href="#DejaVuSans-31"/>
       <use xlink:href="#DejaVuSans-35" x="63.623047"/>
       <use xlink:href="#DejaVuSans-30" x="127.246094"/>
      </g>
     </g>
    </g>
    <g id="xtick_17">
     <g id="line2d_53">
      <path d="M 328.784603 307.584 
L 328.784603 229.315765 
" clip-path="url(#pc39cae1a04)" style="fill: none; stroke: #b0b0b0; stroke-width: 0.8; stroke-linecap: square"/>
     </g>
     <g id="line2d_54">
      <g>
       <use xlink:href="#m0c2b04e825" x="328.784603" y="307.584" style="stroke: #000000; stroke-width: 0.8"/>
      </g>
     </g>
     <g id="text_26">
      <!-- 200 -->
      <g transform="translate(319.240853 322.182437) scale(0.1 -0.1)">
       <use xlink:href="#DejaVuSans-32"/>
       <use xlink:href="#DejaVuSans-30" x="63.623047"/>
       <use xlink:href="#DejaVuSans-30" x="127.246094"/>
      </g>
     </g>
    </g>
    <g id="xtick_18">
     <g id="line2d_55">
      <path d="M 392.522572 307.584 
L 392.522572 229.315765 
" clip-path="url(#pc39cae1a04)" style="fill: none; stroke: #b0b0b0; stroke-width: 0.8; stroke-linecap: square"/>
     </g>
     <g id="line2d_56">
      <g>
       <use xlink:href="#m0c2b04e825" x="392.522572" y="307.584" style="stroke: #000000; stroke-width: 0.8"/>
      </g>
     </g>
     <g id="text_27">
      <!-- 250 -->
      <g transform="translate(382.978822 322.182437) scale(0.1 -0.1)">
       <use xlink:href="#DejaVuSans-32"/>
       <use xlink:href="#DejaVuSans-35" x="63.623047"/>
       <use xlink:href="#DejaVuSans-30" x="127.246094"/>
      </g>
     </g>
    </g>
    <g id="text_28">
     <!-- t (s) -->
     <g transform="translate(226.104531 335.860562) scale(0.1 -0.1)">
      <defs>
       <path id="DejaVuSans-74" d="M 1172 4494 
L 1172 3500 
L 2356 3500 
L 2356 3053 
L 1172 3053 
L 1172 1153 
Q 1172 725 1289 603 
Q 1406 481 1766 481 
L 2356 481 
L 2356 0 
L 1766 0 
Q 1100 0 847 248 
Q 594 497 594 1153 
L 594 3053 
L 172 3053 
L 172 3500 
L 594 3500 
L 594 4494 
L 1172 4494 
z
" transform="scale(0.015625)"/>
       <path id="DejaVuSans-28" d="M 1984 4856 
Q 1566 4138 1362 3434 
Q 1159 2731 1159 2009 
Q 1159 1288 1364 580 
Q 1569 -128 1984 -844 
L 1484 -844 
Q 1016 -109 783 600 
Q 550 1309 550 2009 
Q 550 2706 781 3412 
Q 1013 4119 1484 4856 
L 1984 4856 
z
" transform="scale(0.015625)"/>
       <path id="DejaVuSans-29" d="M 513 4856 
L 1013 4856 
Q 1481 4119 1714 3412 
Q 1947 2706 1947 2009 
Q 1947 1309 1714 600 
Q 1481 -109 1013 -844 
L 513 -844 
Q 928 -128 1133 580 
Q 1338 1288 1338 2009 
Q 1338 2731 1133 3434 
Q 928 4138 513 4856 
z
" transform="scale(0.015625)"/>
      </defs>
      <use xlink:href="#DejaVuSans-74"/>
      <use xlink:href="#DejaVuSans-20" x="39.208984"/>
      <use xlink:href="#DejaVuSans-28" x="70.996094"/>
      <use xlink:href="#DejaVuSans-73" x="110.009766"/>
      <use xlink:href="#DejaVuSans-29" x="162.109375"/>
     </g>
    </g>
   </g>
   <g id="matplotlib.axis_6">
    <g id="ytick_6">
     <g id="line2d_57">
      <path d="M 57.6 296.546416 
L 414.72 296.546416 
" clip-path="url(#pc39cae1a04)" style="fill: none; stroke: #b0b0b0; stroke-width: 0.8; stroke-linecap: square"/>
     </g>
     <g id="line2d_58">
      <g>
       <use xlink:href="#ma6194a2ebb" x="57.6" y="296.546416" style="stroke: #000000; stroke-width: 0.8"/>
      </g>
     </g>
     <g id="text_29">
      <!-- 0.00225 -->
      <g transform="translate(9.246875 300.345635) scale(0.1 -0.1)">
       <use xlink:href="#DejaVuSans-30"/>
       <use xlink:href="#DejaVuSans-2e" x="63.623047"/>
       <use xlink:href="#DejaVuSans-30" x="95.410156"/>
       <use xlink:href="#DejaVuSans-30" x="159.033203"/>
       <use xlink:href="#DejaVuSans-32" x="222.65625"/>
       <use xlink:href="#DejaVuSans-32" x="286.279297"/>
       <use xlink:href="#DejaVuSans-35" x="349.902344"/>
      </g>
     </g>
    </g>
    <g id="ytick_7">
     <g id="line2d_59">
      <path d="M 57.6 266.906654 
L 414.72 266.906654 
" clip-path="url(#pc39cae1a04)" style="fill: none; stroke: #b0b0b0; stroke-width: 0.8; stroke-linecap: square"/>
     </g>
     <g id="line2d_60">
      <g>
       <use xlink:href="#ma6194a2ebb" x="57.6" y="266.906654" style="stroke: #000000; stroke-width: 0.8"/>
      </g>
     </g>
     <g id="text_30">
      <!-- 0.00250 -->
      <g transform="translate(9.246875 270.705873) scale(0.1 -0.1)">
       <use xlink:href="#DejaVuSans-30"/>
       <use xlink:href="#DejaVuSans-2e" x="63.623047"/>
       <use xlink:href="#DejaVuSans-30" x="95.410156"/>
       <use xlink:href="#DejaVuSans-30" x="159.033203"/>
       <use xlink:href="#DejaVuSans-32" x="222.65625"/>
       <use xlink:href="#DejaVuSans-35" x="286.279297"/>
       <use xlink:href="#DejaVuSans-30" x="349.902344"/>
      </g>
     </g>
    </g>
    <g id="ytick_8">
     <g id="line2d_61">
      <path d="M 57.6 237.266892 
L 414.72 237.266892 
" clip-path="url(#pc39cae1a04)" style="fill: none; stroke: #b0b0b0; stroke-width: 0.8; stroke-linecap: square"/>
     </g>
     <g id="line2d_62">
      <g>
       <use xlink:href="#ma6194a2ebb" x="57.6" y="237.266892" style="stroke: #000000; stroke-width: 0.8"/>
      </g>
     </g>
     <g id="text_31">
      <!-- 0.00275 -->
      <g transform="translate(9.246875 241.06611) scale(0.1 -0.1)">
       <use xlink:href="#DejaVuSans-30"/>
       <use xlink:href="#DejaVuSans-2e" x="63.623047"/>
       <use xlink:href="#DejaVuSans-30" x="95.410156"/>
       <use xlink:href="#DejaVuSans-30" x="159.033203"/>
       <use xlink:href="#DejaVuSans-32" x="222.65625"/>
       <use xlink:href="#DejaVuSans-37" x="286.279297"/>
       <use xlink:href="#DejaVuSans-35" x="349.902344"/>
      </g>
     </g>
    </g>
    <g id="text_32">
     <!-- bg_z -->
     <g transform="translate(2.889062 279.922539) rotate(-90) scale(0.1 -0.1)">
      <defs>
       <path id="DejaVuSans-7a" d="M 353 3500 
L 3084 3500 
L 3084 2975 
L 922 459 
L 3084 459 
L 3084 0 
L 275 0 
L 275 525 
L 2438 3041 
L 353 3041 
L 353 3500 
z
" transform="scale(0.015625)"/>
      </defs>
      <use xlink:href="#DejaVuSans-62"/>
      <use xlink:href="#DejaVuSans-67" x="63.476562"/>
      <use xlink:href="#DejaVuSans-5f" x="126.953125"/>
      <use xlink:href="#DejaVuSans-7a" x="176.953125"/>
     </g>
    </g>
   </g>
   <g id="line2d_63">
    <path d="M 73.832727 268.449882 
L 398.487273 268.449882 
L 398.487273 268.449882 
" clip-path="url(#pc39cae1a04)" style="fill: none; stroke: #1f77b4; stroke-width: 1.5; stroke-linecap: square"/>
   </g>
   <g id="line2d_64">
    <path d="M 73.832727 232.880467 
L 96.322858 232.959725 
L 96.476232 232.963583 
L 100.273455 233.067816 
L 100.402522 233.07504 
L 102.887158 233.182631 
L 103.007304 233.189392 
L 104.7992 233.294628 
L 104.916785 233.303131 
L 106.393052 233.409354 
L 106.50936 233.419439 
L 107.795063 233.527965 
L 107.910092 233.539769 
L 109.006699 233.644774 
L 109.121728 233.65812 
L 110.089245 233.761545 
L 110.204274 233.776175 
L 111.109165 233.882826 
L 111.224192 233.898794 
L 112.065177 234.006731 
L 112.178927 234.024092 
L 112.957344 234.132062 
L 113.071034 234.150426 
L 113.786766 234.255845 
L 113.900515 234.275874 
L 114.551063 234.377292 
L 114.664818 234.398431 
L 115.316639 234.507158 
L 115.430448 234.529336 
L 116.017031 234.631854 
L 116.130782 234.655118 
L 116.718706 234.763295 
L 116.832452 234.787716 
L 117.35519 234.888071 
L 117.468999 234.913586 
L 117.993014 235.017657 
L 118.106705 235.043828 
L 118.63072 235.15259 
L 118.74447 235.180319 
L 119.20458 235.278624 
L 119.318331 235.30661 
L 119.778441 235.408304 
L 119.89219 235.437659 
L 120.351081 235.542616 
L 120.464834 235.572411 
L 120.924882 235.679828 
L 121.038631 235.711141 
L 121.434837 235.8065 
L 121.548586 235.838522 
L 121.944791 235.934505 
L 122.058539 235.967514 
L 122.454745 236.067703 
L 122.568555 236.101571 
L 122.964757 236.203244 
L 123.07845 236.236946 
L 123.474652 236.34121 
L 123.588401 236.376419 
L 123.984605 236.483523 
L 124.098354 236.51911 
L 124.494557 236.626403 
L 124.608307 236.663128 
L 124.940606 236.755279 
L 125.054414 236.792722 
L 125.386713 236.885697 
L 125.500402 236.922416 
L 125.832765 237.01767 
L 125.946451 237.056183 
L 126.27875 237.152895 
L 126.392499 237.192193 
L 126.724797 237.288639 
L 126.838547 237.327755 
L 127.170846 237.426919 
L 127.284653 237.466699 
L 127.61817 237.567735 
L 127.731978 237.608043 
L 128.064278 237.707758 
L 128.177967 237.748574 
L 128.510265 237.851359 
L 128.624013 237.892711 
L 128.956312 237.996989 
L 129.07006 238.038216 
L 129.402358 238.142124 
L 129.516106 238.184475 
L 129.848405 238.290615 
L 129.962212 238.333157 
L 130.294511 238.439701 
L 130.408199 238.481597 
L 130.740497 238.589171 
L 130.854246 238.632563 
L 131.186544 238.740993 
L 131.300292 238.78565 
L 131.63259 238.893561 
L 131.746338 238.937103 
L 132.016011 239.025485 
L 132.129759 239.069897 
L 132.398153 239.158377 
L 132.51196 239.203019 
L 132.844258 239.312723 
L 132.957947 239.357061 
L 133.226342 239.446384 
L 133.34009 239.491043 
L 133.608484 239.580686 
L 133.722232 239.626107 
L 133.991905 239.714825 
L 134.105653 239.758751 
L 134.374047 239.848664 
L 134.487795 239.893971 
L 134.756189 239.98412 
L 134.869996 240.029471 
L 135.13839 240.12023 
L 135.25208 240.164705 
L 135.520474 240.253562 
L 135.634222 240.299019 
L 135.903893 240.389587 
L 136.017641 240.434947 
L 136.286036 240.525695 
L 136.399784 240.570636 
L 136.668178 240.65891 
L 136.781926 240.703913 
L 137.05032 240.794577 
L 137.164127 240.839723 
L 137.43374 240.930525 
L 137.547548 240.975882 
L 137.815941 241.0648 
L 137.92963 241.108946 
L 138.198024 241.199034 
L 138.311772 241.243954 
L 138.580165 241.333816 
L 138.693943 241.379009 
L 138.962308 241.468707 
L 139.076056 241.512413 
L 139.345727 241.601393 
L 139.459475 241.646134 
L 139.727869 241.735471 
L 139.841676 241.780184 
L 140.11007 241.869255 
L 140.223759 241.913061 
L 140.556055 242.022693 
L 140.669804 242.066876 
L 140.938197 242.155189 
L 141.051945 242.199644 
L 141.321618 242.288359 
L 141.435365 242.331732 
L 141.767663 242.439366 
L 141.881411 242.48325 
L 142.213708 242.5927 
L 142.327514 242.636315 
L 142.659811 242.744952 
L 142.7735 242.787235 
L 143.105797 242.893402 
L 143.219545 242.936314 
L 143.551842 243.043427 
L 143.66559 243.086393 
L 143.997888 243.191953 
L 144.111634 243.23291 
L 144.443932 243.337035 
L 144.557739 243.379187 
L 144.890036 243.483282 
L 145.003725 243.524754 
L 145.337359 243.626978 
L 145.451047 243.667292 
L 145.783345 243.769565 
L 145.897093 243.810151 
L 146.22939 243.910133 
L 146.343141 243.950069 
L 146.675434 244.048351 
L 146.789182 244.087363 
L 147.12148 244.18494 
L 147.235287 244.22345 
L 147.567584 244.319367 
L 147.681273 244.357519 
L 148.01357 244.451193 
L 148.127318 244.488274 
L 148.523518 244.597428 
L 148.637266 244.633399 
L 149.033468 244.73956 
L 149.147216 244.774968 
L 149.543416 244.880813 
L 149.657223 244.915117 
L 150.053424 245.015856 
L 150.167114 245.049065 
L 150.563315 245.147075 
L 150.677063 245.178887 
L 151.137167 245.287196 
L 151.250915 245.31733 
L 151.711021 245.421391 
L 151.824769 245.450236 
L 152.283655 245.548295 
L 152.397345 245.576066 
L 152.921354 245.683106 
L 153.035102 245.708726 
L 153.559111 245.809126 
L 153.672863 245.833717 
L 154.259494 245.94144 
L 154.373301 245.964728 
L 154.961215 246.068747 
L 155.074904 246.0912 
L 155.662817 246.191739 
L 155.776566 246.213686 
L 156.363201 246.312785 
L 156.476949 246.334457 
L 157.128767 246.441814 
L 157.242597 246.46322 
L 157.893057 246.568729 
L 158.006805 246.589601 
L 158.657346 246.693441 
L 158.771094 246.714077 
L 159.422913 246.816849 
L 159.536665 246.837391 
L 160.187232 246.937854 
L 160.300952 246.957672 
L 161.016679 247.065218 
L 161.130424 247.08422 
L 161.908774 247.19336 
L 162.022584 247.210898 
L 162.864779 247.31832 
L 162.979806 247.333834 
L 163.884687 247.439043 
L 163.999715 247.453612 
L 164.968559 247.560504 
L 165.083605 247.574729 
L 166.051036 247.680189 
L 166.166064 247.694378 
L 167.134909 247.801545 
L 167.2486 247.815957 
L 168.218666 247.922234 
L 168.333694 247.936171 
L 169.302482 248.042485 
L 169.41751 248.056757 
L 170.386299 248.163939 
L 170.501327 248.178312 
L 171.468837 248.28434 
L 171.583865 248.298345 
L 172.552656 248.40259 
L 172.667746 248.416523 
L 173.636479 248.519642 
L 173.751504 248.533288 
L 174.78426 248.640906 
L 174.899288 248.654269 
L 175.930648 248.758117 
L 176.045677 248.770862 
L 177.14234 248.877997 
L 177.257368 248.890358 
L 178.352635 248.994254 
L 178.467664 249.006293 
L 179.628234 249.112208 
L 179.743262 249.123651 
L 180.966342 249.231031 
L 181.08267 249.242133 
L 182.368416 249.349855 
L 182.484783 249.360374 
L 183.8344 249.467096 
L 183.950704 249.476986 
L 185.364284 249.581681 
L 185.480591 249.590865 
L 187.020706 249.696543 
L 187.138291 249.705 
L 188.806218 249.809369 
L 188.925081 249.817002 
L 190.782171 249.921271 
L 190.902313 249.928041 
L 193.012471 250.031431 
L 193.135169 250.037235 
L 195.626208 250.139607 
L 195.752742 250.144342 
L 198.876512 250.245752 
L 199.009376 250.251278 
L 203.402269 250.349864 
L 203.559477 250.353409 
L 211.05062 250.443451 
L 211.289573 250.445387 
L 231.574835 250.500453 
L 232.222911 250.501137 
L 263.124726 250.526804 
L 263.671838 250.527728 
L 312.648617 250.502836 
L 313.024396 250.50428 
L 321.763169 250.590817 
L 321.928052 250.59414 
L 326.41567 250.691739 
L 326.554989 250.697063 
L 329.857758 250.79765 
L 329.986853 250.804571 
L 332.660826 250.905601 
L 332.815425 250.913886 
L 335.148072 251.018138 
L 335.269497 251.024372 
L 337.315837 251.129601 
L 337.434709 251.136604 
L 339.29188 251.242199 
L 339.410748 251.249646 
L 341.076197 251.352115 
L 341.195067 251.360387 
L 342.796694 251.465724 
L 342.912922 251.47443 
L 344.390482 251.576519 
L 344.506795 251.585749 
L 345.920449 251.688387 
L 346.03804 251.697901 
L 347.450415 251.804768 
L 347.566749 251.814711 
L 348.915195 251.920653 
L 349.031509 251.930971 
L 350.317346 252.034534 
L 350.433718 252.044906 
L 351.720773 252.150786 
L 351.837108 252.161385 
L 353.059014 252.264299 
L 353.175386 252.275306 
L 354.397254 252.379924 
L 354.512289 252.391155 
L 355.735493 252.497098 
L 355.850528 252.508418 
L 357.073791 252.615444 
L 357.188826 252.626818 
L 358.349342 252.728957 
L 358.464374 252.74039 
L 359.623726 252.843107 
L 359.738705 252.854644 
L 360.897994 252.957255 
L 361.013029 252.968719 
L 362.173656 253.071171 
L 362.28869 253.08259 
L 363.447922 253.184649 
L 363.562956 253.195978 
L 364.786154 253.303011 
L 364.902526 253.314293 
L 366.125664 253.420554 
L 366.240698 253.431856 
L 367.463894 253.53673 
L 367.580265 253.547836 
L 368.802127 253.651433 
L 368.918436 253.662313 
L 370.140353 253.76433 
L 370.256664 253.775057 
L 371.47864 253.876608 
L 371.593673 253.887427 
L 372.818086 253.98939 
L 372.934397 254.000122 
L 374.220279 254.106119 
L 374.336532 254.116671 
L 375.622371 254.219905 
L 375.738666 254.230091 
L 377.088394 254.334083 
L 377.204766 254.343859 
L 378.617124 254.448763 
L 378.733377 254.458113 
L 380.21092 254.563507 
L 380.32851 254.572404 
L 381.932592 254.676199 
L 382.05146 254.683945 
L 383.844768 254.785309 
L 383.963577 254.792039 
L 386.075147 254.893389 
L 386.196572 254.899017 
L 388.751543 254.998481 
L 388.881915 255.005189 
L 392.257521 255.102598 
L 392.395621 255.107634 
L 396.655658 255.202056 
L 396.802646 255.206127 
L 398.487273 255.238353 
L 398.487273 255.238353 
" clip-path="url(#pc39cae1a04)" style="fill: none; stroke: #1f77b4; stroke-width: 0.5; stroke-linecap: square"/>
   </g>
   <g id="line2d_65">
    <path d="M 73.832727 304.019298 
L 96.322858 303.94004 
L 96.476232 303.936182 
L 100.273455 303.831949 
L 100.402522 303.824724 
L 102.887158 303.717133 
L 103.007304 303.710372 
L 104.7992 303.605137 
L 104.916785 303.596634 
L 106.393052 303.49041 
L 106.50936 303.480326 
L 107.795063 303.3718 
L 107.910092 303.359996 
L 109.006699 303.254991 
L 109.121728 303.241644 
L 110.089245 303.138219 
L 110.204274 303.123589 
L 111.109165 303.016939 
L 111.224192 303.000971 
L 112.065177 302.893034 
L 112.178927 302.875673 
L 112.957344 302.767703 
L 113.071034 302.749339 
L 113.786766 302.64392 
L 113.900515 302.623891 
L 114.551063 302.522473 
L 114.664818 302.501333 
L 115.316639 302.392607 
L 115.430448 302.370428 
L 116.017031 302.267911 
L 116.130782 302.244647 
L 116.718706 302.136469 
L 116.832452 302.112049 
L 117.35519 302.011694 
L 117.468999 301.986179 
L 117.993014 301.882107 
L 118.106705 301.855937 
L 118.63072 301.747175 
L 118.74447 301.719445 
L 119.20458 301.621141 
L 119.318331 301.593154 
L 119.778441 301.491461 
L 119.89219 301.462106 
L 120.351081 301.357149 
L 120.464834 301.327354 
L 120.924882 301.219937 
L 121.038631 301.188624 
L 121.434837 301.093264 
L 121.548586 301.061243 
L 121.944791 300.965259 
L 122.058539 300.93225 
L 122.454745 300.832062 
L 122.568555 300.798194 
L 122.964757 300.696521 
L 123.07845 300.662819 
L 123.474652 300.558555 
L 123.588401 300.523346 
L 123.984605 300.416241 
L 124.098354 300.380654 
L 124.494557 300.273362 
L 124.608307 300.236637 
L 124.940606 300.144485 
L 125.054414 300.107043 
L 125.386713 300.014068 
L 125.500402 299.977349 
L 125.832765 299.882094 
L 125.946451 299.843582 
L 126.27875 299.74687 
L 126.392499 299.707572 
L 126.724797 299.611125 
L 126.838547 299.57201 
L 127.170846 299.472845 
L 127.284653 299.433066 
L 127.61817 299.33203 
L 127.731978 299.291722 
L 128.064278 299.192007 
L 128.177967 299.151191 
L 128.510265 299.048406 
L 128.624013 299.007054 
L 128.956312 298.902776 
L 129.07006 298.861549 
L 129.402358 298.757641 
L 129.516106 298.71529 
L 129.848405 298.609149 
L 129.962212 298.566607 
L 130.294511 298.460064 
L 130.408199 298.418168 
L 130.740497 298.310594 
L 130.854246 298.267202 
L 131.186544 298.158772 
L 131.300292 298.114114 
L 131.63259 298.006203 
L 131.746338 297.962662 
L 132.016011 297.87428 
L 132.129759 297.829867 
L 132.398153 297.741387 
L 132.51196 297.696746 
L 132.844258 297.587042 
L 132.957947 297.542703 
L 133.226342 297.45338 
L 133.34009 297.408721 
L 133.608484 297.319078 
L 133.722232 297.273658 
L 133.991905 297.184939 
L 134.105653 297.141013 
L 134.374047 297.051101 
L 134.487795 297.005794 
L 134.756189 296.915645 
L 134.869996 296.870294 
L 135.13839 296.779534 
L 135.25208 296.73506 
L 135.520474 296.646202 
L 135.634222 296.600746 
L 135.903893 296.510178 
L 136.017641 296.464818 
L 136.286036 296.37407 
L 136.399784 296.329128 
L 136.668178 296.240854 
L 136.781926 296.195852 
L 137.05032 296.105187 
L 137.164127 296.060042 
L 137.43374 295.96924 
L 137.547548 295.923883 
L 137.815941 295.834965 
L 137.92963 295.790818 
L 138.198024 295.700731 
L 138.311772 295.655811 
L 138.580165 295.565949 
L 138.693943 295.520756 
L 138.962308 295.431058 
L 139.076056 295.387352 
L 139.345727 295.298372 
L 139.459475 295.253631 
L 139.727869 295.164294 
L 139.841676 295.11958 
L 140.11007 295.030509 
L 140.223759 294.986704 
L 140.556055 294.877072 
L 140.669804 294.832888 
L 140.938197 294.744575 
L 141.051945 294.700121 
L 141.321618 294.611406 
L 141.435365 294.568033 
L 141.767663 294.460398 
L 141.881411 294.416514 
L 142.213708 294.307064 
L 142.327514 294.26345 
L 142.659811 294.154812 
L 142.7735 294.11253 
L 143.105797 294.006363 
L 143.219545 293.963451 
L 143.551842 293.856337 
L 143.66559 293.813372 
L 143.997888 293.707811 
L 144.111634 293.666855 
L 144.443932 293.56273 
L 144.557739 293.520577 
L 144.890036 293.416483 
L 145.003725 293.37501 
L 145.337359 293.272787 
L 145.451047 293.232472 
L 145.783345 293.1302 
L 145.897093 293.089614 
L 146.22939 292.989632 
L 146.343141 292.949696 
L 146.675434 292.851414 
L 146.789182 292.812402 
L 147.12148 292.714825 
L 147.235287 292.676315 
L 147.567584 292.580398 
L 147.681273 292.542245 
L 148.01357 292.448572 
L 148.127318 292.411491 
L 148.523518 292.302337 
L 148.637266 292.266365 
L 149.033468 292.160205 
L 149.147216 292.124797 
L 149.543416 292.018952 
L 149.657223 291.984648 
L 150.053424 291.883909 
L 150.167114 291.8507 
L 150.563315 291.752689 
L 150.677063 291.720877 
L 151.137167 291.612569 
L 151.250915 291.582435 
L 151.711021 291.478373 
L 151.824769 291.449529 
L 152.283655 291.351469 
L 152.397345 291.323699 
L 152.921354 291.216658 
L 153.035102 291.191039 
L 153.559111 291.090639 
L 153.672863 291.066047 
L 154.259494 290.958325 
L 154.373301 290.935037 
L 154.961215 290.831018 
L 155.074904 290.808565 
L 155.662817 290.708026 
L 155.776566 290.686079 
L 156.363201 290.58698 
L 156.476949 290.565308 
L 157.128767 290.457951 
L 157.242597 290.436545 
L 157.893057 290.331035 
L 158.006805 290.310164 
L 158.657346 290.206324 
L 158.771094 290.185688 
L 159.422913 290.082916 
L 159.536665 290.062374 
L 160.187232 289.961911 
L 160.300952 289.942092 
L 161.016679 289.834547 
L 161.130424 289.815545 
L 161.908774 289.706405 
L 162.022584 289.688867 
L 162.864779 289.581445 
L 162.979806 289.56593 
L 163.884687 289.460722 
L 163.999715 289.446152 
L 164.968559 289.339261 
L 165.083605 289.325036 
L 166.051036 289.219576 
L 166.166064 289.205387 
L 167.134909 289.098219 
L 167.2486 289.083807 
L 168.218666 288.977531 
L 168.333694 288.963594 
L 169.302482 288.857279 
L 169.41751 288.843007 
L 170.386299 288.735826 
L 170.501327 288.721453 
L 171.468837 288.615425 
L 171.583865 288.60142 
L 172.552656 288.497175 
L 172.667746 288.483241 
L 173.636479 288.380123 
L 173.751504 288.366476 
L 174.78426 288.258858 
L 174.899288 288.245495 
L 175.930648 288.141648 
L 176.045677 288.128902 
L 177.14234 288.021767 
L 177.257368 288.009406 
L 178.352635 287.905511 
L 178.467664 287.893472 
L 179.628234 287.787557 
L 179.743262 287.776114 
L 180.966342 287.668733 
L 181.08267 287.657632 
L 182.368416 287.54991 
L 182.484783 287.539391 
L 183.8344 287.432668 
L 183.950704 287.422779 
L 185.364284 287.318084 
L 185.480591 287.308899 
L 187.020706 287.203221 
L 187.138291 287.194764 
L 188.806218 287.090396 
L 188.925081 287.082763 
L 190.782171 286.978494 
L 190.902313 286.971724 
L 193.012471 286.868334 
L 193.135169 286.86253 
L 195.626208 286.760157 
L 195.752742 286.755423 
L 198.876512 286.654013 
L 199.009376 286.648487 
L 203.402269 286.549901 
L 203.559477 286.546356 
L 211.05062 286.456314 
L 211.289573 286.454378 
L 231.574835 286.399312 
L 232.222911 286.398628 
L 263.124726 286.372961 
L 263.671838 286.372037 
L 312.648617 286.396929 
L 313.024396 286.395485 
L 321.763169 286.308948 
L 321.928052 286.305625 
L 326.41567 286.208026 
L 326.554989 286.202702 
L 329.857758 286.102115 
L 329.986853 286.095193 
L 332.660826 285.994164 
L 332.815425 285.985879 
L 335.148072 285.881626 
L 335.269497 285.875393 
L 337.315837 285.770164 
L 337.434709 285.763161 
L 339.29188 285.657566 
L 339.410748 285.650119 
L 341.076197 285.54765 
L 341.195067 285.539378 
L 342.796694 285.434041 
L 342.912922 285.425335 
L 344.390482 285.323245 
L 344.506795 285.314015 
L 345.920449 285.211378 
L 346.03804 285.201864 
L 347.450415 285.094997 
L 347.566749 285.085053 
L 348.915195 284.979111 
L 349.031509 284.968794 
L 350.317346 284.865231 
L 350.433718 284.854859 
L 351.720773 284.748979 
L 351.837108 284.738379 
L 353.059014 284.635466 
L 353.175386 284.624459 
L 354.397254 284.51984 
L 354.512289 284.508609 
L 355.735493 284.402667 
L 355.850528 284.391347 
L 357.073791 284.28432 
L 357.188826 284.272947 
L 358.349342 284.170807 
L 358.464374 284.159375 
L 359.623726 284.056658 
L 359.738705 284.045121 
L 360.897994 283.94251 
L 361.013029 283.931046 
L 362.173656 283.828594 
L 362.28869 283.817174 
L 363.447922 283.715116 
L 363.562956 283.703786 
L 364.786154 283.596753 
L 364.902526 283.585472 
L 366.125664 283.479211 
L 366.240698 283.467909 
L 367.463894 283.363035 
L 367.580265 283.351929 
L 368.802127 283.248332 
L 368.918436 283.237452 
L 370.140353 283.135434 
L 370.256664 283.124707 
L 371.47864 283.023157 
L 371.593673 283.012338 
L 372.818086 282.910375 
L 372.934397 282.899643 
L 374.220279 282.793645 
L 374.336532 282.783094 
L 375.622371 282.67986 
L 375.738666 282.669673 
L 377.088394 282.565681 
L 377.204766 282.555906 
L 378.617124 282.451002 
L 378.733377 282.441652 
L 380.21092 282.336258 
L 380.32851 282.327361 
L 381.932592 282.223566 
L 382.05146 282.215819 
L 383.844768 282.114456 
L 383.963577 282.107726 
L 386.075147 282.006376 
L 386.196572 282.000748 
L 388.751543 281.901284 
L 388.881915 281.894575 
L 392.257521 281.797166 
L 392.395621 281.792131 
L 396.655658 281.697709 
L 396.802646 281.693638 
L 398.487273 281.661412 
L 398.487273 281.661412 
" clip-path="url(#pc39cae1a04)" style="fill: none; stroke: #1f77b4; stroke-width: 0.5; stroke-linecap: square"/>
   </g>
   <g id="line2d_66">
    <path d="M 73.832727 268.449882 
L 398.487273 268.449882 
L 398.487273 268.449882 
" clip-path="url(#pc39cae1a04)" style="fill: none; stroke: #2ca02c; stroke-width: 1.5; stroke-linecap: square"/>
   </g>
   <g id="line2d_67">
    <path d="M 73.832727 271.037056 
L 398.487273 271.037056 
L 398.487273 271.037056 
" clip-path="url(#pc39cae1a04)" style="fill: none; stroke: #2ca02c; stroke-width: 1.5; stroke-linecap: square"/>
   </g>
   <g id="patch_13">
    <path d="M 57.6 307.584 
L 57.6 229.315765 
" style="fill: none; stroke: #000000; stroke-width: 0.8; stroke-linejoin: miter; stroke-linecap: square"/>
   </g>
   <g id="patch_14">
    <path d="M 414.72 307.584 
L 414.72 229.315765 
" style="fill: none; stroke: #000000; stroke-width: 0.8; stroke-linejoin: miter; stroke-linecap: square"/>
   </g>
   <g id="patch_15">
    <path d="M 57.6 307.584 
L 414.72 307.584 
" style="fill: none; stroke: #000000; stroke-width: 0.8; stroke-linejoin: miter; stroke-linecap: square"/>
   </g>
   <g id="patch_16">
    <path d="M 57.6 229.315765 
L 414.72 229.315765 
" style="fill: none; stroke: #000000; stroke-width: 0.8; stroke-linejoin: miter; stroke-linecap: square"/>
   </g>
   <g id="text_33">
    <!-- gyro bias -->
    <g transform="translate(208.611562 223.315765) scale(0.12 -0.12)">
     <use xlink:href="#DejaVuSans-67"/>
     <use xlink:href="#DejaVuSans-79" x="63.476562"/>
     <use xlink:href="#DejaVuSans-72" x="122.65625"/>
     <use xlink:href="#DejaVuSans-6f" x="161.519531"/>
     <use xlink:href="#DejaVuSans-20" x="222.701172"/>
     <use xlink:href="#DejaVuSans-62" x="254.488281"/>
     <use xlink:href="#DejaVuSans-69" x="317.964844"/>
     <use xlink:href="#DejaVuSans-61" x="345.748047"/>
     <use xlink:href="#DejaVuSans-73" x="407.027344"/>
    </g>
   </g>
   <g id="legend_1">
    <g id="patch_17">
     <path d="M 208.529531 281.35014 
L 263.790469 281.35014 
Q 265.790469 281.35014 265.790469 279.35014 
L 265.790469 236.315765 
Q 265.790469 234.315765 263.790469 234.315765 
L 208.529531 234.315765 
Q 206.529531 234.315765 206.529531 236.315765 
L 206.529531 279.35014 
Q 206.529531 281.35014 208.529531 281.35014 
z
" style="fill: #ffffff; opacity: 0.8; stroke: #cccccc; stroke-linejoin: miter"/>
    </g>
    <g id="line2d_68">
     <path d="M 210.529531 242.414202 
L 220.529531 242.414202 
L 230.529531 242.414202 
" style="fill: none; stroke: #1f77b4; stroke-width: 1.5; stroke-linecap: square"/>
    </g>
    <g id="text_34">
     <!-- filter -->
     <g transform="translate(238.529531 245.914202) scale(0.1 -0.1)">
      <defs>
       <path id="DejaVuSans-66" d="M 2375 4863 
L 2375 4384 
L 1825 4384 
Q 1516 4384 1395 4259 
Q 1275 4134 1275 3809 
L 1275 3500 
L 2222 3500 
L 2222 3053 
L 1275 3053 
L 1275 0 
L 697 0 
L 697 3053 
L 147 3053 
L 147 3500 
L 697 3500 
L 697 3744 
Q 697 4328 969 4595 
Q 1241 4863 1831 4863 
L 2375 4863 
z
" transform="scale(0.015625)"/>
       <path id="DejaVuSans-6c" d="M 603 4863 
L 1178 4863 
L 1178 0 
L 603 0 
L 603 4863 
z
" transform="scale(0.015625)"/>
       <path id="DejaVuSans-65" d="M 3597 1894 
L 3597 1613 
L 953 1613 
Q 991 1019 1311 708 
Q 1631 397 2203 397 
Q 2534 397 2845 478 
Q 3156 559 3463 722 
L 3463 178 
Q 3153 47 2828 -22 
Q 2503 -91 2169 -91 
Q 1331 -91 842 396 
Q 353 884 353 1716 
Q 353 2575 817 3079 
Q 1281 3584 2069 3584 
Q 2775 3584 3186 3129 
Q 3597 2675 3597 1894 
z
M 3022 2063 
Q 3016 2534 2758 2815 
Q 2500 3097 2075 3097 
Q 1594 3097 1305 2825 
Q 1016 2553 972 2059 
L 3022 2063 
z
" transform="scale(0.015625)"/>
      </defs>
      <use xlink:href="#DejaVuSans-66"/>
      <use xlink:href="#DejaVuSans-69" x="35.205078"/>
      <use xlink:href="#DejaVuSans-6c" x="62.988281"/>
      <use xlink:href="#DejaVuSans-74" x="90.771484"/>
      <use xlink:href="#DejaVuSans-65" x="129.980469"/>
      <use xlink:href="#DejaVuSans-72" x="191.503906"/>
     </g>
    </g>
    <g id="line2d_69">
     <path d="M 210.529531 257.092327 
L 220.529531 257.092327 
L 230.529531 257.092327 
" style="fill: none; stroke: #2ca02c; stroke-width: 1.5; stroke-linecap: square"/>
    </g>
    <g id="text_35">
     <!-- vio -->
     <g transform="translate(238.529531 260.592327) scale(0.1 -0.1)">
      <defs>
       <path id="DejaVuSans-76" d="M 191 3500 
L 800 3500 
L 1894 563 
L 2988 3500 
L 3597 3500 
L 2284 0 
L 1503 0 
L 191 3500 
z
" transform="scale(0.015625)"/>
      </defs>
      <use xlink:href="#DejaVuSans-76"/>
      <use xlink:href="#DejaVuSans-69" x="59.179688"/>
      <use xlink:href="#DejaVuSans-6f" x="86.962891"/>
     </g>
    </g>
    <g id="line2d_70">
     <path d="M 210.529531 271.770452 
L 220.529531 271.770452 
L 230.529531 271.770452 
" style="fill: none; stroke: #2ca02c; stroke-width: 1.5; stroke-linecap: square"/>
    </g>
    <g id="text_36">
     <!-- viob -->
     <g transform="translate(238.529531 275.270452) scale(0.1 -0.1)">
      <use xlink:href="#DejaVuSans-76"/>
      <use xlink:href="#DejaVuSans-69" x="59.179688"/>
      <use xlink:href="#DejaVuSans-6f" x="86.962891"/>
      <use xlink:href="#DejaVuSans-62" x="148.144531"/>
     </g>
    </g>
   </g>
  </g>
 </g>
 <defs>
  <clipPath id="p1434491822">
   <rect x="57.6" y="41.472" width="357.12" height="78.268235"/>
  </clipPath>
  <clipPath id="ped26703f4c">
   <rect x="57.6" y="135.393882" width="357.12" height="78.268235"/>
  </clipPath>
  <clipPath id="pc39cae1a04">
   <rect x="57.6" y="229.315765" width="357.12" height="78.268235"/>
  </clipPath>
 </defs>
</svg>
