<?xml version="1.0" encoding="utf-8" standalone="no"?>
<!DOCTYPE svg PUBLIC "-//W3C//DTD SVG 1.1//EN"
  "http://www.w3.org/Graphics/SVG/1.1/DTD/svg11.dtd">
<svg xmlns:xlink="http://www.w3.org/1999/xlink" width="460.8pt" height="345.6pt" viewBox="0 0 460.8 345.6" xmlns="http://www.w3.org/2000/svg" version="1.1">
 <metadata>
  <rdf:RDF xmlns:dc="http://purl.org/dc/elements/1.1/" xmlns:cc="http://creativecommons.org/ns#" xmlns:rdf="http://www.w3.org/1999/02/22-rdf-syntax-ns#">
   <cc:Work>
    <dc:type rdf:resource="http://purl.org/dc/dcmitype/StillImage"/>
    <dc:date>2026-01-13T18:47:01.126397</dc:date>
    <dc:format>image/svg+xml</dc:format>
    <dc:creator>
     <cc:Agent>
      <dc:title>Matplotlib v3.9.4, https://matplotlib.org/</dc:title>
     </cc:Agent>
    </dc:creator>
   </cc:Work>
  </rdf:RDF>
 </metadata>
 <defs>
  <style type="text/css">*{stroke-linejoin: round; stroke-linecap: butt}</style>
 </defs>
 <g id="figure_1">
  <g id="patch_1">
   <path d="M 0 345.6 
L 460.8 345.6 
L 460.8 0 
L 0 0 
z
" style="fill: #ffffff"/>
  </g>
  <g id="patch_2">
   <path d="M 103.104 307.584 
L 369.216 307.584 
L 369.216 41.472 
L 103.104 41.472 
z
" style="fill: #ffffff"/>
  </g>
  <g id="pane3d_1">
   <g id="patch_3">
    <path d="M 123.197291 241.969309 
L 211.076164 168.307495 
L 209.854564 62.073991 
L 117.770234 129.272941 
" style="fill: #f2f2f2; opacity: 0.5; stroke: #f2f2f2; stroke-linejoin: miter"/>
   </g>
  </g>
  <g id="pane3d_2">
   <g id="patch_4">
    <path d="M 211.076164 168.307495 
L 352.090401 209.294766 
L 357.122702 99.402171 
L 209.854564 62.073991 
" style="fill: #e6e6e6; opacity: 0.5; stroke: #e6e6e6; stroke-linejoin: miter"/>
   </g>
  </g>
  <g id="pane3d_3">
   <g id="patch_5">
    <path d="M 123.197291 241.969309 
L 272.679269 290.790123 
L 352.090401 209.294766 
L 211.076164 168.307495 
" style="fill: #ececec; opacity: 0.5; stroke: #ececec; stroke-linejoin: miter"/>
   </g>
  </g>
  <g id="grid3d_1">
   <g id="Line3DCollection_1">
    <path d="M 141.367548 247.903715 
L 228.283717 173.309051 
L 227.79198 66.620603 
" style="fill: none; stroke: #b0b0b0; stroke-width: 0.8"/>
    <path d="M 171.513796 257.749479 
L 256.79197 181.595275 
L 257.529751 74.158261 
" style="fill: none; stroke: #b0b0b0; stroke-width: 0.8"/>
    <path d="M 202.321383 267.811237 
L 285.873185 190.048036 
L 287.89135 81.854041 
" style="fill: none; stroke: #b0b0b0; stroke-width: 0.8"/>
    <path d="M 233.812313 278.096175 
L 315.544812 198.672406 
L 318.896616 89.712972 
" style="fill: none; stroke: #b0b0b0; stroke-width: 0.8"/>
    <path d="M 266.009576 288.611801 
L 345.825014 207.473666 
L 350.566236 97.740298 
" style="fill: none; stroke: #b0b0b0; stroke-width: 0.8"/>
   </g>
  </g>
  <g id="grid3d_2">
   <g id="Line3DCollection_2">
    <path d="M 132.480088 118.538359 
L 137.19062 230.239823 
L 285.371252 277.765025 
" style="fill: none; stroke: #b0b0b0; stroke-width: 0.8"/>
    <path d="M 152.428735 103.980745 
L 156.194665 214.310256 
L 302.579377 260.105257 
" style="fill: none; stroke: #b0b0b0; stroke-width: 0.8"/>
    <path d="M 171.644638 89.957855 
L 174.530237 198.941016 
L 319.151065 243.098628 
" style="fill: none; stroke: #b0b0b0; stroke-width: 0.8"/>
    <path d="M 190.16744 76.440757 
L 192.231995 184.103052 
L 335.120983 226.709563 
" style="fill: none; stroke: #b0b0b0; stroke-width: 0.8"/>
    <path d="M 208.033978 63.402572 
L 209.332245 169.769283 
L 350.521325 210.905024 
" style="fill: none; stroke: #b0b0b0; stroke-width: 0.8"/>
   </g>
  </g>
  <g id="grid3d_3">
   <g id="Line3DCollection_3">
    <path d="M 352.543875 199.392052 
L 210.965871 158.716107 
L 122.708994 231.829509 
" style="fill: none; stroke: #b0b0b0; stroke-width: 0.8"/>
    <path d="M 353.560813 177.184707 
L 210.718685 137.220201 
L 121.613424 209.079287 
" style="fill: none; stroke: #b0b0b0; stroke-width: 0.8"/>
    <path d="M 354.596257 154.573258 
L 210.467218 115.351982 
L 120.497151 185.899154 
" style="fill: none; stroke: #b0b0b0; stroke-width: 0.8"/>
    <path d="M 355.650716 131.546574 
L 210.211358 93.101692 
L 119.359583 162.276806 
" style="fill: none; stroke: #b0b0b0; stroke-width: 0.8"/>
    <path d="M 356.724718 108.093111 
L 209.950987 70.45923 
L 118.200103 138.199468 
" style="fill: none; stroke: #b0b0b0; stroke-width: 0.8"/>
   </g>
  </g>
  <g id="axis3d_1">
   <g id="line2d_1">
    <path d="M 123.197291 241.969309 
L 272.679269 290.790123 
" style="fill: none; stroke: #000000; stroke-width: 0.8; stroke-linecap: square"/>
   </g>
   <g id="xtick_1">
    <g id="line2d_2">
     <path d="M 142.124612 247.253975 
L 139.850162 249.205992 
" style="fill: none; stroke: #000000; stroke-width: 0.8; stroke-linecap: square"/>
    </g>
    <g id="text_1">
     <!-- 0 -->
     <g transform="translate(130.666372 271.275882) scale(0.1 -0.1)">
      <defs>
       <path id="DejaVuSans-30" d="M 2034 4250 
Q 1547 4250 1301 3770 
Q 1056 3291 1056 2328 
Q 1056 1369 1301 889 
Q 1547 409 2034 409 
Q 2525 409 2770 889 
Q 3016 1369 3016 2328 
Q 3016 3291 2770 3770 
Q 2525 4250 2034 4250 
z
M 2034 4750 
Q 2819 4750 3233 4129 
Q 3647 3509 3647 2328 
Q 3647 1150 3233 529 
Q 2819 -91 2034 -91 
Q 1250 -91 836 529 
Q 422 1150 422 2328 
Q 422 3509 836 4129 
Q 1250 4750 2034 4750 
z
" transform="scale(0.015625)"/>
      </defs>
      <use xlink:href="#DejaVuSans-30"/>
     </g>
    </g>
   </g>
   <g id="xtick_2">
    <g id="line2d_3">
     <path d="M 172.257249 257.085569 
L 170.023655 259.080189 
" style="fill: none; stroke: #000000; stroke-width: 0.8; stroke-linecap: square"/>
    </g>
    <g id="text_2">
     <!-- 20 -->
     <g transform="translate(157.663129 281.330554) scale(0.1 -0.1)">
      <defs>
       <path id="DejaVuSans-32" d="M 1228 531 
L 3431 531 
L 3431 0 
L 469 0 
L 469 531 
Q 828 903 1448 1529 
Q 2069 2156 2228 2338 
Q 2531 2678 2651 2914 
Q 2772 3150 2772 3378 
Q 2772 3750 2511 3984 
Q 2250 4219 1831 4219 
Q 1534 4219 1204 4116 
Q 875 4013 500 3803 
L 500 4441 
Q 881 4594 1212 4672 
Q 1544 4750 1819 4750 
Q 2544 4750 2975 4387 
Q 3406 4025 3406 3419 
Q 3406 3131 3298 2873 
Q 3191 2616 2906 2266 
Q 2828 2175 2409 1742 
Q 1991 1309 1228 531 
z
" transform="scale(0.015625)"/>
      </defs>
      <use xlink:href="#DejaVuSans-32"/>
      <use xlink:href="#DejaVuSans-30" x="63.623047"/>
     </g>
    </g>
   </g>
   <g id="xtick_3">
    <g id="line2d_4">
     <path d="M 203.050443 267.132688 
L 200.860056 269.171322 
" style="fill: none; stroke: #000000; stroke-width: 0.8; stroke-linecap: square"/>
    </g>
    <g id="text_3">
     <!-- 40 -->
     <g transform="translate(188.505695 291.606643) scale(0.1 -0.1)">
      <defs>
       <path id="DejaVuSans-34" d="M 2419 4116 
L 825 1625 
L 2419 1625 
L 2419 4116 
z
M 2253 4666 
L 3047 4666 
L 3047 1625 
L 3713 1625 
L 3713 1100 
L 3047 1100 
L 3047 0 
L 2419 0 
L 2419 1100 
L 313 1100 
L 313 1709 
L 2253 4666 
z
" transform="scale(0.015625)"/>
      </defs>
      <use xlink:href="#DejaVuSans-34"/>
      <use xlink:href="#DejaVuSans-30" x="63.623047"/>
     </g>
    </g>
   </g>
   <g id="xtick_4">
    <g id="line2d_5">
     <path d="M 234.526155 277.402497 
L 232.381453 279.486617 
" style="fill: none; stroke: #000000; stroke-width: 0.8; stroke-linecap: square"/>
    </g>
    <g id="text_4">
     <!-- 60 -->
     <g transform="translate(220.035016 302.111545) scale(0.1 -0.1)">
      <defs>
       <path id="DejaVuSans-36" d="M 2113 2584 
Q 1688 2584 1439 2293 
Q 1191 2003 1191 1497 
Q 1191 994 1439 701 
Q 1688 409 2113 409 
Q 2538 409 2786 701 
Q 3034 994 3034 1497 
Q 3034 2003 2786 2293 
Q 2538 2584 2113 2584 
z
M 3366 4563 
L 3366 3988 
Q 3128 4100 2886 4159 
Q 2644 4219 2406 4219 
Q 1781 4219 1451 3797 
Q 1122 3375 1075 2522 
Q 1259 2794 1537 2939 
Q 1816 3084 2150 3084 
Q 2853 3084 3261 2657 
Q 3669 2231 3669 1497 
Q 3669 778 3244 343 
Q 2819 -91 2113 -91 
Q 1303 -91 875 529 
Q 447 1150 447 2328 
Q 447 3434 972 4092 
Q 1497 4750 2381 4750 
Q 2619 4750 2861 4703 
Q 3103 4656 3366 4563 
z
" transform="scale(0.015625)"/>
      </defs>
      <use xlink:href="#DejaVuSans-36"/>
      <use xlink:href="#DejaVuSans-30" x="63.623047"/>
     </g>
    </g>
   </g>
   <g id="xtick_5">
    <g id="line2d_6">
     <path d="M 266.707332 287.902482 
L 264.610927 290.033629 
" style="fill: none; stroke: #000000; stroke-width: 0.8; stroke-linecap: square"/>
    </g>
    <g id="text_5">
     <!-- 80 -->
     <g transform="translate(252.274288 312.852987) scale(0.1 -0.1)">
      <defs>
       <path id="DejaVuSans-38" d="M 2034 2216 
Q 1584 2216 1326 1975 
Q 1069 1734 1069 1313 
Q 1069 891 1326 650 
Q 1584 409 2034 409 
Q 2484 409 2743 651 
Q 3003 894 3003 1313 
Q 3003 1734 2745 1975 
Q 2488 2216 2034 2216 
z
M 1403 2484 
Q 997 2584 770 2862 
Q 544 3141 544 3541 
Q 544 4100 942 4425 
Q 1341 4750 2034 4750 
Q 2731 4750 3128 4425 
Q 3525 4100 3525 3541 
Q 3525 3141 3298 2862 
Q 3072 2584 2669 2484 
Q 3125 2378 3379 2068 
Q 3634 1759 3634 1313 
Q 3634 634 3220 271 
Q 2806 -91 2034 -91 
Q 1263 -91 848 271 
Q 434 634 434 1313 
Q 434 1759 690 2068 
Q 947 2378 1403 2484 
z
M 1172 3481 
Q 1172 3119 1398 2916 
Q 1625 2713 2034 2713 
Q 2441 2713 2670 2916 
Q 2900 3119 2900 3481 
Q 2900 3844 2670 4047 
Q 2441 4250 2034 4250 
Q 1625 4250 1398 4047 
Q 1172 3844 1172 3481 
z
" transform="scale(0.015625)"/>
      </defs>
      <use xlink:href="#DejaVuSans-38"/>
      <use xlink:href="#DejaVuSans-30" x="63.623047"/>
     </g>
    </g>
   </g>
  </g>
  <g id="axis3d_2">
   <g id="line2d_7">
    <path d="M 352.090401 209.294766 
L 272.679269 290.790123 
" style="fill: none; stroke: #000000; stroke-width: 0.8; stroke-linecap: square"/>
   </g>
   <g id="xtick_6">
    <g id="line2d_8">
     <path d="M 284.123024 277.364688 
L 287.870911 278.566728 
" style="fill: none; stroke: #000000; stroke-width: 0.8; stroke-linecap: square"/>
    </g>
    <g id="text_6">
     <!-- −20 -->
     <g transform="translate(287.60305 298.677354) scale(0.1 -0.1)">
      <defs>
       <path id="DejaVuSans-2212" d="M 678 2272 
L 4684 2272 
L 4684 1741 
L 678 1741 
L 678 2272 
z
" transform="scale(0.015625)"/>
      </defs>
      <use xlink:href="#DejaVuSans-2212"/>
      <use xlink:href="#DejaVuSans-32" x="83.789062"/>
      <use xlink:href="#DejaVuSans-30" x="147.412109"/>
     </g>
    </g>
   </g>
   <g id="xtick_7">
    <g id="line2d_9">
     <path d="M 301.347445 259.719859 
L 305.046342 260.877022 
" style="fill: none; stroke: #000000; stroke-width: 0.8; stroke-linecap: square"/>
    </g>
    <g id="text_7">
     <!-- 0 -->
     <g transform="translate(311.951296 280.756302) scale(0.1 -0.1)">
      <use xlink:href="#DejaVuSans-30"/>
     </g>
    </g>
   </g>
   <g id="xtick_8">
    <g id="line2d_10">
     <path d="M 317.935089 242.727349 
L 321.586022 243.842102 
" style="fill: none; stroke: #000000; stroke-width: 0.8; stroke-linecap: square"/>
    </g>
    <g id="text_8">
     <!-- 20 -->
     <g transform="translate(325.118945 263.498432) scale(0.1 -0.1)">
      <use xlink:href="#DejaVuSans-32"/>
      <use xlink:href="#DejaVuSans-30" x="63.623047"/>
     </g>
    </g>
   </g>
   <g id="xtick_9">
    <g id="line2d_11">
     <path d="M 333.920626 226.351642 
L 337.524608 227.426274 
" style="fill: none; stroke: #000000; stroke-width: 0.8; stroke-linecap: square"/>
    </g>
    <g id="text_9">
     <!-- 40 -->
     <g transform="translate(340.87383 246.867602) scale(0.1 -0.1)">
      <use xlink:href="#DejaVuSans-34"/>
      <use xlink:href="#DejaVuSans-30" x="63.623047"/>
     </g>
    </g>
   </g>
   <g id="xtick_10">
    <g id="line2d_12">
     <path d="M 349.336257 210.559752 
L 352.894285 211.596391 
" style="fill: none; stroke: #000000; stroke-width: 0.8; stroke-linecap: square"/>
    </g>
    <g id="text_10">
     <!-- 60 -->
     <g transform="translate(356.066499 230.830248) scale(0.1 -0.1)">
      <use xlink:href="#DejaVuSans-36"/>
      <use xlink:href="#DejaVuSans-30" x="63.623047"/>
     </g>
    </g>
   </g>
  </g>
  <g id="axis3d_3">
   <g id="line2d_13">
    <path d="M 352.090401 209.294766 
L 357.122702 99.402171 
" style="fill: none; stroke: #000000; stroke-width: 0.8; stroke-linecap: square"/>
   </g>
   <g id="xtick_11">
    <g id="line2d_14">
     <path d="M 351.355421 199.050604 
L 354.92362 200.075763 
" style="fill: none; stroke: #000000; stroke-width: 0.8; stroke-linecap: square"/>
    </g>
    <g id="text_11">
     <!-- −40 -->
     <g transform="translate(360.31225 204.404818) scale(0.1 -0.1)">
      <use xlink:href="#DejaVuSans-2212"/>
      <use xlink:href="#DejaVuSans-34" x="83.789062"/>
      <use xlink:href="#DejaVuSans-30" x="147.412109"/>
     </g>
    </g>
   </g>
   <g id="xtick_12">
    <g id="line2d_15">
     <path d="M 352.36124 176.849089 
L 355.96285 177.856751 
" style="fill: none; stroke: #000000; stroke-width: 0.8; stroke-linecap: square"/>
    </g>
    <g id="text_12">
     <!-- −20 -->
     <g transform="translate(361.490785 182.241682) scale(0.1 -0.1)">
      <use xlink:href="#DejaVuSans-2212"/>
      <use xlink:href="#DejaVuSans-32" x="83.789062"/>
      <use xlink:href="#DejaVuSans-30" x="147.412109"/>
     </g>
    </g>
   </g>
   <g id="xtick_13">
    <g id="line2d_16">
     <path d="M 353.385355 154.24374 
L 357.021005 155.233095 
" style="fill: none; stroke: #000000; stroke-width: 0.8; stroke-linecap: square"/>
    </g>
    <g id="text_13">
     <!-- 0 -->
     <g transform="translate(370.061794 159.676482) scale(0.1 -0.1)">
      <use xlink:href="#DejaVuSans-30"/>
     </g>
    </g>
   </g>
   <g id="xtick_14">
    <g id="line2d_17">
     <path d="M 354.42827 131.223437 
L 358.098609 132.193641 
" style="fill: none; stroke: #000000; stroke-width: 0.8; stroke-linecap: square"/>
    </g>
    <g id="text_14">
     <!-- 20 -->
     <g transform="translate(368.102426 136.698178) scale(0.1 -0.1)">
      <use xlink:href="#DejaVuSans-32"/>
      <use xlink:href="#DejaVuSans-30" x="63.623047"/>
     </g>
    </g>
   </g>
   <g id="xtick_15">
    <g id="line2d_18">
     <path d="M 355.490505 107.776649 
L 359.196201 108.726817 
" style="fill: none; stroke: #000000; stroke-width: 0.8; stroke-linecap: square"/>
    </g>
    <g id="text_15">
     <!-- 40 -->
     <g transform="translate(369.346883 113.295321) scale(0.1 -0.1)">
      <use xlink:href="#DejaVuSans-34"/>
      <use xlink:href="#DejaVuSans-30" x="63.623047"/>
     </g>
    </g>
   </g>
  </g>
  <g id="axes_1">
   <g id="line2d_19">
    <path d="M 174.824693 160.049709 
L 175.07298 159.808485 
L 175.427536 159.390156 
L 176.353399 158.059655 
L 176.352231 158.062442 
L 177.297645 157.353292 
L 177.290627 157.360101 
L 178.50383 156.51283 
L 179.244659 156.019295 
L 179.666676 155.734395 
L 181.669646 155.224569 
L 183.985887 155.407373 
L 183.982513 155.419541 
L 184.090596 155.436599 
L 185.22274 155.641949 
L 185.214089 155.6526 
L 185.346444 155.664667 
L 186.177151 155.802419 
L 187.911312 156.215965 
L 188.409645 156.325419 
L 190.332333 156.711066 
L 190.752701 156.828929 
L 191.697805 156.970668 
L 210.886052 160.55113 
L 211.710589 160.700089 
L 212.517097 160.795412 
L 216.585542 161.608777 
L 212.497796 160.794703 
L 216.545745 161.602546 
L 224.257899 163.289228 
L 224.216797 163.280932 
L 226.121948 163.699156 
L 226.090575 163.686248 
L 227.667194 164.026419 
L 227.615296 164.015303 
L 229.286859 164.47187 
L 229.224072 164.458247 
L 230.122071 164.692951 
L 230.116475 164.697943 
L 231.360934 164.998752 
L 232.455868 165.270575 
L 232.397847 165.25299 
L 236.234219 166.003251 
L 236.215776 165.99218 
L 236.916321 166.20192 
L 237.560814 166.29544 
L 236.904123 166.200844 
L 237.551634 166.28714 
L 240.871117 166.986767 
L 240.782463 166.965773 
L 241.612344 167.196216 
L 241.60959 167.193454 
L 243.146637 167.48359 
L 243.062536 167.463679 
L 244.018226 167.705625 
L 243.972927 167.682541 
L 258.783516 170.593517 
L 258.678978 170.559844 
L 265.166702 171.676501 
L 265.680335 171.727469 
L 265.061135 171.64371 
L 265.643152 171.705897 
L 272.827455 172.950717 
L 272.715793 172.912285 
L 274.934465 173.569024 
L 274.87112 173.536729 
L 278.366318 174.260822 
L 278.339003 174.232395 
L 279.448841 174.372301 
L 279.388083 174.337206 
L 282.053106 174.854559 
L 282.034766 174.846218 
L 282.653455 174.965808 
L 282.628426 174.933627 
L 284.018542 175.121836 
L 283.9234 175.078393 
L 284.498895 175.221164 
L 284.493462 175.216675 
L 285.111891 175.347104 
L 285.05905 175.317834 
L 286.955968 175.807354 
L 286.856738 175.77736 
L 287.530673 175.9044 
L 288.437738 176.08945 
L 287.49458 175.886549 
L 288.416508 176.066952 
L 293.021946 176.901615 
L 292.923564 176.862657 
L 293.819073 177.106657 
L 293.766664 177.07775 
L 299.610704 178.248875 
L 299.533641 178.21294 
L 301.241959 179.118404 
L 301.163415 179.10388 
L 301.252001 179.227522 
L 301.206509 179.22452 
L 301.242208 179.340784 
L 301.175145 179.231647 
L 301.229639 179.351314 
L 300.527744 179.229392 
L 300.538417 179.23674 
L 300.566501 179.258151 
L 300.393189 179.268872 
L 300.394493 179.270738 
L 300.423256 179.31597 
L 300.327854 179.299467 
L 300.348389 179.341458 
L 300.016457 179.318068 
L 300.016949 179.325137 
L 300.017926 179.353195 
L 299.946123 179.320575 
L 299.945039 179.356322 
L 299.636192 179.333378 
L 299.637891 179.356552 
L 299.638212 179.358297 
L 299.566449 179.327549 
L 299.572949 179.344442 
L 299.142857 179.245867 
L 299.163266 179.291624 
L 299.168811 179.303758 
L 299.036802 179.26631 
L 299.070219 179.315092 
L 298.869227 179.289565 
L 298.890698 179.314849 
L 298.843687 179.296016 
L 299.08525 179.383844 
L 299.080386 179.349805 
L 299.121626 179.383548 
L 299.193688 179.362136 
L 299.19507 179.327333 
L 299.337295 179.341393 
L 299.368149 179.219856 
L 299.415248 179.340111 
L 299.408403 179.230685 
L 299.377002 179.209509 
L 299.49381 179.144901 
L 299.396689 179.120818 
L 299.545176 179.297144 
L 299.526124 179.297703 
L 299.505977 179.298258 
L 299.497781 179.465695 
L 299.467843 179.437083 
L 299.466586 179.588501 
L 299.437649 179.561061 
L 299.433073 179.869011 
L 299.387407 179.84346 
L 299.537812 180.054838 
L 299.63189 180.33006 
L 299.523943 180.041605 
L 299.622288 180.335225 
L 300.005252 181.011869 
L 299.975572 181.004012 
L 300.154127 181.3142 
L 300.245285 181.634115 
L 300.21345 181.620084 
L 300.292918 181.776156 
L 301.436411 182.522562 
L 300.272161 181.766328 
L 301.414298 182.505206 
L 302.189668 182.549366 
L 302.592382 182.573159 
L 302.544225 182.469501 
L 302.497903 182.45266 
L 302.701271 182.588027 
L 302.560854 182.593608 
L 302.723395 182.58925 
L 302.437983 182.575688 
L 302.722697 182.588793 
L 302.686616 182.585818 
L 302.988238 182.496572 
L 303.629533 182.55561 
L 302.941944 182.500255 
L 303.627392 182.55928 
L 303.798115 182.464487 
L 303.537864 182.517999 
L 303.773298 182.461212 
L 303.799158 182.462419 
L 303.663437 182.550247 
L 303.791132 182.573249 
L 303.848106 182.607871 
L 303.628975 182.545693 
L 303.686687 182.668429 
L 303.754866 182.682521 
L 303.610539 182.701276 
L 303.640837 182.772438 
L 303.783026 182.763579 
L 303.621306 182.772863 
L 303.746368 182.684063 
L 303.791353 182.6612 
L 303.050531 182.856321 
L 303.066492 182.872857 
L 303.067624 182.873936 
L 302.940494 182.886326 
L 302.965406 182.906255 
L 302.680888 182.974266 
L 302.718039 182.981145 
L 302.353327 182.920301 
L 302.393649 182.901508 
L 302.151959 182.775401 
L 302.188125 182.755699 
L 302.192131 182.753613 
L 302.071998 182.706292 
L 302.106805 182.691664 
L 301.768281 182.592116 
L 301.784348 182.568287 
L 301.702466 182.535053 
L 301.731089 182.498145 
L 301.554506 182.369208 
L 301.569294 182.358061 
L 301.523695 182.317375 
L 301.565584 182.248244 
L 301.420569 182.119575 
L 301.424799 182.117017 
L 301.471975 181.958129 
L 301.398032 181.933817 
L 301.469474 181.885619 
L 301.370372 181.768091 
L 301.393279 181.757397 
L 301.348784 181.722916 
L 301.412895 181.651952 
L 301.33719 181.580626 
L 301.397382 181.536223 
L 301.328842 181.510892 
L 301.401407 181.456328 
L 301.332728 181.361069 
L 301.370013 181.334753 
L 301.44914 181.187163 
L 301.383052 181.170966 
L 301.509583 181.096193 
L 301.458599 181.075441 
L 301.614043 180.939261 
L 301.552344 180.923708 
L 301.652468 180.877947 
L 301.650976 180.834581 
L 301.623968 180.798121 
L 301.747454 180.689535 
L 301.681264 180.673708 
L 301.799178 180.593962 
L 301.748172 180.576259 
L 301.904204 180.429249 
L 301.830369 180.415385 
L 301.929816 180.369779 
L 301.936759 180.322626 
L 301.897606 180.298384 
L 302.093518 180.152821 
L 302.025283 180.138202 
L 302.193147 180.06078 
L 302.171851 180.04447 
L 302.460652 179.93852 
L 302.395187 179.922314 
L 302.562827 179.856412 
L 302.523382 179.840549 
L 303.093522 179.67837 
L 303.034181 179.614367 
L 302.933784 179.612326 
L 303.045423 179.527325 
L 303.036875 179.503601 
L 302.982889 179.491185 
L 303.525512 179.287204 
L 303.458576 179.268487 
L 303.655514 179.209398 
L 303.597202 179.193692 
L 303.953906 179.039341 
L 303.884107 179.030349 
L 304.049548 178.946585 
L 304.018528 178.936067 
L 304.2081 179.00856 
L 303.993513 178.925387 
L 304.163173 179.032429 
L 304.204021 179.045855 
L 304.067983 179.09258 
L 304.142238 179.123799 
L 303.924461 179.212767 
L 303.928911 179.214764 
L 303.997254 179.245773 
L 303.825638 179.26602 
L 303.899119 179.303135 
L 303.644122 179.35392 
L 303.691743 179.377601 
L 303.708946 179.386224 
L 303.509584 179.2036 
L 303.562778 179.188621 
L 303.571576 179.186171 
L 303.481823 179.113544 
L 303.530534 179.099372 
L 303.345248 178.974835 
L 303.363811 178.948561 
L 303.300161 178.933871 
L 303.317756 178.909283 
L 300.859863 178.345239 
L 300.617235 178.282743 
L 297.361516 177.394443 
L 297.048486 177.311319 
L 295.458529 176.930488 
L 294.400988 176.611182 
L 293.900777 176.415412 
L 293.042232 176.265069 
L 292.696577 176.167793 
L 291.9348 175.999123 
L 291.56363 175.914868 
L 290.82628 175.827514 
L 290.232874 175.690126 
L 289.586089 175.535209 
L 289.253257 175.453283 
L 287.515913 175.087913 
L 287.05696 174.929431 
L 284.967755 174.549067 
L 284.585066 174.439731 
L 283.493419 174.204836 
L 282.890816 174.072468 
L 282.600669 173.967222 
L 282.310309 173.885465 
L 281.354238 173.747806 
L 280.979879 173.651342 
L 272.687056 172.024156 
L 272.438494 171.99256 
L 271.678802 171.810699 
L 266.902728 170.766621 
L 266.74823 170.763538 
L 264.709382 170.314347 
L 264.579243 170.317973 
L 262.285741 169.875921 
L 262.172272 169.870544 
L 251.660165 167.605234 
L 251.676687 167.630361 
L 251.532333 167.57672 
L 251.518352 167.59015 
L 250.722538 167.353627 
L 250.724636 167.369438 
L 245.190927 165.752434 
L 245.21688 165.782581 
L 245.040575 165.746058 
L 244.050186 165.446769 
L 244.069811 165.480765 
L 243.934741 165.425584 
L 243.925522 165.450296 
L 243.17218 165.198942 
L 243.165855 165.226653 
L 242.650048 165.123089 
L 242.67373 165.158743 
L 242.494618 165.08919 
L 241.858862 164.881919 
L 240.717272 164.563865 
L 241.883599 164.909814 
L 240.726179 164.585858 
L 238.412454 164.029401 
L 238.450861 164.063944 
L 238.216824 164.002625 
L 237.477547 163.778199 
L 237.510218 163.815823 
L 237.360596 163.764546 
L 237.338009 163.7858 
L 236.218553 163.513455 
L 236.254766 163.550081 
L 236.091291 163.501329 
L 236.071884 163.522984 
L 235.263474 163.313354 
L 235.29155 163.355317 
L 235.141413 163.302404 
L 235.146159 163.336576 
L 234.06547 163.067316 
L 234.102815 163.106566 
L 233.941701 163.061813 
L 233.933147 163.088117 
L 231.600083 162.541955 
L 231.633552 162.58594 
L 231.468845 162.528454 
L 231.481424 162.567468 
L 230.745426 162.350016 
L 230.782588 162.393037 
L 230.604728 162.355256 
L 229.688825 162.108616 
L 229.726025 162.149564 
L 229.567413 162.095542 
L 229.555439 162.124747 
L 228.260324 161.834498 
L 228.298932 161.876516 
L 228.106183 161.829861 
L 227.129305 161.555186 
L 227.173703 161.59522 
L 226.949901 161.54209 
L 225.985131 161.23427 
L 226.022992 161.278044 
L 225.809981 161.201172 
L 225.220775 160.970665 
L 225.209666 160.994119 
L 224.744582 160.908943 
L 224.791055 160.953628 
L 224.513781 160.830723 
L 224.538389 160.864556 
L 223.956331 160.668838 
L 222.919984 160.330003 
L 222.953294 160.369429 
L 221.692498 160.030206 
L 221.732157 160.078428 
L 221.528906 160.004417 
L 221.032604 159.809346 
L 221.031405 159.837153 
L 220.675843 159.775803 
L 220.684859 159.812733 
L 219.429342 159.478917 
L 219.472136 159.526671 
L 219.207145 159.393896 
L 219.232346 159.425442 
L 218.797459 159.246455 
L 218.806529 159.279701 
L 218.337862 159.190297 
L 218.393267 159.240826 
L 218.085112 159.110011 
L 218.076484 159.127151 
L 217.643403 158.966687 
L 217.690795 159.022664 
L 217.500695 158.967946 
L 216.703513 158.694945 
L 216.746281 158.749572 
L 216.583294 158.691104 
L 216.589198 158.728849 
L 215.563794 158.456519 
L 215.599492 158.512516 
L 215.44776 158.444101 
L 215.447978 158.481486 
L 214.561867 158.212383 
L 214.605246 158.26488 
L 214.44349 158.204795 
L 214.4468 158.245059 
L 213.514247 158.016782 
L 213.557511 158.073632 
L 213.400808 157.999994 
L 213.379755 158.022818 
L 212.945087 157.924811 
L 212.986792 157.983157 
L 212.769216 157.868148 
L 212.774492 157.896122 
L 212.415912 157.744596 
L 212.454957 157.803411 
L 212.297196 157.735754 
L 212.307089 157.780132 
L 211.942556 157.718106 
L 211.988388 157.780879 
L 211.819508 157.695782 
L 211.80711 157.718694 
L 211.286563 157.536512 
L 211.328348 157.596601 
L 211.176747 157.520741 
L 211.165379 157.554686 
L 210.718435 157.441766 
L 210.763041 157.502412 
L 210.542773 157.38842 
L 210.551994 157.41853 
L 210.204622 157.295099 
L 210.208464 157.338858 
L 209.923523 157.269808 
L 209.96788 157.326681 
L 209.800631 157.262579 
L 209.812611 157.305854 
L 209.006131 157.053861 
L 209.054446 157.111329 
L 208.899492 157.037647 
L 208.8774 157.072156 
L 208.116021 156.83132 
L 208.165437 156.891035 
L 208.003969 156.813396 
L 207.981096 156.840892 
L 207.643849 156.807826 
L 207.692951 156.864504 
L 207.526712 156.79367 
L 207.505086 156.816442 
L 206.871787 156.594949 
L 206.919779 156.652401 
L 206.735769 156.603093 
L 206.417681 156.54901 
L 206.457116 156.615014 
L 206.298256 156.527355 
L 206.298102 156.564175 
L 205.848781 156.399899 
L 205.893885 156.457318 
L 205.730351 156.387417 
L 205.731764 156.42886 
L 205.359538 156.38642 
L 205.409099 156.439834 
L 205.198269 156.375492 
L 204.57327 156.169233 
L 204.624861 156.223714 
L 204.429541 156.177691 
L 203.609998 155.932794 
L 203.661217 155.988247 
L 203.494588 155.919956 
L 203.474379 155.949645 
L 203.026329 155.879518 
L 203.085407 155.936691 
L 202.804289 155.805572 
L 202.821187 155.835261 
L 202.322349 155.639433 
L 202.377781 155.701533 
L 202.1788 155.645123 
L 201.451672 155.396043 
L 201.499357 155.456187 
L 201.32972 155.3886 
L 201.343303 155.435981 
L 200.83867 155.342793 
L 200.893145 155.406835 
L 200.68092 155.328555 
L 200.276585 155.209961 
L 200.330744 155.269429 
L 200.167068 155.197337 
L 200.149729 155.234026 
L 199.684575 155.135672 
L 199.743698 155.196599 
L 199.464424 155.061626 
L 199.518968 155.125101 
L 199.315067 155.056621 
L 198.992363 155.029464 
L 199.042908 155.091328 
L 198.863388 155.038077 
L 198.899058 155.090716 
L 197.939655 154.869485 
L 197.990669 154.932622 
L 197.822808 154.864085 
L 197.829307 154.908217 
L 197.01514 154.678488 
L 197.058922 154.741743 
L 196.895411 154.671808 
L 196.911763 154.72275 
L 196.512614 154.673061 
L 196.562325 154.734759 
L 196.381534 154.655155 
L 196.389937 154.696346 
L 195.794433 154.501647 
L 195.843468 154.566793 
L 195.682425 154.484939 
L 195.674287 154.526785 
L 195.337198 154.454582 
L 195.385318 154.518219 
L 195.188898 154.441216 
L 194.763101 154.301859 
L 194.427038 154.252419 
L 194.47365 154.315493 
L 194.30018 154.252369 
L 194.327013 154.302773 
L 193.550288 154.08222 
L 193.593538 154.146106 
L 193.431837 154.067476 
L 193.43839 154.113427 
L 193.061155 154.061237 
L 193.10969 154.12469 
L 192.940892 154.040245 
L 192.937973 154.082547 
L 192.464547 153.92366 
L 192.513057 153.987607 
L 192.349466 153.912778 
L 192.346835 153.952144 
L 192.094045 153.919282 
L 192.088846 153.969511 
L 191.551362 153.89151 
L 191.602051 153.956287 
L 191.399769 153.877781 
L 191.073778 153.782744 
L 191.062653 153.816007 
L 190.69743 153.770219 
L 190.746042 153.829559 
L 190.568143 153.754583 
L 190.580372 153.801747 
L 189.962353 153.616238 
L 190.013559 153.675418 
L 189.839892 153.607268 
L 189.84797 153.651377 
L 189.463789 153.602716 
L 189.51859 153.663133 
L 189.333799 153.581666 
L 189.314333 153.602087 
L 188.744258 153.438799 
L 188.438798 153.385383 
L 188.4882 153.445034 
L 188.286103 153.375006 
L 187.801091 153.194378 
L 187.853594 153.253984 
L 187.662416 153.203955 
L 187.346418 153.174027 
L 187.395032 153.23305 
L 187.21657 153.169952 
L 187.239027 153.2168 
L 186.530588 153.026308 
L 186.583969 153.086342 
L 186.418384 153.018785 
L 186.412585 153.060649 
L 185.93701 152.967001 
L 185.993245 153.021765 
L 185.71158 152.896338 
L 185.749713 152.93913 
L 185.376269 152.836458 
L 185.424067 152.891141 
L 185.25511 152.838088 
L 185.269149 152.880366 
L 184.641298 152.785114 
L 184.701881 152.840557 
L 184.424242 152.731322 
L 184.478945 152.788466 
L 184.274671 152.734946 
L 183.969118 152.703781 
L 184.016464 152.757293 
L 183.847848 152.695974 
L 183.842885 152.728502 
L 183.267792 152.595699 
L 182.941682 152.5783 
L 182.994149 152.632908 
L 182.821836 152.58836 
L 182.838844 152.629924 
L 182.025861 152.50382 
L 182.078215 152.55831 
L 181.917451 152.508752 
L 181.922582 152.556408 
L 181.566713 152.551051 
L 181.606947 152.613952 
L 181.442625 152.55195 
L 181.469862 152.60205 
L 181.114038 152.53885 
L 181.110063 152.581699 
L 180.909694 152.584842 
L 180.922605 152.641979 
L 180.700806 152.672468 
L 180.745368 152.728349 
L 180.597519 152.713238 
L 180.637378 152.775317 
L 180.488808 152.748957 
L 180.527111 152.806295 
L 180.182499 152.804329 
L 180.221061 152.865098 
L 180.077345 152.822113 
L 180.098214 152.876505 
L 179.877288 152.88426 
L 179.920947 152.944381 
L 179.776494 152.931636 
L 179.815992 152.99259 
L 179.681476 152.988051 
L 179.708555 153.050023 
L 179.559931 153.049963 
L 179.609599 153.110495 
L 179.459741 153.09873 
L 179.508481 153.16556 
L 179.361776 153.145927 
L 179.40676 153.212214 
L 179.08331 153.25692 
L 179.131593 153.322277 
L 178.996447 153.308949 
L 179.029518 153.367952 
L 178.823765 153.44065 
L 178.86529 153.501156 
L 178.742441 153.515993 
L 178.781034 153.578627 
L 178.646288 153.592066 
L 178.694942 153.650602 
L 178.561155 153.64889 
L 178.601468 153.71183 
L 178.317231 153.759408 
L 178.366881 153.818393 
L 178.233648 153.796752 
L 178.252242 153.853109 
L 178.07419 153.900712 
L 178.12893 153.956773 
L 177.992018 153.965865 
L 178.040766 154.023082 
L 177.726444 154.140338 
L 177.775669 154.195558 
L 177.639778 154.177088 
L 177.654076 154.224312 
L 177.410073 154.278974 
L 177.368921 154.386867 
L 177.324807 154.33054 
L 177.351483 154.388029 
L 177.162289 154.4783 
L 177.201196 154.531363 
L 177.080056 154.552681 
L 177.112747 154.603099 
L 176.887501 154.648494 
L 176.930188 154.702398 
L 176.800517 154.6822 
L 176.808539 154.725713 
L 176.518766 154.766622 
L 176.555692 154.814635 
L 176.422972 154.810609 
L 176.456137 154.865276 
L 176.234093 154.935477 
L 176.27307 154.984315 
L 176.138198 154.991795 
L 176.180218 155.045285 
L 175.944751 155.070252 
L 175.97706 155.119446 
L 175.842614 155.094661 
L 175.860325 155.14168 
L 175.667964 155.168172 
L 175.694728 155.22163 
L 175.492848 155.282108 
L 175.532265 155.33969 
L 175.411628 155.354204 
L 175.443673 155.409229 
L 175.323472 155.422913 
L 175.360243 155.479293 
L 175.143027 155.511213 
L 175.185748 155.572228 
L 175.059233 155.546725 
L 175.069602 155.597831 
L 174.784979 155.636603 
L 174.824495 155.696888 
L 174.701306 155.686415 
L 174.72419 155.744764 
L 174.527391 155.807624 
L 174.476638 155.925088 
L 174.468772 155.924508 
L 174.17395 155.970699 
L 174.209282 156.027187 
L 174.092777 155.997058 
L 174.090888 156.045975 
L 173.93458 156.07855 
L 173.880623 156.190648 
L 173.86126 156.191518 
L 173.693449 156.26322 
L 173.632569 156.373358 
L 173.619573 156.372488 
L 173.368515 156.431743 
L 173.302372 156.513811 
L 173.278025 156.455041 
L 173.276372 156.507291 
L 173.090978 156.576336 
L 172.949222 156.628328 
L 172.89508 156.74715 
L 172.881935 156.747111 
L 172.637568 156.820693 
L 172.599055 156.915444 
L 172.553223 156.901995 
L 172.545657 156.948986 
L 172.423281 156.978547 
L 172.436807 157.037762 
L 172.363172 157.033456 
L 172.354896 157.160173 
L 172.306162 157.162335 
L 172.310044 157.224405 
L 172.241199 157.218999 
L 172.192068 157.370713 
L 172.186455 157.369067 
L 172.047877 157.419052 
L 171.992929 157.550096 
L 171.984491 157.548064 
L 171.838217 157.613078 
L 171.779767 157.753438 
L 171.774324 157.747837 
L 171.750192 157.719842 
L 172.188113 158.024448 
L 172.289495 158.014022 
L 172.413378 158.058854 
L 172.434841 158.037807 
L 172.560225 157.993317 
L 172.670374 158.034797 
L 172.69849 158.000096 
L 172.779203 157.992885 
L 172.741907 158.037581 
L 172.806449 158.043133 
L 172.906501 158.024326 
L 173.046609 158.13781 
L 173.077231 158.118042 
L 173.102344 158.173899 
L 173.139211 158.147191 
L 173.276059 158.242124 
L 173.286576 158.22805 
L 173.420551 158.202835 
L 173.554707 158.283044 
L 173.555804 158.278008 
L 173.56357 158.233558 
L 173.650646 158.345187 
L 173.651805 158.292346 
L 173.628564 158.541091 
L 173.580497 158.512127 
L 173.602263 158.563062 
L 173.46048 158.570883 
L 173.358701 158.610925 
L 173.491238 158.626153 
L 173.377285 158.654476 
L 173.11674 158.661056 
L 173.140437 158.710261 
L 173.035595 158.662379 
L 173.006886 158.688913 
L 172.817602 158.69332 
L 172.782798 158.778149 
L 172.755771 158.722024 
L 172.730249 158.766005 
L 172.726795 158.811827 
L 172.595729 158.848131 
L 172.58197 158.947949 
L 172.527113 158.943821 
L 172.535368 158.995926 
L 172.401541 159.016505 
L 172.387311 159.099952 
L 172.348668 159.047012 
L 172.311936 159.080888 
L 172.332758 159.129953 
L 172.187456 159.149521 
L 172.164455 159.250449 
L 172.120515 159.247205 
L 171.962454 159.333921 
L 172.011489 159.38593 
L 171.898085 159.427029 
L 171.910493 159.471547 
L 171.765944 159.480523 
L 171.812676 159.531948 
L 171.721791 159.510864 
L 171.680554 159.551076 
L 171.619512 159.599838 
L 171.698655 159.60656 
L 171.622279 159.653651 
L 171.530898 159.721758 
L 171.538057 159.851758 
L 171.485273 159.864173 
L 171.504142 159.922679 
L 171.436042 159.935098 
L 171.426083 160.092384 
L 171.423289 160.092165 
L 171.3008 160.171939 
L 171.297655 160.272203 
L 171.23997 160.277213 
L 171.264276 160.333641 
L 171.189746 160.347191 
L 171.177513 160.473313 
L 171.142425 160.483338 
L 171.028717 160.596589 
L 171.009249 160.687227 
L 170.950637 160.680728 
L 170.964921 160.730017 
L 170.873159 160.783019 
L 170.891121 160.83412 
L 170.838493 160.846993 
L 170.813412 161.044641 
L 170.809306 161.046535 
L 170.710979 161.177448 
L 170.679964 161.317766 
L 170.649565 161.314971 
L 170.654536 161.360924 
L 170.564867 161.411878 
L 170.555729 161.514781 
L 170.501403 161.529373 
L 170.519501 161.575934 
L 170.427476 161.650654 
L 170.395454 161.79199 
L 170.384687 161.79115 
L 170.31169 161.872589 
L 170.33348 162.192463 
L 170.326302 162.190027 
L 170.313002 162.184839 
L 170.331806 162.277745 
L 170.30537 162.267336 
L 170.289032 162.446562 
L 170.265229 162.447472 
L 170.271123 162.497156 
L 170.211446 162.536898 
L 170.182901 162.728501 
L 170.178223 162.725979 
L 170.158692 162.715356 
L 170.15928 162.834594 
L 170.142266 162.824084 
L 170.070962 163.002585 
L 170.053375 162.965536 
L 169.9752 163.034221 
L 169.947181 163.022733 
L 169.94827 163.054799 
L 169.870118 163.098824 
L 169.794806 163.21677 
L 169.661528 163.451232 
L 169.33093 163.524978 
L 169.345245 163.563215 
L 169.059709 163.06768 
L 169.136588 162.983789 
L 169.085405 163.088516 
L 169.171067 162.997673 
L 169.281958 162.919731 
L 169.420998 162.938083 
L 169.427344 162.925348 
L 169.549029 162.891029 
L 169.715873 162.941859 
L 169.718498 162.930983 
L 169.721692 162.914622 
L 169.791787 162.967608 
L 169.793783 162.945372 
L 169.934381 163.250697 
L 169.91538 163.250249 
L 169.928657 163.284706 
L 169.857361 163.356715 
L 169.843414 163.465997 
L 169.814011 163.466941 
L 169.650953 163.565723 
L 169.680614 163.593637 
L 169.565838 163.61171 
L 169.561308 163.632936 
L 169.285674 163.484938 
L 169.559327 163.654084 
L 169.29497 163.475288 
L 169.309473 163.47824 
L 169.340019 163.311532 
L 169.365932 163.34641 
L 169.385068 163.197866 
L 169.375251 163.333316 
L 169.427559 163.115594 
L 169.372113 163.333845 
L 169.338064 163.39685 
L 169.347595 163.436274 
L 169.48412 163.443805 
L 169.490862 163.417004 
L 169.593929 163.301835 
L 169.393882 163.352617 
L 169.151631 163.285868 
L 169.402778 163.454596 
L 169.368132 163.44962 
L 169.338632 163.565692 
L 169.319597 163.553483 
L 169.271755 163.596089 
L 169.334886 163.569894 
L 169.274222 163.603938 
" clip-path="url(#pefa8a13fab)" style="fill: none; stroke: #1f77b4; stroke-width: 1.5; stroke-linecap: square"/>
   </g>
   <g id="line2d_20">
    <path d="M 174.824693 160.049709 
L 175.069781 159.737801 
L 175.310868 159.235496 
L 175.718071 158.571423 
L 176.933199 157.469696 
L 177.799039 156.807573 
L 178.288365 156.44186 
L 178.858343 156.095558 
L 179.943115 155.394474 
L 181.473223 154.840618 
L 182.01465 154.749261 
L 182.960942 154.737022 
L 184.559847 154.914502 
L 185.183365 155.002932 
L 185.807078 155.109983 
L 186.495638 155.185142 
L 187.007935 155.318007 
L 187.619743 155.448225 
L 188.213578 155.581444 
L 188.860702 155.674516 
L 189.440551 155.797164 
L 190.073414 155.899131 
L 190.715642 156.004913 
L 191.365533 156.073894 
L 191.960408 156.174893 
L 192.648763 156.279828 
L 193.291852 156.397126 
L 193.916053 156.455928 
L 194.453084 156.557406 
L 195.123595 156.670733 
L 195.745753 156.805054 
L 196.382967 156.873512 
L 196.838408 156.979017 
L 197.558855 157.127016 
L 198.166647 157.278218 
L 198.794482 157.353255 
L 199.332091 157.496909 
L 199.899123 157.596557 
L 200.571289 157.725963 
L 201.169875 157.760152 
L 201.751311 157.876423 
L 202.396218 157.975155 
L 203.047664 158.110196 
L 203.62214 158.165601 
L 204.157339 158.283576 
L 204.839122 158.41566 
L 205.488227 158.579175 
L 206.098636 158.638067 
L 206.647166 158.794301 
L 207.188231 158.883347 
L 207.781875 158.998693 
L 208.428793 159.069275 
L 209.028026 159.169597 
L 209.418325 159.259809 
L 211.59461 159.548474 
L 212.204353 159.626122 
L 212.877962 159.734742 
L 213.507482 159.770174 
L 214.073858 159.886958 
L 214.705182 159.973546 
L 215.345066 160.088593 
L 216.007127 160.147296 
L 216.551513 160.266674 
L 217.238861 160.39078 
L 217.914705 160.530331 
L 218.545863 160.574125 
L 219.099477 160.704537 
L 219.697925 160.795914 
L 220.376125 160.92702 
L 220.992552 160.970731 
L 221.532295 161.087215 
L 222.176086 161.187027 
L 222.819015 161.305088 
L 223.52259 161.348093 
L 224.095163 161.49471 
L 224.683446 161.572476 
L 225.337485 161.719274 
L 226.013716 161.794057 
L 226.604223 162.004316 
L 227.164576 162.092472 
L 228.886381 162.458952 
L 229.475947 162.568458 
L 230.186797 162.736175 
L 232.827094 163.279985 
L 233.626327 163.428873 
L 234.237391 163.560873 
L 235.804903 163.823848 
L 236.977952 164.069245 
L 237.976594 164.2004 
L 238.539358 164.343371 
L 239.089649 164.418216 
L 239.767925 164.538175 
L 240.424041 164.585353 
L 240.951399 164.714317 
L 241.515918 164.823426 
L 242.171351 164.945897 
L 242.869696 165.031251 
L 243.367516 165.168892 
L 244.000838 165.306638 
L 244.679551 165.442791 
L 245.300417 165.493084 
L 245.832742 165.610793 
L 246.467084 165.712004 
L 247.087086 165.816008 
L 247.717143 165.863822 
L 248.270549 165.952274 
L 248.984083 166.066519 
L 249.645124 166.185697 
L 252.589962 166.73534 
L 253.193075 166.865911 
L 253.823819 166.976247 
L 254.463472 167.099609 
L 255.124753 167.162937 
L 255.660815 167.276751 
L 256.333084 167.392629 
L 256.922334 167.511033 
L 257.550977 167.584041 
L 258.134644 167.68933 
L 258.816387 167.812055 
L 259.471548 167.938911 
L 260.104669 167.994026 
L 260.649412 168.104256 
L 261.315142 168.209549 
L 261.87145 168.298315 
L 262.590096 168.380277 
L 263.160958 168.483994 
L 263.867024 168.599738 
L 264.564938 168.708796 
L 265.177926 168.743729 
L 265.728917 168.829137 
L 266.490596 168.940308 
L 267.250495 169.075186 
L 267.915674 169.082561 
L 268.49387 169.220326 
L 269.063656 169.279597 
L 269.703187 169.376378 
L 270.395726 169.425541 
L 270.932785 169.518746 
L 271.697555 169.642471 
L 272.342161 169.758117 
L 273.008572 169.803162 
L 273.58427 169.910876 
L 274.254824 170.001407 
L 274.90786 170.084498 
L 275.611009 170.135591 
L 276.176107 170.221286 
L 276.947203 170.329678 
L 277.602702 170.445455 
L 278.22747 170.469804 
L 278.755613 170.555818 
L 279.504598 170.651702 
L 280.161399 170.741864 
L 280.838927 170.774404 
L 281.352168 170.863509 
L 282.227066 171.037224 
L 282.971543 171.249608 
L 285.374218 171.765813 
L 285.948434 171.829201 
L 286.577608 171.942331 
L 287.244746 172.054515 
L 287.89939 172.161424 
L 288.500509 172.184469 
L 289.108478 172.243543 
L 289.818453 172.322624 
L 290.372373 172.392184 
L 291.009263 172.44184 
L 291.642833 172.520485 
L 292.399172 172.641938 
L 293.022121 172.754313 
L 293.648277 172.807515 
L 294.213131 172.911771 
L 294.93144 173.034473 
L 295.554938 173.155175 
L 296.223801 173.222556 
L 296.746455 173.339138 
L 297.473182 173.486733 
L 298.136039 173.632715 
L 298.786767 173.69905 
L 299.316543 173.825071 
L 299.976335 173.94335 
L 300.62851 174.056017 
L 301.290805 174.11637 
L 301.768686 174.217165 
L 302.468622 174.346319 
L 303.27331 174.463163 
L 306.41435 174.849307 
L 306.941689 174.99639 
L 307.498775 175.084529 
L 308.182636 175.2188 
L 308.830228 175.292705 
L 309.33672 175.443427 
L 309.884482 175.556425 
L 310.64777 175.716781 
L 311.170391 175.771925 
L 311.648151 175.917921 
L 312.23584 176.074877 
L 312.739766 176.277716 
L 313.32557 176.438517 
L 313.33262 176.379781 
L 313.197237 176.135253 
L 312.935354 176.22311 
L 312.199699 176.429134 
L 312.03061 177.392193 
L 311.962234 177.960698 
L 312.569963 179.759587 
L 312.97601 180.146383 
L 313.891775 180.523821 
L 314.86759 180.623347 
L 314.767912 180.504365 
L 314.859179 180.439036 
L 314.89497 180.518154 
L 314.983862 180.573067 
L 314.682503 180.521209 
L 314.674934 180.544647 
L 314.720458 180.643303 
L 314.720087 180.40375 
L 314.592375 180.424065 
L 313.779795 180.565725 
L 313.196688 180.505903 
L 312.764563 180.250292 
L 312.212606 179.887542 
L 311.928595 179.330475 
L 311.748574 178.767279 
L 311.882797 177.759502 
L 312.084335 177.473042 
L 312.442837 176.895241 
L 312.498418 176.606178 
L 312.763954 176.462149 
L 313.129981 176.145357 
L 313.365451 175.903655 
L 313.428016 175.938695 
L 313.411238 176.008228 
L 313.175216 176.369135 
L 313.087294 176.278113 
L 312.83899 176.026955 
L 312.121044 175.764439 
L 311.431264 175.674722 
L 310.717555 175.52666 
L 308.898655 175.140863 
L 307.513694 174.852164 
L 306.660163 174.711061 
L 306.031755 174.611851 
L 305.356272 174.429928 
L 300.063255 173.632024 
L 298.561555 173.357457 
L 297.876935 173.263476 
L 297.276551 173.149382 
L 296.540018 173.012745 
L 286.901959 171.403884 
L 286.326213 171.286529 
L 285.742571 171.221828 
L 285.045573 171.131301 
L 284.357483 171.028037 
L 283.797542 170.884082 
L 283.25165 170.809316 
L 282.53007 170.712021 
L 281.809708 170.600005 
L 278.865 170.052093 
L 278.318742 169.997311 
L 277.674341 169.922476 
L 276.821136 169.80181 
L 271.241197 169.014648 
L 270.625972 169.004804 
L 270.014223 168.914562 
L 268.610795 168.703317 
L 266.402952 168.39872 
L 265.822024 168.33041 
L 265.160535 168.219628 
L 264.464865 168.108281 
L 262.777684 167.804319 
L 262.078938 167.7002 
L 260.241271 167.416322 
L 259.534491 167.356357 
L 256.875623 166.970052 
L 255.959171 166.797979 
L 255.360468 166.659579 
L 254.677304 166.542617 
L 252.924792 166.188372 
L 252.258088 166.096015 
L 250.46865 165.716872 
L 248.981527 165.41234 
L 248.193433 165.28377 
L 247.482235 165.168007 
L 244.636955 164.622927 
L 244.074343 164.550003 
L 243.361558 164.454487 
L 242.595161 164.348363 
L 240.755808 164.048492 
L 239.307067 163.796336 
L 238.001595 163.616312 
L 235.64478 163.212049 
L 230.018961 162.339582 
L 229.260541 162.201916 
L 228.606197 162.073334 
L 227.872753 161.947647 
L 215.977098 159.773279 
L 215.43323 159.607285 
L 214.886245 159.554591 
L 214.269739 159.434033 
L 213.513306 159.298925 
L 211.336932 158.863136 
L 210.749697 158.703295 
L 210.219364 158.640775 
L 209.647526 158.540901 
L 208.905598 158.402911 
L 208.257139 158.244263 
L 196.108858 156.295621 
L 195.547956 156.25213 
L 195.001156 156.138546 
L 194.376635 156.037203 
L 193.781274 155.910952 
L 193.2164 155.866168 
L 192.549405 155.801562 
L 191.815677 155.720812 
L 191.255435 155.608018 
L 190.669078 155.55959 
L 190.043654 155.469847 
L 189.264487 155.340203 
L 185.571347 154.882141 
L 182.212563 154.72462 
L 180.19956 155.194648 
L 177.465592 156.810481 
L 177.045002 157.071829 
L 176.58696 157.335565 
L 176.05486 157.60922 
L 173.498668 159.227495 
L 172.604179 160.148364 
L 172.642896 160.277189 
L 172.94235 160.416026 
L 173.592452 160.467676 
L 174.166175 160.549073 
L 174.72655 160.625684 
L 175.252327 160.646657 
L 175.095957 160.723195 
L 173.796312 161.302786 
L 173.018199 161.956238 
L 172.530635 162.613986 
L 172.342035 162.945058 
L 172.034936 163.758403 
L 172.056061 164.014574 
L 172.258256 165.315605 
L 172.160592 165.250234 
L 171.906 164.84281 
L 172.003955 164.652362 
L 172.349026 164.518376 
L 172.769755 164.567956 
L 172.859746 164.745885 
L 172.725366 164.956638 
L 172.333692 165.146687 
L 172.261466 165.003561 
L 172.357282 164.714435 
L 172.459557 164.543276 
L 172.429595 164.845449 
L 172.43609 164.853623 
L 172.530477 164.799754 
L 172.701973 164.653562 
L 172.499225 164.691165 
L 172.22482 164.616094 
L 172.22482 164.616094 
" clip-path="url(#pefa8a13fab)" style="fill: none; stroke: #2ca02c; stroke-width: 1.5; stroke-linecap: square"/>
   </g>
   <g id="line2d_21">
    <path d="M 174.824693 160.049709 
L 175.598559 159.138287 
L 176.333524 158.113875 
L 177.629993 157.049047 
L 178.652335 156.43159 
L 180.834685 155.347535 
L 182.865616 154.907471 
L 184.04087 154.913953 
L 186.69122 155.296365 
L 190.45177 156.026756 
L 199.496788 157.537493 
L 224.09997 161.490464 
L 238.706301 164.273022 
L 240.910627 164.651572 
L 245.302311 165.4457 
L 249.63638 166.124558 
L 252.740233 166.741554 
L 255.050022 167.139105 
L 264.340766 168.544661 
L 267.650539 168.972361 
L 280.023234 171.071143 
L 281.397711 171.292262 
L 284.708834 171.83753 
L 286.264982 172.080703 
L 289.177637 172.474084 
L 294.61054 173.485845 
L 296.592187 173.840931 
L 306.095134 175.584557 
L 306.985307 176.016914 
L 307.142116 176.2832 
L 307.225225 176.264543 
L 307.037869 176.407889 
L 306.870654 176.477773 
L 306.189462 176.348017 
L 305.492134 176.209289 
L 305.179403 176.254928 
L 305.179368 176.255559 
L 305.251258 176.316143 
L 305.286771 176.316125 
L 305.573269 176.411405 
L 305.572455 176.426724 
L 305.680915 177.254065 
L 305.941034 178.096812 
L 306.533296 179.005839 
L 307.013321 179.476533 
L 307.582362 179.734049 
L 308.129212 179.735019 
L 308.508618 179.682268 
L 308.394134 179.798749 
L 308.064483 180.04008 
L 307.930572 180.079054 
L 307.379732 180.093606 
L 306.964296 180.127044 
L 306.17139 179.857956 
L 305.607087 179.437134 
L 305.346052 178.970685 
L 305.317602 178.508416 
L 305.477792 177.653509 
L 306.137421 176.896667 
L 306.121164 176.903244 
L 306.166066 176.786656 
L 306.388753 176.641398 
L 307.192273 176.153552 
L 307.194591 176.242762 
L 307.105481 176.483382 
L 307.063756 176.327584 
L 306.687621 176.142896 
L 303.738736 175.511355 
L 302.180733 175.10397 
L 299.991987 174.59458 
L 280.713448 170.998321 
L 278.086063 170.50484 
L 275.410185 170.132842 
L 267.188784 168.638163 
L 257.523082 166.867395 
L 254.309696 166.290285 
L 251.836579 165.805053 
L 246.538749 164.512949 
L 239.235348 162.880535 
L 225.653469 160.242552 
L 218.05104 158.493914 
L 204.929358 155.892635 
L 201.395996 155.174309 
L 184.763601 152.365705 
L 181.905714 152.133586 
L 180.61875 152.275309 
L 179.589164 152.612113 
L 178.689346 153.078257 
L 177.312745 153.899141 
L 175.262912 155.105561 
L 173.073487 156.472174 
L 172.436325 157.165854 
L 172.457596 157.419286 
L 172.947134 157.49376 
L 174.631941 157.908019 
L 174.65353 157.920002 
L 174.470154 157.943723 
L 173.717196 158.297162 
L 172.884483 159.264069 
L 172.002721 160.858969 
L 171.508912 162.127957 
L 171.292633 162.421037 
L 171.118669 162.52527 
L 171.109286 162.519838 
L 171.054227 162.359695 
L 171.169185 162.122705 
L 171.48276 162.030038 
L 171.868818 162.196978 
L 171.821833 162.354292 
L 171.499368 162.523337 
L 171.384995 162.392318 
L 171.47939 162.106256 
L 171.509676 162.273669 
L 171.65007 162.217371 
L 171.650603 162.2046 
L 171.623765 162.155143 
L 171.623765 162.155143 
" clip-path="url(#pefa8a13fab)" style="fill: none; stroke: #d62728; stroke-width: 1.5; stroke-linecap: square"/>
   </g>
  </g>
 </g>
 <defs>
  <clipPath id="pefa8a13fab">
   <rect x="103.104" y="41.472" width="266.112" height="266.112"/>
  </clipPath>
 </defs>
</svg>
