<?xml version="1.0" encoding="utf-8" standalone="no"?>
<!DOCTYPE svg PUBLIC "-//W3C//DTD SVG 1.1//EN"
  "http://www.w3.org/Graphics/SVG/1.1/DTD/svg11.dtd">
<svg xmlns:xlink="http://www.w3.org/1999/xlink" width="460.8pt" height="345.6pt" viewBox="0 0 460.8 345.6" xmlns="http://www.w3.org/2000/svg" version="1.1">
 <metadata>
  <rdf:RDF xmlns:dc="http://purl.org/dc/elements/1.1/" xmlns:cc="http://creativecommons.org/ns#" xmlns:rdf="http://www.w3.org/1999/02/22-rdf-syntax-ns#">
   <cc:Work>
    <dc:type rdf:resource="http://purl.org/dc/dcmitype/StillImage"/>
    <dc:date>2026-01-13T18:45:41.016739</dc:date>
    <dc:format>image/svg+xml</dc:format>
    <dc:creator>
     <cc:Agent>
      <dc:title>Matplotlib v3.9.4, https://matplotlib.org/</dc:title>
     </cc:Agent>
    </dc:creator>
   </cc:Work>
  </rdf:RDF>
 </metadata>
 <defs>
  <style type="text/css">*{stroke-linejoin: round; stroke-linecap: butt}</style>
 </defs>
 <g id="figure_1">
  <g id="patch_1">
   <path d="M 0 345.6 
L 460.8 345.6 
L 460.8 0 
L 0 0 
z
" style="fill: #ffffff"/>
  </g>
  <g id="axes_1">
   <g id="patch_2">
    <path d="M 57.6 119.740235 
L 414.72 119.740235 
L 414.72 41.472 
L 57.6 41.472 
z
" style="fill: #ffffff"/>
   </g>
   <g id="matplotlib.axis_1">
    <g id="xtick_1">
     <g id="line2d_1">
      <path d="M 73.832727 119.740235 
L 73.832727 41.472 
" clip-path="url(#p2b193a2896)" style="fill: none; stroke: #b0b0b0; stroke-width: 0.8; stroke-linecap: square"/>
     </g>
     <g id="line2d_2">
      <defs>
       <path id="m6c03a57210" d="M 0 0 
L 0 3.5 
" style="stroke: #000000; stroke-width: 0.8"/>
      </defs>
      <g>
       <use xlink:href="#m6c03a57210" x="73.832727" y="119.740235" style="stroke: #000000; stroke-width: 0.8"/>
      </g>
     </g>
     <g id="text_1">
      <!-- 0 -->
      <g transform="translate(70.651477 134.338673) scale(0.1 -0.1)">
       <defs>
        <path id="DejaVuSans-30" d="M 2034 4250 
Q 1547 4250 1301 3770 
Q 1056 3291 1056 2328 
Q 1056 1369 1301 889 
Q 1547 409 2034 409 
Q 2525 409 2770 889 
Q 3016 1369 3016 2328 
Q 3016 3291 2770 3770 
Q 2525 4250 2034 4250 
z
M 2034 4750 
Q 2819 4750 3233 4129 
Q 3647 3509 3647 2328 
Q 3647 1150 3233 529 
Q 2819 -91 2034 -91 
Q 1250 -91 836 529 
Q 422 1150 422 2328 
Q 422 3509 836 4129 
Q 1250 4750 2034 4750 
z
" transform="scale(0.015625)"/>
       </defs>
       <use xlink:href="#DejaVuSans-30"/>
      </g>
     </g>
    </g>
    <g id="xtick_2">
     <g id="line2d_3">
      <path d="M 115.509567 119.740235 
L 115.509567 41.472 
" clip-path="url(#p2b193a2896)" style="fill: none; stroke: #b0b0b0; stroke-width: 0.8; stroke-linecap: square"/>
     </g>
     <g id="line2d_4">
      <g>
       <use xlink:href="#m6c03a57210" x="115.509567" y="119.740235" style="stroke: #000000; stroke-width: 0.8"/>
      </g>
     </g>
     <g id="text_2">
      <!-- 25 -->
      <g transform="translate(109.147067 134.338673) scale(0.1 -0.1)">
       <defs>
        <path id="DejaVuSans-32" d="M 1228 531 
L 3431 531 
L 3431 0 
L 469 0 
L 469 531 
Q 828 903 1448 1529 
Q 2069 2156 2228 2338 
Q 2531 2678 2651 2914 
Q 2772 3150 2772 3378 
Q 2772 3750 2511 3984 
Q 2250 4219 1831 4219 
Q 1534 4219 1204 4116 
Q 875 4013 500 3803 
L 500 4441 
Q 881 4594 1212 4672 
Q 1544 4750 1819 4750 
Q 2544 4750 2975 4387 
Q 3406 4025 3406 3419 
Q 3406 3131 3298 2873 
Q 3191 2616 2906 2266 
Q 2828 2175 2409 1742 
Q 1991 1309 1228 531 
z
" transform="scale(0.015625)"/>
        <path id="DejaVuSans-35" d="M 691 4666 
L 3169 4666 
L 3169 4134 
L 1269 4134 
L 1269 2991 
Q 1406 3038 1543 3061 
Q 1681 3084 1819 3084 
Q 2600 3084 3056 2656 
Q 3513 2228 3513 1497 
Q 3513 744 3044 326 
Q 2575 -91 1722 -91 
Q 1428 -91 1123 -41 
Q 819 9 494 109 
L 494 744 
Q 775 591 1075 516 
Q 1375 441 1709 441 
Q 2250 441 2565 725 
Q 2881 1009 2881 1497 
Q 2881 1984 2565 2268 
Q 2250 2553 1709 2553 
Q 1456 2553 1204 2497 
Q 953 2441 691 2322 
L 691 4666 
z
" transform="scale(0.015625)"/>
       </defs>
       <use xlink:href="#DejaVuSans-32"/>
       <use xlink:href="#DejaVuSans-35" x="63.623047"/>
      </g>
     </g>
    </g>
    <g id="xtick_3">
     <g id="line2d_5">
      <path d="M 157.186407 119.740235 
L 157.186407 41.472 
" clip-path="url(#p2b193a2896)" style="fill: none; stroke: #b0b0b0; stroke-width: 0.8; stroke-linecap: square"/>
     </g>
     <g id="line2d_6">
      <g>
       <use xlink:href="#m6c03a57210" x="157.186407" y="119.740235" style="stroke: #000000; stroke-width: 0.8"/>
      </g>
     </g>
     <g id="text_3">
      <!-- 50 -->
      <g transform="translate(150.823907 134.338673) scale(0.1 -0.1)">
       <use xlink:href="#DejaVuSans-35"/>
       <use xlink:href="#DejaVuSans-30" x="63.623047"/>
      </g>
     </g>
    </g>
    <g id="xtick_4">
     <g id="line2d_7">
      <path d="M 198.863247 119.740235 
L 198.863247 41.472 
" clip-path="url(#p2b193a2896)" style="fill: none; stroke: #b0b0b0; stroke-width: 0.8; stroke-linecap: square"/>
     </g>
     <g id="line2d_8">
      <g>
       <use xlink:href="#m6c03a57210" x="198.863247" y="119.740235" style="stroke: #000000; stroke-width: 0.8"/>
      </g>
     </g>
     <g id="text_4">
      <!-- 75 -->
      <g transform="translate(192.500747 134.338673) scale(0.1 -0.1)">
       <defs>
        <path id="DejaVuSans-37" d="M 525 4666 
L 3525 4666 
L 3525 4397 
L 1831 0 
L 1172 0 
L 2766 4134 
L 525 4134 
L 525 4666 
z
" transform="scale(0.015625)"/>
       </defs>
       <use xlink:href="#DejaVuSans-37"/>
       <use xlink:href="#DejaVuSans-35" x="63.623047"/>
      </g>
     </g>
    </g>
    <g id="xtick_5">
     <g id="line2d_9">
      <path d="M 240.540088 119.740235 
L 240.540088 41.472 
" clip-path="url(#p2b193a2896)" style="fill: none; stroke: #b0b0b0; stroke-width: 0.8; stroke-linecap: square"/>
     </g>
     <g id="line2d_10">
      <g>
       <use xlink:href="#m6c03a57210" x="240.540088" y="119.740235" style="stroke: #000000; stroke-width: 0.8"/>
      </g>
     </g>
     <g id="text_5">
      <!-- 100 -->
      <g transform="translate(230.996338 134.338673) scale(0.1 -0.1)">
       <defs>
        <path id="DejaVuSans-31" d="M 794 531 
L 1825 531 
L 1825 4091 
L 703 3866 
L 703 4441 
L 1819 4666 
L 2450 4666 
L 2450 531 
L 3481 531 
L 3481 0 
L 794 0 
L 794 531 
z
" transform="scale(0.015625)"/>
       </defs>
       <use xlink:href="#DejaVuSans-31"/>
       <use xlink:href="#DejaVuSans-30" x="63.623047"/>
       <use xlink:href="#DejaVuSans-30" x="127.246094"/>
      </g>
     </g>
    </g>
    <g id="xtick_6">
     <g id="line2d_11">
      <path d="M 282.216928 119.740235 
L 282.216928 41.472 
" clip-path="url(#p2b193a2896)" style="fill: none; stroke: #b0b0b0; stroke-width: 0.8; stroke-linecap: square"/>
     </g>
     <g id="line2d_12">
      <g>
       <use xlink:href="#m6c03a57210" x="282.216928" y="119.740235" style="stroke: #000000; stroke-width: 0.8"/>
      </g>
     </g>
     <g id="text_6">
      <!-- 125 -->
      <g transform="translate(272.673178 134.338673) scale(0.1 -0.1)">
       <use xlink:href="#DejaVuSans-31"/>
       <use xlink:href="#DejaVuSans-32" x="63.623047"/>
       <use xlink:href="#DejaVuSans-35" x="127.246094"/>
      </g>
     </g>
    </g>
    <g id="xtick_7">
     <g id="line2d_13">
      <path d="M 323.893768 119.740235 
L 323.893768 41.472 
" clip-path="url(#p2b193a2896)" style="fill: none; stroke: #b0b0b0; stroke-width: 0.8; stroke-linecap: square"/>
     </g>
     <g id="line2d_14">
      <g>
       <use xlink:href="#m6c03a57210" x="323.893768" y="119.740235" style="stroke: #000000; stroke-width: 0.8"/>
      </g>
     </g>
     <g id="text_7">
      <!-- 150 -->
      <g transform="translate(314.350018 134.338673) scale(0.1 -0.1)">
       <use xlink:href="#DejaVuSans-31"/>
       <use xlink:href="#DejaVuSans-35" x="63.623047"/>
       <use xlink:href="#DejaVuSans-30" x="127.246094"/>
      </g>
     </g>
    </g>
    <g id="xtick_8">
     <g id="line2d_15">
      <path d="M 365.570608 119.740235 
L 365.570608 41.472 
" clip-path="url(#p2b193a2896)" style="fill: none; stroke: #b0b0b0; stroke-width: 0.8; stroke-linecap: square"/>
     </g>
     <g id="line2d_16">
      <g>
       <use xlink:href="#m6c03a57210" x="365.570608" y="119.740235" style="stroke: #000000; stroke-width: 0.8"/>
      </g>
     </g>
     <g id="text_8">
      <!-- 175 -->
      <g transform="translate(356.026858 134.338673) scale(0.1 -0.1)">
       <use xlink:href="#DejaVuSans-31"/>
       <use xlink:href="#DejaVuSans-37" x="63.623047"/>
       <use xlink:href="#DejaVuSans-35" x="127.246094"/>
      </g>
     </g>
    </g>
    <g id="xtick_9">
     <g id="line2d_17">
      <path d="M 407.247448 119.740235 
L 407.247448 41.472 
" clip-path="url(#p2b193a2896)" style="fill: none; stroke: #b0b0b0; stroke-width: 0.8; stroke-linecap: square"/>
     </g>
     <g id="line2d_18">
      <g>
       <use xlink:href="#m6c03a57210" x="407.247448" y="119.740235" style="stroke: #000000; stroke-width: 0.8"/>
      </g>
     </g>
     <g id="text_9">
      <!-- 200 -->
      <g transform="translate(397.703698 134.338673) scale(0.1 -0.1)">
       <use xlink:href="#DejaVuSans-32"/>
       <use xlink:href="#DejaVuSans-30" x="63.623047"/>
       <use xlink:href="#DejaVuSans-30" x="127.246094"/>
      </g>
     </g>
    </g>
   </g>
   <g id="matplotlib.axis_2">
    <g id="ytick_1">
     <g id="line2d_19">
      <path d="M 57.6 101.723883 
L 414.72 101.723883 
" clip-path="url(#p2b193a2896)" style="fill: none; stroke: #b0b0b0; stroke-width: 0.8; stroke-linecap: square"/>
     </g>
     <g id="line2d_20">
      <defs>
       <path id="mb903a4d875" d="M 0 0 
L -3.5 0 
" style="stroke: #000000; stroke-width: 0.8"/>
      </defs>
      <g>
       <use xlink:href="#mb903a4d875" x="57.6" y="101.723883" style="stroke: #000000; stroke-width: 0.8"/>
      </g>
     </g>
     <g id="text_10">
      <!-- −0.60 -->
      <g transform="translate(19.954687 105.523102) scale(0.1 -0.1)">
       <defs>
        <path id="DejaVuSans-2212" d="M 678 2272 
L 4684 2272 
L 4684 1741 
L 678 1741 
L 678 2272 
z
" transform="scale(0.015625)"/>
        <path id="DejaVuSans-2e" d="M 684 794 
L 1344 794 
L 1344 0 
L 684 0 
L 684 794 
z
" transform="scale(0.015625)"/>
        <path id="DejaVuSans-36" d="M 2113 2584 
Q 1688 2584 1439 2293 
Q 1191 2003 1191 1497 
Q 1191 994 1439 701 
Q 1688 409 2113 409 
Q 2538 409 2786 701 
Q 3034 994 3034 1497 
Q 3034 2003 2786 2293 
Q 2538 2584 2113 2584 
z
M 3366 4563 
L 3366 3988 
Q 3128 4100 2886 4159 
Q 2644 4219 2406 4219 
Q 1781 4219 1451 3797 
Q 1122 3375 1075 2522 
Q 1259 2794 1537 2939 
Q 1816 3084 2150 3084 
Q 2853 3084 3261 2657 
Q 3669 2231 3669 1497 
Q 3669 778 3244 343 
Q 2819 -91 2113 -91 
Q 1303 -91 875 529 
Q 447 1150 447 2328 
Q 447 3434 972 4092 
Q 1497 4750 2381 4750 
Q 2619 4750 2861 4703 
Q 3103 4656 3366 4563 
z
" transform="scale(0.015625)"/>
       </defs>
       <use xlink:href="#DejaVuSans-2212"/>
       <use xlink:href="#DejaVuSans-30" x="83.789062"/>
       <use xlink:href="#DejaVuSans-2e" x="147.412109"/>
       <use xlink:href="#DejaVuSans-36" x="179.199219"/>
       <use xlink:href="#DejaVuSans-30" x="242.822266"/>
      </g>
     </g>
    </g>
    <g id="ytick_2">
     <g id="line2d_21">
      <path d="M 57.6 72.076856 
L 414.72 72.076856 
" clip-path="url(#p2b193a2896)" style="fill: none; stroke: #b0b0b0; stroke-width: 0.8; stroke-linecap: square"/>
     </g>
     <g id="line2d_22">
      <g>
       <use xlink:href="#mb903a4d875" x="57.6" y="72.076856" style="stroke: #000000; stroke-width: 0.8"/>
      </g>
     </g>
     <g id="text_11">
      <!-- −0.55 -->
      <g transform="translate(19.954687 75.876075) scale(0.1 -0.1)">
       <use xlink:href="#DejaVuSans-2212"/>
       <use xlink:href="#DejaVuSans-30" x="83.789062"/>
       <use xlink:href="#DejaVuSans-2e" x="147.412109"/>
       <use xlink:href="#DejaVuSans-35" x="179.199219"/>
       <use xlink:href="#DejaVuSans-35" x="242.822266"/>
      </g>
     </g>
    </g>
    <g id="ytick_3">
     <g id="line2d_23">
      <path d="M 57.6 42.429829 
L 414.72 42.429829 
" clip-path="url(#p2b193a2896)" style="fill: none; stroke: #b0b0b0; stroke-width: 0.8; stroke-linecap: square"/>
     </g>
     <g id="line2d_24">
      <g>
       <use xlink:href="#mb903a4d875" x="57.6" y="42.429829" style="stroke: #000000; stroke-width: 0.8"/>
      </g>
     </g>
     <g id="text_12">
      <!-- −0.50 -->
      <g transform="translate(19.954687 46.229048) scale(0.1 -0.1)">
       <use xlink:href="#DejaVuSans-2212"/>
       <use xlink:href="#DejaVuSans-30" x="83.789062"/>
       <use xlink:href="#DejaVuSans-2e" x="147.412109"/>
       <use xlink:href="#DejaVuSans-35" x="179.199219"/>
       <use xlink:href="#DejaVuSans-30" x="242.822266"/>
      </g>
     </g>
    </g>
    <g id="text_13">
     <!-- ba_x -->
     <g transform="translate(13.596875 92.303774) rotate(-90) scale(0.1 -0.1)">
      <defs>
       <path id="DejaVuSans-62" d="M 3116 1747 
Q 3116 2381 2855 2742 
Q 2594 3103 2138 3103 
Q 1681 3103 1420 2742 
Q 1159 2381 1159 1747 
Q 1159 1113 1420 752 
Q 1681 391 2138 391 
Q 2594 391 2855 752 
Q 3116 1113 3116 1747 
z
M 1159 2969 
Q 1341 3281 1617 3432 
Q 1894 3584 2278 3584 
Q 2916 3584 3314 3078 
Q 3713 2572 3713 1747 
Q 3713 922 3314 415 
Q 2916 -91 2278 -91 
Q 1894 -91 1617 61 
Q 1341 213 1159 525 
L 1159 0 
L 581 0 
L 581 4863 
L 1159 4863 
L 1159 2969 
z
" transform="scale(0.015625)"/>
       <path id="DejaVuSans-61" d="M 2194 1759 
Q 1497 1759 1228 1600 
Q 959 1441 959 1056 
Q 959 750 1161 570 
Q 1363 391 1709 391 
Q 2188 391 2477 730 
Q 2766 1069 2766 1631 
L 2766 1759 
L 2194 1759 
z
M 3341 1997 
L 3341 0 
L 2766 0 
L 2766 531 
Q 2569 213 2275 61 
Q 1981 -91 1556 -91 
Q 1019 -91 701 211 
Q 384 513 384 1019 
Q 384 1609 779 1909 
Q 1175 2209 1959 2209 
L 2766 2209 
L 2766 2266 
Q 2766 2663 2505 2880 
Q 2244 3097 1772 3097 
Q 1472 3097 1187 3025 
Q 903 2953 641 2809 
L 641 3341 
Q 956 3463 1253 3523 
Q 1550 3584 1831 3584 
Q 2591 3584 2966 3190 
Q 3341 2797 3341 1997 
z
" transform="scale(0.015625)"/>
       <path id="DejaVuSans-5f" d="M 3263 -1063 
L 3263 -1509 
L -63 -1509 
L -63 -1063 
L 3263 -1063 
z
" transform="scale(0.015625)"/>
       <path id="DejaVuSans-78" d="M 3513 3500 
L 2247 1797 
L 3578 0 
L 2900 0 
L 1881 1375 
L 863 0 
L 184 0 
L 1544 1831 
L 300 3500 
L 978 3500 
L 1906 2253 
L 2834 3500 
L 3513 3500 
z
" transform="scale(0.015625)"/>
      </defs>
      <use xlink:href="#DejaVuSans-62"/>
      <use xlink:href="#DejaVuSans-61" x="63.476562"/>
      <use xlink:href="#DejaVuSans-5f" x="124.755859"/>
      <use xlink:href="#DejaVuSans-78" x="174.755859"/>
     </g>
    </g>
   </g>
   <g id="line2d_25">
    <path d="M 73.832727 80.606118 
L 398.487273 80.606118 
L 398.487273 80.606118 
" clip-path="url(#p2b193a2896)" style="fill: none; stroke: #1f77b4; stroke-width: 1.5; stroke-linecap: square"/>
   </g>
   <g id="line2d_26">
    <path d="M 73.832727 45.029666 
L 81.907242 45.138585 
L 82.076051 45.14316 
L 91.90881 45.251572 
L 93.068746 45.256173 
L 96.409912 45.3643 
L 96.528502 45.375327 
L 97.910733 45.484424 
L 98.026058 45.500788 
L 99.077355 45.608694 
L 99.192758 45.628484 
L 100.078589 45.732777 
L 100.193837 45.754697 
L 100.994427 45.856328 
L 101.109752 45.879733 
L 101.912015 45.98672 
L 102.02734 46.010945 
L 102.828008 46.120613 
L 102.941584 46.145383 
L 103.661949 46.245935 
L 103.777273 46.27135 
L 104.495971 46.374929 
L 104.611292 46.401218 
L 105.329986 46.508857 
L 105.443717 46.536203 
L 106.078842 46.633886 
L 106.192418 46.66198 
L 106.829213 46.759696 
L 106.944538 46.787669 
L 107.579663 46.886603 
L 107.693318 46.915171 
L 108.330113 47.016069 
L 108.443844 47.045048 
L 109.080561 47.146392 
L 109.194216 47.175655 
L 109.83109 47.27896 
L 109.944666 47.308356 
L 110.579791 47.411443 
L 110.693445 47.441016 
L 111.33024 47.543176 
L 111.443972 47.572266 
L 112.080692 47.673278 
L 112.194345 47.701681 
L 112.914787 47.812359 
L 113.028365 47.839144 
L 113.748729 47.944019 
L 113.864056 47.969891 
L 114.664648 48.079883 
L 114.779988 48.102921 
L 115.582237 48.203561 
L 115.697638 48.225495 
L 116.581722 48.331075 
L 116.697047 48.351769 
L 117.582883 48.454501 
L 117.698207 48.474973 
L 118.582367 48.576376 
L 118.697771 48.596438 
L 119.665423 48.705852 
L 119.78075 48.725495 
L 120.750152 48.832511 
L 120.865476 48.851637 
L 121.833209 48.955289 
L 121.948611 48.974037 
L 122.999834 49.081905 
L 123.115161 49.099202 
L 124.250031 49.20761 
L 124.365356 49.223856 
L 125.583873 49.332289 
L 125.699121 49.347263 
L 127.001131 49.456256 
L 127.118128 49.470463 
L 128.418467 49.576308 
L 128.535464 49.590206 
L 129.919371 49.699645 
L 130.036368 49.712976 
L 131.502176 49.821364 
L 131.619173 49.833651 
L 133.252118 49.944085 
L 133.370869 49.955147 
L 135.169278 50.064674 
L 135.28787 50.074599 
L 137.169855 50.181302 
L 137.290194 50.190755 
L 139.337647 50.300357 
L 139.459659 50.309122 
L 141.587416 50.415802 
L 141.709354 50.423953 
L 144.171309 50.531217 
L 144.298335 50.537832 
L 147.505743 50.645948 
L 147.644463 50.650585 
L 156.09169 50.758581 
L 156.487887 50.760868 
L 193.017927 50.860324 
L 193.345522 50.862694 
L 207.854982 50.968487 
L 208.139122 50.971304 
L 219.190533 51.078416 
L 219.452867 51.081437 
L 228.109081 51.188914 
L 228.301293 51.192625 
L 232.944463 51.302117 
L 233.083191 51.306908 
L 237.861745 51.416064 
L 238.027292 51.419087 
L 244.279952 51.527161 
L 244.44375 51.530271 
L 249.947697 51.638564 
L 250.096452 51.64244 
L 253.865479 51.750707 
L 253.995849 51.756438 
L 256.782087 51.864411 
L 256.9041 51.872513 
L 259.700366 51.980858 
L 259.840766 51.985353 
L 265.451685 52.093973 
L 265.650582 52.097343 
L 275.87125 52.204355 
L 276.133661 52.207518 
L 285.956539 52.314643 
L 286.11198 52.318116 
L 289.541716 52.425302 
L 289.667071 52.432249 
L 291.958577 52.539373 
L 292.078918 52.54887 
L 293.792115 52.65468 
L 293.910862 52.665984 
L 295.458512 52.771718 
L 295.575515 52.784063 
L 297.043043 52.894663 
L 297.160009 52.908222 
L 298.460368 53.01495 
L 298.577366 53.029815 
L 299.792483 53.140317 
L 299.909481 53.156595 
L 301.04437 53.263122 
L 301.159698 53.279215 
L 302.294587 53.382807 
L 302.409992 53.39869 
L 303.544804 53.501561 
L 303.661802 53.51729 
L 304.878591 53.623719 
L 304.99559 53.638544 
L 306.294277 53.746546 
L 306.411277 53.760498 
L 307.795206 53.867257 
L 307.912205 53.87999 
L 309.461605 53.987845 
L 309.580352 53.999103 
L 311.378716 54.108511 
L 311.499057 54.118307 
L 313.546539 54.228281 
L 313.668552 54.23662 
L 316.214115 54.344461 
L 316.344485 54.350693 
L 320.715233 54.46021 
L 320.920894 54.463327 
L 333.300987 54.569552 
L 333.441387 54.574091 
L 336.635463 54.68272 
L 336.762491 54.689407 
L 339.303042 54.799374 
L 339.426726 54.807333 
L 341.636357 54.914747 
L 341.758352 54.923281 
L 343.804164 55.032197 
L 343.924506 55.042056 
L 345.721277 55.150672 
L 345.839948 55.161409 
L 347.554898 55.270347 
L 347.673492 55.281315 
L 349.388366 55.391213 
L 349.507037 55.402239 
L 351.140087 55.507839 
L 351.258679 55.518937 
L 352.889982 55.625137 
L 353.008653 55.63617 
L 354.639955 55.742865 
L 354.758702 55.75455 
L 356.306356 55.862149 
L 356.425027 55.873902 
L 358.141571 55.980923 
L 358.261912 55.990177 
L 360.891045 56.099201 
L 361.026507 56.104488 
L 364.141941 56.211674 
L 364.267296 56.218865 
L 366.393327 56.325484 
L 366.513668 56.335492 
L 368.226859 56.445488 
L 368.343858 56.457629 
L 369.809754 56.567598 
L 369.926753 56.581596 
L 371.227027 56.689687 
L 371.344029 56.704603 
L 372.560802 56.812711 
L 372.676206 56.828468 
L 373.811006 56.932724 
L 373.928004 56.948873 
L 375.061209 57.054723 
L 375.176541 57.071079 
L 376.311488 57.176171 
L 376.426738 57.191997 
L 377.561611 57.294893 
L 377.676938 57.310421 
L 378.895379 57.415291 
L 379.012377 57.429668 
L 380.396283 57.538561 
L 380.51328 57.551573 
L 382.146222 57.657932 
L 382.266567 57.667346 
L 385.148022 57.776778 
L 385.295181 57.780699 
L 398.487273 57.848304 
L 398.487273 57.848304 
" clip-path="url(#p2b193a2896)" style="fill: none; stroke: #1f77b4; stroke-width: 0.5; stroke-linecap: square"/>
   </g>
   <g id="line2d_27">
    <path d="M 73.832727 116.182569 
L 81.907242 116.07365 
L 82.076051 116.069075 
L 91.90881 115.960663 
L 93.068746 115.956062 
L 96.409912 115.847935 
L 96.528502 115.836908 
L 97.910733 115.727811 
L 98.026058 115.711448 
L 99.077355 115.603542 
L 99.192758 115.583751 
L 100.078589 115.479458 
L 100.193837 115.457538 
L 100.994427 115.355907 
L 101.109752 115.332502 
L 101.912015 115.225515 
L 102.02734 115.20129 
L 102.828008 115.091622 
L 102.941584 115.066852 
L 103.661949 114.9663 
L 103.777273 114.940885 
L 104.495971 114.837307 
L 104.611292 114.811017 
L 105.329986 114.703378 
L 105.443717 114.676032 
L 106.078842 114.578349 
L 106.192418 114.550255 
L 106.829213 114.45254 
L 106.944538 114.424567 
L 107.579663 114.325632 
L 107.693318 114.297065 
L 108.330113 114.196166 
L 108.443844 114.167187 
L 109.080561 114.065843 
L 109.194216 114.03658 
L 109.83109 113.933276 
L 109.944666 113.903879 
L 110.579791 113.800793 
L 110.693445 113.771219 
L 111.33024 113.669059 
L 111.443972 113.639969 
L 112.080692 113.538957 
L 112.194345 113.510555 
L 112.914787 113.399877 
L 113.028365 113.373091 
L 113.748729 113.268216 
L 113.864056 113.242344 
L 114.664648 113.132353 
L 114.779988 113.109315 
L 115.582237 113.008674 
L 115.697638 112.98674 
L 116.581722 112.88116 
L 116.697047 112.860466 
L 117.582883 112.757734 
L 117.698207 112.737262 
L 118.582367 112.635859 
L 118.697771 112.615798 
L 119.665423 112.506383 
L 119.78075 112.48674 
L 120.750152 112.379724 
L 120.865476 112.360599 
L 121.833209 112.256947 
L 121.948611 112.238198 
L 122.999834 112.130331 
L 123.115161 112.113033 
L 124.250031 112.004625 
L 124.365356 111.988379 
L 125.583873 111.879947 
L 125.699121 111.864973 
L 127.001131 111.755979 
L 127.118128 111.741773 
L 128.418467 111.635927 
L 128.535464 111.622029 
L 129.919371 111.51259 
L 130.036368 111.499259 
L 131.502176 111.390872 
L 131.619173 111.378584 
L 133.252118 111.26815 
L 133.370869 111.257088 
L 135.169278 111.147561 
L 135.28787 111.137636 
L 137.169855 111.030933 
L 137.290194 111.021481 
L 139.337647 110.911878 
L 139.459659 110.903113 
L 141.587416 110.796433 
L 141.709354 110.788282 
L 144.171309 110.681019 
L 144.298335 110.674404 
L 147.505743 110.566287 
L 147.644463 110.56165 
L 156.09169 110.453654 
L 156.487887 110.451367 
L 193.017927 110.351911 
L 193.345522 110.349542 
L 207.854982 110.243749 
L 208.139122 110.240932 
L 219.190533 110.133819 
L 219.452867 110.130798 
L 228.109081 110.023322 
L 228.301293 110.01961 
L 232.944463 109.910118 
L 233.083191 109.905327 
L 237.861745 109.796171 
L 238.027292 109.793149 
L 244.279952 109.685074 
L 244.44375 109.681964 
L 249.947697 109.573672 
L 250.096452 109.569795 
L 253.865479 109.461528 
L 253.995849 109.455797 
L 256.782087 109.347824 
L 256.9041 109.339723 
L 259.700366 109.231377 
L 259.840766 109.226883 
L 265.451685 109.118263 
L 265.650582 109.114893 
L 275.87125 109.007881 
L 276.133661 109.004717 
L 285.956539 108.897592 
L 286.11198 108.894119 
L 289.541716 108.786933 
L 289.667071 108.779986 
L 291.958577 108.672863 
L 292.078918 108.663366 
L 293.792115 108.557555 
L 293.910862 108.546251 
L 295.458512 108.440518 
L 295.575515 108.428172 
L 297.043043 108.317573 
L 297.160009 108.304014 
L 298.460368 108.197286 
L 298.577366 108.18242 
L 299.792483 108.071918 
L 299.909481 108.05564 
L 301.04437 107.949113 
L 301.159698 107.93302 
L 302.294587 107.829428 
L 302.409992 107.813545 
L 303.544804 107.710675 
L 303.661802 107.694945 
L 304.878591 107.588516 
L 304.99559 107.573692 
L 306.294277 107.465689 
L 306.411277 107.451737 
L 307.795206 107.344979 
L 307.912205 107.332246 
L 309.461605 107.224391 
L 309.580352 107.213133 
L 311.378716 107.103725 
L 311.499057 107.093929 
L 313.546539 106.983954 
L 313.668552 106.975615 
L 316.214115 106.867774 
L 316.344485 106.861542 
L 320.715233 106.752025 
L 320.920894 106.748908 
L 333.300987 106.642684 
L 333.441387 106.638144 
L 336.635463 106.529515 
L 336.762491 106.522828 
L 339.303042 106.412861 
L 339.426726 106.404903 
L 341.636357 106.297488 
L 341.758352 106.288955 
L 343.804164 106.180039 
L 343.924506 106.170179 
L 345.721277 106.061564 
L 345.839948 106.050827 
L 347.554898 105.941888 
L 347.673492 105.93092 
L 349.388366 105.821022 
L 349.507037 105.809996 
L 351.140087 105.704396 
L 351.258679 105.693298 
L 352.889982 105.587098 
L 353.008653 105.576065 
L 354.639955 105.469371 
L 354.758702 105.457685 
L 356.306356 105.350086 
L 356.425027 105.338334 
L 358.141571 105.231312 
L 358.261912 105.222058 
L 360.891045 105.113034 
L 361.026507 105.107748 
L 364.141941 105.000561 
L 364.267296 104.993371 
L 366.393327 104.886751 
L 366.513668 104.876743 
L 368.226859 104.766747 
L 368.343858 104.754607 
L 369.809754 104.644637 
L 369.926753 104.63064 
L 371.227027 104.522549 
L 371.344029 104.507633 
L 372.560802 104.399524 
L 372.676206 104.383767 
L 373.811006 104.279512 
L 373.928004 104.263362 
L 375.061209 104.157513 
L 375.176541 104.141156 
L 376.311488 104.036064 
L 376.426738 104.020238 
L 377.561611 103.917342 
L 377.676938 103.901814 
L 378.895379 103.796944 
L 379.012377 103.782567 
L 380.396283 103.673674 
L 380.51328 103.660663 
L 382.146222 103.554303 
L 382.266567 103.54489 
L 385.148022 103.435457 
L 385.295181 103.431537 
L 398.487273 103.363932 
L 398.487273 103.363932 
" clip-path="url(#p2b193a2896)" style="fill: none; stroke: #1f77b4; stroke-width: 0.5; stroke-linecap: square"/>
   </g>
   <g id="line2d_28">
    <path d="M 73.832727 80.606118 
L 398.487273 80.606118 
L 398.487273 80.606118 
" clip-path="url(#p2b193a2896)" style="fill: none; stroke: #2ca02c; stroke-width: 1.5; stroke-linecap: square"/>
   </g>
   <g id="line2d_29">
    <path d="M 73.832727 89.579381 
L 398.487273 89.579381 
L 398.487273 89.579381 
" clip-path="url(#p2b193a2896)" style="fill: none; stroke: #2ca02c; stroke-width: 1.5; stroke-linecap: square"/>
   </g>
   <g id="patch_3">
    <path d="M 57.6 119.740235 
L 57.6 41.472 
" style="fill: none; stroke: #000000; stroke-width: 0.8; stroke-linejoin: miter; stroke-linecap: square"/>
   </g>
   <g id="patch_4">
    <path d="M 414.72 119.740235 
L 414.72 41.472 
" style="fill: none; stroke: #000000; stroke-width: 0.8; stroke-linejoin: miter; stroke-linecap: square"/>
   </g>
   <g id="patch_5">
    <path d="M 57.6 119.740235 
L 414.72 119.740235 
" style="fill: none; stroke: #000000; stroke-width: 0.8; stroke-linejoin: miter; stroke-linecap: square"/>
   </g>
   <g id="patch_6">
    <path d="M 57.6 41.472 
L 414.72 41.472 
" style="fill: none; stroke: #000000; stroke-width: 0.8; stroke-linejoin: miter; stroke-linecap: square"/>
   </g>
   <g id="text_14">
    <!-- accel bias -->
    <g transform="translate(206.340937 35.472) scale(0.12 -0.12)">
     <defs>
      <path id="DejaVuSans-63" d="M 3122 3366 
L 3122 2828 
Q 2878 2963 2633 3030 
Q 2388 3097 2138 3097 
Q 1578 3097 1268 2742 
Q 959 2388 959 1747 
Q 959 1106 1268 751 
Q 1578 397 2138 397 
Q 2388 397 2633 464 
Q 2878 531 3122 666 
L 3122 134 
Q 2881 22 2623 -34 
Q 2366 -91 2075 -91 
Q 1284 -91 818 406 
Q 353 903 353 1747 
Q 353 2603 823 3093 
Q 1294 3584 2113 3584 
Q 2378 3584 2631 3529 
Q 2884 3475 3122 3366 
z
" transform="scale(0.015625)"/>
      <path id="DejaVuSans-65" d="M 3597 1894 
L 3597 1613 
L 953 1613 
Q 991 1019 1311 708 
Q 1631 397 2203 397 
Q 2534 397 2845 478 
Q 3156 559 3463 722 
L 3463 178 
Q 3153 47 2828 -22 
Q 2503 -91 2169 -91 
Q 1331 -91 842 396 
Q 353 884 353 1716 
Q 353 2575 817 3079 
Q 1281 3584 2069 3584 
Q 2775 3584 3186 3129 
Q 3597 2675 3597 1894 
z
M 3022 2063 
Q 3016 2534 2758 2815 
Q 2500 3097 2075 3097 
Q 1594 3097 1305 2825 
Q 1016 2553 972 2059 
L 3022 2063 
z
" transform="scale(0.015625)"/>
      <path id="DejaVuSans-6c" d="M 603 4863 
L 1178 4863 
L 1178 0 
L 603 0 
L 603 4863 
z
" transform="scale(0.015625)"/>
      <path id="DejaVuSans-20" transform="scale(0.015625)"/>
      <path id="DejaVuSans-69" d="M 603 3500 
L 1178 3500 
L 1178 0 
L 603 0 
L 603 3500 
z
M 603 4863 
L 1178 4863 
L 1178 4134 
L 603 4134 
L 603 4863 
z
" transform="scale(0.015625)"/>
      <path id="DejaVuSans-73" d="M 2834 3397 
L 2834 2853 
Q 2591 2978 2328 3040 
Q 2066 3103 1784 3103 
Q 1356 3103 1142 2972 
Q 928 2841 928 2578 
Q 928 2378 1081 2264 
Q 1234 2150 1697 2047 
L 1894 2003 
Q 2506 1872 2764 1633 
Q 3022 1394 3022 966 
Q 3022 478 2636 193 
Q 2250 -91 1575 -91 
Q 1294 -91 989 -36 
Q 684 19 347 128 
L 347 722 
Q 666 556 975 473 
Q 1284 391 1588 391 
Q 1994 391 2212 530 
Q 2431 669 2431 922 
Q 2431 1156 2273 1281 
Q 2116 1406 1581 1522 
L 1381 1569 
Q 847 1681 609 1914 
Q 372 2147 372 2553 
Q 372 3047 722 3315 
Q 1072 3584 1716 3584 
Q 2034 3584 2315 3537 
Q 2597 3491 2834 3397 
z
" transform="scale(0.015625)"/>
     </defs>
     <use xlink:href="#DejaVuSans-61"/>
     <use xlink:href="#DejaVuSans-63" x="61.279297"/>
     <use xlink:href="#DejaVuSans-63" x="116.259766"/>
     <use xlink:href="#DejaVuSans-65" x="171.240234"/>
     <use xlink:href="#DejaVuSans-6c" x="232.763672"/>
     <use xlink:href="#DejaVuSans-20" x="260.546875"/>
     <use xlink:href="#DejaVuSans-62" x="292.333984"/>
     <use xlink:href="#DejaVuSans-69" x="355.810547"/>
     <use xlink:href="#DejaVuSans-61" x="383.59375"/>
     <use xlink:href="#DejaVuSans-73" x="444.873047"/>
    </g>
   </g>
  </g>
  <g id="axes_2">
   <g id="patch_7">
    <path d="M 57.6 213.662118 
L 414.72 213.662118 
L 414.72 135.393882 
L 57.6 135.393882 
z
" style="fill: #ffffff"/>
   </g>
   <g id="matplotlib.axis_3">
    <g id="xtick_10">
     <g id="line2d_30">
      <path d="M 73.832727 213.662118 
L 73.832727 135.393882 
" clip-path="url(#p0cc0f98ac9)" style="fill: none; stroke: #b0b0b0; stroke-width: 0.8; stroke-linecap: square"/>
     </g>
     <g id="line2d_31">
      <g>
       <use xlink:href="#m6c03a57210" x="73.832727" y="213.662118" style="stroke: #000000; stroke-width: 0.8"/>
      </g>
     </g>
     <g id="text_15">
      <!-- 0 -->
      <g transform="translate(70.651477 228.260555) scale(0.1 -0.1)">
       <use xlink:href="#DejaVuSans-30"/>
      </g>
     </g>
    </g>
    <g id="xtick_11">
     <g id="line2d_32">
      <path d="M 115.509567 213.662118 
L 115.509567 135.393882 
" clip-path="url(#p0cc0f98ac9)" style="fill: none; stroke: #b0b0b0; stroke-width: 0.8; stroke-linecap: square"/>
     </g>
     <g id="line2d_33">
      <g>
       <use xlink:href="#m6c03a57210" x="115.509567" y="213.662118" style="stroke: #000000; stroke-width: 0.8"/>
      </g>
     </g>
     <g id="text_16">
      <!-- 25 -->
      <g transform="translate(109.147067 228.260555) scale(0.1 -0.1)">
       <use xlink:href="#DejaVuSans-32"/>
       <use xlink:href="#DejaVuSans-35" x="63.623047"/>
      </g>
     </g>
    </g>
    <g id="xtick_12">
     <g id="line2d_34">
      <path d="M 157.186407 213.662118 
L 157.186407 135.393882 
" clip-path="url(#p0cc0f98ac9)" style="fill: none; stroke: #b0b0b0; stroke-width: 0.8; stroke-linecap: square"/>
     </g>
     <g id="line2d_35">
      <g>
       <use xlink:href="#m6c03a57210" x="157.186407" y="213.662118" style="stroke: #000000; stroke-width: 0.8"/>
      </g>
     </g>
     <g id="text_17">
      <!-- 50 -->
      <g transform="translate(150.823907 228.260555) scale(0.1 -0.1)">
       <use xlink:href="#DejaVuSans-35"/>
       <use xlink:href="#DejaVuSans-30" x="63.623047"/>
      </g>
     </g>
    </g>
    <g id="xtick_13">
     <g id="line2d_36">
      <path d="M 198.863247 213.662118 
L 198.863247 135.393882 
" clip-path="url(#p0cc0f98ac9)" style="fill: none; stroke: #b0b0b0; stroke-width: 0.8; stroke-linecap: square"/>
     </g>
     <g id="line2d_37">
      <g>
       <use xlink:href="#m6c03a57210" x="198.863247" y="213.662118" style="stroke: #000000; stroke-width: 0.8"/>
      </g>
     </g>
     <g id="text_18">
      <!-- 75 -->
      <g transform="translate(192.500747 228.260555) scale(0.1 -0.1)">
       <use xlink:href="#DejaVuSans-37"/>
       <use xlink:href="#DejaVuSans-35" x="63.623047"/>
      </g>
     </g>
    </g>
    <g id="xtick_14">
     <g id="line2d_38">
      <path d="M 240.540088 213.662118 
L 240.540088 135.393882 
" clip-path="url(#p0cc0f98ac9)" style="fill: none; stroke: #b0b0b0; stroke-width: 0.8; stroke-linecap: square"/>
     </g>
     <g id="line2d_39">
      <g>
       <use xlink:href="#m6c03a57210" x="240.540088" y="213.662118" style="stroke: #000000; stroke-width: 0.8"/>
      </g>
     </g>
     <g id="text_19">
      <!-- 100 -->
      <g transform="translate(230.996338 228.260555) scale(0.1 -0.1)">
       <use xlink:href="#DejaVuSans-31"/>
       <use xlink:href="#DejaVuSans-30" x="63.623047"/>
       <use xlink:href="#DejaVuSans-30" x="127.246094"/>
      </g>
     </g>
    </g>
    <g id="xtick_15">
     <g id="line2d_40">
      <path d="M 282.216928 213.662118 
L 282.216928 135.393882 
" clip-path="url(#p0cc0f98ac9)" style="fill: none; stroke: #b0b0b0; stroke-width: 0.8; stroke-linecap: square"/>
     </g>
     <g id="line2d_41">
      <g>
       <use xlink:href="#m6c03a57210" x="282.216928" y="213.662118" style="stroke: #000000; stroke-width: 0.8"/>
      </g>
     </g>
     <g id="text_20">
      <!-- 125 -->
      <g transform="translate(272.673178 228.260555) scale(0.1 -0.1)">
       <use xlink:href="#DejaVuSans-31"/>
       <use xlink:href="#DejaVuSans-32" x="63.623047"/>
       <use xlink:href="#DejaVuSans-35" x="127.246094"/>
      </g>
     </g>
    </g>
    <g id="xtick_16">
     <g id="line2d_42">
      <path d="M 323.893768 213.662118 
L 323.893768 135.393882 
" clip-path="url(#p0cc0f98ac9)" style="fill: none; stroke: #b0b0b0; stroke-width: 0.8; stroke-linecap: square"/>
     </g>
     <g id="line2d_43">
      <g>
       <use xlink:href="#m6c03a57210" x="323.893768" y="213.662118" style="stroke: #000000; stroke-width: 0.8"/>
      </g>
     </g>
     <g id="text_21">
      <!-- 150 -->
      <g transform="translate(314.350018 228.260555) scale(0.1 -0.1)">
       <use xlink:href="#DejaVuSans-31"/>
       <use xlink:href="#DejaVuSans-35" x="63.623047"/>
       <use xlink:href="#DejaVuSans-30" x="127.246094"/>
      </g>
     </g>
    </g>
    <g id="xtick_17">
     <g id="line2d_44">
      <path d="M 365.570608 213.662118 
L 365.570608 135.393882 
" clip-path="url(#p0cc0f98ac9)" style="fill: none; stroke: #b0b0b0; stroke-width: 0.8; stroke-linecap: square"/>
     </g>
     <g id="line2d_45">
      <g>
       <use xlink:href="#m6c03a57210" x="365.570608" y="213.662118" style="stroke: #000000; stroke-width: 0.8"/>
      </g>
     </g>
     <g id="text_22">
      <!-- 175 -->
      <g transform="translate(356.026858 228.260555) scale(0.1 -0.1)">
       <use xlink:href="#DejaVuSans-31"/>
       <use xlink:href="#DejaVuSans-37" x="63.623047"/>
       <use xlink:href="#DejaVuSans-35" x="127.246094"/>
      </g>
     </g>
    </g>
    <g id="xtick_18">
     <g id="line2d_46">
      <path d="M 407.247448 213.662118 
L 407.247448 135.393882 
" clip-path="url(#p0cc0f98ac9)" style="fill: none; stroke: #b0b0b0; stroke-width: 0.8; stroke-linecap: square"/>
     </g>
     <g id="line2d_47">
      <g>
       <use xlink:href="#m6c03a57210" x="407.247448" y="213.662118" style="stroke: #000000; stroke-width: 0.8"/>
      </g>
     </g>
     <g id="text_23">
      <!-- 200 -->
      <g transform="translate(397.703698 228.260555) scale(0.1 -0.1)">
       <use xlink:href="#DejaVuSans-32"/>
       <use xlink:href="#DejaVuSans-30" x="63.623047"/>
       <use xlink:href="#DejaVuSans-30" x="127.246094"/>
      </g>
     </g>
    </g>
   </g>
   <g id="matplotlib.axis_4">
    <g id="ytick_4">
     <g id="line2d_48">
      <path d="M 57.6 202.72258 
L 414.72 202.72258 
" clip-path="url(#p0cc0f98ac9)" style="fill: none; stroke: #b0b0b0; stroke-width: 0.8; stroke-linecap: square"/>
     </g>
     <g id="line2d_49">
      <g>
       <use xlink:href="#mb903a4d875" x="57.6" y="202.72258" style="stroke: #000000; stroke-width: 0.8"/>
      </g>
     </g>
     <g id="text_24">
      <!-- −0.25 -->
      <g transform="translate(19.954687 206.521799) scale(0.1 -0.1)">
       <use xlink:href="#DejaVuSans-2212"/>
       <use xlink:href="#DejaVuSans-30" x="83.789062"/>
       <use xlink:href="#DejaVuSans-2e" x="147.412109"/>
       <use xlink:href="#DejaVuSans-32" x="179.199219"/>
       <use xlink:href="#DejaVuSans-35" x="242.822266"/>
      </g>
     </g>
    </g>
    <g id="ytick_5">
     <g id="line2d_50">
      <path d="M 57.6 173.075561 
L 414.72 173.075561 
" clip-path="url(#p0cc0f98ac9)" style="fill: none; stroke: #b0b0b0; stroke-width: 0.8; stroke-linecap: square"/>
     </g>
     <g id="line2d_51">
      <g>
       <use xlink:href="#mb903a4d875" x="57.6" y="173.075561" style="stroke: #000000; stroke-width: 0.8"/>
      </g>
     </g>
     <g id="text_25">
      <!-- −0.20 -->
      <g transform="translate(19.954687 176.874779) scale(0.1 -0.1)">
       <use xlink:href="#DejaVuSans-2212"/>
       <use xlink:href="#DejaVuSans-30" x="83.789062"/>
       <use xlink:href="#DejaVuSans-2e" x="147.412109"/>
       <use xlink:href="#DejaVuSans-32" x="179.199219"/>
       <use xlink:href="#DejaVuSans-30" x="242.822266"/>
      </g>
     </g>
    </g>
    <g id="ytick_6">
     <g id="line2d_52">
      <path d="M 57.6 143.428541 
L 414.72 143.428541 
" clip-path="url(#p0cc0f98ac9)" style="fill: none; stroke: #b0b0b0; stroke-width: 0.8; stroke-linecap: square"/>
     </g>
     <g id="line2d_53">
      <g>
       <use xlink:href="#mb903a4d875" x="57.6" y="143.428541" style="stroke: #000000; stroke-width: 0.8"/>
      </g>
     </g>
     <g id="text_26">
      <!-- −0.15 -->
      <g transform="translate(19.954687 147.22776) scale(0.1 -0.1)">
       <use xlink:href="#DejaVuSans-2212"/>
       <use xlink:href="#DejaVuSans-30" x="83.789062"/>
       <use xlink:href="#DejaVuSans-2e" x="147.412109"/>
       <use xlink:href="#DejaVuSans-31" x="179.199219"/>
       <use xlink:href="#DejaVuSans-35" x="242.822266"/>
      </g>
     </g>
    </g>
    <g id="text_27">
     <!-- ba_y -->
     <g transform="translate(13.596875 186.225656) rotate(-90) scale(0.1 -0.1)">
      <defs>
       <path id="DejaVuSans-79" d="M 2059 -325 
Q 1816 -950 1584 -1140 
Q 1353 -1331 966 -1331 
L 506 -1331 
L 506 -850 
L 844 -850 
Q 1081 -850 1212 -737 
Q 1344 -625 1503 -206 
L 1606 56 
L 191 3500 
L 800 3500 
L 1894 763 
L 2988 3500 
L 3597 3500 
L 2059 -325 
z
" transform="scale(0.015625)"/>
      </defs>
      <use xlink:href="#DejaVuSans-62"/>
      <use xlink:href="#DejaVuSans-61" x="63.476562"/>
      <use xlink:href="#DejaVuSans-5f" x="124.755859"/>
      <use xlink:href="#DejaVuSans-79" x="174.755859"/>
     </g>
    </g>
   </g>
   <g id="line2d_54">
    <path d="M 73.832727 174.528 
L 398.487273 174.528 
L 398.487273 174.528 
" clip-path="url(#p0cc0f98ac9)" style="fill: none; stroke: #1f77b4; stroke-width: 1.5; stroke-linecap: square"/>
   </g>
   <g id="line2d_55">
    <path d="M 73.832727 138.951549 
L 80.239269 139.060492 
L 80.362885 139.067846 
L 82.323417 139.177853 
L 82.442086 139.189739 
L 83.824401 139.299313 
L 83.939649 139.314864 
L 84.990953 139.418054 
L 85.106279 139.437105 
L 85.990442 139.538605 
L 86.10585 139.560452 
L 86.908109 139.664446 
L 87.021687 139.689235 
L 87.742053 139.792513 
L 87.857377 139.819875 
L 88.492507 139.918942 
L 88.606158 139.948769 
L 89.241284 140.056191 
L 89.354938 140.088412 
L 89.908243 140.187262 
L 90.021819 140.221246 
L 90.575047 140.327429 
L 90.6887 140.363275 
L 91.15836 140.456482 
L 91.272013 140.494818 
L 91.743343 140.591564 
L 91.857002 140.631541 
L 92.326658 140.734678 
L 92.440384 140.776343 
L 92.909966 140.883835 
L 93.02362 140.927569 
L 93.409786 141.017146 
L 93.523362 141.062254 
L 93.909451 141.154332 
L 94.023106 141.201469 
L 94.409193 141.297538 
L 94.522848 141.346527 
L 94.910612 141.44608 
L 95.024262 141.496366 
L 95.410349 141.598054 
L 95.524081 141.649691 
L 95.910093 141.753998 
L 96.023746 141.807061 
L 96.409912 141.914669 
L 96.523488 141.969376 
L 96.911326 142.079813 
L 97.024902 142.136387 
L 97.327421 142.221685 
L 97.44108 142.27905 
L 97.743594 142.366221 
L 97.857248 142.424928 
L 98.161439 142.514415 
L 98.275094 142.57428 
L 98.577613 142.66421 
L 98.691344 142.723969 
L 98.993786 142.814429 
L 99.10744 142.875821 
L 99.411631 142.968773 
L 99.525286 143.031628 
L 99.827881 143.12648 
L 99.941459 143.189927 
L 100.244003 143.286296 
L 100.357632 143.3509 
L 100.661905 143.447897 
L 100.775476 143.513448 
L 101.077996 143.612615 
L 101.191651 143.678669 
L 101.494169 143.779295 
L 101.607901 143.84723 
L 101.912015 143.948204 
L 102.025746 144.01577 
L 102.328188 144.117874 
L 102.441842 144.186239 
L 102.746033 144.288555 
L 102.859686 144.357346 
L 103.162283 144.460255 
L 103.275859 144.529015 
L 103.57838 144.632619 
L 103.692034 144.70146 
L 103.996225 144.806193 
L 104.109878 144.876368 
L 104.412398 144.981816 
L 104.526051 145.052199 
L 104.828572 145.15719 
L 104.942303 145.227818 
L 105.246417 145.33404 
L 105.360148 145.404858 
L 105.66259 145.511868 
L 105.776245 145.58356 
L 106.078842 145.691755 
L 106.192418 145.763931 
L 106.496686 145.872545 
L 106.610262 145.944633 
L 106.912782 146.053316 
L 107.026437 146.125934 
L 107.328955 146.235358 
L 107.44261 146.308835 
L 107.746801 146.419051 
L 107.860455 146.49294 
L 108.162974 146.60298 
L 108.276705 146.676702 
L 108.580819 146.787401 
L 108.69455 146.86097 
L 108.913424 146.935135 
L 109.027078 147.009259 
L 109.2477 147.083666 
L 109.361355 147.157638 
L 109.580382 147.231529 
L 109.693959 147.306424 
L 109.91291 147.380705 
L 110.026564 147.454844 
L 110.247186 147.528935 
L 110.360841 147.6036 
L 110.579791 147.677696 
L 110.693445 147.752375 
L 110.914072 147.826716 
L 111.027722 147.900313 
L 111.33024 148.011209 
L 111.443972 148.085351 
L 111.664517 148.159736 
L 111.77825 148.234546 
L 111.997123 148.30926 
L 112.110776 148.383219 
L 112.331398 148.457429 
L 112.445064 148.532031 
L 112.664081 148.606673 
L 112.777657 148.680633 
L 113.081926 148.791501 
L 113.195502 148.866343 
L 113.414454 148.941276 
L 113.528107 149.015654 
L 113.748729 149.08963 
L 113.862384 149.163714 
L 114.081337 149.238718 
L 114.19499 149.313854 
L 114.497509 149.42471 
L 114.61124 149.498729 
L 114.831785 149.573441 
L 114.945516 149.647189 
L 115.24796 149.757765 
L 115.361613 149.831633 
L 115.665805 149.942391 
L 115.779458 150.015869 
L 116.082057 150.126362 
L 116.195633 150.199871 
L 116.498154 150.310111 
L 116.611808 150.383456 
L 116.915999 150.492804 
L 117.029653 150.56493 
L 117.332177 150.673634 
L 117.445828 150.745937 
L 117.748347 150.854415 
L 117.862078 150.926263 
L 118.166192 151.034168 
L 118.279925 151.105971 
L 118.582367 151.213191 
L 118.696022 151.284791 
L 118.998619 151.392408 
L 119.112197 151.463478 
L 119.416464 151.569636 
L 119.530042 151.640575 
L 119.832563 151.745881 
L 119.946217 151.816103 
L 120.248738 151.921445 
L 120.36239 151.991743 
L 120.666583 152.096478 
L 120.780264 152.165314 
L 121.082756 152.268539 
L 121.196489 152.338319 
L 121.500603 152.442605 
L 121.614334 152.511682 
L 121.916778 152.614583 
L 122.030432 152.683145 
L 122.33303 152.7855 
L 122.446637 152.853031 
L 122.750877 152.954364 
L 122.864453 153.022712 
L 123.166973 153.125251 
L 123.280628 153.1929 
L 123.583148 153.293552 
L 123.696803 153.36041 
L 124.000993 153.459742 
L 124.114648 153.525805 
L 124.417168 153.624493 
L 124.530901 153.690193 
L 124.833343 153.787856 
L 124.946998 153.852998 
L 125.25119 153.95199 
L 125.364845 154.016363 
L 125.667444 154.111108 
L 125.78102 154.174923 
L 126.08354 154.270895 
L 126.197195 154.335045 
L 126.501387 154.430029 
L 126.615042 154.49316 
L 126.917562 154.587547 
L 127.031216 154.649955 
L 127.335409 154.741686 
L 127.449063 154.801875 
L 127.751584 154.892657 
L 127.865315 154.953206 
L 128.167759 155.041821 
L 128.281413 155.100548 
L 128.585604 155.18876 
L 128.699259 155.247409 
L 129.001857 155.33463 
L 129.115462 155.392265 
L 129.417956 155.477917 
L 129.53161 155.5345 
L 129.835803 155.618922 
L 129.949457 155.674557 
L 130.251978 155.758007 
L 130.365632 155.813347 
L 130.751723 155.922562 
L 130.865454 155.977408 
L 131.251468 156.086974 
L 131.365121 156.14068 
L 131.752884 156.24834 
L 131.866538 156.30131 
L 132.252708 156.407197 
L 132.366284 156.459476 
L 132.752456 156.563077 
L 132.866029 156.614586 
L 133.252118 156.716429 
L 133.365773 156.766914 
L 133.753536 156.867719 
L 133.86719 156.917789 
L 134.253281 157.016869 
L 134.367012 157.066132 
L 134.753026 157.164394 
L 134.866681 157.213377 
L 135.252848 157.311021 
L 135.366426 157.358957 
L 135.752515 157.453851 
L 135.866171 157.501466 
L 136.253933 157.595256 
L 136.367587 157.642085 
L 136.753678 157.734501 
L 136.867332 157.780162 
L 137.253423 157.87051 
L 137.367156 157.915389 
L 137.753169 158.004646 
L 137.866825 158.048966 
L 138.336561 158.15854 
L 138.450139 158.201426 
L 138.921549 158.308498 
L 139.035125 158.351649 
L 139.504786 158.457618 
L 139.618441 158.499881 
L 140.088102 158.604195 
L 140.201756 158.645465 
L 140.671416 158.74722 
L 140.785149 158.787546 
L 141.254732 158.887118 
L 141.368386 158.926941 
L 141.838124 159.025624 
L 141.951702 159.064346 
L 142.421363 159.159673 
L 142.535018 159.19803 
L 143.004682 159.292324 
L 143.118333 159.329851 
L 143.587995 159.422689 
L 143.701726 159.459239 
L 144.254879 159.567705 
L 144.368534 159.603067 
L 144.921842 159.708994 
L 145.03542 159.74371 
L 145.58865 159.846265 
L 145.702306 159.880214 
L 146.255536 159.980051 
L 146.36919 160.013201 
L 146.922422 160.109916 
L 147.036153 160.141868 
L 147.589306 160.238472 
L 147.702962 160.270393 
L 148.33984 160.380428 
L 148.453417 160.411605 
L 149.090218 160.519839 
L 149.203872 160.5506 
L 149.840674 160.658275 
L 149.954329 160.688816 
L 150.591129 160.794733 
L 150.70486 160.824442 
L 151.33999 160.928526 
L 151.453568 160.958479 
L 152.09037 161.062984 
L 152.205697 161.092594 
L 152.840827 161.196211 
L 152.954481 161.225324 
L 153.591281 161.326805 
L 153.705014 161.355755 
L 154.341738 161.455733 
L 154.455394 161.484025 
L 155.174175 161.59365 
L 155.289419 161.620856 
L 156.008146 161.727325 
L 156.123446 161.753577 
L 156.842147 161.856671 
L 156.957473 161.881755 
L 157.676177 161.981135 
L 157.791577 162.005315 
L 158.592099 162.112291 
L 158.707424 162.13569 
L 159.509695 162.238039 
L 159.625021 162.26051 
L 160.50919 162.36988 
L 160.624593 162.39165 
L 161.510435 162.497265 
L 161.625683 162.517828 
L 162.593422 162.627101 
L 162.708749 162.646441 
L 163.67653 162.751444 
L 163.791891 162.770108 
L 164.843123 162.879567 
L 164.958485 162.897426 
L 166.01143 163.002301 
L 166.126756 163.019378 
L 167.178066 163.121441 
L 167.29347 163.138367 
L 168.344704 163.240785 
L 168.460029 163.258032 
L 169.511339 163.361669 
L 169.626666 163.379106 
L 170.678052 163.483856 
L 170.793302 163.501715 
L 171.846284 163.607594 
L 171.961611 163.624917 
L 173.012921 163.727406 
L 173.128247 163.743992 
L 174.263206 163.849613 
L 174.378456 163.865195 
L 175.596906 163.970098 
L 175.713903 163.984636 
L 177.012659 164.090601 
L 177.129657 164.104533 
L 178.42993 164.209214 
L 178.546928 164.223412 
L 179.847277 164.330359 
L 179.964276 164.34477 
L 181.264627 164.454244 
L 181.381623 164.468835 
L 182.598404 164.574153 
L 182.71373 164.589585 
L 183.932259 164.695018 
L 184.047509 164.710027 
L 185.349532 164.819127 
L 185.466529 164.833344 
L 186.765286 164.936851 
L 186.882285 164.950173 
L 188.349698 165.056945 
L 188.466696 165.068863 
L 190.016165 165.173631 
L 190.133161 165.185229 
L 191.684147 165.29105 
L 191.801157 165.303092 
L 193.267043 165.407307 
L 193.384042 165.419742 
L 194.851457 165.526906 
L 194.968453 165.539682 
L 196.434353 165.645577 
L 196.55135 165.65758 
L 198.18592 165.76498 
L 198.304576 165.77558 
L 200.103083 165.880822 
L 200.221676 165.89041 
L 202.185577 165.997725 
L 202.305918 166.007258 
L 204.186248 166.115293 
L 204.304917 166.125494 
L 206.103426 166.233425 
L 206.222019 166.243851 
L 207.936881 166.350073 
L 208.055551 166.3607 
L 209.937554 166.468195 
L 210.059566 166.477368 
L 212.188937 166.583137 
L 212.31095 166.591289 
L 214.522218 166.697556 
L 214.64431 166.706188 
L 216.690061 166.811694 
L 216.810373 166.820762 
L 218.774276 166.926175 
L 218.894617 166.935123 
L 221.02399 167.040564 
L 221.146078 167.048428 
L 223.524417 167.154122 
L 223.648097 167.161711 
L 225.941267 167.266809 
L 226.064951 167.274833 
L 228.359793 167.379289 
L 228.483554 167.386913 
L 230.943788 167.493137 
L 231.069144 167.500251 
L 233.776825 167.605197 
L 233.905523 167.611132 
L 237.361995 167.716054 
L 237.500799 167.720476 
L 242.446418 167.824592 
L 242.618577 167.82893 
L 250.614588 167.928154 
L 250.866972 167.931117 
L 276.538143 168.005144 
L 276.90251 168.00736 
L 293.374261 168.09391 
L 293.663415 168.09648 
L 304.377167 168.191293 
L 304.609494 168.193744 
L 313.96272 168.290356 
L 314.17499 168.293185 
L 322.883058 168.390452 
L 323.09867 168.393357 
L 331.218409 168.491527 
L 331.410618 168.494897 
L 338.552576 168.593731 
L 338.741445 168.597376 
L 345.470566 168.697388 
L 345.644394 168.701454 
L 352.055945 168.801795 
L 352.233197 168.805641 
L 362.391973 168.899705 
L 362.793113 168.901463 
L 383.981398 168.976764 
L 385.051083 168.97703 
L 398.487273 168.959181 
L 398.487273 168.959181 
" clip-path="url(#p0cc0f98ac9)" style="fill: none; stroke: #1f77b4; stroke-width: 0.5; stroke-linecap: square"/>
   </g>
   <g id="line2d_56">
    <path d="M 73.832727 210.104451 
L 80.239269 209.995508 
L 80.362885 209.988154 
L 82.323417 209.878147 
L 82.442086 209.866261 
L 83.824401 209.756687 
L 83.939649 209.741136 
L 84.990953 209.637946 
L 85.106279 209.618895 
L 85.990442 209.517395 
L 86.10585 209.495548 
L 86.908109 209.391554 
L 87.021687 209.366765 
L 87.742053 209.263487 
L 87.857377 209.236125 
L 88.492507 209.137058 
L 88.606158 209.107231 
L 89.241284 208.999809 
L 89.354938 208.967588 
L 89.908243 208.868738 
L 90.021819 208.834754 
L 90.575047 208.728571 
L 90.6887 208.692725 
L 91.15836 208.599518 
L 91.272013 208.561182 
L 91.743343 208.464436 
L 91.857002 208.424459 
L 92.326658 208.321322 
L 92.440384 208.279657 
L 92.909966 208.172165 
L 93.02362 208.128431 
L 93.409786 208.038854 
L 93.523362 207.993746 
L 93.909451 207.901668 
L 94.023106 207.854531 
L 94.409193 207.758462 
L 94.522848 207.709473 
L 94.910612 207.60992 
L 95.024262 207.559634 
L 95.410349 207.457946 
L 95.524081 207.406309 
L 95.910093 207.302002 
L 96.023746 207.248939 
L 96.409912 207.141331 
L 96.523488 207.086624 
L 96.911326 206.976187 
L 97.024902 206.919613 
L 97.327421 206.834315 
L 97.44108 206.77695 
L 97.743594 206.689779 
L 97.857248 206.631072 
L 98.161439 206.541585 
L 98.275094 206.48172 
L 98.577613 206.39179 
L 98.691344 206.332031 
L 98.993786 206.241571 
L 99.10744 206.180179 
L 99.411631 206.087227 
L 99.525286 206.024372 
L 99.827881 205.92952 
L 99.941459 205.866073 
L 100.244003 205.769704 
L 100.357632 205.7051 
L 100.661905 205.608103 
L 100.775476 205.542552 
L 101.077996 205.443385 
L 101.191651 205.377331 
L 101.494169 205.276705 
L 101.607901 205.20877 
L 101.912015 205.107796 
L 102.025746 205.04023 
L 102.328188 204.938126 
L 102.441842 204.869761 
L 102.746033 204.767445 
L 102.859686 204.698654 
L 103.162283 204.595745 
L 103.275859 204.526985 
L 103.57838 204.423381 
L 103.692034 204.35454 
L 103.996225 204.249807 
L 104.109878 204.179632 
L 104.412398 204.074184 
L 104.526051 204.003801 
L 104.828572 203.89881 
L 104.942303 203.828182 
L 105.246417 203.72196 
L 105.360148 203.651142 
L 105.66259 203.544132 
L 105.776245 203.47244 
L 106.078842 203.364245 
L 106.192418 203.292069 
L 106.496686 203.183455 
L 106.610262 203.111367 
L 106.912782 203.002684 
L 107.026437 202.930066 
L 107.328955 202.820642 
L 107.44261 202.747165 
L 107.746801 202.636949 
L 107.860455 202.56306 
L 108.162974 202.45302 
L 108.276705 202.379298 
L 108.580819 202.268599 
L 108.69455 202.19503 
L 108.913424 202.120865 
L 109.027078 202.046741 
L 109.2477 201.972334 
L 109.361355 201.898362 
L 109.580382 201.824471 
L 109.693959 201.749576 
L 109.91291 201.675295 
L 110.026564 201.601156 
L 110.247186 201.527065 
L 110.360841 201.4524 
L 110.579791 201.378304 
L 110.693445 201.303625 
L 110.914072 201.229284 
L 111.027722 201.155687 
L 111.33024 201.044791 
L 111.443972 200.970649 
L 111.664517 200.896264 
L 111.77825 200.821454 
L 111.997123 200.74674 
L 112.110776 200.672781 
L 112.331398 200.598571 
L 112.445064 200.523969 
L 112.664081 200.449327 
L 112.777657 200.375367 
L 113.081926 200.264499 
L 113.195502 200.189657 
L 113.414454 200.114724 
L 113.528107 200.040346 
L 113.748729 199.96637 
L 113.862384 199.892286 
L 114.081337 199.817282 
L 114.19499 199.742146 
L 114.497509 199.63129 
L 114.61124 199.557271 
L 114.831785 199.482559 
L 114.945516 199.408811 
L 115.24796 199.298235 
L 115.361613 199.224367 
L 115.665805 199.113609 
L 115.779458 199.040131 
L 116.082057 198.929638 
L 116.195633 198.856129 
L 116.498154 198.745889 
L 116.611808 198.672544 
L 116.915999 198.563196 
L 117.029653 198.49107 
L 117.332177 198.382366 
L 117.445828 198.310063 
L 117.748347 198.201585 
L 117.862078 198.129737 
L 118.166192 198.021832 
L 118.279925 197.950029 
L 118.582367 197.842809 
L 118.696022 197.771209 
L 118.998619 197.663592 
L 119.112197 197.592522 
L 119.416464 197.486364 
L 119.530042 197.415425 
L 119.832563 197.310119 
L 119.946217 197.239897 
L 120.248738 197.134555 
L 120.36239 197.064257 
L 120.666583 196.959522 
L 120.780264 196.890686 
L 121.082756 196.787461 
L 121.196489 196.717681 
L 121.500603 196.613395 
L 121.614334 196.544318 
L 121.916778 196.441417 
L 122.030432 196.372855 
L 122.33303 196.2705 
L 122.446637 196.202969 
L 122.750877 196.101636 
L 122.864453 196.033288 
L 123.166973 195.930749 
L 123.280628 195.8631 
L 123.583148 195.762448 
L 123.696803 195.69559 
L 124.000993 195.596258 
L 124.114648 195.530195 
L 124.417168 195.431507 
L 124.530901 195.365807 
L 124.833343 195.268144 
L 124.946998 195.203002 
L 125.25119 195.10401 
L 125.364845 195.039637 
L 125.667444 194.944892 
L 125.78102 194.881077 
L 126.08354 194.785105 
L 126.197195 194.720955 
L 126.501387 194.625971 
L 126.615042 194.56284 
L 126.917562 194.468453 
L 127.031216 194.406045 
L 127.335409 194.314314 
L 127.449063 194.254125 
L 127.751584 194.163343 
L 127.865315 194.102794 
L 128.167759 194.014179 
L 128.281413 193.955452 
L 128.585604 193.86724 
L 128.699259 193.808591 
L 129.001857 193.72137 
L 129.115462 193.663735 
L 129.417956 193.578083 
L 129.53161 193.5215 
L 129.835803 193.437078 
L 129.949457 193.381443 
L 130.251978 193.297993 
L 130.365632 193.242653 
L 130.751723 193.133438 
L 130.865454 193.078592 
L 131.251468 192.969026 
L 131.365121 192.91532 
L 131.752884 192.80766 
L 131.866538 192.75469 
L 132.252708 192.648803 
L 132.366284 192.596524 
L 132.752456 192.492923 
L 132.866029 192.441414 
L 133.252118 192.339571 
L 133.365773 192.289086 
L 133.753536 192.188281 
L 133.86719 192.138211 
L 134.253281 192.039131 
L 134.367012 191.989868 
L 134.753026 191.891606 
L 134.866681 191.842623 
L 135.252848 191.744979 
L 135.366426 191.697043 
L 135.752515 191.602149 
L 135.866171 191.554534 
L 136.253933 191.460744 
L 136.367587 191.413915 
L 136.753678 191.321499 
L 136.867332 191.275838 
L 137.253423 191.18549 
L 137.367156 191.140611 
L 137.753169 191.051354 
L 137.866825 191.007034 
L 138.336561 190.89746 
L 138.450139 190.854574 
L 138.921549 190.747502 
L 139.035125 190.704351 
L 139.504786 190.598382 
L 139.618441 190.556119 
L 140.088102 190.451805 
L 140.201756 190.410535 
L 140.671416 190.30878 
L 140.785149 190.268454 
L 141.254732 190.168882 
L 141.368386 190.129059 
L 141.838124 190.030376 
L 141.951702 189.991654 
L 142.421363 189.896327 
L 142.535018 189.85797 
L 143.004682 189.763676 
L 143.118333 189.726149 
L 143.587995 189.633311 
L 143.701726 189.596761 
L 144.254879 189.488295 
L 144.368534 189.452933 
L 144.921842 189.347006 
L 145.03542 189.31229 
L 145.58865 189.209735 
L 145.702306 189.175786 
L 146.255536 189.075949 
L 146.36919 189.042799 
L 146.922422 188.946084 
L 147.036153 188.914132 
L 147.589306 188.817528 
L 147.702962 188.785607 
L 148.33984 188.675572 
L 148.453417 188.644395 
L 149.090218 188.536161 
L 149.203872 188.5054 
L 149.840674 188.397725 
L 149.954329 188.367184 
L 150.591129 188.261267 
L 150.70486 188.231558 
L 151.33999 188.127474 
L 151.453568 188.097521 
L 152.09037 187.993016 
L 152.205697 187.963406 
L 152.840827 187.859789 
L 152.954481 187.830676 
L 153.591281 187.729195 
L 153.705014 187.700245 
L 154.341738 187.600267 
L 154.455394 187.571975 
L 155.174175 187.46235 
L 155.289419 187.435144 
L 156.008146 187.328675 
L 156.123446 187.302423 
L 156.842147 187.199329 
L 156.957473 187.174245 
L 157.676177 187.074865 
L 157.791577 187.050685 
L 158.592099 186.943709 
L 158.707424 186.92031 
L 159.509695 186.817961 
L 159.625021 186.79549 
L 160.50919 186.68612 
L 160.624593 186.66435 
L 161.510435 186.558735 
L 161.625683 186.538172 
L 162.593422 186.428899 
L 162.708749 186.409559 
L 163.67653 186.304556 
L 163.791891 186.285892 
L 164.843123 186.176433 
L 164.958485 186.158574 
L 166.01143 186.053699 
L 166.126756 186.036622 
L 167.178066 185.934559 
L 167.29347 185.917633 
L 168.344704 185.815215 
L 168.460029 185.797968 
L 169.511339 185.694331 
L 169.626666 185.676894 
L 170.678052 185.572144 
L 170.793302 185.554285 
L 171.846284 185.448406 
L 171.961611 185.431083 
L 173.012921 185.328594 
L 173.128247 185.312008 
L 174.263206 185.206387 
L 174.378456 185.190805 
L 175.596906 185.085902 
L 175.713903 185.071364 
L 177.012659 184.965399 
L 177.129657 184.951467 
L 178.42993 184.846786 
L 178.546928 184.832588 
L 179.847277 184.725641 
L 179.964276 184.71123 
L 181.264627 184.601756 
L 181.381623 184.587165 
L 182.598404 184.481847 
L 182.71373 184.466415 
L 183.932259 184.360982 
L 184.047509 184.345973 
L 185.349532 184.236873 
L 185.466529 184.222656 
L 186.765286 184.119149 
L 186.882285 184.105827 
L 188.349698 183.999055 
L 188.466696 183.987137 
L 190.016165 183.882369 
L 190.133161 183.870771 
L 191.684147 183.76495 
L 191.801157 183.752908 
L 193.267043 183.648693 
L 193.384042 183.636258 
L 194.851457 183.529094 
L 194.968453 183.516318 
L 196.434353 183.410423 
L 196.55135 183.39842 
L 198.18592 183.29102 
L 198.304576 183.28042 
L 200.103083 183.175178 
L 200.221676 183.16559 
L 202.185577 183.058275 
L 202.305918 183.048742 
L 204.186248 182.940707 
L 204.304917 182.930506 
L 206.103426 182.822575 
L 206.222019 182.812149 
L 207.936881 182.705927 
L 208.055551 182.6953 
L 209.937554 182.587805 
L 210.059566 182.578632 
L 212.188937 182.472863 
L 212.31095 182.464711 
L 214.522218 182.358444 
L 214.64431 182.349812 
L 216.690061 182.244306 
L 216.810373 182.235238 
L 218.774276 182.129825 
L 218.894617 182.120877 
L 221.02399 182.015436 
L 221.146078 182.007572 
L 223.524417 181.901878 
L 223.648097 181.894289 
L 225.941267 181.789191 
L 226.064951 181.781167 
L 228.359793 181.676711 
L 228.483554 181.669087 
L 230.943788 181.562863 
L 231.069144 181.555749 
L 233.776825 181.450803 
L 233.905523 181.444868 
L 237.361995 181.339946 
L 237.500799 181.335524 
L 242.446418 181.231408 
L 242.618577 181.22707 
L 250.614588 181.127846 
L 250.866972 181.124883 
L 276.538143 181.050856 
L 276.90251 181.04864 
L 293.374261 180.96209 
L 293.663415 180.95952 
L 304.377167 180.864707 
L 304.609494 180.862256 
L 313.96272 180.765644 
L 314.17499 180.762815 
L 322.883058 180.665548 
L 323.09867 180.662643 
L 331.218409 180.564473 
L 331.410618 180.561103 
L 338.552576 180.462269 
L 338.741445 180.458624 
L 345.470566 180.358612 
L 345.644394 180.354546 
L 352.055945 180.254205 
L 352.233197 180.250359 
L 362.391973 180.156295 
L 362.793113 180.154537 
L 383.981398 180.079236 
L 385.051083 180.07897 
L 398.487273 180.096819 
L 398.487273 180.096819 
" clip-path="url(#p0cc0f98ac9)" style="fill: none; stroke: #1f77b4; stroke-width: 0.5; stroke-linecap: square"/>
   </g>
   <g id="line2d_57">
    <path d="M 73.832727 174.528 
L 398.487273 174.528 
L 398.487273 174.528 
" clip-path="url(#p0cc0f98ac9)" style="fill: none; stroke: #2ca02c; stroke-width: 1.5; stroke-linecap: square"/>
   </g>
   <g id="line2d_58">
    <path d="M 73.832727 173.447701 
L 398.487273 173.447701 
L 398.487273 173.447701 
" clip-path="url(#p0cc0f98ac9)" style="fill: none; stroke: #2ca02c; stroke-width: 1.5; stroke-linecap: square"/>
   </g>
   <g id="patch_8">
    <path d="M 57.6 213.662118 
L 57.6 135.393882 
" style="fill: none; stroke: #000000; stroke-width: 0.8; stroke-linejoin: miter; stroke-linecap: square"/>
   </g>
   <g id="patch_9">
    <path d="M 414.72 213.662118 
L 414.72 135.393882 
" style="fill: none; stroke: #000000; stroke-width: 0.8; stroke-linejoin: miter; stroke-linecap: square"/>
   </g>
   <g id="patch_10">
    <path d="M 57.6 213.662118 
L 414.72 213.662118 
" style="fill: none; stroke: #000000; stroke-width: 0.8; stroke-linejoin: miter; stroke-linecap: square"/>
   </g>
   <g id="patch_11">
    <path d="M 57.6 135.393882 
L 414.72 135.393882 
" style="fill: none; stroke: #000000; stroke-width: 0.8; stroke-linejoin: miter; stroke-linecap: square"/>
   </g>
   <g id="text_28">
    <!-- accel bias -->
    <g transform="translate(206.340937 129.393882) scale(0.12 -0.12)">
     <use xlink:href="#DejaVuSans-61"/>
     <use xlink:href="#DejaVuSans-63" x="61.279297"/>
     <use xlink:href="#DejaVuSans-63" x="116.259766"/>
     <use xlink:href="#DejaVuSans-65" x="171.240234"/>
     <use xlink:href="#DejaVuSans-6c" x="232.763672"/>
     <use xlink:href="#DejaVuSans-20" x="260.546875"/>
     <use xlink:href="#DejaVuSans-62" x="292.333984"/>
     <use xlink:href="#DejaVuSans-69" x="355.810547"/>
     <use xlink:href="#DejaVuSans-61" x="383.59375"/>
     <use xlink:href="#DejaVuSans-73" x="444.873047"/>
    </g>
   </g>
  </g>
  <g id="axes_3">
   <g id="patch_12">
    <path d="M 57.6 307.584 
L 414.72 307.584 
L 414.72 229.315765 
L 57.6 229.315765 
z
" style="fill: #ffffff"/>
   </g>
   <g id="matplotlib.axis_5">
    <g id="xtick_19">
     <g id="line2d_59">
      <path d="M 73.832727 307.584 
L 73.832727 229.315765 
" clip-path="url(#pc370d0ec8e)" style="fill: none; stroke: #b0b0b0; stroke-width: 0.8; stroke-linecap: square"/>
     </g>
     <g id="line2d_60">
      <g>
       <use xlink:href="#m6c03a57210" x="73.832727" y="307.584" style="stroke: #000000; stroke-width: 0.8"/>
      </g>
     </g>
     <g id="text_29">
      <!-- 0 -->
      <g transform="translate(70.651477 322.182437) scale(0.1 -0.1)">
       <use xlink:href="#DejaVuSans-30"/>
      </g>
     </g>
    </g>
    <g id="xtick_20">
     <g id="line2d_61">
      <path d="M 115.509567 307.584 
L 115.509567 229.315765 
" clip-path="url(#pc370d0ec8e)" style="fill: none; stroke: #b0b0b0; stroke-width: 0.8; stroke-linecap: square"/>
     </g>
     <g id="line2d_62">
      <g>
       <use xlink:href="#m6c03a57210" x="115.509567" y="307.584" style="stroke: #000000; stroke-width: 0.8"/>
      </g>
     </g>
     <g id="text_30">
      <!-- 25 -->
      <g transform="translate(109.147067 322.182437) scale(0.1 -0.1)">
       <use xlink:href="#DejaVuSans-32"/>
       <use xlink:href="#DejaVuSans-35" x="63.623047"/>
      </g>
     </g>
    </g>
    <g id="xtick_21">
     <g id="line2d_63">
      <path d="M 157.186407 307.584 
L 157.186407 229.315765 
" clip-path="url(#pc370d0ec8e)" style="fill: none; stroke: #b0b0b0; stroke-width: 0.8; stroke-linecap: square"/>
     </g>
     <g id="line2d_64">
      <g>
       <use xlink:href="#m6c03a57210" x="157.186407" y="307.584" style="stroke: #000000; stroke-width: 0.8"/>
      </g>
     </g>
     <g id="text_31">
      <!-- 50 -->
      <g transform="translate(150.823907 322.182437) scale(0.1 -0.1)">
       <use xlink:href="#DejaVuSans-35"/>
       <use xlink:href="#DejaVuSans-30" x="63.623047"/>
      </g>
     </g>
    </g>
    <g id="xtick_22">
     <g id="line2d_65">
      <path d="M 198.863247 307.584 
L 198.863247 229.315765 
" clip-path="url(#pc370d0ec8e)" style="fill: none; stroke: #b0b0b0; stroke-width: 0.8; stroke-linecap: square"/>
     </g>
     <g id="line2d_66">
      <g>
       <use xlink:href="#m6c03a57210" x="198.863247" y="307.584" style="stroke: #000000; stroke-width: 0.8"/>
      </g>
     </g>
     <g id="text_32">
      <!-- 75 -->
      <g transform="translate(192.500747 322.182437) scale(0.1 -0.1)">
       <use xlink:href="#DejaVuSans-37"/>
       <use xlink:href="#DejaVuSans-35" x="63.623047"/>
      </g>
     </g>
    </g>
    <g id="xtick_23">
     <g id="line2d_67">
      <path d="M 240.540088 307.584 
L 240.540088 229.315765 
" clip-path="url(#pc370d0ec8e)" style="fill: none; stroke: #b0b0b0; stroke-width: 0.8; stroke-linecap: square"/>
     </g>
     <g id="line2d_68">
      <g>
       <use xlink:href="#m6c03a57210" x="240.540088" y="307.584" style="stroke: #000000; stroke-width: 0.8"/>
      </g>
     </g>
     <g id="text_33">
      <!-- 100 -->
      <g transform="translate(230.996338 322.182437) scale(0.1 -0.1)">
       <use xlink:href="#DejaVuSans-31"/>
       <use xlink:href="#DejaVuSans-30" x="63.623047"/>
       <use xlink:href="#DejaVuSans-30" x="127.246094"/>
      </g>
     </g>
    </g>
    <g id="xtick_24">
     <g id="line2d_69">
      <path d="M 282.216928 307.584 
L 282.216928 229.315765 
" clip-path="url(#pc370d0ec8e)" style="fill: none; stroke: #b0b0b0; stroke-width: 0.8; stroke-linecap: square"/>
     </g>
     <g id="line2d_70">
      <g>
       <use xlink:href="#m6c03a57210" x="282.216928" y="307.584" style="stroke: #000000; stroke-width: 0.8"/>
      </g>
     </g>
     <g id="text_34">
      <!-- 125 -->
      <g transform="translate(272.673178 322.182437) scale(0.1 -0.1)">
       <use xlink:href="#DejaVuSans-31"/>
       <use xlink:href="#DejaVuSans-32" x="63.623047"/>
       <use xlink:href="#DejaVuSans-35" x="127.246094"/>
      </g>
     </g>
    </g>
    <g id="xtick_25">
     <g id="line2d_71">
      <path d="M 323.893768 307.584 
L 323.893768 229.315765 
" clip-path="url(#pc370d0ec8e)" style="fill: none; stroke: #b0b0b0; stroke-width: 0.8; stroke-linecap: square"/>
     </g>
     <g id="line2d_72">
      <g>
       <use xlink:href="#m6c03a57210" x="323.893768" y="307.584" style="stroke: #000000; stroke-width: 0.8"/>
      </g>
     </g>
     <g id="text_35">
      <!-- 150 -->
      <g transform="translate(314.350018 322.182437) scale(0.1 -0.1)">
       <use xlink:href="#DejaVuSans-31"/>
       <use xlink:href="#DejaVuSans-35" x="63.623047"/>
       <use xlink:href="#DejaVuSans-30" x="127.246094"/>
      </g>
     </g>
    </g>
    <g id="xtick_26">
     <g id="line2d_73">
      <path d="M 365.570608 307.584 
L 365.570608 229.315765 
" clip-path="url(#pc370d0ec8e)" style="fill: none; stroke: #b0b0b0; stroke-width: 0.8; stroke-linecap: square"/>
     </g>
     <g id="line2d_74">
      <g>
       <use xlink:href="#m6c03a57210" x="365.570608" y="307.584" style="stroke: #000000; stroke-width: 0.8"/>
      </g>
     </g>
     <g id="text_36">
      <!-- 175 -->
      <g transform="translate(356.026858 322.182437) scale(0.1 -0.1)">
       <use xlink:href="#DejaVuSans-31"/>
       <use xlink:href="#DejaVuSans-37" x="63.623047"/>
       <use xlink:href="#DejaVuSans-35" x="127.246094"/>
      </g>
     </g>
    </g>
    <g id="xtick_27">
     <g id="line2d_75">
      <path d="M 407.247448 307.584 
L 407.247448 229.315765 
" clip-path="url(#pc370d0ec8e)" style="fill: none; stroke: #b0b0b0; stroke-width: 0.8; stroke-linecap: square"/>
     </g>
     <g id="line2d_76">
      <g>
       <use xlink:href="#m6c03a57210" x="407.247448" y="307.584" style="stroke: #000000; stroke-width: 0.8"/>
      </g>
     </g>
     <g id="text_37">
      <!-- 200 -->
      <g transform="translate(397.703698 322.182437) scale(0.1 -0.1)">
       <use xlink:href="#DejaVuSans-32"/>
       <use xlink:href="#DejaVuSans-30" x="63.623047"/>
       <use xlink:href="#DejaVuSans-30" x="127.246094"/>
      </g>
     </g>
    </g>
    <g id="text_38">
     <!-- t (s) -->
     <g transform="translate(226.104531 335.860562) scale(0.1 -0.1)">
      <defs>
       <path id="DejaVuSans-74" d="M 1172 4494 
L 1172 3500 
L 2356 3500 
L 2356 3053 
L 1172 3053 
L 1172 1153 
Q 1172 725 1289 603 
Q 1406 481 1766 481 
L 2356 481 
L 2356 0 
L 1766 0 
Q 1100 0 847 248 
Q 594 497 594 1153 
L 594 3053 
L 172 3053 
L 172 3500 
L 594 3500 
L 594 4494 
L 1172 4494 
z
" transform="scale(0.015625)"/>
       <path id="DejaVuSans-28" d="M 1984 4856 
Q 1566 4138 1362 3434 
Q 1159 2731 1159 2009 
Q 1159 1288 1364 580 
Q 1569 -128 1984 -844 
L 1484 -844 
Q 1016 -109 783 600 
Q 550 1309 550 2009 
Q 550 2706 781 3412 
Q 1013 4119 1484 4856 
L 1984 4856 
z
" transform="scale(0.015625)"/>
       <path id="DejaVuSans-29" d="M 513 4856 
L 1013 4856 
Q 1481 4119 1714 3412 
Q 1947 2706 1947 2009 
Q 1947 1309 1714 600 
Q 1481 -109 1013 -844 
L 513 -844 
Q 928 -128 1133 580 
Q 1338 1288 1338 2009 
Q 1338 2731 1133 3434 
Q 928 4138 513 4856 
z
" transform="scale(0.015625)"/>
      </defs>
      <use xlink:href="#DejaVuSans-74"/>
      <use xlink:href="#DejaVuSans-20" x="39.208984"/>
      <use xlink:href="#DejaVuSans-28" x="70.996094"/>
      <use xlink:href="#DejaVuSans-73" x="110.009766"/>
      <use xlink:href="#DejaVuSans-29" x="162.109375"/>
     </g>
    </g>
   </g>
   <g id="matplotlib.axis_6">
    <g id="ytick_7">
     <g id="line2d_77">
      <path d="M 57.6 303.045553 
L 414.72 303.045553 
" clip-path="url(#pc370d0ec8e)" style="fill: none; stroke: #b0b0b0; stroke-width: 0.8; stroke-linecap: square"/>
     </g>
     <g id="line2d_78">
      <g>
       <use xlink:href="#mb903a4d875" x="57.6" y="303.045553" style="stroke: #000000; stroke-width: 0.8"/>
      </g>
     </g>
     <g id="text_39">
      <!-- 0.05 -->
      <g transform="translate(28.334375 306.844772) scale(0.1 -0.1)">
       <use xlink:href="#DejaVuSans-30"/>
       <use xlink:href="#DejaVuSans-2e" x="63.623047"/>
       <use xlink:href="#DejaVuSans-30" x="95.410156"/>
       <use xlink:href="#DejaVuSans-35" x="159.033203"/>
      </g>
     </g>
    </g>
    <g id="ytick_8">
     <g id="line2d_79">
      <path d="M 57.6 273.398529 
L 414.72 273.398529 
" clip-path="url(#pc370d0ec8e)" style="fill: none; stroke: #b0b0b0; stroke-width: 0.8; stroke-linecap: square"/>
     </g>
     <g id="line2d_80">
      <g>
       <use xlink:href="#mb903a4d875" x="57.6" y="273.398529" style="stroke: #000000; stroke-width: 0.8"/>
      </g>
     </g>
     <g id="text_40">
      <!-- 0.10 -->
      <g transform="translate(28.334375 277.197748) scale(0.1 -0.1)">
       <use xlink:href="#DejaVuSans-30"/>
       <use xlink:href="#DejaVuSans-2e" x="63.623047"/>
       <use xlink:href="#DejaVuSans-31" x="95.410156"/>
       <use xlink:href="#DejaVuSans-30" x="159.033203"/>
      </g>
     </g>
    </g>
    <g id="ytick_9">
     <g id="line2d_81">
      <path d="M 57.6 243.751505 
L 414.72 243.751505 
" clip-path="url(#pc370d0ec8e)" style="fill: none; stroke: #b0b0b0; stroke-width: 0.8; stroke-linecap: square"/>
     </g>
     <g id="line2d_82">
      <g>
       <use xlink:href="#mb903a4d875" x="57.6" y="243.751505" style="stroke: #000000; stroke-width: 0.8"/>
      </g>
     </g>
     <g id="text_41">
      <!-- 0.15 -->
      <g transform="translate(28.334375 247.550723) scale(0.1 -0.1)">
       <use xlink:href="#DejaVuSans-30"/>
       <use xlink:href="#DejaVuSans-2e" x="63.623047"/>
       <use xlink:href="#DejaVuSans-31" x="95.410156"/>
       <use xlink:href="#DejaVuSans-35" x="159.033203"/>
      </g>
     </g>
    </g>
    <g id="text_42">
     <!-- ba_z -->
     <g transform="translate(21.976562 279.812382) rotate(-90) scale(0.1 -0.1)">
      <defs>
       <path id="DejaVuSans-7a" d="M 353 3500 
L 3084 3500 
L 3084 2975 
L 922 459 
L 3084 459 
L 3084 0 
L 275 0 
L 275 525 
L 2438 3041 
L 353 3041 
L 353 3500 
z
" transform="scale(0.015625)"/>
      </defs>
      <use xlink:href="#DejaVuSans-62"/>
      <use xlink:href="#DejaVuSans-61" x="63.476562"/>
      <use xlink:href="#DejaVuSans-5f" x="124.755859"/>
      <use xlink:href="#DejaVuSans-7a" x="174.755859"/>
     </g>
    </g>
   </g>
   <g id="line2d_83">
    <path d="M 73.832727 268.449882 
L 398.487273 268.449882 
L 398.487273 268.449882 
" clip-path="url(#pc370d0ec8e)" style="fill: none; stroke: #1f77b4; stroke-width: 1.5; stroke-linecap: square"/>
   </g>
   <g id="line2d_84">
    <path d="M 73.832727 232.873431 
L 81.907242 232.982371 
L 82.069443 232.985508 
L 89.908243 233.09396 
L 90.178929 233.096723 
L 95.910093 233.204885 
L 96.030431 233.214817 
L 97.49456 233.321669 
L 97.611555 233.337198 
L 98.661181 233.441471 
L 98.776511 233.460652 
L 99.660744 233.561716 
L 99.775992 233.582915 
L 100.578254 233.682841 
L 100.693582 233.705814 
L 101.494169 233.812751 
L 101.609494 233.837074 
L 102.328188 233.936365 
L 102.443591 233.961451 
L 103.162283 234.063278 
L 103.275859 234.089317 
L 103.996225 234.195363 
L 104.11155 234.22225 
L 104.828572 234.331886 
L 104.942303 234.359923 
L 105.579022 234.457529 
L 105.692674 234.485743 
L 106.329548 234.585942 
L 106.443129 234.61491 
L 107.079921 234.716706 
L 107.193574 234.745705 
L 107.830369 234.847728 
L 107.944059 234.87715 
L 108.580819 234.981685 
L 108.69455 235.011726 
L 109.329675 235.117467 
L 109.443252 235.147928 
L 110.080049 235.255933 
L 110.195373 235.286216 
L 110.830498 235.392185 
L 110.944156 235.422638 
L 111.580953 235.527243 
L 111.694679 235.556771 
L 112.331398 235.658673 
L 112.445064 235.687369 
L 113.163746 235.797681 
L 113.279071 235.82435 
L 113.997767 235.928165 
L 114.113091 235.953061 
L 114.915354 236.058465 
L 115.03068 236.080826 
L 115.914918 236.187914 
L 116.030166 236.208575 
L 116.999569 236.31861 
L 117.114894 236.338416 
L 118.082624 236.444562 
L 118.197949 236.463633 
L 119.165758 236.567833 
L 119.281006 236.58663 
L 120.248738 236.688893 
L 120.364062 236.707444 
L 121.417073 236.817359 
L 121.532359 236.835413 
L 122.583737 236.94157 
L 122.699027 236.958883 
L 123.833856 237.068329 
L 123.949182 237.084654 
L 125.084056 237.188156 
L 125.199454 237.203639 
L 126.417817 237.307521 
L 126.534814 237.321605 
L 128.00062 237.431521 
L 128.117617 237.443515 
L 129.835803 237.554016 
L 129.956142 237.564358 
L 131.836453 237.670941 
L 131.956794 237.680175 
L 134.086142 237.7906 
L 134.20827 237.799332 
L 136.253933 237.907612 
L 136.374274 237.917224 
L 138.171017 238.023533 
L 138.289686 238.034262 
L 139.920961 238.141076 
L 140.03963 238.152818 
L 141.587416 238.261706 
L 141.704413 238.274271 
L 143.171823 238.38318 
L 143.288815 238.396367 
L 144.672728 238.503848 
L 144.789725 238.517644 
L 146.17197 238.627606 
L 146.288964 238.641299 
L 147.756446 238.751731 
L 147.873444 238.763695 
L 149.840674 238.873384 
L 149.966028 238.880615 
L 154.590854 238.988877 
L 154.756244 238.991812 
L 159.342555 239.100224 
L 159.476266 239.105497 
L 162.509852 239.213614 
L 162.636878 239.220381 
L 165.177403 239.328717 
L 165.302757 239.336173 
L 168.261132 239.445516 
L 168.403202 239.449953 
L 176.096655 239.557161 
L 176.262127 239.560223 
L 191.517008 239.666273 
L 191.931515 239.668478 
L 209.27074 239.773659 
L 209.578201 239.776072 
L 221.2747 239.883179 
L 221.527083 239.886497 
L 230.026186 239.994373 
L 230.189984 239.997507 
L 235.361397 240.105716 
L 235.523446 240.108731 
L 241.196204 240.217616 
L 241.34337 240.2216 
L 245.114062 240.330714 
L 245.242684 240.336467 
L 248.281381 240.445089 
L 248.406736 240.451575 
L 250.781729 240.559136 
L 250.902075 240.56838 
L 252.615265 240.674245 
L 252.733934 240.686304 
L 254.11619 240.792815 
L 254.233188 240.807358 
L 255.449974 240.916261 
L 255.566972 240.93306 
L 256.616617 241.041113 
L 256.731945 241.060452 
L 257.699768 241.167965 
L 257.815018 241.187853 
L 258.782762 241.294534 
L 258.89809 241.313643 
L 259.867507 241.419259 
L 259.982835 241.438695 
L 260.950658 241.546493 
L 261.065908 241.566475 
L 261.950082 241.66848 
L 262.06541 241.689482 
L 262.951256 241.797318 
L 263.066588 241.81949 
L 263.867287 241.921694 
L 263.982517 241.944907 
L 264.784792 242.050161 
L 264.900119 242.073869 
L 265.702398 242.182353 
L 265.817723 242.206671 
L 266.534758 242.305556 
L 266.650161 242.33063 
L 267.368866 242.432407 
L 267.482451 242.458472 
L 268.202823 242.563815 
L 268.318152 242.590758 
L 269.035185 242.700855 
L 269.148918 242.728832 
L 269.785648 242.828104 
L 269.899304 242.856924 
L 270.536188 242.959253 
L 270.649767 242.988939 
L 271.286574 243.094109 
L 271.400229 243.12461 
L 272.037036 243.232053 
L 272.150692 243.263284 
L 272.787499 243.374066 
L 272.901232 243.405625 
L 273.454432 243.502161 
L 273.568048 243.534768 
L 274.119613 243.633792 
L 274.233269 243.666997 
L 274.786505 243.76691 
L 274.900162 243.800494 
L 275.453398 243.900879 
L 275.567131 243.934536 
L 276.120291 244.037051 
L 276.233945 244.071669 
L 276.787261 244.17645 
L 276.900838 244.211413 
L 277.454075 244.316175 
L 277.567731 244.35104 
L 278.120968 244.455457 
L 278.234624 244.490118 
L 278.787861 244.592106 
L 278.901593 244.625551 
L 279.454753 244.725239 
L 279.568409 244.758252 
L 280.121723 244.855076 
L 280.235306 244.886896 
L 280.872109 244.997195 
L 280.985764 245.028148 
L 281.622572 245.134304 
L 281.736232 245.164299 
L 282.373036 245.26809 
L 282.486768 245.297528 
L 283.121903 245.399192 
L 283.235483 245.428252 
L 283.87229 245.528468 
L 283.987618 245.556888 
L 284.622753 245.655057 
L 284.736414 245.683282 
L 285.373216 245.781406 
L 285.486949 245.80902 
L 286.207285 245.918856 
L 286.320906 245.946323 
L 287.039613 246.056344 
L 287.15494 246.083698 
L 287.873648 246.192709 
L 287.987303 246.219986 
L 288.707682 246.328931 
L 288.821415 246.356337 
L 289.541716 246.464913 
L 289.655372 246.491941 
L 290.374079 246.59879 
L 290.489405 246.625147 
L 291.208112 246.72929 
L 291.323439 246.755423 
L 292.042148 246.858751 
L 292.157474 246.884301 
L 292.874587 246.987116 
L 292.98817 247.012783 
L 293.708544 247.114263 
L 293.823871 247.139497 
L 294.542578 247.238749 
L 294.657906 247.263278 
L 295.458512 247.372464 
L 295.573916 247.396606 
L 296.376229 247.505563 
L 296.489773 247.529677 
L 297.292051 247.638438 
L 297.407377 247.662578 
L 298.209656 247.771805 
L 298.324996 247.796342 
L 299.127262 247.907026 
L 299.242665 247.931882 
L 299.959624 248.032713 
L 300.074952 248.057772 
L 300.793659 248.158802 
L 300.908985 248.184021 
L 301.627694 248.284429 
L 301.743021 248.309353 
L 302.460134 248.408389 
L 302.573717 248.433022 
L 303.294093 248.532004 
L 303.409419 248.556823 
L 304.128126 248.655835 
L 304.243454 248.680726 
L 304.960491 248.779759 
L 305.075894 248.804692 
L 305.794601 248.904334 
L 305.908181 248.929386 
L 306.62856 249.029522 
L 306.743888 249.054598 
L 307.462595 249.15559 
L 307.577922 249.180969 
L 308.294963 249.282446 
L 308.408614 249.308046 
L 309.129084 249.410212 
L 309.24265 249.435931 
L 309.963029 249.53872 
L 310.078355 249.564517 
L 310.795392 249.667989 
L 310.91072 249.693776 
L 311.629427 249.797528 
L 311.743083 249.823516 
L 312.463539 249.927897 
L 312.577119 249.954052 
L 313.297498 250.057635 
L 313.412829 250.083483 
L 314.129861 250.187093 
L 314.245227 250.212851 
L 314.963898 250.315688 
L 315.077554 250.341282 
L 315.79801 250.443378 
L 315.911589 250.468925 
L 316.630296 250.570781 
L 316.745624 250.596172 
L 317.464332 250.697827 
L 317.57966 250.723014 
L 318.298368 250.823603 
L 318.413773 250.848576 
L 319.130813 250.948086 
L 319.24606 250.972954 
L 319.964769 251.071858 
L 320.080095 251.096639 
L 320.882374 251.207242 
L 320.997702 251.231674 
L 321.798386 251.340817 
L 321.911966 251.364985 
L 322.715917 251.473656 
L 322.831243 251.49779 
L 323.63185 251.604953 
L 323.747179 251.628721 
L 324.549458 251.735618 
L 324.664863 251.759264 
L 325.467142 251.86508 
L 325.582392 251.888754 
L 326.383 251.994262 
L 326.498328 252.017653 
L 327.300608 252.120986 
L 327.415939 252.143918 
L 328.21662 252.245847 
L 328.331894 252.268332 
L 329.13415 252.36936 
L 329.249477 252.39181 
L 330.050085 252.492202 
L 330.165412 252.514507 
L 330.967693 252.614683 
L 331.083096 252.636812 
L 331.885377 252.736451 
L 332.000627 252.758637 
L 332.884806 252.869129 
L 333.000134 252.891308 
L 333.884311 253.000805 
L 333.999716 253.02292 
L 334.801997 253.122555 
L 334.917247 253.144506 
L 335.801426 253.252027 
L 335.916754 253.273536 
L 336.802604 253.380934 
L 336.917932 253.402039 
L 337.802188 253.507 
L 337.917438 253.527956 
L 338.803289 253.63144 
L 338.918617 253.652149 
L 339.802794 253.755651 
L 339.918123 253.776391 
L 340.803977 253.879661 
L 340.919379 253.900452 
L 341.803479 254.003557 
L 341.918808 254.024367 
L 342.804657 254.127828 
L 342.919985 254.148605 
L 343.804164 254.251991 
L 343.919569 254.272752 
L 344.803672 254.375707 
L 344.918998 254.396095 
L 345.80485 254.498738 
L 345.920178 254.519209 
L 346.804355 254.620962 
L 346.919762 254.641383 
L 347.805611 254.74313 
L 347.920863 254.763489 
L 348.80504 254.86436 
L 348.920368 254.884463 
L 349.888118 254.994719 
L 350.003524 255.01461 
L 350.972944 255.123318 
L 351.088196 255.14276 
L 352.055945 255.248251 
L 352.171274 255.267246 
L 353.222594 255.375169 
L 353.337998 255.392759 
L 354.389242 255.495686 
L 354.50457 255.512643 
L 355.641159 255.617588 
L 355.75646 255.633358 
L 356.973327 255.737141 
L 357.090328 255.75132 
L 358.474182 255.857079 
L 358.591186 255.869394 
L 360.224229 255.978849 
L 360.342823 255.989473 
L 362.141262 256.094932 
L 362.261603 256.10437 
L 364.309081 256.211269 
L 364.431093 256.219744 
L 366.726015 256.328177 
L 366.84795 256.33589 
L 369.309929 256.44173 
L 369.435284 256.448698 
L 372.144624 256.554841 
L 372.273322 256.561113 
L 375.311919 256.667484 
L 375.443958 256.672993 
L 379.062523 256.779885 
L 379.202992 256.784337 
L 383.89783 256.891557 
L 384.059954 256.894819 
L 391.898718 256.999222 
L 392.167805 257.002067 
L 398.487273 257.053708 
L 398.487273 257.053708 
" clip-path="url(#pc370d0ec8e)" style="fill: none; stroke: #1f77b4; stroke-width: 0.5; stroke-linecap: square"/>
   </g>
   <g id="line2d_85">
    <path d="M 73.832727 304.026334 
L 81.907242 303.917394 
L 82.069443 303.914256 
L 89.908243 303.805804 
L 90.178929 303.803042 
L 95.910093 303.69488 
L 96.030431 303.684948 
L 97.49456 303.578096 
L 97.611555 303.562567 
L 98.661181 303.458294 
L 98.776511 303.439113 
L 99.660744 303.338049 
L 99.775992 303.31685 
L 100.578254 303.216924 
L 100.693582 303.19395 
L 101.494169 303.087014 
L 101.609494 303.062691 
L 102.328188 302.9634 
L 102.443591 302.938314 
L 103.162283 302.836486 
L 103.275859 302.810448 
L 103.996225 302.704402 
L 104.11155 302.677515 
L 104.828572 302.567879 
L 104.942303 302.539841 
L 105.579022 302.442235 
L 105.692674 302.414021 
L 106.329548 302.313822 
L 106.443129 302.284854 
L 107.079921 302.183059 
L 107.193574 302.15406 
L 107.830369 302.052037 
L 107.944059 302.022615 
L 108.580819 301.91808 
L 108.69455 301.888039 
L 109.329675 301.782298 
L 109.443252 301.751836 
L 110.080049 301.643832 
L 110.195373 301.613548 
L 110.830498 301.507579 
L 110.944156 301.477127 
L 111.580953 301.372522 
L 111.694679 301.342994 
L 112.331398 301.241092 
L 112.445064 301.212396 
L 113.163746 301.102083 
L 113.279071 301.075415 
L 113.997767 300.9716 
L 114.113091 300.946704 
L 114.915354 300.8413 
L 115.03068 300.818939 
L 115.914918 300.711851 
L 116.030166 300.69119 
L 116.999569 300.581154 
L 117.114894 300.561349 
L 118.082624 300.455203 
L 118.197949 300.436132 
L 119.165758 300.331932 
L 119.281006 300.313135 
L 120.248738 300.210872 
L 120.364062 300.192321 
L 121.417073 300.082405 
L 121.532359 300.064351 
L 122.583737 299.958195 
L 122.699027 299.940881 
L 123.833856 299.831436 
L 123.949182 299.815111 
L 125.084056 299.711609 
L 125.199454 299.696126 
L 126.417817 299.592243 
L 126.534814 299.57816 
L 128.00062 299.468243 
L 128.117617 299.456249 
L 129.835803 299.345748 
L 129.956142 299.335407 
L 131.836453 299.228824 
L 131.956794 299.21959 
L 134.086142 299.109164 
L 134.20827 299.100432 
L 136.253933 298.992152 
L 136.374274 298.982541 
L 138.171017 298.876232 
L 138.289686 298.865502 
L 139.920961 298.758689 
L 140.03963 298.746946 
L 141.587416 298.638059 
L 141.704413 298.625494 
L 143.171823 298.516585 
L 143.288815 298.503398 
L 144.672728 298.395917 
L 144.789725 298.382121 
L 146.17197 298.272158 
L 146.288964 298.258465 
L 147.756446 298.148033 
L 147.873444 298.13607 
L 149.840674 298.02638 
L 149.966028 298.019149 
L 154.590854 297.910888 
L 154.756244 297.907953 
L 159.342555 297.79954 
L 159.476266 297.794267 
L 162.509852 297.68615 
L 162.636878 297.679383 
L 165.177403 297.571048 
L 165.302757 297.563592 
L 168.261132 297.454248 
L 168.403202 297.449812 
L 176.096655 297.342603 
L 176.262127 297.339542 
L 191.517008 297.233491 
L 191.931515 297.231287 
L 209.27074 297.126106 
L 209.578201 297.123693 
L 221.2747 297.016586 
L 221.527083 297.013268 
L 230.026186 296.905392 
L 230.189984 296.902257 
L 235.361397 296.794049 
L 235.523446 296.791034 
L 241.196204 296.682149 
L 241.34337 296.678165 
L 245.114062 296.569051 
L 245.242684 296.563298 
L 248.281381 296.454676 
L 248.406736 296.448189 
L 250.781729 296.340628 
L 250.902075 296.331385 
L 252.615265 296.22552 
L 252.733934 296.21346 
L 254.11619 296.10695 
L 254.233188 296.092407 
L 255.449974 295.983504 
L 255.566972 295.966705 
L 256.616617 295.858652 
L 256.731945 295.839313 
L 257.699768 295.731799 
L 257.815018 295.711911 
L 258.782762 295.60523 
L 258.89809 295.586122 
L 259.867507 295.480506 
L 259.982835 295.46107 
L 260.950658 295.353272 
L 261.065908 295.33329 
L 261.950082 295.231285 
L 262.06541 295.210283 
L 262.951256 295.102447 
L 263.066588 295.080274 
L 263.867287 294.97807 
L 263.982517 294.954857 
L 264.784792 294.849604 
L 264.900119 294.825896 
L 265.702398 294.717412 
L 265.817723 294.693094 
L 266.534758 294.594208 
L 266.650161 294.569135 
L 267.368866 294.467358 
L 267.482451 294.441293 
L 268.202823 294.335949 
L 268.318152 294.309006 
L 269.035185 294.198909 
L 269.148918 294.170933 
L 269.785648 294.07166 
L 269.899304 294.042841 
L 270.536188 293.940512 
L 270.649767 293.910826 
L 271.286574 293.805656 
L 271.400229 293.775154 
L 272.037036 293.667712 
L 272.150692 293.636481 
L 272.787499 293.525699 
L 272.901232 293.49414 
L 273.454432 293.397604 
L 273.568048 293.364997 
L 274.119613 293.265972 
L 274.233269 293.232768 
L 274.786505 293.132855 
L 274.900162 293.09927 
L 275.453398 292.998885 
L 275.567131 292.965229 
L 276.120291 292.862714 
L 276.233945 292.828096 
L 276.787261 292.723315 
L 276.900838 292.688351 
L 277.454075 292.58359 
L 277.567731 292.548725 
L 278.120968 292.444308 
L 278.234624 292.409646 
L 278.787861 292.307658 
L 278.901593 292.274214 
L 279.454753 292.174526 
L 279.568409 292.141512 
L 280.121723 292.044688 
L 280.235306 292.012869 
L 280.872109 291.90257 
L 280.985764 291.871617 
L 281.622572 291.765461 
L 281.736232 291.735466 
L 282.373036 291.631675 
L 282.486768 291.602236 
L 283.121903 291.500573 
L 283.235483 291.471513 
L 283.87229 291.371297 
L 283.987618 291.342877 
L 284.622753 291.244708 
L 284.736414 291.216482 
L 285.373216 291.118358 
L 285.486949 291.090745 
L 286.207285 290.980909 
L 286.320906 290.953442 
L 287.039613 290.84342 
L 287.15494 290.816067 
L 287.873648 290.707055 
L 287.987303 290.679778 
L 288.707682 290.570834 
L 288.821415 290.543427 
L 289.541716 290.434851 
L 289.655372 290.407824 
L 290.374079 290.300975 
L 290.489405 290.274617 
L 291.208112 290.170475 
L 291.323439 290.144342 
L 292.042148 290.041014 
L 292.157474 290.015464 
L 292.874587 289.912649 
L 292.98817 289.886982 
L 293.708544 289.785502 
L 293.823871 289.760267 
L 294.542578 289.661016 
L 294.657906 289.636487 
L 295.458512 289.5273 
L 295.573916 289.503159 
L 296.376229 289.394201 
L 296.489773 289.370088 
L 297.292051 289.261326 
L 297.407377 289.237186 
L 298.209656 289.12796 
L 298.324996 289.103423 
L 299.127262 288.992739 
L 299.242665 288.967883 
L 299.959624 288.867052 
L 300.074952 288.841992 
L 300.793659 288.740963 
L 300.908985 288.715743 
L 301.627694 288.615336 
L 301.743021 288.590411 
L 302.460134 288.491376 
L 302.573717 288.466743 
L 303.294093 288.36776 
L 303.409419 288.342942 
L 304.128126 288.24393 
L 304.243454 288.219039 
L 304.960491 288.120006 
L 305.075894 288.095072 
L 305.794601 287.995431 
L 305.908181 287.970379 
L 306.62856 287.870243 
L 306.743888 287.845167 
L 307.462595 287.744175 
L 307.577922 287.718796 
L 308.294963 287.617318 
L 308.408614 287.591719 
L 309.129084 287.489552 
L 309.24265 287.463834 
L 309.963029 287.361044 
L 310.078355 287.335248 
L 310.795392 287.231775 
L 310.91072 287.205989 
L 311.629427 287.102236 
L 311.743083 287.076249 
L 312.463539 286.971867 
L 312.577119 286.945713 
L 313.297498 286.84213 
L 313.412829 286.816282 
L 314.129861 286.712672 
L 314.245227 286.686914 
L 314.963898 286.584076 
L 315.077554 286.558483 
L 315.79801 286.456387 
L 315.911589 286.43084 
L 316.630296 286.328984 
L 316.745624 286.303593 
L 317.464332 286.201938 
L 317.57966 286.176751 
L 318.298368 286.076162 
L 318.413773 286.051189 
L 319.130813 285.951679 
L 319.24606 285.92681 
L 319.964769 285.827906 
L 320.080095 285.803125 
L 320.882374 285.692522 
L 320.997702 285.668091 
L 321.798386 285.558948 
L 321.911966 285.53478 
L 322.715917 285.426108 
L 322.831243 285.401974 
L 323.63185 285.294812 
L 323.747179 285.271044 
L 324.549458 285.164146 
L 324.664863 285.140501 
L 325.467142 285.034684 
L 325.582392 285.011011 
L 326.383 284.905503 
L 326.498328 284.882112 
L 327.300608 284.778779 
L 327.415939 284.755847 
L 328.21662 284.653917 
L 328.331894 284.631433 
L 329.13415 284.530405 
L 329.249477 284.507955 
L 330.050085 284.407563 
L 330.165412 284.385258 
L 330.967693 284.285082 
L 331.083096 284.262953 
L 331.885377 284.163314 
L 332.000627 284.141128 
L 332.884806 284.030636 
L 333.000134 284.008456 
L 333.884311 283.89896 
L 333.999716 283.876844 
L 334.801997 283.77721 
L 334.917247 283.755259 
L 335.801426 283.647738 
L 335.916754 283.626228 
L 336.802604 283.51883 
L 336.917932 283.497726 
L 337.802188 283.392765 
L 337.917438 283.371808 
L 338.803289 283.268325 
L 338.918617 283.247616 
L 339.802794 283.144114 
L 339.918123 283.123374 
L 340.803977 283.020104 
L 340.919379 282.999313 
L 341.803479 282.896207 
L 341.918808 282.875398 
L 342.804657 282.771937 
L 342.919985 282.751159 
L 343.804164 282.647773 
L 343.919569 282.627013 
L 344.803672 282.524057 
L 344.918998 282.50367 
L 345.80485 282.401027 
L 345.920178 282.380556 
L 346.804355 282.278803 
L 346.919762 282.258382 
L 347.805611 282.156635 
L 347.920863 282.136275 
L 348.80504 282.035404 
L 348.920368 282.015301 
L 349.888118 281.905046 
L 350.003524 281.885155 
L 350.972944 281.776447 
L 351.088196 281.757004 
L 352.055945 281.651514 
L 352.171274 281.632519 
L 353.222594 281.524595 
L 353.337998 281.507006 
L 354.389242 281.404079 
L 354.50457 281.387122 
L 355.641159 281.282177 
L 355.75646 281.266407 
L 356.973327 281.162624 
L 357.090328 281.148445 
L 358.474182 281.042686 
L 358.591186 281.030371 
L 360.224229 280.920916 
L 360.342823 280.910292 
L 362.141262 280.804832 
L 362.261603 280.795395 
L 364.309081 280.688496 
L 364.431093 280.68002 
L 366.726015 280.571588 
L 366.84795 280.563875 
L 369.309929 280.458035 
L 369.435284 280.451066 
L 372.144624 280.344924 
L 372.273322 280.338652 
L 375.311919 280.232281 
L 375.443958 280.226772 
L 379.062523 280.11988 
L 379.202992 280.115427 
L 383.89783 280.008208 
L 384.059954 280.004945 
L 391.898718 279.900543 
L 392.167805 279.897698 
L 398.487273 279.846057 
L 398.487273 279.846057 
" clip-path="url(#pc370d0ec8e)" style="fill: none; stroke: #1f77b4; stroke-width: 0.5; stroke-linecap: square"/>
   </g>
   <g id="line2d_86">
    <path d="M 73.832727 268.449882 
L 398.487273 268.449882 
L 398.487273 268.449882 
" clip-path="url(#pc370d0ec8e)" style="fill: none; stroke: #2ca02c; stroke-width: 1.5; stroke-linecap: square"/>
   </g>
   <g id="line2d_87">
    <path d="M 73.832727 267.201703 
L 398.487273 267.201703 
L 398.487273 267.201703 
" clip-path="url(#pc370d0ec8e)" style="fill: none; stroke: #2ca02c; stroke-width: 1.5; stroke-linecap: square"/>
   </g>
   <g id="patch_13">
    <path d="M 57.6 307.584 
L 57.6 229.315765 
" style="fill: none; stroke: #000000; stroke-width: 0.8; stroke-linejoin: miter; stroke-linecap: square"/>
   </g>
   <g id="patch_14">
    <path d="M 414.72 307.584 
L 414.72 229.315765 
" style="fill: none; stroke: #000000; stroke-width: 0.8; stroke-linejoin: miter; stroke-linecap: square"/>
   </g>
   <g id="patch_15">
    <path d="M 57.6 307.584 
L 414.72 307.584 
" style="fill: none; stroke: #000000; stroke-width: 0.8; stroke-linejoin: miter; stroke-linecap: square"/>
   </g>
   <g id="patch_16">
    <path d="M 57.6 229.315765 
L 414.72 229.315765 
" style="fill: none; stroke: #000000; stroke-width: 0.8; stroke-linejoin: miter; stroke-linecap: square"/>
   </g>
   <g id="text_43">
    <!-- accel bias -->
    <g transform="translate(206.340937 223.315765) scale(0.12 -0.12)">
     <use xlink:href="#DejaVuSans-61"/>
     <use xlink:href="#DejaVuSans-63" x="61.279297"/>
     <use xlink:href="#DejaVuSans-63" x="116.259766"/>
     <use xlink:href="#DejaVuSans-65" x="171.240234"/>
     <use xlink:href="#DejaVuSans-6c" x="232.763672"/>
     <use xlink:href="#DejaVuSans-20" x="260.546875"/>
     <use xlink:href="#DejaVuSans-62" x="292.333984"/>
     <use xlink:href="#DejaVuSans-69" x="355.810547"/>
     <use xlink:href="#DejaVuSans-61" x="383.59375"/>
     <use xlink:href="#DejaVuSans-73" x="444.873047"/>
    </g>
   </g>
   <g id="legend_1">
    <g id="patch_17">
     <path d="M 208.529531 281.35014 
L 263.790469 281.35014 
Q 265.790469 281.35014 265.790469 279.35014 
L 265.790469 236.315765 
Q 265.790469 234.315765 263.790469 234.315765 
L 208.529531 234.315765 
Q 206.529531 234.315765 206.529531 236.315765 
L 206.529531 279.35014 
Q 206.529531 281.35014 208.529531 281.35014 
z
" style="fill: #ffffff; opacity: 0.8; stroke: #cccccc; stroke-linejoin: miter"/>
    </g>
    <g id="line2d_88">
     <path d="M 210.529531 242.414202 
L 220.529531 242.414202 
L 230.529531 242.414202 
" style="fill: none; stroke: #1f77b4; stroke-width: 1.5; stroke-linecap: square"/>
    </g>
    <g id="text_44">
     <!-- filter -->
     <g transform="translate(238.529531 245.914202) scale(0.1 -0.1)">
      <defs>
       <path id="DejaVuSans-66" d="M 2375 4863 
L 2375 4384 
L 1825 4384 
Q 1516 4384 1395 4259 
Q 1275 4134 1275 3809 
L 1275 3500 
L 2222 3500 
L 2222 3053 
L 1275 3053 
L 1275 0 
L 697 0 
L 697 3053 
L 147 3053 
L 147 3500 
L 697 3500 
L 697 3744 
Q 697 4328 969 4595 
Q 1241 4863 1831 4863 
L 2375 4863 
z
" transform="scale(0.015625)"/>
       <path id="DejaVuSans-72" d="M 2631 2963 
Q 2534 3019 2420 3045 
Q 2306 3072 2169 3072 
Q 1681 3072 1420 2755 
Q 1159 2438 1159 1844 
L 1159 0 
L 581 0 
L 581 3500 
L 1159 3500 
L 1159 2956 
Q 1341 3275 1631 3429 
Q 1922 3584 2338 3584 
Q 2397 3584 2469 3576 
Q 2541 3569 2628 3553 
L 2631 2963 
z
" transform="scale(0.015625)"/>
      </defs>
      <use xlink:href="#DejaVuSans-66"/>
      <use xlink:href="#DejaVuSans-69" x="35.205078"/>
      <use xlink:href="#DejaVuSans-6c" x="62.988281"/>
      <use xlink:href="#DejaVuSans-74" x="90.771484"/>
      <use xlink:href="#DejaVuSans-65" x="129.980469"/>
      <use xlink:href="#DejaVuSans-72" x="191.503906"/>
     </g>
    </g>
    <g id="line2d_89">
     <path d="M 210.529531 257.092327 
L 220.529531 257.092327 
L 230.529531 257.092327 
" style="fill: none; stroke: #2ca02c; stroke-width: 1.5; stroke-linecap: square"/>
    </g>
    <g id="text_45">
     <!-- vio -->
     <g transform="translate(238.529531 260.592327) scale(0.1 -0.1)">
      <defs>
       <path id="DejaVuSans-76" d="M 191 3500 
L 800 3500 
L 1894 563 
L 2988 3500 
L 3597 3500 
L 2284 0 
L 1503 0 
L 191 3500 
z
" transform="scale(0.015625)"/>
       <path id="DejaVuSans-6f" d="M 1959 3097 
Q 1497 3097 1228 2736 
Q 959 2375 959 1747 
Q 959 1119 1226 758 
Q 1494 397 1959 397 
Q 2419 397 2687 759 
Q 2956 1122 2956 1747 
Q 2956 2369 2687 2733 
Q 2419 3097 1959 3097 
z
M 1959 3584 
Q 2709 3584 3137 3096 
Q 3566 2609 3566 1747 
Q 3566 888 3137 398 
Q 2709 -91 1959 -91 
Q 1206 -91 779 398 
Q 353 888 353 1747 
Q 353 2609 779 3096 
Q 1206 3584 1959 3584 
z
" transform="scale(0.015625)"/>
      </defs>
      <use xlink:href="#DejaVuSans-76"/>
      <use xlink:href="#DejaVuSans-69" x="59.179688"/>
      <use xlink:href="#DejaVuSans-6f" x="86.962891"/>
     </g>
    </g>
    <g id="line2d_90">
     <path d="M 210.529531 271.770452 
L 220.529531 271.770452 
L 230.529531 271.770452 
" style="fill: none; stroke: #2ca02c; stroke-width: 1.5; stroke-linecap: square"/>
    </g>
    <g id="text_46">
     <!-- viob -->
     <g transform="translate(238.529531 275.270452) scale(0.1 -0.1)">
      <use xlink:href="#DejaVuSans-76"/>
      <use xlink:href="#DejaVuSans-69" x="59.179688"/>
      <use xlink:href="#DejaVuSans-6f" x="86.962891"/>
      <use xlink:href="#DejaVuSans-62" x="148.144531"/>
     </g>
    </g>
   </g>
  </g>
 </g>
 <defs>
  <clipPath id="p2b193a2896">
   <rect x="57.6" y="41.472" width="357.12" height="78.268235"/>
  </clipPath>
  <clipPath id="p0cc0f98ac9">
   <rect x="57.6" y="135.393882" width="357.12" height="78.268235"/>
  </clipPath>
  <clipPath id="pc370d0ec8e">
   <rect x="57.6" y="229.315765" width="357.12" height="78.268235"/>
  </clipPath>
 </defs>
</svg>
