<?xml version="1.0" encoding="utf-8" standalone="no"?>
<!DOCTYPE svg PUBLIC "-//W3C//DTD SVG 1.1//EN"
  "http://www.w3.org/Graphics/SVG/1.1/DTD/svg11.dtd">
<svg xmlns:xlink="http://www.w3.org/1999/xlink" width="460.8pt" height="345.6pt" viewBox="0 0 460.8 345.6" xmlns="http://www.w3.org/2000/svg" version="1.1">
 <metadata>
  <rdf:RDF xmlns:dc="http://purl.org/dc/elements/1.1/" xmlns:cc="http://creativecommons.org/ns#" xmlns:rdf="http://www.w3.org/1999/02/22-rdf-syntax-ns#">
   <cc:Work>
    <dc:type rdf:resource="http://purl.org/dc/dcmitype/StillImage"/>
    <dc:date>2026-01-13T18:45:51.458427</dc:date>
    <dc:format>image/svg+xml</dc:format>
    <dc:creator>
     <cc:Agent>
      <dc:title>Matplotlib v3.9.4, https://matplotlib.org/</dc:title>
     </cc:Agent>
    </dc:creator>
   </cc:Work>
  </rdf:RDF>
 </metadata>
 <defs>
  <style type="text/css">*{stroke-linejoin: round; stroke-linecap: butt}</style>
 </defs>
 <g id="figure_1">
  <g id="patch_1">
   <path d="M 0 345.6 
L 460.8 345.6 
L 460.8 0 
L 0 0 
z
" style="fill: #ffffff"/>
  </g>
  <g id="axes_1">
   <g id="patch_2">
    <path d="M 57.6 119.740235 
L 414.72 119.740235 
L 414.72 41.472 
L 57.6 41.472 
z
" style="fill: #ffffff"/>
   </g>
   <g id="matplotlib.axis_1">
    <g id="xtick_1">
     <g id="line2d_1">
      <path d="M 73.832727 119.740235 
L 73.832727 41.472 
" clip-path="url(#p50547b3f89)" style="fill: none; stroke: #b0b0b0; stroke-width: 0.8; stroke-linecap: square"/>
     </g>
     <g id="line2d_2">
      <defs>
       <path id="m62e965a68f" d="M 0 0 
L 0 3.5 
" style="stroke: #000000; stroke-width: 0.8"/>
      </defs>
      <g>
       <use xlink:href="#m62e965a68f" x="73.832727" y="119.740235" style="stroke: #000000; stroke-width: 0.8"/>
      </g>
     </g>
     <g id="text_1">
      <!-- 0 -->
      <g transform="translate(70.651477 134.338673) scale(0.1 -0.1)">
       <defs>
        <path id="DejaVuSans-30" d="M 2034 4250 
Q 1547 4250 1301 3770 
Q 1056 3291 1056 2328 
Q 1056 1369 1301 889 
Q 1547 409 2034 409 
Q 2525 409 2770 889 
Q 3016 1369 3016 2328 
Q 3016 3291 2770 3770 
Q 2525 4250 2034 4250 
z
M 2034 4750 
Q 2819 4750 3233 4129 
Q 3647 3509 3647 2328 
Q 3647 1150 3233 529 
Q 2819 -91 2034 -91 
Q 1250 -91 836 529 
Q 422 1150 422 2328 
Q 422 3509 836 4129 
Q 1250 4750 2034 4750 
z
" transform="scale(0.015625)"/>
       </defs>
       <use xlink:href="#DejaVuSans-30"/>
      </g>
     </g>
    </g>
    <g id="xtick_2">
     <g id="line2d_3">
      <path d="M 115.509567 119.740235 
L 115.509567 41.472 
" clip-path="url(#p50547b3f89)" style="fill: none; stroke: #b0b0b0; stroke-width: 0.8; stroke-linecap: square"/>
     </g>
     <g id="line2d_4">
      <g>
       <use xlink:href="#m62e965a68f" x="115.509567" y="119.740235" style="stroke: #000000; stroke-width: 0.8"/>
      </g>
     </g>
     <g id="text_2">
      <!-- 25 -->
      <g transform="translate(109.147067 134.338673) scale(0.1 -0.1)">
       <defs>
        <path id="DejaVuSans-32" d="M 1228 531 
L 3431 531 
L 3431 0 
L 469 0 
L 469 531 
Q 828 903 1448 1529 
Q 2069 2156 2228 2338 
Q 2531 2678 2651 2914 
Q 2772 3150 2772 3378 
Q 2772 3750 2511 3984 
Q 2250 4219 1831 4219 
Q 1534 4219 1204 4116 
Q 875 4013 500 3803 
L 500 4441 
Q 881 4594 1212 4672 
Q 1544 4750 1819 4750 
Q 2544 4750 2975 4387 
Q 3406 4025 3406 3419 
Q 3406 3131 3298 2873 
Q 3191 2616 2906 2266 
Q 2828 2175 2409 1742 
Q 1991 1309 1228 531 
z
" transform="scale(0.015625)"/>
        <path id="DejaVuSans-35" d="M 691 4666 
L 3169 4666 
L 3169 4134 
L 1269 4134 
L 1269 2991 
Q 1406 3038 1543 3061 
Q 1681 3084 1819 3084 
Q 2600 3084 3056 2656 
Q 3513 2228 3513 1497 
Q 3513 744 3044 326 
Q 2575 -91 1722 -91 
Q 1428 -91 1123 -41 
Q 819 9 494 109 
L 494 744 
Q 775 591 1075 516 
Q 1375 441 1709 441 
Q 2250 441 2565 725 
Q 2881 1009 2881 1497 
Q 2881 1984 2565 2268 
Q 2250 2553 1709 2553 
Q 1456 2553 1204 2497 
Q 953 2441 691 2322 
L 691 4666 
z
" transform="scale(0.015625)"/>
       </defs>
       <use xlink:href="#DejaVuSans-32"/>
       <use xlink:href="#DejaVuSans-35" x="63.623047"/>
      </g>
     </g>
    </g>
    <g id="xtick_3">
     <g id="line2d_5">
      <path d="M 157.186407 119.740235 
L 157.186407 41.472 
" clip-path="url(#p50547b3f89)" style="fill: none; stroke: #b0b0b0; stroke-width: 0.8; stroke-linecap: square"/>
     </g>
     <g id="line2d_6">
      <g>
       <use xlink:href="#m62e965a68f" x="157.186407" y="119.740235" style="stroke: #000000; stroke-width: 0.8"/>
      </g>
     </g>
     <g id="text_3">
      <!-- 50 -->
      <g transform="translate(150.823907 134.338673) scale(0.1 -0.1)">
       <use xlink:href="#DejaVuSans-35"/>
       <use xlink:href="#DejaVuSans-30" x="63.623047"/>
      </g>
     </g>
    </g>
    <g id="xtick_4">
     <g id="line2d_7">
      <path d="M 198.863247 119.740235 
L 198.863247 41.472 
" clip-path="url(#p50547b3f89)" style="fill: none; stroke: #b0b0b0; stroke-width: 0.8; stroke-linecap: square"/>
     </g>
     <g id="line2d_8">
      <g>
       <use xlink:href="#m62e965a68f" x="198.863247" y="119.740235" style="stroke: #000000; stroke-width: 0.8"/>
      </g>
     </g>
     <g id="text_4">
      <!-- 75 -->
      <g transform="translate(192.500747 134.338673) scale(0.1 -0.1)">
       <defs>
        <path id="DejaVuSans-37" d="M 525 4666 
L 3525 4666 
L 3525 4397 
L 1831 0 
L 1172 0 
L 2766 4134 
L 525 4134 
L 525 4666 
z
" transform="scale(0.015625)"/>
       </defs>
       <use xlink:href="#DejaVuSans-37"/>
       <use xlink:href="#DejaVuSans-35" x="63.623047"/>
      </g>
     </g>
    </g>
    <g id="xtick_5">
     <g id="line2d_9">
      <path d="M 240.540088 119.740235 
L 240.540088 41.472 
" clip-path="url(#p50547b3f89)" style="fill: none; stroke: #b0b0b0; stroke-width: 0.8; stroke-linecap: square"/>
     </g>
     <g id="line2d_10">
      <g>
       <use xlink:href="#m62e965a68f" x="240.540088" y="119.740235" style="stroke: #000000; stroke-width: 0.8"/>
      </g>
     </g>
     <g id="text_5">
      <!-- 100 -->
      <g transform="translate(230.996338 134.338673) scale(0.1 -0.1)">
       <defs>
        <path id="DejaVuSans-31" d="M 794 531 
L 1825 531 
L 1825 4091 
L 703 3866 
L 703 4441 
L 1819 4666 
L 2450 4666 
L 2450 531 
L 3481 531 
L 3481 0 
L 794 0 
L 794 531 
z
" transform="scale(0.015625)"/>
       </defs>
       <use xlink:href="#DejaVuSans-31"/>
       <use xlink:href="#DejaVuSans-30" x="63.623047"/>
       <use xlink:href="#DejaVuSans-30" x="127.246094"/>
      </g>
     </g>
    </g>
    <g id="xtick_6">
     <g id="line2d_11">
      <path d="M 282.216928 119.740235 
L 282.216928 41.472 
" clip-path="url(#p50547b3f89)" style="fill: none; stroke: #b0b0b0; stroke-width: 0.8; stroke-linecap: square"/>
     </g>
     <g id="line2d_12">
      <g>
       <use xlink:href="#m62e965a68f" x="282.216928" y="119.740235" style="stroke: #000000; stroke-width: 0.8"/>
      </g>
     </g>
     <g id="text_6">
      <!-- 125 -->
      <g transform="translate(272.673178 134.338673) scale(0.1 -0.1)">
       <use xlink:href="#DejaVuSans-31"/>
       <use xlink:href="#DejaVuSans-32" x="63.623047"/>
       <use xlink:href="#DejaVuSans-35" x="127.246094"/>
      </g>
     </g>
    </g>
    <g id="xtick_7">
     <g id="line2d_13">
      <path d="M 323.893768 119.740235 
L 323.893768 41.472 
" clip-path="url(#p50547b3f89)" style="fill: none; stroke: #b0b0b0; stroke-width: 0.8; stroke-linecap: square"/>
     </g>
     <g id="line2d_14">
      <g>
       <use xlink:href="#m62e965a68f" x="323.893768" y="119.740235" style="stroke: #000000; stroke-width: 0.8"/>
      </g>
     </g>
     <g id="text_7">
      <!-- 150 -->
      <g transform="translate(314.350018 134.338673) scale(0.1 -0.1)">
       <use xlink:href="#DejaVuSans-31"/>
       <use xlink:href="#DejaVuSans-35" x="63.623047"/>
       <use xlink:href="#DejaVuSans-30" x="127.246094"/>
      </g>
     </g>
    </g>
    <g id="xtick_8">
     <g id="line2d_15">
      <path d="M 365.570608 119.740235 
L 365.570608 41.472 
" clip-path="url(#p50547b3f89)" style="fill: none; stroke: #b0b0b0; stroke-width: 0.8; stroke-linecap: square"/>
     </g>
     <g id="line2d_16">
      <g>
       <use xlink:href="#m62e965a68f" x="365.570608" y="119.740235" style="stroke: #000000; stroke-width: 0.8"/>
      </g>
     </g>
     <g id="text_8">
      <!-- 175 -->
      <g transform="translate(356.026858 134.338673) scale(0.1 -0.1)">
       <use xlink:href="#DejaVuSans-31"/>
       <use xlink:href="#DejaVuSans-37" x="63.623047"/>
       <use xlink:href="#DejaVuSans-35" x="127.246094"/>
      </g>
     </g>
    </g>
    <g id="xtick_9">
     <g id="line2d_17">
      <path d="M 407.247448 119.740235 
L 407.247448 41.472 
" clip-path="url(#p50547b3f89)" style="fill: none; stroke: #b0b0b0; stroke-width: 0.8; stroke-linecap: square"/>
     </g>
     <g id="line2d_18">
      <g>
       <use xlink:href="#m62e965a68f" x="407.247448" y="119.740235" style="stroke: #000000; stroke-width: 0.8"/>
      </g>
     </g>
     <g id="text_9">
      <!-- 200 -->
      <g transform="translate(397.703698 134.338673) scale(0.1 -0.1)">
       <use xlink:href="#DejaVuSans-32"/>
       <use xlink:href="#DejaVuSans-30" x="63.623047"/>
       <use xlink:href="#DejaVuSans-30" x="127.246094"/>
      </g>
     </g>
    </g>
   </g>
   <g id="matplotlib.axis_2">
    <g id="ytick_1">
     <g id="line2d_19">
      <path d="M 57.6 110.246051 
L 414.72 110.246051 
" clip-path="url(#p50547b3f89)" style="fill: none; stroke: #b0b0b0; stroke-width: 0.8; stroke-linecap: square"/>
     </g>
     <g id="line2d_20">
      <defs>
       <path id="m5beb19b11f" d="M 0 0 
L -3.5 0 
" style="stroke: #000000; stroke-width: 0.8"/>
      </defs>
      <g>
       <use xlink:href="#m5beb19b11f" x="57.6" y="110.246051" style="stroke: #000000; stroke-width: 0.8"/>
      </g>
     </g>
     <g id="text_10">
      <!-- −0.00025 -->
      <g transform="translate(0.867188 114.04527) scale(0.1 -0.1)">
       <defs>
        <path id="DejaVuSans-2212" d="M 678 2272 
L 4684 2272 
L 4684 1741 
L 678 1741 
L 678 2272 
z
" transform="scale(0.015625)"/>
        <path id="DejaVuSans-2e" d="M 684 794 
L 1344 794 
L 1344 0 
L 684 0 
L 684 794 
z
" transform="scale(0.015625)"/>
       </defs>
       <use xlink:href="#DejaVuSans-2212"/>
       <use xlink:href="#DejaVuSans-30" x="83.789062"/>
       <use xlink:href="#DejaVuSans-2e" x="147.412109"/>
       <use xlink:href="#DejaVuSans-30" x="179.199219"/>
       <use xlink:href="#DejaVuSans-30" x="242.822266"/>
       <use xlink:href="#DejaVuSans-30" x="306.445312"/>
       <use xlink:href="#DejaVuSans-32" x="370.068359"/>
       <use xlink:href="#DejaVuSans-35" x="433.691406"/>
      </g>
     </g>
    </g>
    <g id="ytick_2">
     <g id="line2d_21">
      <path d="M 57.6 80.606118 
L 414.72 80.606118 
" clip-path="url(#p50547b3f89)" style="fill: none; stroke: #b0b0b0; stroke-width: 0.8; stroke-linecap: square"/>
     </g>
     <g id="line2d_22">
      <g>
       <use xlink:href="#m5beb19b11f" x="57.6" y="80.606118" style="stroke: #000000; stroke-width: 0.8"/>
      </g>
     </g>
     <g id="text_11">
      <!-- 0.00000 -->
      <g transform="translate(9.246875 84.405336) scale(0.1 -0.1)">
       <use xlink:href="#DejaVuSans-30"/>
       <use xlink:href="#DejaVuSans-2e" x="63.623047"/>
       <use xlink:href="#DejaVuSans-30" x="95.410156"/>
       <use xlink:href="#DejaVuSans-30" x="159.033203"/>
       <use xlink:href="#DejaVuSans-30" x="222.65625"/>
       <use xlink:href="#DejaVuSans-30" x="286.279297"/>
       <use xlink:href="#DejaVuSans-30" x="349.902344"/>
      </g>
     </g>
    </g>
    <g id="ytick_3">
     <g id="line2d_23">
      <path d="M 57.6 50.966184 
L 414.72 50.966184 
" clip-path="url(#p50547b3f89)" style="fill: none; stroke: #b0b0b0; stroke-width: 0.8; stroke-linecap: square"/>
     </g>
     <g id="line2d_24">
      <g>
       <use xlink:href="#m5beb19b11f" x="57.6" y="50.966184" style="stroke: #000000; stroke-width: 0.8"/>
      </g>
     </g>
     <g id="text_12">
      <!-- 0.00025 -->
      <g transform="translate(9.246875 54.765403) scale(0.1 -0.1)">
       <use xlink:href="#DejaVuSans-30"/>
       <use xlink:href="#DejaVuSans-2e" x="63.623047"/>
       <use xlink:href="#DejaVuSans-30" x="95.410156"/>
       <use xlink:href="#DejaVuSans-30" x="159.033203"/>
       <use xlink:href="#DejaVuSans-30" x="222.65625"/>
       <use xlink:href="#DejaVuSans-32" x="286.279297"/>
       <use xlink:href="#DejaVuSans-35" x="349.902344"/>
      </g>
     </g>
    </g>
    <g id="text_13">
     <!-- bg_x -->
     <g transform="translate(-5.490625 92.41393) rotate(-90) scale(0.1 -0.1)">
      <defs>
       <path id="DejaVuSans-62" d="M 3116 1747 
Q 3116 2381 2855 2742 
Q 2594 3103 2138 3103 
Q 1681 3103 1420 2742 
Q 1159 2381 1159 1747 
Q 1159 1113 1420 752 
Q 1681 391 2138 391 
Q 2594 391 2855 752 
Q 3116 1113 3116 1747 
z
M 1159 2969 
Q 1341 3281 1617 3432 
Q 1894 3584 2278 3584 
Q 2916 3584 3314 3078 
Q 3713 2572 3713 1747 
Q 3713 922 3314 415 
Q 2916 -91 2278 -91 
Q 1894 -91 1617 61 
Q 1341 213 1159 525 
L 1159 0 
L 581 0 
L 581 4863 
L 1159 4863 
L 1159 2969 
z
" transform="scale(0.015625)"/>
       <path id="DejaVuSans-67" d="M 2906 1791 
Q 2906 2416 2648 2759 
Q 2391 3103 1925 3103 
Q 1463 3103 1205 2759 
Q 947 2416 947 1791 
Q 947 1169 1205 825 
Q 1463 481 1925 481 
Q 2391 481 2648 825 
Q 2906 1169 2906 1791 
z
M 3481 434 
Q 3481 -459 3084 -895 
Q 2688 -1331 1869 -1331 
Q 1566 -1331 1297 -1286 
Q 1028 -1241 775 -1147 
L 775 -588 
Q 1028 -725 1275 -790 
Q 1522 -856 1778 -856 
Q 2344 -856 2625 -561 
Q 2906 -266 2906 331 
L 2906 616 
Q 2728 306 2450 153 
Q 2172 0 1784 0 
Q 1141 0 747 490 
Q 353 981 353 1791 
Q 353 2603 747 3093 
Q 1141 3584 1784 3584 
Q 2172 3584 2450 3431 
Q 2728 3278 2906 2969 
L 2906 3500 
L 3481 3500 
L 3481 434 
z
" transform="scale(0.015625)"/>
       <path id="DejaVuSans-5f" d="M 3263 -1063 
L 3263 -1509 
L -63 -1509 
L -63 -1063 
L 3263 -1063 
z
" transform="scale(0.015625)"/>
       <path id="DejaVuSans-78" d="M 3513 3500 
L 2247 1797 
L 3578 0 
L 2900 0 
L 1881 1375 
L 863 0 
L 184 0 
L 1544 1831 
L 300 3500 
L 978 3500 
L 1906 2253 
L 2834 3500 
L 3513 3500 
z
" transform="scale(0.015625)"/>
      </defs>
      <use xlink:href="#DejaVuSans-62"/>
      <use xlink:href="#DejaVuSans-67" x="63.476562"/>
      <use xlink:href="#DejaVuSans-5f" x="126.953125"/>
      <use xlink:href="#DejaVuSans-78" x="176.953125"/>
     </g>
    </g>
   </g>
   <g id="line2d_25">
    <path d="M 73.832727 80.606118 
L 398.487273 80.606118 
L 398.487273 80.606118 
" clip-path="url(#p50547b3f89)" style="fill: none; stroke: #1f77b4; stroke-width: 1.5; stroke-linecap: square"/>
   </g>
   <g id="line2d_26">
    <path d="M 73.832727 45.036498 
L 109.413244 45.109123 
L 109.680664 45.111915 
L 116.581722 45.215152 
L 116.727138 45.219293 
L 120.08327 45.323749 
L 120.211967 45.330181 
L 122.667306 45.436277 
L 122.787569 45.444707 
L 124.751447 45.551112 
L 124.870114 45.561454 
L 126.501387 45.667605 
L 126.620133 45.679826 
L 128.00062 45.783077 
L 128.117617 45.796889 
L 129.417956 45.905422 
L 129.534953 45.920525 
L 130.668153 46.02465 
L 130.783479 46.041712 
L 131.836453 46.147017 
L 131.951856 46.165571 
L 132.919512 46.269851 
L 133.034839 46.289542 
L 133.919003 46.391283 
L 134.034333 46.412343 
L 134.920165 46.519627 
L 135.035567 46.541799 
L 135.836086 46.644005 
L 135.951412 46.667072 
L 136.753678 46.774556 
L 136.869005 46.799047 
L 137.587702 46.898246 
L 137.703028 46.923687 
L 138.420132 47.027185 
L 138.533713 47.053673 
L 139.254078 47.160274 
L 139.369425 47.187586 
L 140.004565 47.284405 
L 140.118186 47.312194 
L 140.754986 47.409969 
L 140.868718 47.438613 
L 141.50544 47.540766 
L 141.619094 47.570488 
L 142.254224 47.675372 
L 142.369549 47.705952 
L 143.004682 47.814103 
L 143.118333 47.845535 
L 143.755134 47.955483 
L 143.868865 47.987044 
L 144.422018 48.083543 
L 144.535673 48.116182 
L 145.088981 48.214951 
L 145.202559 48.247942 
L 145.755789 48.348533 
L 145.869445 48.382386 
L 146.422675 48.484168 
L 146.536329 48.518814 
L 147.089561 48.623259 
L 147.203292 48.657979 
L 147.756446 48.763678 
L 147.870102 48.799962 
L 148.42341 48.90899 
L 148.536988 48.94562 
L 149.006649 49.037755 
L 149.120303 49.075365 
L 149.589965 49.17027 
L 149.703619 49.20858 
L 150.17328 49.304771 
L 150.287013 49.343829 
L 150.756598 49.441809 
L 150.870252 49.48161 
L 151.33999 49.582172 
L 151.453568 49.623017 
L 151.923231 49.724668 
L 152.036885 49.765733 
L 152.508219 49.866889 
L 152.621873 49.907834 
L 153.091536 50.010759 
L 153.205194 50.052674 
L 153.674852 50.157622 
L 153.788585 50.199764 
L 154.258169 50.304306 
L 154.371824 50.346778 
L 154.841563 50.452911 
L 154.955141 50.495572 
L 155.424802 50.602041 
L 155.538458 50.644843 
L 156.008146 50.75258 
L 156.121774 50.79613 
L 156.591437 50.905028 
L 156.70517 50.948665 
L 157.174755 51.056977 
L 157.288434 51.100363 
L 157.758149 51.209842 
L 157.871726 51.254374 
L 158.259568 51.343452 
L 158.373149 51.388211 
L 158.759238 51.477638 
L 158.872892 51.522902 
L 159.258985 51.613695 
L 159.372641 51.659305 
L 159.758734 51.750331 
L 159.872465 51.796026 
L 160.260151 51.886534 
L 160.373884 51.931992 
L 160.7599 52.024094 
L 160.873554 52.070513 
L 161.259725 52.161761 
L 161.373303 52.207398 
L 161.759434 52.298662 
L 161.87305 52.344516 
L 162.259142 52.436176 
L 162.372798 52.48173 
L 162.760563 52.57354 
L 162.874217 52.619854 
L 163.26031 52.711705 
L 163.374043 52.757542 
L 163.760059 52.849473 
L 163.873713 52.895234 
L 164.259882 52.986438 
L 164.37346 53.032078 
L 164.759553 53.122624 
L 164.873209 53.167839 
L 165.260973 53.25769 
L 165.374628 53.302575 
L 165.76072 53.393077 
L 165.874376 53.43814 
L 166.260469 53.527964 
L 166.374202 53.573061 
L 166.760218 53.663072 
L 166.873912 53.708983 
L 167.261637 53.799719 
L 167.375291 53.845145 
L 167.761462 53.935993 
L 167.87504 53.981343 
L 168.261132 54.072239 
L 168.374789 54.117732 
L 168.760881 54.208759 
L 168.874535 54.254626 
L 169.2623 54.345724 
L 169.375956 54.391352 
L 169.762049 54.482869 
L 169.875782 54.528455 
L 170.261797 54.61936 
L 170.375452 54.66476 
L 170.761623 54.754739 
L 170.875201 54.799618 
L 171.261295 54.88939 
L 171.374949 54.93382 
L 171.846284 55.04365 
L 171.959939 55.08775 
L 172.429607 55.197678 
L 172.543258 55.241753 
L 173.012921 55.351185 
L 173.126653 55.394614 
L 173.59624 55.503182 
L 173.709896 55.546439 
L 174.179635 55.654618 
L 174.293213 55.697942 
L 174.762876 55.804811 
L 174.876532 55.84741 
L 175.346195 55.953624 
L 175.459851 55.996288 
L 175.929514 56.101149 
L 176.043247 56.143066 
L 176.512833 56.246641 
L 176.626488 56.288035 
L 177.096229 56.390559 
L 177.209807 56.431556 
L 177.679471 56.533166 
L 177.793126 56.573464 
L 178.264461 56.674651 
L 178.378154 56.715229 
L 178.84778 56.815606 
L 178.961436 56.85606 
L 179.431104 56.955887 
L 179.544832 56.996035 
L 180.014418 57.096614 
L 180.128073 57.136377 
L 180.597814 57.234574 
L 180.711392 57.274015 
L 181.181056 57.371423 
L 181.294711 57.40999 
L 181.764375 57.506295 
L 181.87803 57.544917 
L 182.347694 57.640624 
L 182.461427 57.678933 
L 182.931013 57.772809 
L 183.044668 57.810387 
L 183.514409 57.90397 
L 183.627987 57.941228 
L 184.097651 58.034391 
L 184.211306 58.071572 
L 184.764583 58.180991 
L 184.878195 58.217631 
L 185.43143 58.327182 
L 185.545163 58.363746 
L 186.09832 58.472237 
L 186.211974 58.508155 
L 186.765286 58.613893 
L 186.878864 58.648602 
L 187.432099 58.752919 
L 187.545755 58.787508 
L 188.098988 58.89131 
L 188.212643 58.925963 
L 188.765878 59.028548 
L 188.87961 59.062324 
L 189.432767 59.162467 
L 189.546423 59.195915 
L 190.099735 59.295491 
L 190.213313 59.328366 
L 190.766548 59.426304 
L 190.880202 59.459003 
L 191.433437 59.556147 
L 191.547097 59.58869 
L 192.100327 59.686626 
L 192.214059 59.71898 
L 192.767216 59.815007 
L 192.880872 59.846917 
L 193.434184 59.941842 
L 193.547762 59.973281 
L 194.184567 60.082917 
L 194.298221 60.113726 
L 194.935027 60.220333 
L 195.048681 60.250459 
L 195.683815 60.354022 
L 195.797471 60.38376 
L 196.434353 60.486126 
L 196.547931 60.515105 
L 197.184736 60.615136 
L 197.300063 60.64372 
L 197.935196 60.742471 
L 198.048852 60.770586 
L 198.685656 60.867879 
L 198.79939 60.895167 
L 199.519686 61.003159 
L 199.633342 61.030358 
L 200.352046 61.136745 
L 200.467374 61.163368 
L 201.186081 61.266985 
L 201.299732 61.293035 
L 202.02011 61.395044 
L 202.135435 61.420254 
L 202.852545 61.521118 
L 202.966122 61.546349 
L 203.686498 61.644692 
L 203.801825 61.669389 
L 204.604099 61.778877 
L 204.719427 61.803092 
L 205.520029 61.909324 
L 205.635434 61.933233 
L 206.437708 62.039932 
L 206.551286 62.063567 
L 207.35356 62.168773 
L 207.468888 62.191794 
L 208.271162 62.295776 
L 208.386489 62.318776 
L 209.188763 62.419683 
L 209.304168 62.442056 
L 210.104693 62.542339 
L 210.220021 62.564814 
L 211.022296 62.663924 
L 211.137622 62.685839 
L 212.021801 62.793977 
L 212.137201 62.815401 
L 213.021297 62.921553 
L 213.136623 62.942687 
L 214.02247 63.046129 
L 214.137824 63.066989 
L 215.02197 63.169169 
L 215.137373 63.189637 
L 216.023245 63.290143 
L 216.138468 63.310218 
L 217.106217 63.418784 
L 217.221539 63.438244 
L 218.190955 63.543067 
L 218.306282 63.561883 
L 219.274103 63.663312 
L 219.389353 63.681573 
L 220.357097 63.781482 
L 220.472429 63.799855 
L 221.44017 63.900318 
L 221.555573 63.918584 
L 222.608559 64.02648 
L 222.723809 64.044262 
L 223.775123 64.150354 
L 223.890452 64.167749 
L 224.941767 64.271428 
L 225.057176 64.288595 
L 226.108408 64.389205 
L 226.223738 64.405844 
L 227.35862 64.511147 
L 227.473948 64.527394 
L 228.60891 64.631515 
L 228.72416 64.647554 
L 229.859045 64.752481 
L 229.976044 64.768657 
L 231.109259 64.872725 
L 231.224662 64.888583 
L 232.359471 64.992556 
L 232.474799 65.008794 
L 233.611355 65.110761 
L 233.726683 65.126373 
L 234.943545 65.232956 
L 235.058795 65.247997 
L 236.277255 65.35097 
L 236.394251 65.365573 
L 237.694605 65.472128 
L 237.811603 65.486119 
L 239.111959 65.587767 
L 239.228957 65.60125 
L 240.612884 65.707451 
L 240.729882 65.720786 
L 242.112136 65.824682 
L 242.229135 65.837468 
L 243.696631 65.944138 
L 243.81363 65.956881 
L 245.279454 66.062055 
L 245.398202 66.07427 
L 246.86395 66.176279 
L 246.980946 66.188309 
L 248.530343 66.292916 
L 248.64909 66.304223 
L 250.198408 66.406127 
L 250.317082 66.417527 
L 251.864802 66.519206 
L 251.983549 66.530601 
L 253.532867 66.632464 
L 253.651543 66.643923 
L 255.282833 66.750547 
L 255.40158 66.761746 
L 257.032798 66.867237 
L 257.151469 66.878457 
L 258.782762 66.980033 
L 258.901433 66.99042 
L 260.699947 67.09426 
L 260.818539 67.103969 
L 262.700545 67.207824 
L 262.820888 67.217213 
L 264.784792 67.320766 
L 264.906805 67.329638 
L 266.95261 67.431334 
L 267.074623 67.43977 
L 269.202326 67.54135 
L 269.324417 67.549522 
L 271.537286 67.652534 
L 271.660969 67.660523 
L 273.954221 67.763658 
L 274.076155 67.771145 
L 276.454578 67.87357 
L 276.578333 67.880938 
L 279.038572 67.98354 
L 279.162257 67.990654 
L 281.706143 68.092986 
L 281.831498 68.099757 
L 284.373714 68.200311 
L 284.49907 68.207138 
L 287.039613 68.306895 
L 287.164969 68.313697 
L 289.790833 68.415945 
L 289.91444 68.422624 
L 292.541898 68.522218 
L 292.667255 68.528752 
L 295.374941 68.628701 
L 295.501969 68.634891 
L 298.376797 68.735334 
L 298.505495 68.741221 
L 301.544124 68.840432 
L 301.674571 68.845837 
L 304.960491 68.944795 
L 305.094207 68.949757 
L 308.629242 69.047714 
L 308.764625 69.052299 
L 312.54711 69.149756 
L 312.682418 69.154066 
L 316.630296 69.25006 
L 316.770696 69.254183 
L 320.882374 69.351506 
L 321.022777 69.355591 
L 325.049311 69.451508 
L 325.186266 69.455592 
L 329.217721 69.551669 
L 329.35979 69.555748 
L 333.46813 69.652633 
L 333.610199 69.656602 
L 337.885758 69.751486 
L 338.027828 69.75516 
L 342.637516 69.84952 
L 342.787943 69.852814 
L 347.805611 69.944887 
L 347.957633 69.947828 
L 353.556877 70.037484 
L 353.722424 70.039965 
L 359.975112 70.127498 
L 360.149016 70.131268 
L 366.809585 70.217213 
L 366.99169 70.220332 
L 375.562627 70.299416 
L 375.798294 70.301289 
L 386.064015 70.373929 
L 386.267847 70.376387 
L 393.732212 70.459623 
L 393.907707 70.463273 
L 398.487273 70.528772 
L 398.487273 70.528772 
" clip-path="url(#p50547b3f89)" style="fill: none; stroke: #ff0000; stroke-width: 0.5; stroke-linecap: square"/>
   </g>
   <g id="line2d_27">
    <path d="M 73.832727 116.175737 
L 109.413244 116.103112 
L 109.680664 116.10032 
L 116.581722 115.997083 
L 116.727138 115.992942 
L 120.08327 115.888486 
L 120.211967 115.882054 
L 122.667306 115.775958 
L 122.787569 115.767529 
L 124.751447 115.661123 
L 124.870114 115.650781 
L 126.501387 115.54463 
L 126.620133 115.53241 
L 128.00062 115.429158 
L 128.117617 115.415346 
L 129.417956 115.306813 
L 129.534953 115.29171 
L 130.668153 115.187585 
L 130.783479 115.170523 
L 131.836453 115.065218 
L 131.951856 115.046664 
L 132.919512 114.942384 
L 133.034839 114.922693 
L 133.919003 114.820952 
L 134.034333 114.799892 
L 134.920165 114.692608 
L 135.035567 114.670436 
L 135.836086 114.568231 
L 135.951412 114.545164 
L 136.753678 114.43768 
L 136.869005 114.413189 
L 137.587702 114.313989 
L 137.703028 114.288549 
L 138.420132 114.18505 
L 138.533713 114.158562 
L 139.254078 114.051962 
L 139.369425 114.024649 
L 140.004565 113.927831 
L 140.118186 113.900041 
L 140.754986 113.802266 
L 140.868718 113.773622 
L 141.50544 113.671469 
L 141.619094 113.641747 
L 142.254224 113.536863 
L 142.369549 113.506284 
L 143.004682 113.398133 
L 143.118333 113.366701 
L 143.755134 113.256752 
L 143.868865 113.225192 
L 144.422018 113.128692 
L 144.535673 113.096054 
L 145.088981 112.997285 
L 145.202559 112.964293 
L 145.755789 112.863702 
L 145.869445 112.829849 
L 146.422675 112.728067 
L 146.536329 112.693421 
L 147.089561 112.588977 
L 147.203292 112.554257 
L 147.756446 112.448557 
L 147.870102 112.412274 
L 148.42341 112.303245 
L 148.536988 112.266615 
L 149.006649 112.17448 
L 149.120303 112.13687 
L 149.589965 112.041965 
L 149.703619 112.003655 
L 150.17328 111.907465 
L 150.287013 111.868406 
L 150.756598 111.770427 
L 150.870252 111.730625 
L 151.33999 111.630063 
L 151.453568 111.589219 
L 151.923231 111.487567 
L 152.036885 111.446503 
L 152.508219 111.345346 
L 152.621873 111.304402 
L 153.091536 111.201476 
L 153.205194 111.159561 
L 153.674852 111.054614 
L 153.788585 111.012471 
L 154.258169 110.90793 
L 154.371824 110.865458 
L 154.841563 110.759324 
L 154.955141 110.716663 
L 155.424802 110.610195 
L 155.538458 110.567393 
L 156.008146 110.459655 
L 156.121774 110.416106 
L 156.591437 110.307207 
L 156.70517 110.26357 
L 157.174755 110.155258 
L 157.288434 110.111872 
L 157.758149 110.002393 
L 157.871726 109.957862 
L 158.259568 109.868784 
L 158.373149 109.824024 
L 158.759238 109.734597 
L 158.872892 109.689333 
L 159.258985 109.59854 
L 159.372641 109.55293 
L 159.758734 109.461904 
L 159.872465 109.416209 
L 160.260151 109.325702 
L 160.373884 109.280244 
L 160.7599 109.188141 
L 160.873554 109.141723 
L 161.259725 109.050474 
L 161.373303 109.004838 
L 161.759434 108.913574 
L 161.87305 108.86772 
L 162.259142 108.77606 
L 162.372798 108.730506 
L 162.760563 108.638696 
L 162.874217 108.592381 
L 163.26031 108.50053 
L 163.374043 108.454693 
L 163.760059 108.362762 
L 163.873713 108.317002 
L 164.259882 108.225798 
L 164.37346 108.180157 
L 164.759553 108.089611 
L 164.873209 108.044396 
L 165.260973 107.954545 
L 165.374628 107.909661 
L 165.76072 107.819158 
L 165.874376 107.774096 
L 166.260469 107.684271 
L 166.374202 107.639174 
L 166.760218 107.549163 
L 166.873912 107.503252 
L 167.261637 107.412516 
L 167.375291 107.36709 
L 167.761462 107.276243 
L 167.87504 107.230892 
L 168.261132 107.139996 
L 168.374789 107.094504 
L 168.760881 107.003476 
L 168.874535 106.957609 
L 169.2623 106.866511 
L 169.375956 106.820883 
L 169.762049 106.729366 
L 169.875782 106.683781 
L 170.261797 106.592875 
L 170.375452 106.547475 
L 170.761623 106.457496 
L 170.875201 106.412618 
L 171.261295 106.322845 
L 171.374949 106.278416 
L 171.846284 106.168586 
L 171.959939 106.124486 
L 172.429607 106.014558 
L 172.543258 105.970483 
L 173.012921 105.861051 
L 173.126653 105.817621 
L 173.59624 105.709053 
L 173.709896 105.665796 
L 174.179635 105.557617 
L 174.293213 105.514293 
L 174.762876 105.407424 
L 174.876532 105.364825 
L 175.346195 105.258611 
L 175.459851 105.215947 
L 175.929514 105.111086 
L 176.043247 105.069169 
L 176.512833 104.965594 
L 176.626488 104.9242 
L 177.096229 104.821676 
L 177.209807 104.780679 
L 177.679471 104.679069 
L 177.793126 104.638772 
L 178.264461 104.537584 
L 178.378154 104.497006 
L 178.84778 104.396629 
L 178.961436 104.356175 
L 179.431104 104.256348 
L 179.544832 104.2162 
L 180.014418 104.115622 
L 180.128073 104.075858 
L 180.597814 103.977661 
L 180.711392 103.93822 
L 181.181056 103.840812 
L 181.294711 103.802245 
L 181.764375 103.70594 
L 181.87803 103.667318 
L 182.347694 103.571612 
L 182.461427 103.533303 
L 182.931013 103.439427 
L 183.044668 103.401848 
L 183.514409 103.308265 
L 183.627987 103.271008 
L 184.097651 103.177844 
L 184.211306 103.140663 
L 184.764583 103.031244 
L 184.878195 102.994605 
L 185.43143 102.885053 
L 185.545163 102.848489 
L 186.09832 102.739998 
L 186.211974 102.70408 
L 186.765286 102.598343 
L 186.878864 102.563633 
L 187.432099 102.459316 
L 187.545755 102.424727 
L 188.098988 102.320925 
L 188.212643 102.286272 
L 188.765878 102.183687 
L 188.87961 102.149911 
L 189.432767 102.049768 
L 189.546423 102.016321 
L 190.099735 101.916744 
L 190.213313 101.88387 
L 190.766548 101.785931 
L 190.880202 101.753232 
L 191.433437 101.656088 
L 191.547097 101.623545 
L 192.100327 101.52561 
L 192.214059 101.493255 
L 192.767216 101.397229 
L 192.880872 101.365319 
L 193.434184 101.270393 
L 193.547762 101.238955 
L 194.184567 101.129319 
L 194.298221 101.098509 
L 194.935027 100.991902 
L 195.048681 100.961776 
L 195.683815 100.858213 
L 195.797471 100.828475 
L 196.434353 100.72611 
L 196.547931 100.69713 
L 197.184736 100.5971 
L 197.300063 100.568516 
L 197.935196 100.469764 
L 198.048852 100.441649 
L 198.685656 100.344356 
L 198.79939 100.317068 
L 199.519686 100.209076 
L 199.633342 100.181878 
L 200.352046 100.075491 
L 200.467374 100.048867 
L 201.186081 99.94525 
L 201.299732 99.9192 
L 202.02011 99.817191 
L 202.135435 99.791981 
L 202.852545 99.691118 
L 202.966122 99.665887 
L 203.686498 99.567543 
L 203.801825 99.542846 
L 204.604099 99.433358 
L 204.719427 99.409143 
L 205.520029 99.302911 
L 205.635434 99.279003 
L 206.437708 99.172303 
L 206.551286 99.148669 
L 207.35356 99.043463 
L 207.468888 99.020442 
L 208.271162 98.916459 
L 208.386489 98.893459 
L 209.188763 98.792552 
L 209.304168 98.770179 
L 210.104693 98.669896 
L 210.220021 98.647421 
L 211.022296 98.548311 
L 211.137622 98.526396 
L 212.021801 98.418259 
L 212.137201 98.396835 
L 213.021297 98.290682 
L 213.136623 98.269549 
L 214.02247 98.166106 
L 214.137824 98.145247 
L 215.02197 98.043066 
L 215.137373 98.022598 
L 216.023245 97.922092 
L 216.138468 97.902017 
L 217.106217 97.793451 
L 217.221539 97.773991 
L 218.190955 97.669169 
L 218.306282 97.650352 
L 219.274103 97.548923 
L 219.389353 97.530663 
L 220.357097 97.430753 
L 220.472429 97.412381 
L 221.44017 97.311918 
L 221.555573 97.293651 
L 222.608559 97.185755 
L 222.723809 97.167973 
L 223.775123 97.061881 
L 223.890452 97.044486 
L 224.941767 96.940808 
L 225.057176 96.923641 
L 226.108408 96.82303 
L 226.223738 96.806391 
L 227.35862 96.701088 
L 227.473948 96.684841 
L 228.60891 96.58072 
L 228.72416 96.564681 
L 229.859045 96.459755 
L 229.976044 96.443578 
L 231.109259 96.339511 
L 231.224662 96.323652 
L 232.359471 96.219679 
L 232.474799 96.203442 
L 233.611355 96.101474 
L 233.726683 96.085863 
L 234.943545 95.979279 
L 235.058795 95.964238 
L 236.277255 95.861265 
L 236.394251 95.846662 
L 237.694605 95.740107 
L 237.811603 95.726116 
L 239.111959 95.624468 
L 239.228957 95.610985 
L 240.612884 95.504784 
L 240.729882 95.49145 
L 242.112136 95.387554 
L 242.229135 95.374767 
L 243.696631 95.268098 
L 243.81363 95.255355 
L 245.279454 95.15018 
L 245.398202 95.137965 
L 246.86395 95.035957 
L 246.980946 95.023926 
L 248.530343 94.91932 
L 248.64909 94.908012 
L 250.198408 94.806108 
L 250.317082 94.794708 
L 251.864802 94.693029 
L 251.983549 94.681635 
L 253.532867 94.579771 
L 253.651543 94.568313 
L 255.282833 94.461689 
L 255.40158 94.450489 
L 257.032798 94.344998 
L 257.151469 94.333778 
L 258.782762 94.232202 
L 258.901433 94.221815 
L 260.699947 94.117975 
L 260.818539 94.108266 
L 262.700545 94.004412 
L 262.820888 93.995022 
L 264.784792 93.891469 
L 264.906805 93.882597 
L 266.95261 93.780901 
L 267.074623 93.772466 
L 269.202326 93.670885 
L 269.324417 93.662714 
L 271.537286 93.559702 
L 271.660969 93.551713 
L 273.954221 93.448578 
L 274.076155 93.441091 
L 276.454578 93.338665 
L 276.578333 93.331297 
L 279.038572 93.228695 
L 279.162257 93.221582 
L 281.706143 93.119249 
L 281.831498 93.112478 
L 284.373714 93.011924 
L 284.49907 93.005097 
L 287.039613 92.905341 
L 287.164969 92.898538 
L 289.790833 92.79629 
L 289.91444 92.789611 
L 292.541898 92.690017 
L 292.667255 92.683483 
L 295.374941 92.583534 
L 295.501969 92.577344 
L 298.376797 92.476902 
L 298.505495 92.471014 
L 301.544124 92.371804 
L 301.674571 92.366398 
L 304.960491 92.26744 
L 305.094207 92.262478 
L 308.629242 92.164521 
L 308.764625 92.159936 
L 312.54711 92.062479 
L 312.682418 92.05817 
L 316.630296 91.962175 
L 316.770696 91.958052 
L 320.882374 91.860729 
L 321.022777 91.856644 
L 325.049311 91.760728 
L 325.186266 91.756643 
L 329.217721 91.660566 
L 329.35979 91.656487 
L 333.46813 91.559603 
L 333.610199 91.555633 
L 337.885758 91.460749 
L 338.027828 91.457075 
L 342.637516 91.362716 
L 342.787943 91.359421 
L 347.805611 91.267348 
L 347.957633 91.264407 
L 353.556877 91.174751 
L 353.722424 91.172271 
L 359.975112 91.084737 
L 360.149016 91.080967 
L 366.809585 90.995022 
L 366.99169 90.991904 
L 375.562627 90.912819 
L 375.798294 90.910947 
L 386.064015 90.838306 
L 386.267847 90.835848 
L 393.732212 90.752612 
L 393.907707 90.748962 
L 398.487273 90.683463 
L 398.487273 90.683463 
" clip-path="url(#p50547b3f89)" style="fill: none; stroke: #ff0000; stroke-width: 0.5; stroke-linecap: square"/>
   </g>
   <g id="patch_3">
    <path d="M 57.6 119.740235 
L 57.6 41.472 
" style="fill: none; stroke: #000000; stroke-width: 0.8; stroke-linejoin: miter; stroke-linecap: square"/>
   </g>
   <g id="patch_4">
    <path d="M 414.72 119.740235 
L 414.72 41.472 
" style="fill: none; stroke: #000000; stroke-width: 0.8; stroke-linejoin: miter; stroke-linecap: square"/>
   </g>
   <g id="patch_5">
    <path d="M 57.6 119.740235 
L 414.72 119.740235 
" style="fill: none; stroke: #000000; stroke-width: 0.8; stroke-linejoin: miter; stroke-linecap: square"/>
   </g>
   <g id="patch_6">
    <path d="M 57.6 41.472 
L 414.72 41.472 
" style="fill: none; stroke: #000000; stroke-width: 0.8; stroke-linejoin: miter; stroke-linecap: square"/>
   </g>
   <g id="text_14">
    <!-- gyros bias error -->
    <g transform="translate(189.05625 35.472) scale(0.12 -0.12)">
     <defs>
      <path id="DejaVuSans-79" d="M 2059 -325 
Q 1816 -950 1584 -1140 
Q 1353 -1331 966 -1331 
L 506 -1331 
L 506 -850 
L 844 -850 
Q 1081 -850 1212 -737 
Q 1344 -625 1503 -206 
L 1606 56 
L 191 3500 
L 800 3500 
L 1894 763 
L 2988 3500 
L 3597 3500 
L 2059 -325 
z
" transform="scale(0.015625)"/>
      <path id="DejaVuSans-72" d="M 2631 2963 
Q 2534 3019 2420 3045 
Q 2306 3072 2169 3072 
Q 1681 3072 1420 2755 
Q 1159 2438 1159 1844 
L 1159 0 
L 581 0 
L 581 3500 
L 1159 3500 
L 1159 2956 
Q 1341 3275 1631 3429 
Q 1922 3584 2338 3584 
Q 2397 3584 2469 3576 
Q 2541 3569 2628 3553 
L 2631 2963 
z
" transform="scale(0.015625)"/>
      <path id="DejaVuSans-6f" d="M 1959 3097 
Q 1497 3097 1228 2736 
Q 959 2375 959 1747 
Q 959 1119 1226 758 
Q 1494 397 1959 397 
Q 2419 397 2687 759 
Q 2956 1122 2956 1747 
Q 2956 2369 2687 2733 
Q 2419 3097 1959 3097 
z
M 1959 3584 
Q 2709 3584 3137 3096 
Q 3566 2609 3566 1747 
Q 3566 888 3137 398 
Q 2709 -91 1959 -91 
Q 1206 -91 779 398 
Q 353 888 353 1747 
Q 353 2609 779 3096 
Q 1206 3584 1959 3584 
z
" transform="scale(0.015625)"/>
      <path id="DejaVuSans-73" d="M 2834 3397 
L 2834 2853 
Q 2591 2978 2328 3040 
Q 2066 3103 1784 3103 
Q 1356 3103 1142 2972 
Q 928 2841 928 2578 
Q 928 2378 1081 2264 
Q 1234 2150 1697 2047 
L 1894 2003 
Q 2506 1872 2764 1633 
Q 3022 1394 3022 966 
Q 3022 478 2636 193 
Q 2250 -91 1575 -91 
Q 1294 -91 989 -36 
Q 684 19 347 128 
L 347 722 
Q 666 556 975 473 
Q 1284 391 1588 391 
Q 1994 391 2212 530 
Q 2431 669 2431 922 
Q 2431 1156 2273 1281 
Q 2116 1406 1581 1522 
L 1381 1569 
Q 847 1681 609 1914 
Q 372 2147 372 2553 
Q 372 3047 722 3315 
Q 1072 3584 1716 3584 
Q 2034 3584 2315 3537 
Q 2597 3491 2834 3397 
z
" transform="scale(0.015625)"/>
      <path id="DejaVuSans-20" transform="scale(0.015625)"/>
      <path id="DejaVuSans-69" d="M 603 3500 
L 1178 3500 
L 1178 0 
L 603 0 
L 603 3500 
z
M 603 4863 
L 1178 4863 
L 1178 4134 
L 603 4134 
L 603 4863 
z
" transform="scale(0.015625)"/>
      <path id="DejaVuSans-61" d="M 2194 1759 
Q 1497 1759 1228 1600 
Q 959 1441 959 1056 
Q 959 750 1161 570 
Q 1363 391 1709 391 
Q 2188 391 2477 730 
Q 2766 1069 2766 1631 
L 2766 1759 
L 2194 1759 
z
M 3341 1997 
L 3341 0 
L 2766 0 
L 2766 531 
Q 2569 213 2275 61 
Q 1981 -91 1556 -91 
Q 1019 -91 701 211 
Q 384 513 384 1019 
Q 384 1609 779 1909 
Q 1175 2209 1959 2209 
L 2766 2209 
L 2766 2266 
Q 2766 2663 2505 2880 
Q 2244 3097 1772 3097 
Q 1472 3097 1187 3025 
Q 903 2953 641 2809 
L 641 3341 
Q 956 3463 1253 3523 
Q 1550 3584 1831 3584 
Q 2591 3584 2966 3190 
Q 3341 2797 3341 1997 
z
" transform="scale(0.015625)"/>
      <path id="DejaVuSans-65" d="M 3597 1894 
L 3597 1613 
L 953 1613 
Q 991 1019 1311 708 
Q 1631 397 2203 397 
Q 2534 397 2845 478 
Q 3156 559 3463 722 
L 3463 178 
Q 3153 47 2828 -22 
Q 2503 -91 2169 -91 
Q 1331 -91 842 396 
Q 353 884 353 1716 
Q 353 2575 817 3079 
Q 1281 3584 2069 3584 
Q 2775 3584 3186 3129 
Q 3597 2675 3597 1894 
z
M 3022 2063 
Q 3016 2534 2758 2815 
Q 2500 3097 2075 3097 
Q 1594 3097 1305 2825 
Q 1016 2553 972 2059 
L 3022 2063 
z
" transform="scale(0.015625)"/>
     </defs>
     <use xlink:href="#DejaVuSans-67"/>
     <use xlink:href="#DejaVuSans-79" x="63.476562"/>
     <use xlink:href="#DejaVuSans-72" x="122.65625"/>
     <use xlink:href="#DejaVuSans-6f" x="161.519531"/>
     <use xlink:href="#DejaVuSans-73" x="222.701172"/>
     <use xlink:href="#DejaVuSans-20" x="274.800781"/>
     <use xlink:href="#DejaVuSans-62" x="306.587891"/>
     <use xlink:href="#DejaVuSans-69" x="370.064453"/>
     <use xlink:href="#DejaVuSans-61" x="397.847656"/>
     <use xlink:href="#DejaVuSans-73" x="459.126953"/>
     <use xlink:href="#DejaVuSans-20" x="511.226562"/>
     <use xlink:href="#DejaVuSans-65" x="543.013672"/>
     <use xlink:href="#DejaVuSans-72" x="604.537109"/>
     <use xlink:href="#DejaVuSans-72" x="643.900391"/>
     <use xlink:href="#DejaVuSans-6f" x="682.763672"/>
     <use xlink:href="#DejaVuSans-72" x="743.945312"/>
    </g>
   </g>
  </g>
  <g id="axes_2">
   <g id="patch_7">
    <path d="M 57.6 213.662118 
L 414.72 213.662118 
L 414.72 135.393882 
L 57.6 135.393882 
z
" style="fill: #ffffff"/>
   </g>
   <g id="matplotlib.axis_3">
    <g id="xtick_10">
     <g id="line2d_28">
      <path d="M 73.832727 213.662118 
L 73.832727 135.393882 
" clip-path="url(#p0d9cd0d653)" style="fill: none; stroke: #b0b0b0; stroke-width: 0.8; stroke-linecap: square"/>
     </g>
     <g id="line2d_29">
      <g>
       <use xlink:href="#m62e965a68f" x="73.832727" y="213.662118" style="stroke: #000000; stroke-width: 0.8"/>
      </g>
     </g>
     <g id="text_15">
      <!-- 0 -->
      <g transform="translate(70.651477 228.260555) scale(0.1 -0.1)">
       <use xlink:href="#DejaVuSans-30"/>
      </g>
     </g>
    </g>
    <g id="xtick_11">
     <g id="line2d_30">
      <path d="M 115.509567 213.662118 
L 115.509567 135.393882 
" clip-path="url(#p0d9cd0d653)" style="fill: none; stroke: #b0b0b0; stroke-width: 0.8; stroke-linecap: square"/>
     </g>
     <g id="line2d_31">
      <g>
       <use xlink:href="#m62e965a68f" x="115.509567" y="213.662118" style="stroke: #000000; stroke-width: 0.8"/>
      </g>
     </g>
     <g id="text_16">
      <!-- 25 -->
      <g transform="translate(109.147067 228.260555) scale(0.1 -0.1)">
       <use xlink:href="#DejaVuSans-32"/>
       <use xlink:href="#DejaVuSans-35" x="63.623047"/>
      </g>
     </g>
    </g>
    <g id="xtick_12">
     <g id="line2d_32">
      <path d="M 157.186407 213.662118 
L 157.186407 135.393882 
" clip-path="url(#p0d9cd0d653)" style="fill: none; stroke: #b0b0b0; stroke-width: 0.8; stroke-linecap: square"/>
     </g>
     <g id="line2d_33">
      <g>
       <use xlink:href="#m62e965a68f" x="157.186407" y="213.662118" style="stroke: #000000; stroke-width: 0.8"/>
      </g>
     </g>
     <g id="text_17">
      <!-- 50 -->
      <g transform="translate(150.823907 228.260555) scale(0.1 -0.1)">
       <use xlink:href="#DejaVuSans-35"/>
       <use xlink:href="#DejaVuSans-30" x="63.623047"/>
      </g>
     </g>
    </g>
    <g id="xtick_13">
     <g id="line2d_34">
      <path d="M 198.863247 213.662118 
L 198.863247 135.393882 
" clip-path="url(#p0d9cd0d653)" style="fill: none; stroke: #b0b0b0; stroke-width: 0.8; stroke-linecap: square"/>
     </g>
     <g id="line2d_35">
      <g>
       <use xlink:href="#m62e965a68f" x="198.863247" y="213.662118" style="stroke: #000000; stroke-width: 0.8"/>
      </g>
     </g>
     <g id="text_18">
      <!-- 75 -->
      <g transform="translate(192.500747 228.260555) scale(0.1 -0.1)">
       <use xlink:href="#DejaVuSans-37"/>
       <use xlink:href="#DejaVuSans-35" x="63.623047"/>
      </g>
     </g>
    </g>
    <g id="xtick_14">
     <g id="line2d_36">
      <path d="M 240.540088 213.662118 
L 240.540088 135.393882 
" clip-path="url(#p0d9cd0d653)" style="fill: none; stroke: #b0b0b0; stroke-width: 0.8; stroke-linecap: square"/>
     </g>
     <g id="line2d_37">
      <g>
       <use xlink:href="#m62e965a68f" x="240.540088" y="213.662118" style="stroke: #000000; stroke-width: 0.8"/>
      </g>
     </g>
     <g id="text_19">
      <!-- 100 -->
      <g transform="translate(230.996338 228.260555) scale(0.1 -0.1)">
       <use xlink:href="#DejaVuSans-31"/>
       <use xlink:href="#DejaVuSans-30" x="63.623047"/>
       <use xlink:href="#DejaVuSans-30" x="127.246094"/>
      </g>
     </g>
    </g>
    <g id="xtick_15">
     <g id="line2d_38">
      <path d="M 282.216928 213.662118 
L 282.216928 135.393882 
" clip-path="url(#p0d9cd0d653)" style="fill: none; stroke: #b0b0b0; stroke-width: 0.8; stroke-linecap: square"/>
     </g>
     <g id="line2d_39">
      <g>
       <use xlink:href="#m62e965a68f" x="282.216928" y="213.662118" style="stroke: #000000; stroke-width: 0.8"/>
      </g>
     </g>
     <g id="text_20">
      <!-- 125 -->
      <g transform="translate(272.673178 228.260555) scale(0.1 -0.1)">
       <use xlink:href="#DejaVuSans-31"/>
       <use xlink:href="#DejaVuSans-32" x="63.623047"/>
       <use xlink:href="#DejaVuSans-35" x="127.246094"/>
      </g>
     </g>
    </g>
    <g id="xtick_16">
     <g id="line2d_40">
      <path d="M 323.893768 213.662118 
L 323.893768 135.393882 
" clip-path="url(#p0d9cd0d653)" style="fill: none; stroke: #b0b0b0; stroke-width: 0.8; stroke-linecap: square"/>
     </g>
     <g id="line2d_41">
      <g>
       <use xlink:href="#m62e965a68f" x="323.893768" y="213.662118" style="stroke: #000000; stroke-width: 0.8"/>
      </g>
     </g>
     <g id="text_21">
      <!-- 150 -->
      <g transform="translate(314.350018 228.260555) scale(0.1 -0.1)">
       <use xlink:href="#DejaVuSans-31"/>
       <use xlink:href="#DejaVuSans-35" x="63.623047"/>
       <use xlink:href="#DejaVuSans-30" x="127.246094"/>
      </g>
     </g>
    </g>
    <g id="xtick_17">
     <g id="line2d_42">
      <path d="M 365.570608 213.662118 
L 365.570608 135.393882 
" clip-path="url(#p0d9cd0d653)" style="fill: none; stroke: #b0b0b0; stroke-width: 0.8; stroke-linecap: square"/>
     </g>
     <g id="line2d_43">
      <g>
       <use xlink:href="#m62e965a68f" x="365.570608" y="213.662118" style="stroke: #000000; stroke-width: 0.8"/>
      </g>
     </g>
     <g id="text_22">
      <!-- 175 -->
      <g transform="translate(356.026858 228.260555) scale(0.1 -0.1)">
       <use xlink:href="#DejaVuSans-31"/>
       <use xlink:href="#DejaVuSans-37" x="63.623047"/>
       <use xlink:href="#DejaVuSans-35" x="127.246094"/>
      </g>
     </g>
    </g>
    <g id="xtick_18">
     <g id="line2d_44">
      <path d="M 407.247448 213.662118 
L 407.247448 135.393882 
" clip-path="url(#p0d9cd0d653)" style="fill: none; stroke: #b0b0b0; stroke-width: 0.8; stroke-linecap: square"/>
     </g>
     <g id="line2d_45">
      <g>
       <use xlink:href="#m62e965a68f" x="407.247448" y="213.662118" style="stroke: #000000; stroke-width: 0.8"/>
      </g>
     </g>
     <g id="text_23">
      <!-- 200 -->
      <g transform="translate(397.703698 228.260555) scale(0.1 -0.1)">
       <use xlink:href="#DejaVuSans-32"/>
       <use xlink:href="#DejaVuSans-30" x="63.623047"/>
       <use xlink:href="#DejaVuSans-30" x="127.246094"/>
      </g>
     </g>
    </g>
   </g>
   <g id="matplotlib.axis_4">
    <g id="ytick_4">
     <g id="line2d_46">
      <path d="M 57.6 204.119954 
L 414.72 204.119954 
" clip-path="url(#p0d9cd0d653)" style="fill: none; stroke: #b0b0b0; stroke-width: 0.8; stroke-linecap: square"/>
     </g>
     <g id="line2d_47">
      <g>
       <use xlink:href="#m5beb19b11f" x="57.6" y="204.119954" style="stroke: #000000; stroke-width: 0.8"/>
      </g>
     </g>
     <g id="text_24">
      <!-- −0.00025 -->
      <g transform="translate(0.867188 207.919172) scale(0.1 -0.1)">
       <use xlink:href="#DejaVuSans-2212"/>
       <use xlink:href="#DejaVuSans-30" x="83.789062"/>
       <use xlink:href="#DejaVuSans-2e" x="147.412109"/>
       <use xlink:href="#DejaVuSans-30" x="179.199219"/>
       <use xlink:href="#DejaVuSans-30" x="242.822266"/>
       <use xlink:href="#DejaVuSans-30" x="306.445312"/>
       <use xlink:href="#DejaVuSans-32" x="370.068359"/>
       <use xlink:href="#DejaVuSans-35" x="433.691406"/>
      </g>
     </g>
    </g>
    <g id="ytick_5">
     <g id="line2d_48">
      <path d="M 57.6 174.528 
L 414.72 174.528 
" clip-path="url(#p0d9cd0d653)" style="fill: none; stroke: #b0b0b0; stroke-width: 0.8; stroke-linecap: square"/>
     </g>
     <g id="line2d_49">
      <g>
       <use xlink:href="#m5beb19b11f" x="57.6" y="174.528" style="stroke: #000000; stroke-width: 0.8"/>
      </g>
     </g>
     <g id="text_25">
      <!-- 0.00000 -->
      <g transform="translate(9.246875 178.327219) scale(0.1 -0.1)">
       <use xlink:href="#DejaVuSans-30"/>
       <use xlink:href="#DejaVuSans-2e" x="63.623047"/>
       <use xlink:href="#DejaVuSans-30" x="95.410156"/>
       <use xlink:href="#DejaVuSans-30" x="159.033203"/>
       <use xlink:href="#DejaVuSans-30" x="222.65625"/>
       <use xlink:href="#DejaVuSans-30" x="286.279297"/>
       <use xlink:href="#DejaVuSans-30" x="349.902344"/>
      </g>
     </g>
    </g>
    <g id="ytick_6">
     <g id="line2d_50">
      <path d="M 57.6 144.936046 
L 414.72 144.936046 
" clip-path="url(#p0d9cd0d653)" style="fill: none; stroke: #b0b0b0; stroke-width: 0.8; stroke-linecap: square"/>
     </g>
     <g id="line2d_51">
      <g>
       <use xlink:href="#m5beb19b11f" x="57.6" y="144.936046" style="stroke: #000000; stroke-width: 0.8"/>
      </g>
     </g>
     <g id="text_26">
      <!-- 0.00025 -->
      <g transform="translate(9.246875 148.735265) scale(0.1 -0.1)">
       <use xlink:href="#DejaVuSans-30"/>
       <use xlink:href="#DejaVuSans-2e" x="63.623047"/>
       <use xlink:href="#DejaVuSans-30" x="95.410156"/>
       <use xlink:href="#DejaVuSans-30" x="159.033203"/>
       <use xlink:href="#DejaVuSans-30" x="222.65625"/>
       <use xlink:href="#DejaVuSans-32" x="286.279297"/>
       <use xlink:href="#DejaVuSans-35" x="349.902344"/>
      </g>
     </g>
    </g>
    <g id="text_27">
     <!-- bg_y -->
     <g transform="translate(-5.490625 186.335813) rotate(-90) scale(0.1 -0.1)">
      <use xlink:href="#DejaVuSans-62"/>
      <use xlink:href="#DejaVuSans-67" x="63.476562"/>
      <use xlink:href="#DejaVuSans-5f" x="126.953125"/>
      <use xlink:href="#DejaVuSans-79" x="176.953125"/>
     </g>
    </g>
   </g>
   <g id="line2d_52">
    <path d="M 73.832727 174.528 
L 398.487273 174.528 
L 398.487273 174.528 
" clip-path="url(#p0d9cd0d653)" style="fill: none; stroke: #1f77b4; stroke-width: 1.5; stroke-linecap: square"/>
   </g>
   <g id="line2d_53">
    <path d="M 73.832727 139.015959 
L 155.508373 139.03939 
L 155.740696 139.042076 
L 163.67653 139.143398 
L 163.856999 139.147313 
L 169.762049 139.250759 
L 169.922503 139.253896 
L 175.929514 139.357512 
L 176.10501 139.361646 
L 183.181723 139.465079 
L 183.389055 139.468111 
L 196.185235 139.565357 
L 196.648215 139.56732 
L 256.282335 139.6132 
L 256.541403 139.616279 
L 263.451008 139.718193 
L 263.601435 139.721887 
L 267.452439 139.82627 
L 267.58273 139.831839 
L 270.452618 139.938023 
L 270.576224 139.945121 
L 272.95297 140.053005 
L 273.074983 140.061582 
L 275.037217 140.166296 
L 275.157636 140.176071 
L 276.870831 140.280399 
L 276.989423 140.291484 
L 278.538821 140.396624 
L 278.655818 140.408891 
L 280.121723 140.516457 
L 280.238648 140.52974 
L 281.622572 140.63738 
L 281.739571 140.651269 
L 283.039928 140.75696 
L 283.156927 140.77119 
L 284.455612 140.880252 
L 284.572611 140.895152 
L 285.789398 140.99973 
L 285.906397 141.014807 
L 287.123184 141.120678 
L 287.240182 141.13597 
L 288.456969 141.241494 
L 288.573968 141.256737 
L 289.790833 141.363118 
L 289.906083 141.3784 
L 291.124545 141.483893 
L 291.241541 141.498935 
L 292.458328 141.602817 
L 292.575326 141.617624 
L 293.792115 141.720134 
L 293.909113 141.734818 
L 295.209471 141.843042 
L 295.326471 141.857229 
L 296.625156 141.962073 
L 296.742157 141.975998 
L 298.126086 142.084315 
L 298.243085 142.097677 
L 299.627091 142.201938 
L 299.744089 142.214792 
L 301.20984 142.321686 
L 301.326839 142.334141 
L 302.794417 142.439613 
L 302.911416 142.451965 
L 304.377167 142.555405 
L 304.494165 142.567601 
L 306.045314 142.676421 
L 306.162313 142.688467 
L 307.711636 142.797104 
L 307.828634 142.809263 
L 309.296213 142.913146 
L 309.413211 142.92551 
L 310.878962 143.03132 
L 310.995961 143.044083 
L 312.463539 143.152705 
L 312.580538 143.165606 
L 313.96272 143.270648 
L 314.079719 143.284044 
L 315.463727 143.3926 
L 315.580725 143.406418 
L 316.881009 143.510788 
L 316.998008 143.525052 
L 318.298368 143.632626 
L 318.415367 143.647245 
L 319.632156 143.751264 
L 319.749156 143.766415 
L 320.965945 143.873636 
L 321.081273 143.88903 
L 322.298063 143.997674 
L 322.41339 144.013413 
L 323.549952 144.116116 
L 323.66528 144.132233 
L 324.800171 144.236118 
L 324.915575 144.252295 
L 326.050389 144.356437 
L 326.167388 144.372563 
L 327.300608 144.477723 
L 327.415939 144.494059 
L 328.550903 144.599537 
L 328.666153 144.615768 
L 329.801045 144.720264 
L 329.916371 144.73639 
L 331.051263 144.839965 
L 331.166668 144.855794 
L 332.385052 144.965174 
L 332.502052 144.980779 
L 333.718843 145.088042 
L 333.834169 145.103271 
L 335.052645 145.208134 
L 335.169708 145.222938 
L 336.386422 145.32555 
L 336.503421 145.340124 
L 337.802188 145.446961 
L 337.917438 145.461211 
L 339.21947 145.566102 
L 339.336471 145.579935 
L 340.720402 145.689053 
L 340.837402 145.702593 
L 342.219663 145.808838 
L 342.336661 145.822037 
L 343.720594 145.926207 
L 343.837593 145.939174 
L 345.305096 146.047312 
L 345.422094 146.060032 
L 346.887927 146.166473 
L 347.004926 146.179021 
L 348.472429 146.28462 
L 348.589428 146.29721 
L 350.05526 146.40152 
L 350.172259 146.413872 
L 351.639762 146.517745 
L 351.758509 146.529952 
L 353.306164 146.638664 
L 353.423164 146.650873 
L 354.974238 146.75795 
L 355.092985 146.769637 
L 356.72421 146.877359 
L 356.842881 146.888688 
L 358.474182 146.993297 
L 358.592853 147.004298 
L 360.3078 147.109495 
L 360.426394 147.11992 
L 362.224833 147.224616 
L 362.345174 147.234311 
L 364.309081 147.339221 
L 364.431093 147.347847 
L 366.642444 147.453283 
L 366.764379 147.460989 
L 369.393499 147.567589 
L 369.520525 147.573788 
L 372.727941 147.678335 
L 372.863351 147.683161 
L 377.229005 147.786819 
L 377.389534 147.790046 
L 384.314005 147.890314 
L 384.524598 147.893184 
L 395.732924 147.988047 
L 396.032023 147.990198 
L 398.487273 148.004782 
L 398.487273 148.004782 
" clip-path="url(#p0d9cd0d653)" style="fill: none; stroke: #ff0000; stroke-width: 0.5; stroke-linecap: square"/>
   </g>
   <g id="line2d_54">
    <path d="M 73.832727 210.040041 
L 155.508373 210.01661 
L 155.740696 210.013924 
L 163.67653 209.912602 
L 163.856999 209.908687 
L 169.762049 209.805241 
L 169.922503 209.802104 
L 175.929514 209.698488 
L 176.10501 209.694354 
L 183.181723 209.590921 
L 183.389055 209.587889 
L 196.185235 209.490643 
L 196.648215 209.48868 
L 256.282335 209.4428 
L 256.541403 209.439721 
L 263.451008 209.337807 
L 263.601435 209.334113 
L 267.452439 209.22973 
L 267.58273 209.224161 
L 270.452618 209.117977 
L 270.576224 209.110879 
L 272.95297 209.002995 
L 273.074983 208.994418 
L 275.037217 208.889704 
L 275.157636 208.879929 
L 276.870831 208.775601 
L 276.989423 208.764516 
L 278.538821 208.659376 
L 278.655818 208.647109 
L 280.121723 208.539543 
L 280.238648 208.52626 
L 281.622572 208.41862 
L 281.739571 208.404731 
L 283.039928 208.29904 
L 283.156927 208.28481 
L 284.455612 208.175748 
L 284.572611 208.160848 
L 285.789398 208.05627 
L 285.906397 208.041193 
L 287.123184 207.935322 
L 287.240182 207.92003 
L 288.456969 207.814506 
L 288.573968 207.799263 
L 289.790833 207.692882 
L 289.906083 207.6776 
L 291.124545 207.572107 
L 291.241541 207.557065 
L 292.458328 207.453183 
L 292.575326 207.438376 
L 293.792115 207.335866 
L 293.909113 207.321182 
L 295.209471 207.212958 
L 295.326471 207.198771 
L 296.625156 207.093927 
L 296.742157 207.080002 
L 298.126086 206.971685 
L 298.243085 206.958323 
L 299.627091 206.854062 
L 299.744089 206.841208 
L 301.20984 206.734314 
L 301.326839 206.721859 
L 302.794417 206.616387 
L 302.911416 206.604035 
L 304.377167 206.500595 
L 304.494165 206.488399 
L 306.045314 206.379579 
L 306.162313 206.367533 
L 307.711636 206.258896 
L 307.828634 206.246737 
L 309.296213 206.142854 
L 309.413211 206.13049 
L 310.878962 206.02468 
L 310.995961 206.011917 
L 312.463539 205.903295 
L 312.580538 205.890394 
L 313.96272 205.785352 
L 314.079719 205.771956 
L 315.463727 205.6634 
L 315.580725 205.649582 
L 316.881009 205.545212 
L 316.998008 205.530948 
L 318.298368 205.423374 
L 318.415367 205.408755 
L 319.632156 205.304736 
L 319.749156 205.289585 
L 320.965945 205.182364 
L 321.081273 205.16697 
L 322.298063 205.058326 
L 322.41339 205.042587 
L 323.549952 204.939884 
L 323.66528 204.923767 
L 324.800171 204.819882 
L 324.915575 204.803705 
L 326.050389 204.699563 
L 326.167388 204.683437 
L 327.300608 204.578277 
L 327.415939 204.561941 
L 328.550903 204.456463 
L 328.666153 204.440232 
L 329.801045 204.335736 
L 329.916371 204.31961 
L 331.051263 204.216035 
L 331.166668 204.200206 
L 332.385052 204.090826 
L 332.502052 204.075221 
L 333.718843 203.967958 
L 333.834169 203.952729 
L 335.052645 203.847866 
L 335.169708 203.833062 
L 336.386422 203.73045 
L 336.503421 203.715876 
L 337.802188 203.609039 
L 337.917438 203.594789 
L 339.21947 203.489898 
L 339.336471 203.476065 
L 340.720402 203.366947 
L 340.837402 203.353407 
L 342.219663 203.247162 
L 342.336661 203.233963 
L 343.720594 203.129793 
L 343.837593 203.116826 
L 345.305096 203.008688 
L 345.422094 202.995968 
L 346.887927 202.889527 
L 347.004926 202.876979 
L 348.472429 202.77138 
L 348.589428 202.75879 
L 350.05526 202.65448 
L 350.172259 202.642128 
L 351.639762 202.538255 
L 351.758509 202.526048 
L 353.306164 202.417336 
L 353.423164 202.405127 
L 354.974238 202.29805 
L 355.092985 202.286363 
L 356.72421 202.178641 
L 356.842881 202.167312 
L 358.474182 202.062703 
L 358.592853 202.051702 
L 360.3078 201.946505 
L 360.426394 201.93608 
L 362.224833 201.831384 
L 362.345174 201.821689 
L 364.309081 201.716779 
L 364.431093 201.708153 
L 366.642444 201.602717 
L 366.764379 201.595011 
L 369.393499 201.488411 
L 369.520525 201.482212 
L 372.727941 201.377665 
L 372.863351 201.372839 
L 377.229005 201.269181 
L 377.389534 201.265954 
L 384.314005 201.165686 
L 384.524598 201.162816 
L 395.732924 201.067953 
L 396.032023 201.065802 
L 398.487273 201.051218 
L 398.487273 201.051218 
" clip-path="url(#p0d9cd0d653)" style="fill: none; stroke: #ff0000; stroke-width: 0.5; stroke-linecap: square"/>
   </g>
   <g id="patch_8">
    <path d="M 57.6 213.662118 
L 57.6 135.393882 
" style="fill: none; stroke: #000000; stroke-width: 0.8; stroke-linejoin: miter; stroke-linecap: square"/>
   </g>
   <g id="patch_9">
    <path d="M 414.72 213.662118 
L 414.72 135.393882 
" style="fill: none; stroke: #000000; stroke-width: 0.8; stroke-linejoin: miter; stroke-linecap: square"/>
   </g>
   <g id="patch_10">
    <path d="M 57.6 213.662118 
L 414.72 213.662118 
" style="fill: none; stroke: #000000; stroke-width: 0.8; stroke-linejoin: miter; stroke-linecap: square"/>
   </g>
   <g id="patch_11">
    <path d="M 57.6 135.393882 
L 414.72 135.393882 
" style="fill: none; stroke: #000000; stroke-width: 0.8; stroke-linejoin: miter; stroke-linecap: square"/>
   </g>
   <g id="text_28">
    <!-- gyros bias error -->
    <g transform="translate(189.05625 129.393882) scale(0.12 -0.12)">
     <use xlink:href="#DejaVuSans-67"/>
     <use xlink:href="#DejaVuSans-79" x="63.476562"/>
     <use xlink:href="#DejaVuSans-72" x="122.65625"/>
     <use xlink:href="#DejaVuSans-6f" x="161.519531"/>
     <use xlink:href="#DejaVuSans-73" x="222.701172"/>
     <use xlink:href="#DejaVuSans-20" x="274.800781"/>
     <use xlink:href="#DejaVuSans-62" x="306.587891"/>
     <use xlink:href="#DejaVuSans-69" x="370.064453"/>
     <use xlink:href="#DejaVuSans-61" x="397.847656"/>
     <use xlink:href="#DejaVuSans-73" x="459.126953"/>
     <use xlink:href="#DejaVuSans-20" x="511.226562"/>
     <use xlink:href="#DejaVuSans-65" x="543.013672"/>
     <use xlink:href="#DejaVuSans-72" x="604.537109"/>
     <use xlink:href="#DejaVuSans-72" x="643.900391"/>
     <use xlink:href="#DejaVuSans-6f" x="682.763672"/>
     <use xlink:href="#DejaVuSans-72" x="743.945312"/>
    </g>
   </g>
  </g>
  <g id="axes_3">
   <g id="patch_12">
    <path d="M 57.6 307.584 
L 414.72 307.584 
L 414.72 229.315765 
L 57.6 229.315765 
z
" style="fill: #ffffff"/>
   </g>
   <g id="matplotlib.axis_5">
    <g id="xtick_19">
     <g id="line2d_55">
      <path d="M 73.832727 307.584 
L 73.832727 229.315765 
" clip-path="url(#p37c2147c91)" style="fill: none; stroke: #b0b0b0; stroke-width: 0.8; stroke-linecap: square"/>
     </g>
     <g id="line2d_56">
      <g>
       <use xlink:href="#m62e965a68f" x="73.832727" y="307.584" style="stroke: #000000; stroke-width: 0.8"/>
      </g>
     </g>
     <g id="text_29">
      <!-- 0 -->
      <g transform="translate(70.651477 322.182437) scale(0.1 -0.1)">
       <use xlink:href="#DejaVuSans-30"/>
      </g>
     </g>
    </g>
    <g id="xtick_20">
     <g id="line2d_57">
      <path d="M 115.509567 307.584 
L 115.509567 229.315765 
" clip-path="url(#p37c2147c91)" style="fill: none; stroke: #b0b0b0; stroke-width: 0.8; stroke-linecap: square"/>
     </g>
     <g id="line2d_58">
      <g>
       <use xlink:href="#m62e965a68f" x="115.509567" y="307.584" style="stroke: #000000; stroke-width: 0.8"/>
      </g>
     </g>
     <g id="text_30">
      <!-- 25 -->
      <g transform="translate(109.147067 322.182437) scale(0.1 -0.1)">
       <use xlink:href="#DejaVuSans-32"/>
       <use xlink:href="#DejaVuSans-35" x="63.623047"/>
      </g>
     </g>
    </g>
    <g id="xtick_21">
     <g id="line2d_59">
      <path d="M 157.186407 307.584 
L 157.186407 229.315765 
" clip-path="url(#p37c2147c91)" style="fill: none; stroke: #b0b0b0; stroke-width: 0.8; stroke-linecap: square"/>
     </g>
     <g id="line2d_60">
      <g>
       <use xlink:href="#m62e965a68f" x="157.186407" y="307.584" style="stroke: #000000; stroke-width: 0.8"/>
      </g>
     </g>
     <g id="text_31">
      <!-- 50 -->
      <g transform="translate(150.823907 322.182437) scale(0.1 -0.1)">
       <use xlink:href="#DejaVuSans-35"/>
       <use xlink:href="#DejaVuSans-30" x="63.623047"/>
      </g>
     </g>
    </g>
    <g id="xtick_22">
     <g id="line2d_61">
      <path d="M 198.863247 307.584 
L 198.863247 229.315765 
" clip-path="url(#p37c2147c91)" style="fill: none; stroke: #b0b0b0; stroke-width: 0.8; stroke-linecap: square"/>
     </g>
     <g id="line2d_62">
      <g>
       <use xlink:href="#m62e965a68f" x="198.863247" y="307.584" style="stroke: #000000; stroke-width: 0.8"/>
      </g>
     </g>
     <g id="text_32">
      <!-- 75 -->
      <g transform="translate(192.500747 322.182437) scale(0.1 -0.1)">
       <use xlink:href="#DejaVuSans-37"/>
       <use xlink:href="#DejaVuSans-35" x="63.623047"/>
      </g>
     </g>
    </g>
    <g id="xtick_23">
     <g id="line2d_63">
      <path d="M 240.540088 307.584 
L 240.540088 229.315765 
" clip-path="url(#p37c2147c91)" style="fill: none; stroke: #b0b0b0; stroke-width: 0.8; stroke-linecap: square"/>
     </g>
     <g id="line2d_64">
      <g>
       <use xlink:href="#m62e965a68f" x="240.540088" y="307.584" style="stroke: #000000; stroke-width: 0.8"/>
      </g>
     </g>
     <g id="text_33">
      <!-- 100 -->
      <g transform="translate(230.996338 322.182437) scale(0.1 -0.1)">
       <use xlink:href="#DejaVuSans-31"/>
       <use xlink:href="#DejaVuSans-30" x="63.623047"/>
       <use xlink:href="#DejaVuSans-30" x="127.246094"/>
      </g>
     </g>
    </g>
    <g id="xtick_24">
     <g id="line2d_65">
      <path d="M 282.216928 307.584 
L 282.216928 229.315765 
" clip-path="url(#p37c2147c91)" style="fill: none; stroke: #b0b0b0; stroke-width: 0.8; stroke-linecap: square"/>
     </g>
     <g id="line2d_66">
      <g>
       <use xlink:href="#m62e965a68f" x="282.216928" y="307.584" style="stroke: #000000; stroke-width: 0.8"/>
      </g>
     </g>
     <g id="text_34">
      <!-- 125 -->
      <g transform="translate(272.673178 322.182437) scale(0.1 -0.1)">
       <use xlink:href="#DejaVuSans-31"/>
       <use xlink:href="#DejaVuSans-32" x="63.623047"/>
       <use xlink:href="#DejaVuSans-35" x="127.246094"/>
      </g>
     </g>
    </g>
    <g id="xtick_25">
     <g id="line2d_67">
      <path d="M 323.893768 307.584 
L 323.893768 229.315765 
" clip-path="url(#p37c2147c91)" style="fill: none; stroke: #b0b0b0; stroke-width: 0.8; stroke-linecap: square"/>
     </g>
     <g id="line2d_68">
      <g>
       <use xlink:href="#m62e965a68f" x="323.893768" y="307.584" style="stroke: #000000; stroke-width: 0.8"/>
      </g>
     </g>
     <g id="text_35">
      <!-- 150 -->
      <g transform="translate(314.350018 322.182437) scale(0.1 -0.1)">
       <use xlink:href="#DejaVuSans-31"/>
       <use xlink:href="#DejaVuSans-35" x="63.623047"/>
       <use xlink:href="#DejaVuSans-30" x="127.246094"/>
      </g>
     </g>
    </g>
    <g id="xtick_26">
     <g id="line2d_69">
      <path d="M 365.570608 307.584 
L 365.570608 229.315765 
" clip-path="url(#p37c2147c91)" style="fill: none; stroke: #b0b0b0; stroke-width: 0.8; stroke-linecap: square"/>
     </g>
     <g id="line2d_70">
      <g>
       <use xlink:href="#m62e965a68f" x="365.570608" y="307.584" style="stroke: #000000; stroke-width: 0.8"/>
      </g>
     </g>
     <g id="text_36">
      <!-- 175 -->
      <g transform="translate(356.026858 322.182437) scale(0.1 -0.1)">
       <use xlink:href="#DejaVuSans-31"/>
       <use xlink:href="#DejaVuSans-37" x="63.623047"/>
       <use xlink:href="#DejaVuSans-35" x="127.246094"/>
      </g>
     </g>
    </g>
    <g id="xtick_27">
     <g id="line2d_71">
      <path d="M 407.247448 307.584 
L 407.247448 229.315765 
" clip-path="url(#p37c2147c91)" style="fill: none; stroke: #b0b0b0; stroke-width: 0.8; stroke-linecap: square"/>
     </g>
     <g id="line2d_72">
      <g>
       <use xlink:href="#m62e965a68f" x="407.247448" y="307.584" style="stroke: #000000; stroke-width: 0.8"/>
      </g>
     </g>
     <g id="text_37">
      <!-- 200 -->
      <g transform="translate(397.703698 322.182437) scale(0.1 -0.1)">
       <use xlink:href="#DejaVuSans-32"/>
       <use xlink:href="#DejaVuSans-30" x="63.623047"/>
       <use xlink:href="#DejaVuSans-30" x="127.246094"/>
      </g>
     </g>
    </g>
    <g id="text_38">
     <!-- t (s) -->
     <g transform="translate(226.104531 335.860562) scale(0.1 -0.1)">
      <defs>
       <path id="DejaVuSans-74" d="M 1172 4494 
L 1172 3500 
L 2356 3500 
L 2356 3053 
L 1172 3053 
L 1172 1153 
Q 1172 725 1289 603 
Q 1406 481 1766 481 
L 2356 481 
L 2356 0 
L 1766 0 
Q 1100 0 847 248 
Q 594 497 594 1153 
L 594 3053 
L 172 3053 
L 172 3500 
L 594 3500 
L 594 4494 
L 1172 4494 
z
" transform="scale(0.015625)"/>
       <path id="DejaVuSans-28" d="M 1984 4856 
Q 1566 4138 1362 3434 
Q 1159 2731 1159 2009 
Q 1159 1288 1364 580 
Q 1569 -128 1984 -844 
L 1484 -844 
Q 1016 -109 783 600 
Q 550 1309 550 2009 
Q 550 2706 781 3412 
Q 1013 4119 1484 4856 
L 1984 4856 
z
" transform="scale(0.015625)"/>
       <path id="DejaVuSans-29" d="M 513 4856 
L 1013 4856 
Q 1481 4119 1714 3412 
Q 1947 2706 1947 2009 
Q 1947 1309 1714 600 
Q 1481 -109 1013 -844 
L 513 -844 
Q 928 -128 1133 580 
Q 1338 1288 1338 2009 
Q 1338 2731 1133 3434 
Q 928 4138 513 4856 
z
" transform="scale(0.015625)"/>
      </defs>
      <use xlink:href="#DejaVuSans-74"/>
      <use xlink:href="#DejaVuSans-20" x="39.208984"/>
      <use xlink:href="#DejaVuSans-28" x="70.996094"/>
      <use xlink:href="#DejaVuSans-73" x="110.009766"/>
      <use xlink:href="#DejaVuSans-29" x="162.109375"/>
     </g>
    </g>
   </g>
   <g id="matplotlib.axis_6">
    <g id="ytick_7">
     <g id="line2d_73">
      <path d="M 57.6 298.089802 
L 414.72 298.089802 
" clip-path="url(#p37c2147c91)" style="fill: none; stroke: #b0b0b0; stroke-width: 0.8; stroke-linecap: square"/>
     </g>
     <g id="line2d_74">
      <g>
       <use xlink:href="#m5beb19b11f" x="57.6" y="298.089802" style="stroke: #000000; stroke-width: 0.8"/>
      </g>
     </g>
     <g id="text_39">
      <!-- −0.00025 -->
      <g transform="translate(0.867188 301.889021) scale(0.1 -0.1)">
       <use xlink:href="#DejaVuSans-2212"/>
       <use xlink:href="#DejaVuSans-30" x="83.789062"/>
       <use xlink:href="#DejaVuSans-2e" x="147.412109"/>
       <use xlink:href="#DejaVuSans-30" x="179.199219"/>
       <use xlink:href="#DejaVuSans-30" x="242.822266"/>
       <use xlink:href="#DejaVuSans-30" x="306.445312"/>
       <use xlink:href="#DejaVuSans-32" x="370.068359"/>
       <use xlink:href="#DejaVuSans-35" x="433.691406"/>
      </g>
     </g>
    </g>
    <g id="ytick_8">
     <g id="line2d_75">
      <path d="M 57.6 268.449882 
L 414.72 268.449882 
" clip-path="url(#p37c2147c91)" style="fill: none; stroke: #b0b0b0; stroke-width: 0.8; stroke-linecap: square"/>
     </g>
     <g id="line2d_76">
      <g>
       <use xlink:href="#m5beb19b11f" x="57.6" y="268.449882" style="stroke: #000000; stroke-width: 0.8"/>
      </g>
     </g>
     <g id="text_40">
      <!-- 0.00000 -->
      <g transform="translate(9.246875 272.249101) scale(0.1 -0.1)">
       <use xlink:href="#DejaVuSans-30"/>
       <use xlink:href="#DejaVuSans-2e" x="63.623047"/>
       <use xlink:href="#DejaVuSans-30" x="95.410156"/>
       <use xlink:href="#DejaVuSans-30" x="159.033203"/>
       <use xlink:href="#DejaVuSans-30" x="222.65625"/>
       <use xlink:href="#DejaVuSans-30" x="286.279297"/>
       <use xlink:href="#DejaVuSans-30" x="349.902344"/>
      </g>
     </g>
    </g>
    <g id="ytick_9">
     <g id="line2d_77">
      <path d="M 57.6 238.809962 
L 414.72 238.809962 
" clip-path="url(#p37c2147c91)" style="fill: none; stroke: #b0b0b0; stroke-width: 0.8; stroke-linecap: square"/>
     </g>
     <g id="line2d_78">
      <g>
       <use xlink:href="#m5beb19b11f" x="57.6" y="238.809962" style="stroke: #000000; stroke-width: 0.8"/>
      </g>
     </g>
     <g id="text_41">
      <!-- 0.00025 -->
      <g transform="translate(9.246875 242.609181) scale(0.1 -0.1)">
       <use xlink:href="#DejaVuSans-30"/>
       <use xlink:href="#DejaVuSans-2e" x="63.623047"/>
       <use xlink:href="#DejaVuSans-30" x="95.410156"/>
       <use xlink:href="#DejaVuSans-30" x="159.033203"/>
       <use xlink:href="#DejaVuSans-30" x="222.65625"/>
       <use xlink:href="#DejaVuSans-32" x="286.279297"/>
       <use xlink:href="#DejaVuSans-35" x="349.902344"/>
      </g>
     </g>
    </g>
    <g id="text_42">
     <!-- bg_z -->
     <g transform="translate(-5.490625 279.922539) rotate(-90) scale(0.1 -0.1)">
      <defs>
       <path id="DejaVuSans-7a" d="M 353 3500 
L 3084 3500 
L 3084 2975 
L 922 459 
L 3084 459 
L 3084 0 
L 275 0 
L 275 525 
L 2438 3041 
L 353 3041 
L 353 3500 
z
" transform="scale(0.015625)"/>
      </defs>
      <use xlink:href="#DejaVuSans-62"/>
      <use xlink:href="#DejaVuSans-67" x="63.476562"/>
      <use xlink:href="#DejaVuSans-5f" x="126.953125"/>
      <use xlink:href="#DejaVuSans-7a" x="176.953125"/>
     </g>
    </g>
   </g>
   <g id="line2d_79">
    <path d="M 73.832727 268.449882 
L 398.487273 268.449882 
L 398.487273 268.449882 
" clip-path="url(#p37c2147c91)" style="fill: none; stroke: #1f77b4; stroke-width: 1.5; stroke-linecap: square"/>
   </g>
   <g id="line2d_80">
    <path d="M 73.832727 232.880279 
L 109.580382 232.952832 
L 109.846055 232.955634 
L 116.665291 233.058799 
L 116.810702 233.062974 
L 120.166839 233.168273 
L 120.295536 233.174729 
L 122.750877 233.280703 
L 122.871138 233.289237 
L 124.833343 233.395271 
L 124.952012 233.405548 
L 126.584956 233.509859 
L 126.703702 233.521772 
L 128.167759 233.628842 
L 128.284759 233.642334 
L 129.585095 233.747181 
L 129.702092 233.762088 
L 130.918862 233.869877 
L 131.034227 233.885713 
L 132.169137 233.994831 
L 132.284385 234.012386 
L 133.335689 234.119859 
L 133.451014 234.138637 
L 134.420419 234.242937 
L 134.535745 234.262541 
L 135.419986 234.362856 
L 135.535236 234.383499 
L 136.4194 234.489041 
L 136.534726 234.510781 
L 137.420563 234.62065 
L 137.535889 234.643302 
L 138.336561 234.746193 
L 138.451811 234.76942 
L 139.254078 234.874982 
L 139.369425 234.898997 
L 140.171671 235.008022 
L 140.286997 235.032671 
L 141.004024 235.132521 
L 141.117678 235.158059 
L 141.838124 235.260935 
L 141.951702 235.286923 
L 142.672071 235.392812 
L 142.787398 235.419663 
L 143.504424 235.528229 
L 143.618157 235.55554 
L 144.254879 235.652904 
L 144.368534 235.680795 
L 145.005411 235.779637 
L 145.118988 235.808225 
L 145.755789 235.908813 
L 145.871115 235.937753 
L 146.506245 236.041801 
L 146.6199 236.071478 
L 147.2567 236.178379 
L 147.370431 236.209036 
L 148.007155 236.317455 
L 148.120891 236.34881 
L 148.672369 236.443386 
L 148.786025 236.475604 
L 149.339255 236.572902 
L 149.45291 236.605818 
L 150.006141 236.705857 
L 150.119874 236.73971 
L 150.673027 236.841024 
L 150.786682 236.875197 
L 151.33999 236.97761 
L 151.453568 237.012163 
L 152.0068 237.115352 
L 152.120456 237.149985 
L 152.673686 237.255078 
L 152.787342 237.290285 
L 153.340574 237.397219 
L 153.454305 237.433081 
L 154.00746 237.540424 
L 154.121114 237.576512 
L 154.674424 237.685387 
L 154.788 237.721974 
L 155.257663 237.814253 
L 155.371338 237.851414 
L 155.840981 237.94451 
L 155.954635 237.981782 
L 156.424301 238.075887 
L 156.538029 238.113694 
L 157.009286 238.207572 
L 157.123019 238.245699 
L 157.592603 238.341485 
L 157.706258 238.380514 
L 158.175997 238.476919 
L 158.289575 238.515868 
L 158.759238 238.613043 
L 158.872892 238.652059 
L 159.342555 238.749742 
L 159.45621 238.788862 
L 159.925873 238.88639 
L 160.039606 238.926018 
L 160.50919 239.024077 
L 160.622845 239.062961 
L 161.092619 239.161036 
L 161.206162 239.200446 
L 161.675825 239.298348 
L 161.789481 239.337552 
L 162.259142 239.436524 
L 162.372798 239.475998 
L 162.842461 239.57423 
L 162.956192 239.614278 
L 163.427449 239.7133 
L 163.541182 239.753188 
L 164.010768 239.850115 
L 164.124423 239.888989 
L 164.594162 239.986249 
L 164.70774 240.025338 
L 165.177403 240.123592 
L 165.291057 240.162786 
L 165.76072 240.259575 
L 165.874376 240.298497 
L 166.344039 240.396478 
L 166.457771 240.435771 
L 166.927357 240.53445 
L 167.041011 240.573883 
L 167.510753 240.671597 
L 167.62433 240.710633 
L 168.093993 240.808373 
L 168.207648 240.847481 
L 168.677311 240.945096 
L 168.791008 240.984392 
L 169.2623 241.083119 
L 169.375956 241.122482 
L 169.845623 241.220607 
L 169.959352 241.259957 
L 170.428937 241.357617 
L 170.542593 241.396989 
L 171.012332 241.493267 
L 171.125912 241.531668 
L 171.595575 241.627428 
L 171.709229 241.665678 
L 172.178892 241.760089 
L 172.292548 241.79808 
L 172.762211 241.892569 
L 172.875944 241.930303 
L 173.34553 242.025393 
L 173.459185 242.063921 
L 173.928926 242.158505 
L 174.042504 242.196298 
L 174.512167 242.290536 
L 174.625823 242.32868 
L 175.095486 242.422323 
L 175.209142 242.459603 
L 175.762375 242.569828 
L 175.876106 242.606384 
L 176.429263 242.715833 
L 176.542919 242.752376 
L 177.096229 242.861062 
L 177.209807 242.897013 
L 177.763042 243.005413 
L 177.876696 243.041356 
L 178.42993 243.147312 
L 178.543584 243.182702 
L 179.096819 243.287888 
L 179.210552 243.322969 
L 179.763709 243.428075 
L 179.877363 243.463052 
L 180.430675 243.567194 
L 180.544252 243.601744 
L 181.097486 243.705004 
L 181.21114 243.738881 
L 181.764375 243.840278 
L 181.87803 243.873935 
L 182.431265 243.974694 
L 182.544997 244.008151 
L 183.098153 244.106545 
L 183.211809 244.139578 
L 183.765119 244.237559 
L 183.878698 244.270402 
L 184.431931 244.368294 
L 184.545587 244.401252 
L 185.098821 244.498924 
L 185.21248 244.531353 
L 185.76571 244.627878 
L 185.879443 244.65987 
L 186.51617 244.769878 
L 186.629825 244.801337 
L 187.266707 244.91104 
L 187.380284 244.94288 
L 188.015418 245.052487 
L 188.129074 245.083127 
L 188.765878 245.190583 
L 188.87961 245.221589 
L 189.516338 245.328991 
L 189.630074 245.359338 
L 190.266874 245.464267 
L 190.380453 245.494358 
L 191.017257 245.59876 
L 191.132584 245.628311 
L 191.767717 245.731168 
L 191.881373 245.76044 
L 192.516505 245.861834 
L 192.630161 245.890825 
L 193.267043 245.991191 
L 193.380621 246.019804 
L 194.017426 246.119884 
L 194.132753 246.148259 
L 194.767886 246.246014 
L 194.883213 246.273714 
L 195.601916 246.383233 
L 195.715649 246.410543 
L 196.434353 246.518408 
L 196.547931 246.545249 
L 197.268306 246.65253 
L 197.383633 246.679275 
L 198.102337 246.78512 
L 198.215991 246.811192 
L 198.934695 246.91483 
L 199.048351 246.940722 
L 199.768804 247.042879 
L 199.882386 247.068265 
L 200.602757 247.168884 
L 200.718084 247.193903 
L 201.436787 247.292077 
L 201.552114 247.31636 
L 202.352718 247.424923 
L 202.468121 247.448933 
L 203.270395 247.555466 
L 203.385646 247.578923 
L 204.186248 247.683079 
L 204.301575 247.706245 
L 205.103849 247.809175 
L 205.219176 247.8322 
L 206.019856 247.93446 
L 206.135106 247.957409 
L 206.937382 248.058777 
L 207.052707 248.081481 
L 207.854982 248.182062 
L 207.970309 248.204193 
L 208.854483 248.313534 
L 208.969886 248.33556 
L 209.772162 248.434647 
L 209.887412 248.456652 
L 210.771584 248.564807 
L 210.886912 248.586624 
L 211.771085 248.693552 
L 211.88649 248.714655 
L 212.772334 248.819996 
L 212.887584 248.840882 
L 213.771758 248.942241 
L 213.887085 248.962602 
L 214.772966 249.063382 
L 214.888258 249.083399 
L 215.772507 249.18305 
L 215.887758 249.202974 
L 216.857173 249.310909 
L 216.9725 249.330378 
L 217.940244 249.434277 
L 218.055577 249.452853 
L 219.023392 249.55467 
L 219.138643 249.573211 
L 220.108058 249.674843 
L 220.223385 249.693422 
L 221.191129 249.794052 
L 221.306458 249.812415 
L 222.274279 249.912808 
L 222.389529 249.931013 
L 223.440844 250.037752 
L 223.55617 250.0554 
L 224.609155 250.160884 
L 224.724484 250.178384 
L 225.775875 250.281153 
L 225.891125 250.298289 
L 226.94244 250.399104 
L 227.057766 250.415989 
L 228.192652 250.523642 
L 228.308057 250.540286 
L 229.442865 250.648415 
L 229.558192 250.665404 
L 230.693081 250.773347 
L 230.808405 250.790162 
L 231.943367 250.897694 
L 232.058617 250.914417 
L 233.193504 251.021172 
L 233.308831 251.037465 
L 234.443716 251.141495 
L 234.559121 251.157288 
L 235.7775 251.26482 
L 235.894499 251.279973 
L 237.111297 251.383676 
L 237.228282 251.398319 
L 238.528715 251.503621 
L 238.645713 251.517488 
L 239.945991 251.619389 
L 240.062991 251.632999 
L 241.445322 251.73867 
L 241.56232 251.751774 
L 243.029739 251.859014 
L 243.146737 251.8717 
L 244.61264 251.975331 
L 244.72967 251.987423 
L 246.280627 252.09241 
L 246.399298 252.103957 
L 248.030669 252.209799 
L 248.147668 252.220779 
L 249.864152 252.327164 
L 249.982796 252.337668 
L 251.697661 252.4401 
L 251.818004 252.4503 
L 253.614767 252.552929 
L 253.735108 252.562568 
L 255.699015 252.66694 
L 255.819432 252.675888 
L 257.866909 252.778512 
L 257.987173 252.786783 
L 260.367259 252.890402 
L 260.492615 252.897404 
L 263.200297 252.999648 
L 263.328995 253.005582 
L 266.618328 253.107598 
L 266.753711 253.112368 
L 270.87047 253.212301 
L 271.015805 253.215879 
L 276.870831 253.311795 
L 277.054612 253.315055 
L 288.289828 253.397856 
L 288.620846 253.399444 
L 308.462099 253.460323 
L 309.06548 253.461309 
L 388.315283 253.371485 
L 388.764883 253.373041 
L 398.487273 253.425119 
L 398.487273 253.425119 
" clip-path="url(#p37c2147c91)" style="fill: none; stroke: #ff0000; stroke-width: 0.5; stroke-linecap: square"/>
   </g>
   <g id="line2d_81">
    <path d="M 73.832727 304.019486 
L 109.580382 303.946933 
L 109.846055 303.944131 
L 116.665291 303.840966 
L 116.810702 303.836791 
L 120.166839 303.731492 
L 120.295536 303.725035 
L 122.750877 303.619062 
L 122.871138 303.610527 
L 124.833343 303.504494 
L 124.952012 303.494216 
L 126.584956 303.389906 
L 126.703702 303.377992 
L 128.167759 303.270922 
L 128.284759 303.257431 
L 129.585095 303.152584 
L 129.702092 303.137677 
L 130.918862 303.029887 
L 131.034227 303.014052 
L 132.169137 302.904934 
L 132.284385 302.887379 
L 133.335689 302.779905 
L 133.451014 302.761128 
L 134.420419 302.656828 
L 134.535745 302.637224 
L 135.419986 302.536909 
L 135.535236 302.516266 
L 136.4194 302.410724 
L 136.534726 302.388984 
L 137.420563 302.279114 
L 137.535889 302.256462 
L 138.336561 302.153572 
L 138.451811 302.130344 
L 139.254078 302.024782 
L 139.369425 302.000768 
L 140.171671 301.891743 
L 140.286997 301.867094 
L 141.004024 301.767243 
L 141.117678 301.741706 
L 141.838124 301.638829 
L 141.951702 301.612842 
L 142.672071 301.506953 
L 142.787398 301.480102 
L 143.504424 301.371536 
L 143.618157 301.344225 
L 144.254879 301.24686 
L 144.368534 301.218969 
L 145.005411 301.120128 
L 145.118988 301.091539 
L 145.755789 300.990952 
L 145.871115 300.962011 
L 146.506245 300.857964 
L 146.6199 300.828287 
L 147.2567 300.721386 
L 147.370431 300.690728 
L 148.007155 300.582309 
L 148.120891 300.550955 
L 148.672369 300.456379 
L 148.786025 300.42416 
L 149.339255 300.326862 
L 149.45291 300.293947 
L 150.006141 300.193907 
L 150.119874 300.160054 
L 150.673027 300.058741 
L 150.786682 300.024567 
L 151.33999 299.922155 
L 151.453568 299.887602 
L 152.0068 299.784412 
L 152.120456 299.74978 
L 152.673686 299.644686 
L 152.787342 299.60948 
L 153.340574 299.502546 
L 153.454305 299.466684 
L 154.00746 299.359341 
L 154.121114 299.323253 
L 154.674424 299.214378 
L 154.788 299.17779 
L 155.257663 299.085512 
L 155.371338 299.048351 
L 155.840981 298.955255 
L 155.954635 298.917983 
L 156.424301 298.823878 
L 156.538029 298.786071 
L 157.009286 298.692193 
L 157.123019 298.654066 
L 157.592603 298.55828 
L 157.706258 298.519251 
L 158.175997 298.422846 
L 158.289575 298.383896 
L 158.759238 298.286722 
L 158.872892 298.247705 
L 159.342555 298.150023 
L 159.45621 298.110903 
L 159.925873 298.013375 
L 160.039606 297.973746 
L 160.50919 297.875688 
L 160.622845 297.836804 
L 161.092619 297.738729 
L 161.206162 297.699319 
L 161.675825 297.601417 
L 161.789481 297.562212 
L 162.259142 297.46324 
L 162.372798 297.423767 
L 162.842461 297.325534 
L 162.956192 297.285487 
L 163.427449 297.186464 
L 163.541182 297.146577 
L 164.010768 297.049649 
L 164.124423 297.010776 
L 164.594162 296.913516 
L 164.70774 296.874427 
L 165.177403 296.776173 
L 165.291057 296.736979 
L 165.76072 296.640189 
L 165.874376 296.601268 
L 166.344039 296.503287 
L 166.457771 296.463994 
L 166.927357 296.365315 
L 167.041011 296.325882 
L 167.510753 296.228167 
L 167.62433 296.189131 
L 168.093993 296.091391 
L 168.207648 296.052283 
L 168.677311 295.954669 
L 168.791008 295.915372 
L 169.2623 295.816646 
L 169.375956 295.777283 
L 169.845623 295.679158 
L 169.959352 295.639808 
L 170.428937 295.542147 
L 170.542593 295.502776 
L 171.012332 295.406498 
L 171.125912 295.368097 
L 171.595575 295.272337 
L 171.709229 295.234086 
L 172.178892 295.139676 
L 172.292548 295.101685 
L 172.762211 295.007196 
L 172.875944 294.969462 
L 173.34553 294.874372 
L 173.459185 294.835844 
L 173.928926 294.74126 
L 174.042504 294.703466 
L 174.512167 294.609229 
L 174.625823 294.571085 
L 175.095486 294.477442 
L 175.209142 294.440162 
L 175.762375 294.329937 
L 175.876106 294.293381 
L 176.429263 294.183931 
L 176.542919 294.147388 
L 177.096229 294.038703 
L 177.209807 294.002751 
L 177.763042 293.894352 
L 177.876696 293.858409 
L 178.42993 293.752452 
L 178.543584 293.717062 
L 179.096819 293.611877 
L 179.210552 293.576796 
L 179.763709 293.47169 
L 179.877363 293.436712 
L 180.430675 293.332571 
L 180.544252 293.298021 
L 181.097486 293.19476 
L 181.21114 293.160884 
L 181.764375 293.059486 
L 181.87803 293.02583 
L 182.431265 292.92507 
L 182.544997 292.891614 
L 183.098153 292.79322 
L 183.211809 292.760187 
L 183.765119 292.662205 
L 183.878698 292.629362 
L 184.431931 292.531471 
L 184.545587 292.498512 
L 185.098821 292.40084 
L 185.21248 292.368411 
L 185.76571 292.271887 
L 185.879443 292.239895 
L 186.51617 292.129887 
L 186.629825 292.098428 
L 187.266707 291.988725 
L 187.380284 291.956884 
L 188.015418 291.847278 
L 188.129074 291.816638 
L 188.765878 291.709182 
L 188.87961 291.678175 
L 189.516338 291.570774 
L 189.630074 291.540427 
L 190.266874 291.435498 
L 190.380453 291.405407 
L 191.017257 291.301005 
L 191.132584 291.271454 
L 191.767717 291.168597 
L 191.881373 291.139324 
L 192.516505 291.037931 
L 192.630161 291.00894 
L 193.267043 290.908574 
L 193.380621 290.87996 
L 194.017426 290.77988 
L 194.132753 290.751506 
L 194.767886 290.653751 
L 194.883213 290.626051 
L 195.601916 290.516532 
L 195.715649 290.489222 
L 196.434353 290.381357 
L 196.547931 290.354515 
L 197.268306 290.247235 
L 197.383633 290.22049 
L 198.102337 290.114645 
L 198.215991 290.088572 
L 198.934695 289.984935 
L 199.048351 289.959043 
L 199.768804 289.856886 
L 199.882386 289.8315 
L 200.602757 289.730881 
L 200.718084 289.705862 
L 201.436787 289.607688 
L 201.552114 289.583405 
L 202.352718 289.474842 
L 202.468121 289.450831 
L 203.270395 289.344299 
L 203.385646 289.320841 
L 204.186248 289.216685 
L 204.301575 289.193519 
L 205.103849 289.090589 
L 205.219176 289.067565 
L 206.019856 288.965305 
L 206.135106 288.942356 
L 206.937382 288.840988 
L 207.052707 288.818284 
L 207.854982 288.717703 
L 207.970309 288.695571 
L 208.854483 288.586231 
L 208.969886 288.564205 
L 209.772162 288.465117 
L 209.887412 288.443112 
L 210.771584 288.334958 
L 210.886912 288.313141 
L 211.771085 288.206213 
L 211.88649 288.18511 
L 212.772334 288.079768 
L 212.887584 288.058883 
L 213.771758 287.957524 
L 213.887085 287.937163 
L 214.772966 287.836383 
L 214.888258 287.816366 
L 215.772507 287.716715 
L 215.887758 287.696791 
L 216.857173 287.588855 
L 216.9725 287.569386 
L 217.940244 287.465487 
L 218.055577 287.446911 
L 219.023392 287.345094 
L 219.138643 287.326554 
L 220.108058 287.224922 
L 220.223385 287.206342 
L 221.191129 287.105712 
L 221.306458 287.08735 
L 222.274279 286.986957 
L 222.389529 286.968752 
L 223.440844 286.862013 
L 223.55617 286.844365 
L 224.609155 286.738881 
L 224.724484 286.721381 
L 225.775875 286.618611 
L 225.891125 286.601476 
L 226.94244 286.500661 
L 227.057766 286.483776 
L 228.192652 286.376123 
L 228.308057 286.359479 
L 229.442865 286.25135 
L 229.558192 286.234361 
L 230.693081 286.126418 
L 230.808405 286.109602 
L 231.943367 286.00207 
L 232.058617 285.985348 
L 233.193504 285.878593 
L 233.308831 285.862299 
L 234.443716 285.75827 
L 234.559121 285.742477 
L 235.7775 285.634945 
L 235.894499 285.619792 
L 237.111297 285.516088 
L 237.228282 285.501446 
L 238.528715 285.396144 
L 238.645713 285.382276 
L 239.945991 285.280375 
L 240.062991 285.266765 
L 241.445322 285.161095 
L 241.56232 285.147991 
L 243.029739 285.04075 
L 243.146737 285.028064 
L 244.61264 284.924433 
L 244.72967 284.912342 
L 246.280627 284.807355 
L 246.399298 284.795808 
L 248.030669 284.689966 
L 248.147668 284.678986 
L 249.864152 284.572601 
L 249.982796 284.562096 
L 251.697661 284.459665 
L 251.818004 284.449465 
L 253.614767 284.346835 
L 253.735108 284.337196 
L 255.699015 284.232825 
L 255.819432 284.223877 
L 257.866909 284.121253 
L 257.987173 284.112982 
L 260.367259 284.009362 
L 260.492615 284.002361 
L 263.200297 283.900117 
L 263.328995 283.894182 
L 266.618328 283.792167 
L 266.753711 283.787396 
L 270.87047 283.687464 
L 271.015805 283.683885 
L 276.870831 283.587969 
L 277.054612 283.58471 
L 288.289828 283.501909 
L 288.620846 283.50032 
L 308.462099 283.439441 
L 309.06548 283.438456 
L 388.315283 283.52828 
L 388.764883 283.526724 
L 398.487273 283.474645 
L 398.487273 283.474645 
" clip-path="url(#p37c2147c91)" style="fill: none; stroke: #ff0000; stroke-width: 0.5; stroke-linecap: square"/>
   </g>
   <g id="patch_13">
    <path d="M 57.6 307.584 
L 57.6 229.315765 
" style="fill: none; stroke: #000000; stroke-width: 0.8; stroke-linejoin: miter; stroke-linecap: square"/>
   </g>
   <g id="patch_14">
    <path d="M 414.72 307.584 
L 414.72 229.315765 
" style="fill: none; stroke: #000000; stroke-width: 0.8; stroke-linejoin: miter; stroke-linecap: square"/>
   </g>
   <g id="patch_15">
    <path d="M 57.6 307.584 
L 414.72 307.584 
" style="fill: none; stroke: #000000; stroke-width: 0.8; stroke-linejoin: miter; stroke-linecap: square"/>
   </g>
   <g id="patch_16">
    <path d="M 57.6 229.315765 
L 414.72 229.315765 
" style="fill: none; stroke: #000000; stroke-width: 0.8; stroke-linejoin: miter; stroke-linecap: square"/>
   </g>
   <g id="text_43">
    <!-- gyros bias error -->
    <g transform="translate(189.05625 223.315765) scale(0.12 -0.12)">
     <use xlink:href="#DejaVuSans-67"/>
     <use xlink:href="#DejaVuSans-79" x="63.476562"/>
     <use xlink:href="#DejaVuSans-72" x="122.65625"/>
     <use xlink:href="#DejaVuSans-6f" x="161.519531"/>
     <use xlink:href="#DejaVuSans-73" x="222.701172"/>
     <use xlink:href="#DejaVuSans-20" x="274.800781"/>
     <use xlink:href="#DejaVuSans-62" x="306.587891"/>
     <use xlink:href="#DejaVuSans-69" x="370.064453"/>
     <use xlink:href="#DejaVuSans-61" x="397.847656"/>
     <use xlink:href="#DejaVuSans-73" x="459.126953"/>
     <use xlink:href="#DejaVuSans-20" x="511.226562"/>
     <use xlink:href="#DejaVuSans-65" x="543.013672"/>
     <use xlink:href="#DejaVuSans-72" x="604.537109"/>
     <use xlink:href="#DejaVuSans-72" x="643.900391"/>
     <use xlink:href="#DejaVuSans-6f" x="682.763672"/>
     <use xlink:href="#DejaVuSans-72" x="743.945312"/>
    </g>
   </g>
   <g id="legend_1">
    <g id="patch_17">
     <path d="M 212.752187 251.99389 
L 259.567813 251.99389 
Q 261.567813 251.99389 261.567813 249.99389 
L 261.567813 236.315765 
Q 261.567813 234.315765 259.567813 234.315765 
L 212.752187 234.315765 
Q 210.752187 234.315765 210.752187 236.315765 
L 210.752187 249.99389 
Q 210.752187 251.99389 212.752187 251.99389 
z
" style="fill: #ffffff; opacity: 0.8; stroke: #cccccc; stroke-linejoin: miter"/>
    </g>
    <g id="line2d_82">
     <path d="M 214.752187 242.414202 
L 224.752187 242.414202 
L 234.752187 242.414202 
" style="fill: none; stroke: #1f77b4; stroke-width: 1.5; stroke-linecap: square"/>
    </g>
    <g id="text_44">
     <!-- vio -->
     <g transform="translate(242.752187 245.914202) scale(0.1 -0.1)">
      <defs>
       <path id="DejaVuSans-76" d="M 191 3500 
L 800 3500 
L 1894 563 
L 2988 3500 
L 3597 3500 
L 2284 0 
L 1503 0 
L 191 3500 
z
" transform="scale(0.015625)"/>
      </defs>
      <use xlink:href="#DejaVuSans-76"/>
      <use xlink:href="#DejaVuSans-69" x="59.179688"/>
      <use xlink:href="#DejaVuSans-6f" x="86.962891"/>
     </g>
    </g>
   </g>
  </g>
 </g>
 <defs>
  <clipPath id="p50547b3f89">
   <rect x="57.6" y="41.472" width="357.12" height="78.268235"/>
  </clipPath>
  <clipPath id="p0d9cd0d653">
   <rect x="57.6" y="135.393882" width="357.12" height="78.268235"/>
  </clipPath>
  <clipPath id="p37c2147c91">
   <rect x="57.6" y="229.315765" width="357.12" height="78.268235"/>
  </clipPath>
 </defs>
</svg>
