<?xml version="1.0" encoding="utf-8" standalone="no"?>
<!DOCTYPE svg PUBLIC "-//W3C//DTD SVG 1.1//EN"
  "http://www.w3.org/Graphics/SVG/1.1/DTD/svg11.dtd">
<svg xmlns:xlink="http://www.w3.org/1999/xlink" width="460.8pt" height="345.6pt" viewBox="0 0 460.8 345.6" xmlns="http://www.w3.org/2000/svg" version="1.1">
 <metadata>
  <rdf:RDF xmlns:dc="http://purl.org/dc/elements/1.1/" xmlns:cc="http://creativecommons.org/ns#" xmlns:rdf="http://www.w3.org/1999/02/22-rdf-syntax-ns#">
   <cc:Work>
    <dc:type rdf:resource="http://purl.org/dc/dcmitype/StillImage"/>
    <dc:date>2026-01-13T18:46:26.646771</dc:date>
    <dc:format>image/svg+xml</dc:format>
    <dc:creator>
     <cc:Agent>
      <dc:title>Matplotlib v3.9.4, https://matplotlib.org/</dc:title>
     </cc:Agent>
    </dc:creator>
   </cc:Work>
  </rdf:RDF>
 </metadata>
 <defs>
  <style type="text/css">*{stroke-linejoin: round; stroke-linecap: butt}</style>
 </defs>
 <g id="figure_1">
  <g id="patch_1">
   <path d="M 0 345.6 
L 460.8 345.6 
L 460.8 0 
L 0 0 
z
" style="fill: #ffffff"/>
  </g>
  <g id="axes_1">
   <g id="patch_2">
    <path d="M 57.6 119.740235 
L 414.72 119.740235 
L 414.72 41.472 
L 57.6 41.472 
z
" style="fill: #ffffff"/>
   </g>
   <g id="matplotlib.axis_1">
    <g id="xtick_1">
     <g id="line2d_1">
      <path d="M 73.832727 119.740235 
L 73.832727 41.472 
" clip-path="url(#p33736e33eb)" style="fill: none; stroke: #b0b0b0; stroke-width: 0.8; stroke-linecap: square"/>
     </g>
     <g id="line2d_2">
      <defs>
       <path id="m2c7407b7ad" d="M 0 0 
L 0 3.5 
" style="stroke: #000000; stroke-width: 0.8"/>
      </defs>
      <g>
       <use xlink:href="#m2c7407b7ad" x="73.832727" y="119.740235" style="stroke: #000000; stroke-width: 0.8"/>
      </g>
     </g>
     <g id="text_1">
      <!-- 0 -->
      <g transform="translate(70.651477 134.338673) scale(0.1 -0.1)">
       <defs>
        <path id="DejaVuSans-30" d="M 2034 4250 
Q 1547 4250 1301 3770 
Q 1056 3291 1056 2328 
Q 1056 1369 1301 889 
Q 1547 409 2034 409 
Q 2525 409 2770 889 
Q 3016 1369 3016 2328 
Q 3016 3291 2770 3770 
Q 2525 4250 2034 4250 
z
M 2034 4750 
Q 2819 4750 3233 4129 
Q 3647 3509 3647 2328 
Q 3647 1150 3233 529 
Q 2819 -91 2034 -91 
Q 1250 -91 836 529 
Q 422 1150 422 2328 
Q 422 3509 836 4129 
Q 1250 4750 2034 4750 
z
" transform="scale(0.015625)"/>
       </defs>
       <use xlink:href="#DejaVuSans-30"/>
      </g>
     </g>
    </g>
    <g id="xtick_2">
     <g id="line2d_3">
      <path d="M 132.269169 119.740235 
L 132.269169 41.472 
" clip-path="url(#p33736e33eb)" style="fill: none; stroke: #b0b0b0; stroke-width: 0.8; stroke-linecap: square"/>
     </g>
     <g id="line2d_4">
      <g>
       <use xlink:href="#m2c7407b7ad" x="132.269169" y="119.740235" style="stroke: #000000; stroke-width: 0.8"/>
      </g>
     </g>
     <g id="text_2">
      <!-- 50 -->
      <g transform="translate(125.906669 134.338673) scale(0.1 -0.1)">
       <defs>
        <path id="DejaVuSans-35" d="M 691 4666 
L 3169 4666 
L 3169 4134 
L 1269 4134 
L 1269 2991 
Q 1406 3038 1543 3061 
Q 1681 3084 1819 3084 
Q 2600 3084 3056 2656 
Q 3513 2228 3513 1497 
Q 3513 744 3044 326 
Q 2575 -91 1722 -91 
Q 1428 -91 1123 -41 
Q 819 9 494 109 
L 494 744 
Q 775 591 1075 516 
Q 1375 441 1709 441 
Q 2250 441 2565 725 
Q 2881 1009 2881 1497 
Q 2881 1984 2565 2268 
Q 2250 2553 1709 2553 
Q 1456 2553 1204 2497 
Q 953 2441 691 2322 
L 691 4666 
z
" transform="scale(0.015625)"/>
       </defs>
       <use xlink:href="#DejaVuSans-35"/>
       <use xlink:href="#DejaVuSans-30" x="63.623047"/>
      </g>
     </g>
    </g>
    <g id="xtick_3">
     <g id="line2d_5">
      <path d="M 190.70561 119.740235 
L 190.70561 41.472 
" clip-path="url(#p33736e33eb)" style="fill: none; stroke: #b0b0b0; stroke-width: 0.8; stroke-linecap: square"/>
     </g>
     <g id="line2d_6">
      <g>
       <use xlink:href="#m2c7407b7ad" x="190.70561" y="119.740235" style="stroke: #000000; stroke-width: 0.8"/>
      </g>
     </g>
     <g id="text_3">
      <!-- 100 -->
      <g transform="translate(181.16186 134.338673) scale(0.1 -0.1)">
       <defs>
        <path id="DejaVuSans-31" d="M 794 531 
L 1825 531 
L 1825 4091 
L 703 3866 
L 703 4441 
L 1819 4666 
L 2450 4666 
L 2450 531 
L 3481 531 
L 3481 0 
L 794 0 
L 794 531 
z
" transform="scale(0.015625)"/>
       </defs>
       <use xlink:href="#DejaVuSans-31"/>
       <use xlink:href="#DejaVuSans-30" x="63.623047"/>
       <use xlink:href="#DejaVuSans-30" x="127.246094"/>
      </g>
     </g>
    </g>
    <g id="xtick_4">
     <g id="line2d_7">
      <path d="M 249.142051 119.740235 
L 249.142051 41.472 
" clip-path="url(#p33736e33eb)" style="fill: none; stroke: #b0b0b0; stroke-width: 0.8; stroke-linecap: square"/>
     </g>
     <g id="line2d_8">
      <g>
       <use xlink:href="#m2c7407b7ad" x="249.142051" y="119.740235" style="stroke: #000000; stroke-width: 0.8"/>
      </g>
     </g>
     <g id="text_4">
      <!-- 150 -->
      <g transform="translate(239.598301 134.338673) scale(0.1 -0.1)">
       <use xlink:href="#DejaVuSans-31"/>
       <use xlink:href="#DejaVuSans-35" x="63.623047"/>
       <use xlink:href="#DejaVuSans-30" x="127.246094"/>
      </g>
     </g>
    </g>
    <g id="xtick_5">
     <g id="line2d_9">
      <path d="M 307.578492 119.740235 
L 307.578492 41.472 
" clip-path="url(#p33736e33eb)" style="fill: none; stroke: #b0b0b0; stroke-width: 0.8; stroke-linecap: square"/>
     </g>
     <g id="line2d_10">
      <g>
       <use xlink:href="#m2c7407b7ad" x="307.578492" y="119.740235" style="stroke: #000000; stroke-width: 0.8"/>
      </g>
     </g>
     <g id="text_5">
      <!-- 200 -->
      <g transform="translate(298.034742 134.338673) scale(0.1 -0.1)">
       <defs>
        <path id="DejaVuSans-32" d="M 1228 531 
L 3431 531 
L 3431 0 
L 469 0 
L 469 531 
Q 828 903 1448 1529 
Q 2069 2156 2228 2338 
Q 2531 2678 2651 2914 
Q 2772 3150 2772 3378 
Q 2772 3750 2511 3984 
Q 2250 4219 1831 4219 
Q 1534 4219 1204 4116 
Q 875 4013 500 3803 
L 500 4441 
Q 881 4594 1212 4672 
Q 1544 4750 1819 4750 
Q 2544 4750 2975 4387 
Q 3406 4025 3406 3419 
Q 3406 3131 3298 2873 
Q 3191 2616 2906 2266 
Q 2828 2175 2409 1742 
Q 1991 1309 1228 531 
z
" transform="scale(0.015625)"/>
       </defs>
       <use xlink:href="#DejaVuSans-32"/>
       <use xlink:href="#DejaVuSans-30" x="63.623047"/>
       <use xlink:href="#DejaVuSans-30" x="127.246094"/>
      </g>
     </g>
    </g>
    <g id="xtick_6">
     <g id="line2d_11">
      <path d="M 366.014934 119.740235 
L 366.014934 41.472 
" clip-path="url(#p33736e33eb)" style="fill: none; stroke: #b0b0b0; stroke-width: 0.8; stroke-linecap: square"/>
     </g>
     <g id="line2d_12">
      <g>
       <use xlink:href="#m2c7407b7ad" x="366.014934" y="119.740235" style="stroke: #000000; stroke-width: 0.8"/>
      </g>
     </g>
     <g id="text_6">
      <!-- 250 -->
      <g transform="translate(356.471184 134.338673) scale(0.1 -0.1)">
       <use xlink:href="#DejaVuSans-32"/>
       <use xlink:href="#DejaVuSans-35" x="63.623047"/>
       <use xlink:href="#DejaVuSans-30" x="127.246094"/>
      </g>
     </g>
    </g>
   </g>
   <g id="matplotlib.axis_2">
    <g id="ytick_1">
     <g id="line2d_13">
      <path d="M 57.6 110.24518 
L 414.72 110.24518 
" clip-path="url(#p33736e33eb)" style="fill: none; stroke: #b0b0b0; stroke-width: 0.8; stroke-linecap: square"/>
     </g>
     <g id="line2d_14">
      <defs>
       <path id="m4fa33c362e" d="M 0 0 
L -3.5 0 
" style="stroke: #000000; stroke-width: 0.8"/>
      </defs>
      <g>
       <use xlink:href="#m4fa33c362e" x="57.6" y="110.24518" style="stroke: #000000; stroke-width: 0.8"/>
      </g>
     </g>
     <g id="text_7">
      <!-- −0.00025 -->
      <g transform="translate(0.867188 114.044399) scale(0.1 -0.1)">
       <defs>
        <path id="DejaVuSans-2212" d="M 678 2272 
L 4684 2272 
L 4684 1741 
L 678 1741 
L 678 2272 
z
" transform="scale(0.015625)"/>
        <path id="DejaVuSans-2e" d="M 684 794 
L 1344 794 
L 1344 0 
L 684 0 
L 684 794 
z
" transform="scale(0.015625)"/>
       </defs>
       <use xlink:href="#DejaVuSans-2212"/>
       <use xlink:href="#DejaVuSans-30" x="83.789062"/>
       <use xlink:href="#DejaVuSans-2e" x="147.412109"/>
       <use xlink:href="#DejaVuSans-30" x="179.199219"/>
       <use xlink:href="#DejaVuSans-30" x="242.822266"/>
       <use xlink:href="#DejaVuSans-30" x="306.445312"/>
       <use xlink:href="#DejaVuSans-32" x="370.068359"/>
       <use xlink:href="#DejaVuSans-35" x="433.691406"/>
      </g>
     </g>
    </g>
    <g id="ytick_2">
     <g id="line2d_15">
      <path d="M 57.6 80.606118 
L 414.72 80.606118 
" clip-path="url(#p33736e33eb)" style="fill: none; stroke: #b0b0b0; stroke-width: 0.8; stroke-linecap: square"/>
     </g>
     <g id="line2d_16">
      <g>
       <use xlink:href="#m4fa33c362e" x="57.6" y="80.606118" style="stroke: #000000; stroke-width: 0.8"/>
      </g>
     </g>
     <g id="text_8">
      <!-- 0.00000 -->
      <g transform="translate(9.246875 84.405336) scale(0.1 -0.1)">
       <use xlink:href="#DejaVuSans-30"/>
       <use xlink:href="#DejaVuSans-2e" x="63.623047"/>
       <use xlink:href="#DejaVuSans-30" x="95.410156"/>
       <use xlink:href="#DejaVuSans-30" x="159.033203"/>
       <use xlink:href="#DejaVuSans-30" x="222.65625"/>
       <use xlink:href="#DejaVuSans-30" x="286.279297"/>
       <use xlink:href="#DejaVuSans-30" x="349.902344"/>
      </g>
     </g>
    </g>
    <g id="ytick_3">
     <g id="line2d_17">
      <path d="M 57.6 50.967055 
L 414.72 50.967055 
" clip-path="url(#p33736e33eb)" style="fill: none; stroke: #b0b0b0; stroke-width: 0.8; stroke-linecap: square"/>
     </g>
     <g id="line2d_18">
      <g>
       <use xlink:href="#m4fa33c362e" x="57.6" y="50.967055" style="stroke: #000000; stroke-width: 0.8"/>
      </g>
     </g>
     <g id="text_9">
      <!-- 0.00025 -->
      <g transform="translate(9.246875 54.766274) scale(0.1 -0.1)">
       <use xlink:href="#DejaVuSans-30"/>
       <use xlink:href="#DejaVuSans-2e" x="63.623047"/>
       <use xlink:href="#DejaVuSans-30" x="95.410156"/>
       <use xlink:href="#DejaVuSans-30" x="159.033203"/>
       <use xlink:href="#DejaVuSans-30" x="222.65625"/>
       <use xlink:href="#DejaVuSans-32" x="286.279297"/>
       <use xlink:href="#DejaVuSans-35" x="349.902344"/>
      </g>
     </g>
    </g>
    <g id="text_10">
     <!-- bg_x -->
     <g transform="translate(-5.490625 92.41393) rotate(-90) scale(0.1 -0.1)">
      <defs>
       <path id="DejaVuSans-62" d="M 3116 1747 
Q 3116 2381 2855 2742 
Q 2594 3103 2138 3103 
Q 1681 3103 1420 2742 
Q 1159 2381 1159 1747 
Q 1159 1113 1420 752 
Q 1681 391 2138 391 
Q 2594 391 2855 752 
Q 3116 1113 3116 1747 
z
M 1159 2969 
Q 1341 3281 1617 3432 
Q 1894 3584 2278 3584 
Q 2916 3584 3314 3078 
Q 3713 2572 3713 1747 
Q 3713 922 3314 415 
Q 2916 -91 2278 -91 
Q 1894 -91 1617 61 
Q 1341 213 1159 525 
L 1159 0 
L 581 0 
L 581 4863 
L 1159 4863 
L 1159 2969 
z
" transform="scale(0.015625)"/>
       <path id="DejaVuSans-67" d="M 2906 1791 
Q 2906 2416 2648 2759 
Q 2391 3103 1925 3103 
Q 1463 3103 1205 2759 
Q 947 2416 947 1791 
Q 947 1169 1205 825 
Q 1463 481 1925 481 
Q 2391 481 2648 825 
Q 2906 1169 2906 1791 
z
M 3481 434 
Q 3481 -459 3084 -895 
Q 2688 -1331 1869 -1331 
Q 1566 -1331 1297 -1286 
Q 1028 -1241 775 -1147 
L 775 -588 
Q 1028 -725 1275 -790 
Q 1522 -856 1778 -856 
Q 2344 -856 2625 -561 
Q 2906 -266 2906 331 
L 2906 616 
Q 2728 306 2450 153 
Q 2172 0 1784 0 
Q 1141 0 747 490 
Q 353 981 353 1791 
Q 353 2603 747 3093 
Q 1141 3584 1784 3584 
Q 2172 3584 2450 3431 
Q 2728 3278 2906 2969 
L 2906 3500 
L 3481 3500 
L 3481 434 
z
" transform="scale(0.015625)"/>
       <path id="DejaVuSans-5f" d="M 3263 -1063 
L 3263 -1509 
L -63 -1509 
L -63 -1063 
L 3263 -1063 
z
" transform="scale(0.015625)"/>
       <path id="DejaVuSans-78" d="M 3513 3500 
L 2247 1797 
L 3578 0 
L 2900 0 
L 1881 1375 
L 863 0 
L 184 0 
L 1544 1831 
L 300 3500 
L 978 3500 
L 1906 2253 
L 2834 3500 
L 3513 3500 
z
" transform="scale(0.015625)"/>
      </defs>
      <use xlink:href="#DejaVuSans-62"/>
      <use xlink:href="#DejaVuSans-67" x="63.476562"/>
      <use xlink:href="#DejaVuSans-5f" x="126.953125"/>
      <use xlink:href="#DejaVuSans-78" x="176.953125"/>
     </g>
    </g>
   </g>
   <g id="line2d_19">
    <path d="M 73.832727 80.606118 
L 398.487273 80.606118 
L 398.487273 80.606118 
" clip-path="url(#p33736e33eb)" style="fill: none; stroke: #1f77b4; stroke-width: 1.5; stroke-linecap: square"/>
   </g>
   <g id="line2d_20">
    <path d="M 73.832727 45.037542 
L 103.80221 45.10264 
L 103.949843 45.106634 
L 107.249371 45.210564 
L 107.373516 45.218061 
L 109.528304 45.323255 
L 109.647762 45.333399 
L 111.398265 45.440331 
L 111.516602 45.45248 
L 112.976524 45.55772 
L 113.09252 45.567263 
L 114.320501 45.672674 
L 114.435271 45.683373 
L 115.547201 45.790908 
L 115.662082 45.802881 
L 116.658012 45.911353 
L 116.772784 45.924934 
L 117.651548 46.031213 
L 117.765254 46.04594 
L 118.586552 46.153796 
L 118.700205 46.169731 
L 119.462971 46.277535 
L 119.576624 46.294552 
L 120.280806 46.400398 
L 120.394459 46.418505 
L 121.040111 46.519567 
L 121.15371 46.538705 
L 121.80048 46.645416 
L 121.914133 46.664998 
L 122.501146 46.765113 
L 122.6148 46.78577 
L 123.202984 46.890072 
L 123.31664 46.91094 
L 123.90365 47.018791 
L 124.017304 47.041207 
L 124.546904 47.143732 
L 124.660611 47.167058 
L 125.188988 47.273686 
L 125.302639 47.298306 
L 125.77371 47.398405 
L 125.887308 47.423958 
L 126.358325 47.526257 
L 126.471978 47.551867 
L 126.942993 47.658449 
L 127.056701 47.685193 
L 127.526491 47.79468 
L 127.640143 47.822228 
L 128.05263 47.919443 
L 128.166229 47.947804 
L 128.578661 48.047246 
L 128.692314 48.076004 
L 129.104745 48.178266 
L 129.218453 48.207449 
L 129.630831 48.309861 
L 129.744483 48.339478 
L 130.156914 48.443404 
L 130.270567 48.473201 
L 130.683054 48.57855 
L 130.796652 48.608618 
L 131.207912 48.714624 
L 131.321619 48.745117 
L 131.733997 48.851938 
L 131.84765 48.882586 
L 132.26008 48.990255 
L 132.373734 49.02123 
L 132.786219 49.12918 
L 132.899818 49.160176 
L 133.312248 49.270376 
L 133.425902 49.302406 
L 133.779749 49.397849 
L 133.893456 49.429656 
L 134.247249 49.525288 
L 134.360902 49.557698 
L 134.71475 49.655339 
L 134.828403 49.687807 
L 135.182305 49.785259 
L 135.294732 49.818058 
L 135.649751 49.915991 
L 135.763406 49.948654 
L 136.11725 50.046834 
L 136.230957 50.079271 
L 136.584751 50.175328 
L 136.698403 50.207037 
L 137.110838 50.31671 
L 137.224488 50.347449 
L 137.636973 50.455007 
L 137.750591 50.484908 
L 138.161831 50.58748 
L 138.275538 50.616418 
L 138.687915 50.71508 
L 138.801568 50.742266 
L 139.272583 50.849216 
L 139.386235 50.874797 
L 139.857304 50.975185 
L 139.970903 50.998904 
L 140.49933 51.104021 
L 140.613037 51.126911 
L 141.142582 51.226546 
L 141.256235 51.247971 
L 141.844417 51.35202 
L 141.95807 51.372138 
L 142.603664 51.47913 
L 142.717317 51.498087 
L 143.421495 51.604815 
L 143.535148 51.62172 
L 144.297963 51.72507 
L 144.411562 51.740053 
L 145.291491 51.847429 
L 145.406319 51.861201 
L 146.40224 51.969273 
L 146.517066 51.981336 
L 147.628986 52.089528 
L 147.743813 52.10031 
L 148.914368 52.205243 
L 149.029138 52.215766 
L 150.200815 52.323778 
L 150.315639 52.335316 
L 151.369029 52.441736 
L 151.4838 52.453684 
L 152.537135 52.559032 
L 152.652014 52.570499 
L 153.765106 52.675237 
L 153.879877 52.685793 
L 155.108965 52.79352 
L 155.224959 52.803385 
L 156.511457 52.909648 
L 156.627454 52.919251 
L 157.913951 53.026284 
L 158.030001 53.035926 
L 159.316444 53.144202 
L 159.432439 53.154121 
L 160.660406 53.261059 
L 160.775176 53.271313 
L 161.945677 53.375879 
L 162.060555 53.38706 
L 163.056475 53.49391 
L 163.170073 53.508437 
L 163.932832 53.614769 
L 164.046537 53.632609 
L 164.692074 53.735776 
L 164.805729 53.755017 
L 165.452542 53.861248 
L 165.566141 53.880554 
L 166.211731 53.98865 
L 166.325438 54.00875 
L 166.913562 54.110938 
L 167.027214 54.132621 
L 167.555641 54.232576 
L 167.66929 54.255669 
L 168.198886 54.360238 
L 168.312538 54.384408 
L 168.783548 54.482462 
L 168.897255 54.507426 
L 169.367041 54.608148 
L 169.480693 54.633351 
L 169.951758 54.736602 
L 170.065356 54.76242 
L 170.536368 54.866935 
L 170.65002 54.892866 
L 171.121032 54.996719 
L 171.234686 55.023201 
L 171.704525 55.127386 
L 171.818175 55.1536 
L 172.28924 55.256503 
L 172.402837 55.281924 
L 172.873849 55.382889 
L 172.987501 55.407366 
L 173.515924 55.516012 
L 173.629576 55.538872 
L 174.15917 55.638378 
L 174.272822 55.659333 
L 174.918411 55.766385 
L 175.032063 55.784087 
L 175.795991 55.889011 
L 175.909697 55.90362 
L 176.905615 56.010576 
L 177.020385 56.021619 
L 178.483799 56.128886 
L 178.604534 56.13837 
L 186.138359 56.232815 
L 186.691331 56.234205 
L 192.800398 56.329815 
L 192.930452 56.335897 
L 195.313617 56.4387 
L 195.434326 56.448454 
L 197.125006 56.552015 
L 197.243344 56.564685 
L 198.586068 56.667974 
L 198.703234 56.683539 
L 199.871378 56.791233 
L 199.986201 56.803469 
L 200.923529 56.907377 
L 201.038352 56.921233 
L 201.915926 57.030205 
L 202.029576 57.045672 
L 202.793552 57.149012 
L 202.907149 57.165341 
L 203.669899 57.274422 
L 203.783605 57.291685 
L 204.487717 57.397378 
L 204.601368 57.415407 
L 205.246953 57.519686 
L 205.360603 57.539186 
L 205.948779 57.641388 
L 206.062481 57.662525 
L 206.590845 57.761318 
L 206.704495 57.783876 
L 207.234139 57.887708 
L 207.347736 57.911835 
L 207.818743 58.009275 
L 207.932393 58.034259 
L 208.403399 58.136429 
L 208.517105 58.162014 
L 208.986886 58.266956 
L 209.100537 58.292995 
L 209.571597 58.398073 
L 209.685194 58.424377 
L 210.1562 58.529254 
L 210.269858 58.555558 
L 210.740858 58.657634 
L 210.854564 58.682863 
L 211.324345 58.784067 
L 211.437995 58.80922 
L 211.909056 58.908758 
L 212.022653 58.933229 
L 212.493659 59.031682 
L 212.60731 59.056841 
L 213.078317 59.158088 
L 213.192021 59.183541 
L 213.661802 59.286894 
L 213.775453 59.312672 
L 214.246514 59.416708 
L 214.360111 59.443009 
L 214.831117 59.547522 
L 214.944769 59.574088 
L 215.415775 59.679486 
L 215.529479 59.705369 
L 215.99926 59.811145 
L 216.112911 59.837353 
L 216.58392 59.942055 
L 216.697567 59.968134 
L 217.168574 60.070882 
L 217.282225 60.096754 
L 217.753231 60.200572 
L 217.866937 60.226583 
L 218.336717 60.330867 
L 218.450371 60.357074 
L 218.921428 60.462197 
L 219.035025 60.488747 
L 219.506031 60.593777 
L 219.619682 60.620032 
L 220.090689 60.725831 
L 220.204393 60.751755 
L 220.674174 60.855924 
L 220.787827 60.881744 
L 221.258886 60.984408 
L 221.372483 61.009973 
L 221.843489 61.110028 
L 221.957139 61.134304 
L 222.485558 61.24262 
L 222.599208 61.265984 
L 223.128797 61.369032 
L 223.242476 61.391348 
L 223.830675 61.499717 
L 223.94427 61.520892 
L 224.53127 61.624229 
L 224.644976 61.644429 
L 225.290503 61.752368 
L 225.404158 61.772032 
L 226.050963 61.877973 
L 226.164558 61.89728 
L 226.810143 62.00017 
L 226.923845 62.018912 
L 227.570544 62.120977 
L 227.684194 62.139221 
L 228.388413 62.246232 
L 228.502009 62.264051 
L 229.206173 62.368764 
L 229.319877 62.386024 
L 230.082569 62.494428 
L 230.196219 62.510974 
L 230.958964 62.616806 
L 231.072615 62.632808 
L 231.836531 62.736894 
L 231.950236 62.753018 
L 232.712926 62.858014 
L 232.826577 62.873959 
L 233.589321 62.98014 
L 233.702971 62.996444 
L 234.465717 63.102179 
L 234.579366 63.118479 
L 235.342165 63.226253 
L 235.455761 63.243022 
L 236.159922 63.344061 
L 236.273627 63.361232 
L 236.978905 63.463631 
L 237.092556 63.480908 
L 237.796773 63.583083 
L 237.910368 63.600218 
L 238.61453 63.701683 
L 238.728234 63.718659 
L 239.490924 63.825338 
L 239.604574 63.84171 
L 240.367318 63.945624 
L 240.48214 63.961021 
L 241.302295 64.068286 
L 241.415945 64.083344 
L 242.237325 64.18709 
L 242.350921 64.201709 
L 243.172247 64.305107 
L 243.285952 64.319919 
L 244.107223 64.421017 
L 244.220874 64.435384 
L 245.100782 64.539083 
L 245.215604 64.552423 
L 246.152923 64.657227 
L 246.267799 64.670171 
L 247.263699 64.775075 
L 247.37847 64.787043 
L 248.431779 64.893007 
L 248.546655 64.904634 
L 249.658495 65.011213 
L 249.774489 65.022026 
L 250.944965 65.128697 
L 251.05984 65.139086 
L 252.230263 65.241697 
L 252.346259 65.251642 
L 253.632724 65.356805 
L 253.748772 65.365959 
L 255.210931 65.470321 
L 255.329269 65.482092 
L 257.196872 65.586503 
L 257.317551 65.595474 
L 259.71005 65.697306 
L 259.836588 65.704138 
L 262.92387 65.803462 
L 263.059781 65.808301 
L 270.520852 65.891965 
L 270.893381 65.893019 
L 300.382367 65.895635 
L 300.65653 65.897318 
L 307.920676 65.981592 
L 308.071871 65.98512 
L 311.835115 66.080605 
L 311.965166 66.086387 
L 314.581434 66.187506 
L 314.703338 66.196153 
L 316.627115 66.299397 
L 316.746622 66.310402 
L 318.379888 66.414873 
L 318.498223 66.427637 
L 319.958141 66.532159 
L 320.07408 66.541223 
L 321.360541 66.643639 
L 321.476534 66.653162 
L 322.704416 66.754677 
L 322.820408 66.764489 
L 324.04829 66.868094 
L 324.164337 66.877965 
L 325.392165 66.981715 
L 325.508158 66.991575 
L 326.737213 67.094425 
L 326.854377 67.109259 
L 328.197082 67.214346 
L 328.313075 67.223791 
L 329.599543 67.325872 
L 329.715536 67.334979 
L 331.060586 67.437293 
L 331.176582 67.445983 
L 332.580215 67.547663 
L 332.698549 67.560285 
L 334.274416 67.664275 
L 334.392807 67.676185 
L 336.028375 67.777825 
L 336.146712 67.788984 
L 337.898329 67.891103 
L 338.017837 67.901607 
L 339.885448 68.004125 
L 340.00496 68.01401 
L 341.929981 68.113582 
L 342.072978 68.122814 
L 344.092853 68.22311 
L 344.214705 68.231982 
L 346.371721 68.332929 
L 346.494745 68.341424 
L 348.709173 68.440967 
L 348.832254 68.449117 
L 351.105211 68.548112 
L 351.22946 68.556104 
L 353.55866 68.655973 
L 353.681684 68.663848 
L 356.071868 68.764024 
L 356.194893 68.77179 
L 358.58508 68.871941 
L 358.708102 68.879744 
L 361.038552 68.977839 
L 361.161558 68.985627 
L 363.551748 69.083504 
L 363.675947 69.090767 
L 366.356707 69.189067 
L 366.484473 69.19539 
L 369.337473 69.290798 
L 369.463959 69.296782 
L 372.843034 69.391334 
L 372.982462 69.395588 
L 378.453011 69.480021 
L 378.648625 69.482196 
L 398.487273 69.483412 
L 398.487273 69.483412 
" clip-path="url(#p33736e33eb)" style="fill: none; stroke: #ff0000; stroke-width: 0.5; stroke-linecap: square"/>
   </g>
   <g id="line2d_21">
    <path d="M 73.832727 116.174693 
L 103.80221 116.109596 
L 103.949843 116.105602 
L 107.249371 116.001671 
L 107.373516 115.994174 
L 109.528304 115.888981 
L 109.647762 115.878836 
L 111.398265 115.771904 
L 111.516602 115.759755 
L 112.976524 115.654515 
L 113.09252 115.644973 
L 114.320501 115.539561 
L 114.435271 115.528862 
L 115.547201 115.421328 
L 115.662082 115.409355 
L 116.658012 115.300883 
L 116.772784 115.287301 
L 117.651548 115.181023 
L 117.765254 115.166296 
L 118.586552 115.05844 
L 118.700205 115.042504 
L 119.462971 114.9347 
L 119.576624 114.917683 
L 120.280806 114.811837 
L 120.394459 114.793731 
L 121.040111 114.692669 
L 121.15371 114.67353 
L 121.80048 114.56682 
L 121.914133 114.547237 
L 122.501146 114.447122 
L 122.6148 114.426466 
L 123.202984 114.322163 
L 123.31664 114.301295 
L 123.90365 114.193444 
L 124.017304 114.171028 
L 124.546904 114.068503 
L 124.660611 114.045177 
L 125.188988 113.938549 
L 125.302639 113.91393 
L 125.77371 113.81383 
L 125.887308 113.788277 
L 126.358325 113.685978 
L 126.471978 113.660369 
L 126.942993 113.553787 
L 127.056701 113.527043 
L 127.526491 113.417556 
L 127.640143 113.390007 
L 128.05263 113.292792 
L 128.166229 113.264432 
L 128.578661 113.164989 
L 128.692314 113.136231 
L 129.104745 113.033969 
L 129.218453 113.004786 
L 129.630831 112.902374 
L 129.744483 112.872758 
L 130.156914 112.768831 
L 130.270567 112.739034 
L 130.683054 112.633686 
L 130.796652 112.603618 
L 131.207912 112.497611 
L 131.321619 112.467118 
L 131.733997 112.360297 
L 131.84765 112.329649 
L 132.26008 112.22198 
L 132.373734 112.191005 
L 132.786219 112.083055 
L 132.899818 112.05206 
L 133.312248 111.94186 
L 133.425902 111.909829 
L 133.779749 111.814386 
L 133.893456 111.782579 
L 134.247249 111.686947 
L 134.360902 111.654537 
L 134.71475 111.556896 
L 134.828403 111.524428 
L 135.182305 111.426977 
L 135.294732 111.394178 
L 135.649751 111.296244 
L 135.763406 111.263581 
L 136.11725 111.165401 
L 136.230957 111.132964 
L 136.584751 111.036908 
L 136.698403 111.005199 
L 137.110838 110.895526 
L 137.224488 110.864786 
L 137.636973 110.757228 
L 137.750591 110.727327 
L 138.161831 110.624755 
L 138.275538 110.595817 
L 138.687915 110.497155 
L 138.801568 110.469969 
L 139.272583 110.363019 
L 139.386235 110.337438 
L 139.857304 110.237051 
L 139.970903 110.213331 
L 140.49933 110.108214 
L 140.613037 110.085324 
L 141.142582 109.985689 
L 141.256235 109.964264 
L 141.844417 109.860215 
L 141.95807 109.840097 
L 142.603664 109.733105 
L 142.717317 109.714148 
L 143.421495 109.60742 
L 143.535148 109.590515 
L 144.297963 109.487166 
L 144.411562 109.472182 
L 145.291491 109.364806 
L 145.406319 109.351034 
L 146.40224 109.242962 
L 146.517066 109.230899 
L 147.628986 109.122707 
L 147.743813 109.111926 
L 148.914368 109.006992 
L 149.029138 108.99647 
L 150.200815 108.888457 
L 150.315639 108.87692 
L 151.369029 108.770499 
L 151.4838 108.758551 
L 152.537135 108.653204 
L 152.652014 108.641736 
L 153.765106 108.536998 
L 153.879877 108.526442 
L 155.108965 108.418715 
L 155.224959 108.408851 
L 156.511457 108.302588 
L 156.627454 108.292984 
L 157.913951 108.185952 
L 158.030001 108.176309 
L 159.316444 108.068033 
L 159.432439 108.058115 
L 160.660406 107.951176 
L 160.775176 107.940923 
L 161.945677 107.836356 
L 162.060555 107.825175 
L 163.056475 107.718326 
L 163.170073 107.703798 
L 163.932832 107.597466 
L 164.046537 107.579626 
L 164.692074 107.47646 
L 164.805729 107.457218 
L 165.452542 107.350988 
L 165.566141 107.331681 
L 166.211731 107.223585 
L 166.325438 107.203486 
L 166.913562 107.101298 
L 167.027214 107.079614 
L 167.555641 106.979659 
L 167.66929 106.956567 
L 168.198886 106.851997 
L 168.312538 106.827827 
L 168.783548 106.729773 
L 168.897255 106.704809 
L 169.367041 106.604087 
L 169.480693 106.578884 
L 169.951758 106.475633 
L 170.065356 106.449816 
L 170.536368 106.3453 
L 170.65002 106.319369 
L 171.121032 106.215517 
L 171.234686 106.189034 
L 171.704525 106.084849 
L 171.818175 106.058635 
L 172.28924 105.955733 
L 172.402837 105.930312 
L 172.873849 105.829346 
L 172.987501 105.80487 
L 173.515924 105.696223 
L 173.629576 105.673363 
L 174.15917 105.573857 
L 174.272822 105.552903 
L 174.918411 105.445851 
L 175.032063 105.428148 
L 175.795991 105.323224 
L 175.909697 105.308616 
L 176.905615 105.201659 
L 177.020385 105.190616 
L 178.483799 105.08335 
L 178.604534 105.073865 
L 186.138359 104.97942 
L 186.691331 104.978031 
L 192.800398 104.88242 
L 192.930452 104.876338 
L 195.313617 104.773535 
L 195.434326 104.763781 
L 197.125006 104.66022 
L 197.243344 104.64755 
L 198.586068 104.544261 
L 198.703234 104.528697 
L 199.871378 104.421002 
L 199.986201 104.408767 
L 200.923529 104.304859 
L 201.038352 104.291003 
L 201.915926 104.182031 
L 202.029576 104.166563 
L 202.793552 104.063224 
L 202.907149 104.046894 
L 203.669899 103.937813 
L 203.783605 103.92055 
L 204.487717 103.814857 
L 204.601368 103.796828 
L 205.246953 103.692549 
L 205.360603 103.673049 
L 205.948779 103.570847 
L 206.062481 103.54971 
L 206.590845 103.450917 
L 206.704495 103.428359 
L 207.234139 103.324527 
L 207.347736 103.3004 
L 207.818743 103.20296 
L 207.932393 103.177976 
L 208.403399 103.075807 
L 208.517105 103.050222 
L 208.986886 102.945279 
L 209.100537 102.91924 
L 209.571597 102.814162 
L 209.685194 102.787858 
L 210.1562 102.682981 
L 210.269858 102.656677 
L 210.740858 102.554601 
L 210.854564 102.529373 
L 211.324345 102.428168 
L 211.437995 102.403015 
L 211.909056 102.303477 
L 212.022653 102.279006 
L 212.493659 102.180554 
L 212.60731 102.155394 
L 213.078317 102.054147 
L 213.192021 102.028694 
L 213.661802 101.925342 
L 213.775453 101.899563 
L 214.246514 101.795527 
L 214.360111 101.769226 
L 214.831117 101.664713 
L 214.944769 101.638148 
L 215.415775 101.53275 
L 215.529479 101.506867 
L 215.99926 101.401091 
L 216.112911 101.374882 
L 216.58392 101.27018 
L 216.697567 101.244101 
L 217.168574 101.141354 
L 217.282225 101.115482 
L 217.753231 101.011663 
L 217.866937 100.985652 
L 218.336717 100.881368 
L 218.450371 100.855161 
L 218.921428 100.750038 
L 219.035025 100.723489 
L 219.506031 100.618459 
L 219.619682 100.592203 
L 220.090689 100.486404 
L 220.204393 100.460481 
L 220.674174 100.356312 
L 220.787827 100.330491 
L 221.258886 100.227827 
L 221.372483 100.202263 
L 221.843489 100.102208 
L 221.957139 100.077931 
L 222.485558 99.969616 
L 222.599208 99.946251 
L 223.128797 99.843204 
L 223.242476 99.820888 
L 223.830675 99.712518 
L 223.94427 99.691343 
L 224.53127 99.588006 
L 224.644976 99.567807 
L 225.290503 99.459867 
L 225.404158 99.440203 
L 226.050963 99.334262 
L 226.164558 99.314955 
L 226.810143 99.212065 
L 226.923845 99.193324 
L 227.570544 99.091258 
L 227.684194 99.073014 
L 228.388413 98.966003 
L 228.502009 98.948184 
L 229.206173 98.843471 
L 229.319877 98.826211 
L 230.082569 98.717807 
L 230.196219 98.701261 
L 230.958964 98.595429 
L 231.072615 98.579427 
L 231.836531 98.475341 
L 231.950236 98.459217 
L 232.712926 98.354222 
L 232.826577 98.338276 
L 233.589321 98.232095 
L 233.702971 98.215791 
L 234.465717 98.110056 
L 234.579366 98.093756 
L 235.342165 97.985982 
L 235.455761 97.969213 
L 236.159922 97.868175 
L 236.273627 97.851003 
L 236.978905 97.748604 
L 237.092556 97.731328 
L 237.796773 97.629152 
L 237.910368 97.612018 
L 238.61453 97.510552 
L 238.728234 97.493576 
L 239.490924 97.386898 
L 239.604574 97.370525 
L 240.367318 97.266611 
L 240.48214 97.251214 
L 241.302295 97.143949 
L 241.415945 97.128891 
L 242.237325 97.025145 
L 242.350921 97.010526 
L 243.172247 96.907128 
L 243.285952 96.892316 
L 244.107223 96.791218 
L 244.220874 96.776852 
L 245.100782 96.673152 
L 245.215604 96.659812 
L 246.152923 96.555008 
L 246.267799 96.542064 
L 247.263699 96.437161 
L 247.37847 96.425193 
L 248.431779 96.319228 
L 248.546655 96.307601 
L 249.658495 96.201022 
L 249.774489 96.190209 
L 250.944965 96.083538 
L 251.05984 96.073149 
L 252.230263 95.970538 
L 252.346259 95.960593 
L 253.632724 95.855431 
L 253.748772 95.846276 
L 255.210931 95.741914 
L 255.329269 95.730144 
L 257.196872 95.625732 
L 257.317551 95.616761 
L 259.71005 95.51493 
L 259.836588 95.508097 
L 262.92387 95.408773 
L 263.059781 95.403934 
L 270.520852 95.32027 
L 270.893381 95.319216 
L 300.382367 95.3166 
L 300.65653 95.314917 
L 307.920676 95.230643 
L 308.071871 95.227115 
L 311.835115 95.13163 
L 311.965166 95.125848 
L 314.581434 95.02473 
L 314.703338 95.016082 
L 316.627115 94.912839 
L 316.746622 94.901833 
L 318.379888 94.797362 
L 318.498223 94.784599 
L 319.958141 94.680076 
L 320.07408 94.671012 
L 321.360541 94.568597 
L 321.476534 94.559073 
L 322.704416 94.457558 
L 322.820408 94.447747 
L 324.04829 94.344141 
L 324.164337 94.33427 
L 325.392165 94.230521 
L 325.508158 94.22066 
L 326.737213 94.117811 
L 326.854377 94.102977 
L 328.197082 93.99789 
L 328.313075 93.988444 
L 329.599543 93.886364 
L 329.715536 93.877256 
L 331.060586 93.774942 
L 331.176582 93.766252 
L 332.580215 93.664572 
L 332.698549 93.65195 
L 334.274416 93.547961 
L 334.392807 93.53605 
L 336.028375 93.43441 
L 336.146712 93.423251 
L 337.898329 93.321133 
L 338.017837 93.310628 
L 339.885448 93.20811 
L 340.00496 93.198225 
L 341.929981 93.098653 
L 342.072978 93.089421 
L 344.092853 92.989125 
L 344.214705 92.980253 
L 346.371721 92.879306 
L 346.494745 92.870811 
L 348.709173 92.771268 
L 348.832254 92.763118 
L 351.105211 92.664123 
L 351.22946 92.656131 
L 353.55866 92.556262 
L 353.681684 92.548387 
L 356.071868 92.448211 
L 356.194893 92.440445 
L 358.58508 92.340294 
L 358.708102 92.332491 
L 361.038552 92.234396 
L 361.161558 92.226608 
L 363.551748 92.128731 
L 363.675947 92.121468 
L 366.356707 92.023168 
L 366.484473 92.016845 
L 369.337473 91.921437 
L 369.463959 91.915454 
L 372.843034 91.820901 
L 372.982462 91.816648 
L 378.453011 91.732214 
L 378.648625 91.730039 
L 398.487273 91.728823 
L 398.487273 91.728823 
" clip-path="url(#p33736e33eb)" style="fill: none; stroke: #ff0000; stroke-width: 0.5; stroke-linecap: square"/>
   </g>
   <g id="patch_3">
    <path d="M 57.6 119.740235 
L 57.6 41.472 
" style="fill: none; stroke: #000000; stroke-width: 0.8; stroke-linejoin: miter; stroke-linecap: square"/>
   </g>
   <g id="patch_4">
    <path d="M 414.72 119.740235 
L 414.72 41.472 
" style="fill: none; stroke: #000000; stroke-width: 0.8; stroke-linejoin: miter; stroke-linecap: square"/>
   </g>
   <g id="patch_5">
    <path d="M 57.6 119.740235 
L 414.72 119.740235 
" style="fill: none; stroke: #000000; stroke-width: 0.8; stroke-linejoin: miter; stroke-linecap: square"/>
   </g>
   <g id="patch_6">
    <path d="M 57.6 41.472 
L 414.72 41.472 
" style="fill: none; stroke: #000000; stroke-width: 0.8; stroke-linejoin: miter; stroke-linecap: square"/>
   </g>
   <g id="text_11">
    <!-- gyros bias error -->
    <g transform="translate(189.05625 35.472) scale(0.12 -0.12)">
     <defs>
      <path id="DejaVuSans-79" d="M 2059 -325 
Q 1816 -950 1584 -1140 
Q 1353 -1331 966 -1331 
L 506 -1331 
L 506 -850 
L 844 -850 
Q 1081 -850 1212 -737 
Q 1344 -625 1503 -206 
L 1606 56 
L 191 3500 
L 800 3500 
L 1894 763 
L 2988 3500 
L 3597 3500 
L 2059 -325 
z
" transform="scale(0.015625)"/>
      <path id="DejaVuSans-72" d="M 2631 2963 
Q 2534 3019 2420 3045 
Q 2306 3072 2169 3072 
Q 1681 3072 1420 2755 
Q 1159 2438 1159 1844 
L 1159 0 
L 581 0 
L 581 3500 
L 1159 3500 
L 1159 2956 
Q 1341 3275 1631 3429 
Q 1922 3584 2338 3584 
Q 2397 3584 2469 3576 
Q 2541 3569 2628 3553 
L 2631 2963 
z
" transform="scale(0.015625)"/>
      <path id="DejaVuSans-6f" d="M 1959 3097 
Q 1497 3097 1228 2736 
Q 959 2375 959 1747 
Q 959 1119 1226 758 
Q 1494 397 1959 397 
Q 2419 397 2687 759 
Q 2956 1122 2956 1747 
Q 2956 2369 2687 2733 
Q 2419 3097 1959 3097 
z
M 1959 3584 
Q 2709 3584 3137 3096 
Q 3566 2609 3566 1747 
Q 3566 888 3137 398 
Q 2709 -91 1959 -91 
Q 1206 -91 779 398 
Q 353 888 353 1747 
Q 353 2609 779 3096 
Q 1206 3584 1959 3584 
z
" transform="scale(0.015625)"/>
      <path id="DejaVuSans-73" d="M 2834 3397 
L 2834 2853 
Q 2591 2978 2328 3040 
Q 2066 3103 1784 3103 
Q 1356 3103 1142 2972 
Q 928 2841 928 2578 
Q 928 2378 1081 2264 
Q 1234 2150 1697 2047 
L 1894 2003 
Q 2506 1872 2764 1633 
Q 3022 1394 3022 966 
Q 3022 478 2636 193 
Q 2250 -91 1575 -91 
Q 1294 -91 989 -36 
Q 684 19 347 128 
L 347 722 
Q 666 556 975 473 
Q 1284 391 1588 391 
Q 1994 391 2212 530 
Q 2431 669 2431 922 
Q 2431 1156 2273 1281 
Q 2116 1406 1581 1522 
L 1381 1569 
Q 847 1681 609 1914 
Q 372 2147 372 2553 
Q 372 3047 722 3315 
Q 1072 3584 1716 3584 
Q 2034 3584 2315 3537 
Q 2597 3491 2834 3397 
z
" transform="scale(0.015625)"/>
      <path id="DejaVuSans-20" transform="scale(0.015625)"/>
      <path id="DejaVuSans-69" d="M 603 3500 
L 1178 3500 
L 1178 0 
L 603 0 
L 603 3500 
z
M 603 4863 
L 1178 4863 
L 1178 4134 
L 603 4134 
L 603 4863 
z
" transform="scale(0.015625)"/>
      <path id="DejaVuSans-61" d="M 2194 1759 
Q 1497 1759 1228 1600 
Q 959 1441 959 1056 
Q 959 750 1161 570 
Q 1363 391 1709 391 
Q 2188 391 2477 730 
Q 2766 1069 2766 1631 
L 2766 1759 
L 2194 1759 
z
M 3341 1997 
L 3341 0 
L 2766 0 
L 2766 531 
Q 2569 213 2275 61 
Q 1981 -91 1556 -91 
Q 1019 -91 701 211 
Q 384 513 384 1019 
Q 384 1609 779 1909 
Q 1175 2209 1959 2209 
L 2766 2209 
L 2766 2266 
Q 2766 2663 2505 2880 
Q 2244 3097 1772 3097 
Q 1472 3097 1187 3025 
Q 903 2953 641 2809 
L 641 3341 
Q 956 3463 1253 3523 
Q 1550 3584 1831 3584 
Q 2591 3584 2966 3190 
Q 3341 2797 3341 1997 
z
" transform="scale(0.015625)"/>
      <path id="DejaVuSans-65" d="M 3597 1894 
L 3597 1613 
L 953 1613 
Q 991 1019 1311 708 
Q 1631 397 2203 397 
Q 2534 397 2845 478 
Q 3156 559 3463 722 
L 3463 178 
Q 3153 47 2828 -22 
Q 2503 -91 2169 -91 
Q 1331 -91 842 396 
Q 353 884 353 1716 
Q 353 2575 817 3079 
Q 1281 3584 2069 3584 
Q 2775 3584 3186 3129 
Q 3597 2675 3597 1894 
z
M 3022 2063 
Q 3016 2534 2758 2815 
Q 2500 3097 2075 3097 
Q 1594 3097 1305 2825 
Q 1016 2553 972 2059 
L 3022 2063 
z
" transform="scale(0.015625)"/>
     </defs>
     <use xlink:href="#DejaVuSans-67"/>
     <use xlink:href="#DejaVuSans-79" x="63.476562"/>
     <use xlink:href="#DejaVuSans-72" x="122.65625"/>
     <use xlink:href="#DejaVuSans-6f" x="161.519531"/>
     <use xlink:href="#DejaVuSans-73" x="222.701172"/>
     <use xlink:href="#DejaVuSans-20" x="274.800781"/>
     <use xlink:href="#DejaVuSans-62" x="306.587891"/>
     <use xlink:href="#DejaVuSans-69" x="370.064453"/>
     <use xlink:href="#DejaVuSans-61" x="397.847656"/>
     <use xlink:href="#DejaVuSans-73" x="459.126953"/>
     <use xlink:href="#DejaVuSans-20" x="511.226562"/>
     <use xlink:href="#DejaVuSans-65" x="543.013672"/>
     <use xlink:href="#DejaVuSans-72" x="604.537109"/>
     <use xlink:href="#DejaVuSans-72" x="643.900391"/>
     <use xlink:href="#DejaVuSans-6f" x="682.763672"/>
     <use xlink:href="#DejaVuSans-72" x="743.945312"/>
    </g>
   </g>
  </g>
  <g id="axes_2">
   <g id="patch_7">
    <path d="M 57.6 213.662118 
L 414.72 213.662118 
L 414.72 135.393882 
L 57.6 135.393882 
z
" style="fill: #ffffff"/>
   </g>
   <g id="matplotlib.axis_3">
    <g id="xtick_7">
     <g id="line2d_22">
      <path d="M 73.832727 213.662118 
L 73.832727 135.393882 
" clip-path="url(#p4b526c133e)" style="fill: none; stroke: #b0b0b0; stroke-width: 0.8; stroke-linecap: square"/>
     </g>
     <g id="line2d_23">
      <g>
       <use xlink:href="#m2c7407b7ad" x="73.832727" y="213.662118" style="stroke: #000000; stroke-width: 0.8"/>
      </g>
     </g>
     <g id="text_12">
      <!-- 0 -->
      <g transform="translate(70.651477 228.260555) scale(0.1 -0.1)">
       <use xlink:href="#DejaVuSans-30"/>
      </g>
     </g>
    </g>
    <g id="xtick_8">
     <g id="line2d_24">
      <path d="M 132.269169 213.662118 
L 132.269169 135.393882 
" clip-path="url(#p4b526c133e)" style="fill: none; stroke: #b0b0b0; stroke-width: 0.8; stroke-linecap: square"/>
     </g>
     <g id="line2d_25">
      <g>
       <use xlink:href="#m2c7407b7ad" x="132.269169" y="213.662118" style="stroke: #000000; stroke-width: 0.8"/>
      </g>
     </g>
     <g id="text_13">
      <!-- 50 -->
      <g transform="translate(125.906669 228.260555) scale(0.1 -0.1)">
       <use xlink:href="#DejaVuSans-35"/>
       <use xlink:href="#DejaVuSans-30" x="63.623047"/>
      </g>
     </g>
    </g>
    <g id="xtick_9">
     <g id="line2d_26">
      <path d="M 190.70561 213.662118 
L 190.70561 135.393882 
" clip-path="url(#p4b526c133e)" style="fill: none; stroke: #b0b0b0; stroke-width: 0.8; stroke-linecap: square"/>
     </g>
     <g id="line2d_27">
      <g>
       <use xlink:href="#m2c7407b7ad" x="190.70561" y="213.662118" style="stroke: #000000; stroke-width: 0.8"/>
      </g>
     </g>
     <g id="text_14">
      <!-- 100 -->
      <g transform="translate(181.16186 228.260555) scale(0.1 -0.1)">
       <use xlink:href="#DejaVuSans-31"/>
       <use xlink:href="#DejaVuSans-30" x="63.623047"/>
       <use xlink:href="#DejaVuSans-30" x="127.246094"/>
      </g>
     </g>
    </g>
    <g id="xtick_10">
     <g id="line2d_28">
      <path d="M 249.142051 213.662118 
L 249.142051 135.393882 
" clip-path="url(#p4b526c133e)" style="fill: none; stroke: #b0b0b0; stroke-width: 0.8; stroke-linecap: square"/>
     </g>
     <g id="line2d_29">
      <g>
       <use xlink:href="#m2c7407b7ad" x="249.142051" y="213.662118" style="stroke: #000000; stroke-width: 0.8"/>
      </g>
     </g>
     <g id="text_15">
      <!-- 150 -->
      <g transform="translate(239.598301 228.260555) scale(0.1 -0.1)">
       <use xlink:href="#DejaVuSans-31"/>
       <use xlink:href="#DejaVuSans-35" x="63.623047"/>
       <use xlink:href="#DejaVuSans-30" x="127.246094"/>
      </g>
     </g>
    </g>
    <g id="xtick_11">
     <g id="line2d_30">
      <path d="M 307.578492 213.662118 
L 307.578492 135.393882 
" clip-path="url(#p4b526c133e)" style="fill: none; stroke: #b0b0b0; stroke-width: 0.8; stroke-linecap: square"/>
     </g>
     <g id="line2d_31">
      <g>
       <use xlink:href="#m2c7407b7ad" x="307.578492" y="213.662118" style="stroke: #000000; stroke-width: 0.8"/>
      </g>
     </g>
     <g id="text_16">
      <!-- 200 -->
      <g transform="translate(298.034742 228.260555) scale(0.1 -0.1)">
       <use xlink:href="#DejaVuSans-32"/>
       <use xlink:href="#DejaVuSans-30" x="63.623047"/>
       <use xlink:href="#DejaVuSans-30" x="127.246094"/>
      </g>
     </g>
    </g>
    <g id="xtick_12">
     <g id="line2d_32">
      <path d="M 366.014934 213.662118 
L 366.014934 135.393882 
" clip-path="url(#p4b526c133e)" style="fill: none; stroke: #b0b0b0; stroke-width: 0.8; stroke-linecap: square"/>
     </g>
     <g id="line2d_33">
      <g>
       <use xlink:href="#m2c7407b7ad" x="366.014934" y="213.662118" style="stroke: #000000; stroke-width: 0.8"/>
      </g>
     </g>
     <g id="text_17">
      <!-- 250 -->
      <g transform="translate(356.471184 228.260555) scale(0.1 -0.1)">
       <use xlink:href="#DejaVuSans-32"/>
       <use xlink:href="#DejaVuSans-35" x="63.623047"/>
       <use xlink:href="#DejaVuSans-30" x="127.246094"/>
      </g>
     </g>
    </g>
   </g>
   <g id="matplotlib.axis_4">
    <g id="ytick_4">
     <g id="line2d_34">
      <path d="M 57.6 204.149599 
L 414.72 204.149599 
" clip-path="url(#p4b526c133e)" style="fill: none; stroke: #b0b0b0; stroke-width: 0.8; stroke-linecap: square"/>
     </g>
     <g id="line2d_35">
      <g>
       <use xlink:href="#m4fa33c362e" x="57.6" y="204.149599" style="stroke: #000000; stroke-width: 0.8"/>
      </g>
     </g>
     <g id="text_18">
      <!-- −0.00025 -->
      <g transform="translate(0.867188 207.948817) scale(0.1 -0.1)">
       <use xlink:href="#DejaVuSans-2212"/>
       <use xlink:href="#DejaVuSans-30" x="83.789062"/>
       <use xlink:href="#DejaVuSans-2e" x="147.412109"/>
       <use xlink:href="#DejaVuSans-30" x="179.199219"/>
       <use xlink:href="#DejaVuSans-30" x="242.822266"/>
       <use xlink:href="#DejaVuSans-30" x="306.445312"/>
       <use xlink:href="#DejaVuSans-32" x="370.068359"/>
       <use xlink:href="#DejaVuSans-35" x="433.691406"/>
      </g>
     </g>
    </g>
    <g id="ytick_5">
     <g id="line2d_36">
      <path d="M 57.6 174.528 
L 414.72 174.528 
" clip-path="url(#p4b526c133e)" style="fill: none; stroke: #b0b0b0; stroke-width: 0.8; stroke-linecap: square"/>
     </g>
     <g id="line2d_37">
      <g>
       <use xlink:href="#m4fa33c362e" x="57.6" y="174.528" style="stroke: #000000; stroke-width: 0.8"/>
      </g>
     </g>
     <g id="text_19">
      <!-- 0.00000 -->
      <g transform="translate(9.246875 178.327219) scale(0.1 -0.1)">
       <use xlink:href="#DejaVuSans-30"/>
       <use xlink:href="#DejaVuSans-2e" x="63.623047"/>
       <use xlink:href="#DejaVuSans-30" x="95.410156"/>
       <use xlink:href="#DejaVuSans-30" x="159.033203"/>
       <use xlink:href="#DejaVuSans-30" x="222.65625"/>
       <use xlink:href="#DejaVuSans-30" x="286.279297"/>
       <use xlink:href="#DejaVuSans-30" x="349.902344"/>
      </g>
     </g>
    </g>
    <g id="ytick_6">
     <g id="line2d_38">
      <path d="M 57.6 144.906401 
L 414.72 144.906401 
" clip-path="url(#p4b526c133e)" style="fill: none; stroke: #b0b0b0; stroke-width: 0.8; stroke-linecap: square"/>
     </g>
     <g id="line2d_39">
      <g>
       <use xlink:href="#m4fa33c362e" x="57.6" y="144.906401" style="stroke: #000000; stroke-width: 0.8"/>
      </g>
     </g>
     <g id="text_20">
      <!-- 0.00025 -->
      <g transform="translate(9.246875 148.70562) scale(0.1 -0.1)">
       <use xlink:href="#DejaVuSans-30"/>
       <use xlink:href="#DejaVuSans-2e" x="63.623047"/>
       <use xlink:href="#DejaVuSans-30" x="95.410156"/>
       <use xlink:href="#DejaVuSans-30" x="159.033203"/>
       <use xlink:href="#DejaVuSans-30" x="222.65625"/>
       <use xlink:href="#DejaVuSans-32" x="286.279297"/>
       <use xlink:href="#DejaVuSans-35" x="349.902344"/>
      </g>
     </g>
    </g>
    <g id="text_21">
     <!-- bg_y -->
     <g transform="translate(-5.490625 186.335813) rotate(-90) scale(0.1 -0.1)">
      <use xlink:href="#DejaVuSans-62"/>
      <use xlink:href="#DejaVuSans-67" x="63.476562"/>
      <use xlink:href="#DejaVuSans-5f" x="126.953125"/>
      <use xlink:href="#DejaVuSans-79" x="176.953125"/>
     </g>
    </g>
   </g>
   <g id="line2d_40">
    <path d="M 73.832727 174.528 
L 398.487273 174.528 
L 398.487273 174.528 
" clip-path="url(#p4b526c133e)" style="fill: none; stroke: #1f77b4; stroke-width: 1.5; stroke-linecap: square"/>
   </g>
   <g id="line2d_41">
    <path d="M 73.832727 138.980382 
L 140.32475 138.99038 
L 141.129693 138.991518 
L 210.565113 138.996996 
L 211.191966 138.998445 
L 279.578752 139.005404 
L 280.843007 139.006319 
L 295.764945 139.094061 
L 295.953579 139.097299 
L 302.252302 139.198368 
L 302.412867 139.201594 
L 307.68635 139.303703 
L 307.841005 139.307272 
L 312.828718 139.409986 
L 312.976292 139.413763 
L 318.08815 139.516322 
L 318.247547 139.519772 
L 323.580805 139.621969 
L 323.736687 139.625429 
L 328.607158 139.728757 
L 328.751325 139.732982 
L 332.638795 139.836345 
L 332.772364 139.841765 
L 335.91121 139.946711 
L 336.038973 139.953334 
L 338.657612 140.058096 
L 338.780636 140.065913 
L 341.112222 140.172877 
L 341.23402 140.181681 
L 343.332504 140.288322 
L 343.451959 140.297978 
L 345.378158 140.403634 
L 345.497666 140.413991 
L 347.306702 140.519836 
L 347.426268 140.530816 
L 349.176664 140.638503 
L 349.295001 140.650037 
L 350.929462 140.754894 
L 351.048971 140.766916 
L 352.623732 140.871841 
L 352.742015 140.884251 
L 354.319067 140.992223 
L 354.437404 141.004986 
L 355.954702 141.112484 
L 356.070696 141.121266 
L 357.474397 141.227966 
L 357.590338 141.236916 
L 358.993987 141.345556 
L 359.111152 141.359338 
L 360.512459 141.465047 
L 360.628453 141.474263 
L 361.973573 141.58045 
L 362.089514 141.589892 
L 363.375999 141.695639 
L 363.491993 141.705587 
L 364.719894 141.811023 
L 364.83589 141.821152 
L 366.064963 141.928032 
L 366.18213 141.943349 
L 367.467444 142.050376 
L 367.58461 142.065905 
L 368.811342 142.169868 
L 368.928508 142.18531 
L 370.213822 142.292594 
L 370.330995 142.308153 
L 371.616357 142.415213 
L 371.731125 142.425313 
L 372.9602 142.53092 
L 373.076206 142.540905 
L 374.362681 142.648058 
L 374.478675 142.657506 
L 375.823744 142.764789 
L 375.940911 142.778554 
L 377.400803 142.883886 
L 377.519142 142.896631 
L 379.096202 143.002426 
L 379.21571 143.014142 
L 380.96623 143.119602 
L 381.085686 143.130036 
L 383.127951 143.236938 
L 383.249777 143.245596 
L 385.69853 143.351999 
L 385.825069 143.359119 
L 388.854997 143.463621 
L 388.988567 143.469115 
L 392.886701 143.572348 
L 393.033162 143.576511 
L 398.263485 143.678149 
L 398.426347 143.681236 
L 398.487273 143.682248 
L 398.487273 143.682248 
" clip-path="url(#p4b526c133e)" style="fill: none; stroke: #ff0000; stroke-width: 0.5; stroke-linecap: square"/>
   </g>
   <g id="line2d_42">
    <path d="M 73.832727 210.075618 
L 140.32475 210.06562 
L 141.129693 210.064482 
L 210.565113 210.059004 
L 211.191966 210.057555 
L 279.578752 210.050596 
L 280.843007 210.049681 
L 295.764945 209.961939 
L 295.953579 209.958701 
L 302.252302 209.857632 
L 302.412867 209.854406 
L 307.68635 209.752297 
L 307.841005 209.748728 
L 312.828718 209.646014 
L 312.976292 209.642237 
L 318.08815 209.539678 
L 318.247547 209.536228 
L 323.580805 209.434031 
L 323.736687 209.430571 
L 328.607158 209.327243 
L 328.751325 209.323018 
L 332.638795 209.219655 
L 332.772364 209.214235 
L 335.91121 209.109289 
L 336.038973 209.102666 
L 338.657612 208.997904 
L 338.780636 208.990087 
L 341.112222 208.883123 
L 341.23402 208.874319 
L 343.332504 208.767678 
L 343.451959 208.758022 
L 345.378158 208.652366 
L 345.497666 208.642009 
L 347.306702 208.536164 
L 347.426268 208.525184 
L 349.176664 208.417497 
L 349.295001 208.405963 
L 350.929462 208.301106 
L 351.048971 208.289084 
L 352.623732 208.184159 
L 352.742015 208.171749 
L 354.319067 208.063777 
L 354.437404 208.051014 
L 355.954702 207.943516 
L 356.070696 207.934734 
L 357.474397 207.828034 
L 357.590338 207.819084 
L 358.993987 207.710444 
L 359.111152 207.696662 
L 360.512459 207.590953 
L 360.628453 207.581737 
L 361.973573 207.47555 
L 362.089514 207.466108 
L 363.375999 207.360361 
L 363.491993 207.350413 
L 364.719894 207.244977 
L 364.83589 207.234848 
L 366.064963 207.127968 
L 366.18213 207.112651 
L 367.467444 207.005624 
L 367.58461 206.990095 
L 368.811342 206.886132 
L 368.928508 206.87069 
L 370.213822 206.763406 
L 370.330995 206.747847 
L 371.616357 206.640787 
L 371.731125 206.630687 
L 372.9602 206.52508 
L 373.076206 206.515095 
L 374.362681 206.407942 
L 374.478675 206.398494 
L 375.823744 206.291211 
L 375.940911 206.277446 
L 377.400803 206.172114 
L 377.519142 206.159369 
L 379.096202 206.053574 
L 379.21571 206.041858 
L 380.96623 205.936398 
L 381.085686 205.925964 
L 383.127951 205.819062 
L 383.249777 205.810404 
L 385.69853 205.704001 
L 385.825069 205.696881 
L 388.854997 205.592379 
L 388.988567 205.586885 
L 392.886701 205.483652 
L 393.033162 205.479489 
L 398.263485 205.377851 
L 398.426347 205.374764 
L 398.487273 205.373752 
L 398.487273 205.373752 
" clip-path="url(#p4b526c133e)" style="fill: none; stroke: #ff0000; stroke-width: 0.5; stroke-linecap: square"/>
   </g>
   <g id="patch_8">
    <path d="M 57.6 213.662118 
L 57.6 135.393882 
" style="fill: none; stroke: #000000; stroke-width: 0.8; stroke-linejoin: miter; stroke-linecap: square"/>
   </g>
   <g id="patch_9">
    <path d="M 414.72 213.662118 
L 414.72 135.393882 
" style="fill: none; stroke: #000000; stroke-width: 0.8; stroke-linejoin: miter; stroke-linecap: square"/>
   </g>
   <g id="patch_10">
    <path d="M 57.6 213.662118 
L 414.72 213.662118 
" style="fill: none; stroke: #000000; stroke-width: 0.8; stroke-linejoin: miter; stroke-linecap: square"/>
   </g>
   <g id="patch_11">
    <path d="M 57.6 135.393882 
L 414.72 135.393882 
" style="fill: none; stroke: #000000; stroke-width: 0.8; stroke-linejoin: miter; stroke-linecap: square"/>
   </g>
   <g id="text_22">
    <!-- gyros bias error -->
    <g transform="translate(189.05625 129.393882) scale(0.12 -0.12)">
     <use xlink:href="#DejaVuSans-67"/>
     <use xlink:href="#DejaVuSans-79" x="63.476562"/>
     <use xlink:href="#DejaVuSans-72" x="122.65625"/>
     <use xlink:href="#DejaVuSans-6f" x="161.519531"/>
     <use xlink:href="#DejaVuSans-73" x="222.701172"/>
     <use xlink:href="#DejaVuSans-20" x="274.800781"/>
     <use xlink:href="#DejaVuSans-62" x="306.587891"/>
     <use xlink:href="#DejaVuSans-69" x="370.064453"/>
     <use xlink:href="#DejaVuSans-61" x="397.847656"/>
     <use xlink:href="#DejaVuSans-73" x="459.126953"/>
     <use xlink:href="#DejaVuSans-20" x="511.226562"/>
     <use xlink:href="#DejaVuSans-65" x="543.013672"/>
     <use xlink:href="#DejaVuSans-72" x="604.537109"/>
     <use xlink:href="#DejaVuSans-72" x="643.900391"/>
     <use xlink:href="#DejaVuSans-6f" x="682.763672"/>
     <use xlink:href="#DejaVuSans-72" x="743.945312"/>
    </g>
   </g>
  </g>
  <g id="axes_3">
   <g id="patch_12">
    <path d="M 57.6 307.584 
L 414.72 307.584 
L 414.72 229.315765 
L 57.6 229.315765 
z
" style="fill: #ffffff"/>
   </g>
   <g id="matplotlib.axis_5">
    <g id="xtick_13">
     <g id="line2d_43">
      <path d="M 73.832727 307.584 
L 73.832727 229.315765 
" clip-path="url(#p1b70a68105)" style="fill: none; stroke: #b0b0b0; stroke-width: 0.8; stroke-linecap: square"/>
     </g>
     <g id="line2d_44">
      <g>
       <use xlink:href="#m2c7407b7ad" x="73.832727" y="307.584" style="stroke: #000000; stroke-width: 0.8"/>
      </g>
     </g>
     <g id="text_23">
      <!-- 0 -->
      <g transform="translate(70.651477 322.182437) scale(0.1 -0.1)">
       <use xlink:href="#DejaVuSans-30"/>
      </g>
     </g>
    </g>
    <g id="xtick_14">
     <g id="line2d_45">
      <path d="M 132.269169 307.584 
L 132.269169 229.315765 
" clip-path="url(#p1b70a68105)" style="fill: none; stroke: #b0b0b0; stroke-width: 0.8; stroke-linecap: square"/>
     </g>
     <g id="line2d_46">
      <g>
       <use xlink:href="#m2c7407b7ad" x="132.269169" y="307.584" style="stroke: #000000; stroke-width: 0.8"/>
      </g>
     </g>
     <g id="text_24">
      <!-- 50 -->
      <g transform="translate(125.906669 322.182437) scale(0.1 -0.1)">
       <use xlink:href="#DejaVuSans-35"/>
       <use xlink:href="#DejaVuSans-30" x="63.623047"/>
      </g>
     </g>
    </g>
    <g id="xtick_15">
     <g id="line2d_47">
      <path d="M 190.70561 307.584 
L 190.70561 229.315765 
" clip-path="url(#p1b70a68105)" style="fill: none; stroke: #b0b0b0; stroke-width: 0.8; stroke-linecap: square"/>
     </g>
     <g id="line2d_48">
      <g>
       <use xlink:href="#m2c7407b7ad" x="190.70561" y="307.584" style="stroke: #000000; stroke-width: 0.8"/>
      </g>
     </g>
     <g id="text_25">
      <!-- 100 -->
      <g transform="translate(181.16186 322.182437) scale(0.1 -0.1)">
       <use xlink:href="#DejaVuSans-31"/>
       <use xlink:href="#DejaVuSans-30" x="63.623047"/>
       <use xlink:href="#DejaVuSans-30" x="127.246094"/>
      </g>
     </g>
    </g>
    <g id="xtick_16">
     <g id="line2d_49">
      <path d="M 249.142051 307.584 
L 249.142051 229.315765 
" clip-path="url(#p1b70a68105)" style="fill: none; stroke: #b0b0b0; stroke-width: 0.8; stroke-linecap: square"/>
     </g>
     <g id="line2d_50">
      <g>
       <use xlink:href="#m2c7407b7ad" x="249.142051" y="307.584" style="stroke: #000000; stroke-width: 0.8"/>
      </g>
     </g>
     <g id="text_26">
      <!-- 150 -->
      <g transform="translate(239.598301 322.182437) scale(0.1 -0.1)">
       <use xlink:href="#DejaVuSans-31"/>
       <use xlink:href="#DejaVuSans-35" x="63.623047"/>
       <use xlink:href="#DejaVuSans-30" x="127.246094"/>
      </g>
     </g>
    </g>
    <g id="xtick_17">
     <g id="line2d_51">
      <path d="M 307.578492 307.584 
L 307.578492 229.315765 
" clip-path="url(#p1b70a68105)" style="fill: none; stroke: #b0b0b0; stroke-width: 0.8; stroke-linecap: square"/>
     </g>
     <g id="line2d_52">
      <g>
       <use xlink:href="#m2c7407b7ad" x="307.578492" y="307.584" style="stroke: #000000; stroke-width: 0.8"/>
      </g>
     </g>
     <g id="text_27">
      <!-- 200 -->
      <g transform="translate(298.034742 322.182437) scale(0.1 -0.1)">
       <use xlink:href="#DejaVuSans-32"/>
       <use xlink:href="#DejaVuSans-30" x="63.623047"/>
       <use xlink:href="#DejaVuSans-30" x="127.246094"/>
      </g>
     </g>
    </g>
    <g id="xtick_18">
     <g id="line2d_53">
      <path d="M 366.014934 307.584 
L 366.014934 229.315765 
" clip-path="url(#p1b70a68105)" style="fill: none; stroke: #b0b0b0; stroke-width: 0.8; stroke-linecap: square"/>
     </g>
     <g id="line2d_54">
      <g>
       <use xlink:href="#m2c7407b7ad" x="366.014934" y="307.584" style="stroke: #000000; stroke-width: 0.8"/>
      </g>
     </g>
     <g id="text_28">
      <!-- 250 -->
      <g transform="translate(356.471184 322.182437) scale(0.1 -0.1)">
       <use xlink:href="#DejaVuSans-32"/>
       <use xlink:href="#DejaVuSans-35" x="63.623047"/>
       <use xlink:href="#DejaVuSans-30" x="127.246094"/>
      </g>
     </g>
    </g>
    <g id="text_29">
     <!-- t (s) -->
     <g transform="translate(226.104531 335.860562) scale(0.1 -0.1)">
      <defs>
       <path id="DejaVuSans-74" d="M 1172 4494 
L 1172 3500 
L 2356 3500 
L 2356 3053 
L 1172 3053 
L 1172 1153 
Q 1172 725 1289 603 
Q 1406 481 1766 481 
L 2356 481 
L 2356 0 
L 1766 0 
Q 1100 0 847 248 
Q 594 497 594 1153 
L 594 3053 
L 172 3053 
L 172 3500 
L 594 3500 
L 594 4494 
L 1172 4494 
z
" transform="scale(0.015625)"/>
       <path id="DejaVuSans-28" d="M 1984 4856 
Q 1566 4138 1362 3434 
Q 1159 2731 1159 2009 
Q 1159 1288 1364 580 
Q 1569 -128 1984 -844 
L 1484 -844 
Q 1016 -109 783 600 
Q 550 1309 550 2009 
Q 550 2706 781 3412 
Q 1013 4119 1484 4856 
L 1984 4856 
z
" transform="scale(0.015625)"/>
       <path id="DejaVuSans-29" d="M 513 4856 
L 1013 4856 
Q 1481 4119 1714 3412 
Q 1947 2706 1947 2009 
Q 1947 1309 1714 600 
Q 1481 -109 1013 -844 
L 513 -844 
Q 928 -128 1133 580 
Q 1338 1288 1338 2009 
Q 1338 2731 1133 3434 
Q 928 4138 513 4856 
z
" transform="scale(0.015625)"/>
      </defs>
      <use xlink:href="#DejaVuSans-74"/>
      <use xlink:href="#DejaVuSans-20" x="39.208984"/>
      <use xlink:href="#DejaVuSans-28" x="70.996094"/>
      <use xlink:href="#DejaVuSans-73" x="110.009766"/>
      <use xlink:href="#DejaVuSans-29" x="162.109375"/>
     </g>
    </g>
   </g>
   <g id="matplotlib.axis_6">
    <g id="ytick_7">
     <g id="line2d_55">
      <path d="M 57.6 298.088647 
L 414.72 298.088647 
" clip-path="url(#p1b70a68105)" style="fill: none; stroke: #b0b0b0; stroke-width: 0.8; stroke-linecap: square"/>
     </g>
     <g id="line2d_56">
      <g>
       <use xlink:href="#m4fa33c362e" x="57.6" y="298.088647" style="stroke: #000000; stroke-width: 0.8"/>
      </g>
     </g>
     <g id="text_30">
      <!-- −0.00025 -->
      <g transform="translate(0.867188 301.887866) scale(0.1 -0.1)">
       <use xlink:href="#DejaVuSans-2212"/>
       <use xlink:href="#DejaVuSans-30" x="83.789062"/>
       <use xlink:href="#DejaVuSans-2e" x="147.412109"/>
       <use xlink:href="#DejaVuSans-30" x="179.199219"/>
       <use xlink:href="#DejaVuSans-30" x="242.822266"/>
       <use xlink:href="#DejaVuSans-30" x="306.445312"/>
       <use xlink:href="#DejaVuSans-32" x="370.068359"/>
       <use xlink:href="#DejaVuSans-35" x="433.691406"/>
      </g>
     </g>
    </g>
    <g id="ytick_8">
     <g id="line2d_57">
      <path d="M 57.6 268.449882 
L 414.72 268.449882 
" clip-path="url(#p1b70a68105)" style="fill: none; stroke: #b0b0b0; stroke-width: 0.8; stroke-linecap: square"/>
     </g>
     <g id="line2d_58">
      <g>
       <use xlink:href="#m4fa33c362e" x="57.6" y="268.449882" style="stroke: #000000; stroke-width: 0.8"/>
      </g>
     </g>
     <g id="text_31">
      <!-- 0.00000 -->
      <g transform="translate(9.246875 272.249101) scale(0.1 -0.1)">
       <use xlink:href="#DejaVuSans-30"/>
       <use xlink:href="#DejaVuSans-2e" x="63.623047"/>
       <use xlink:href="#DejaVuSans-30" x="95.410156"/>
       <use xlink:href="#DejaVuSans-30" x="159.033203"/>
       <use xlink:href="#DejaVuSans-30" x="222.65625"/>
       <use xlink:href="#DejaVuSans-30" x="286.279297"/>
       <use xlink:href="#DejaVuSans-30" x="349.902344"/>
      </g>
     </g>
    </g>
    <g id="ytick_9">
     <g id="line2d_59">
      <path d="M 57.6 238.811117 
L 414.72 238.811117 
" clip-path="url(#p1b70a68105)" style="fill: none; stroke: #b0b0b0; stroke-width: 0.8; stroke-linecap: square"/>
     </g>
     <g id="line2d_60">
      <g>
       <use xlink:href="#m4fa33c362e" x="57.6" y="238.811117" style="stroke: #000000; stroke-width: 0.8"/>
      </g>
     </g>
     <g id="text_32">
      <!-- 0.00025 -->
      <g transform="translate(9.246875 242.610336) scale(0.1 -0.1)">
       <use xlink:href="#DejaVuSans-30"/>
       <use xlink:href="#DejaVuSans-2e" x="63.623047"/>
       <use xlink:href="#DejaVuSans-30" x="95.410156"/>
       <use xlink:href="#DejaVuSans-30" x="159.033203"/>
       <use xlink:href="#DejaVuSans-30" x="222.65625"/>
       <use xlink:href="#DejaVuSans-32" x="286.279297"/>
       <use xlink:href="#DejaVuSans-35" x="349.902344"/>
      </g>
     </g>
    </g>
    <g id="text_33">
     <!-- bg_z -->
     <g transform="translate(-5.490625 279.922539) rotate(-90) scale(0.1 -0.1)">
      <defs>
       <path id="DejaVuSans-7a" d="M 353 3500 
L 3084 3500 
L 3084 2975 
L 922 459 
L 3084 459 
L 3084 0 
L 275 0 
L 275 525 
L 2438 3041 
L 353 3041 
L 353 3500 
z
" transform="scale(0.015625)"/>
      </defs>
      <use xlink:href="#DejaVuSans-62"/>
      <use xlink:href="#DejaVuSans-67" x="63.476562"/>
      <use xlink:href="#DejaVuSans-5f" x="126.953125"/>
      <use xlink:href="#DejaVuSans-7a" x="176.953125"/>
     </g>
    </g>
   </g>
   <g id="line2d_61">
    <path d="M 73.832727 268.449882 
L 398.487273 268.449882 
L 398.487273 268.449882 
" clip-path="url(#p1b70a68105)" style="fill: none; stroke: #1f77b4; stroke-width: 1.5; stroke-linecap: square"/>
   </g>
   <g id="line2d_62">
    <path d="M 73.832727 232.881664 
L 103.158954 232.947373 
L 103.310101 232.951385 
L 106.664645 233.056631 
L 106.790018 233.064121 
L 108.943577 233.168855 
L 109.06309 233.179132 
L 110.813591 233.286182 
L 110.931934 233.298456 
L 112.391852 233.403512 
L 112.507849 233.412942 
L 113.735775 233.516921 
L 113.850601 233.527561 
L 114.96253 233.632848 
L 115.077358 233.64454 
L 116.073288 233.748907 
L 116.188113 233.761898 
L 117.125461 233.870404 
L 117.240286 233.884575 
L 118.060465 233.987807 
L 118.174119 234.003271 
L 118.936939 234.105755 
L 119.050538 234.121957 
L 119.81332 234.230553 
L 119.927012 234.247967 
L 120.63114 234.354064 
L 120.744793 234.372027 
L 121.391617 234.474351 
L 121.505216 234.493482 
L 122.150813 234.599425 
L 122.26452 234.618977 
L 122.851483 234.719204 
L 122.965132 234.73945 
L 123.553371 234.843412 
L 123.66697 234.864869 
L 124.253983 234.973719 
L 124.36769 234.995777 
L 124.897237 235.098259 
L 125.01089 235.121246 
L 125.54049 235.228449 
L 125.654146 235.252079 
L 126.123988 235.350631 
L 126.237641 235.37561 
L 126.708674 235.477375 
L 126.822365 235.503273 
L 127.293327 235.606042 
L 127.40698 235.632428 
L 127.877996 235.738562 
L 127.991649 235.765488 
L 128.461493 235.874352 
L 128.575146 235.901454 
L 129.046162 236.011629 
L 129.159868 236.039208 
L 129.572246 236.13667 
L 129.685899 236.164976 
L 130.098331 236.264696 
L 130.211984 236.293335 
L 130.624469 236.394635 
L 130.738068 236.423656 
L 131.149329 236.525655 
L 131.263036 236.554899 
L 131.675412 236.657427 
L 131.789065 236.686637 
L 132.201497 236.789332 
L 132.31515 236.818789 
L 132.727635 236.921599 
L 132.841233 236.950809 
L 133.253665 237.054772 
L 133.36732 237.084779 
L 133.779749 237.189548 
L 133.893456 237.219834 
L 134.305834 237.327425 
L 134.419487 237.358606 
L 134.773334 237.453213 
L 134.886987 237.484901 
L 135.240888 237.579865 
L 135.354486 237.611731 
L 135.708334 237.706962 
L 135.821987 237.738635 
L 136.234421 237.848149 
L 136.348145 237.878737 
L 136.759331 237.986267 
L 136.872984 238.016789 
L 137.28547 238.122697 
L 137.399068 238.153027 
L 137.811499 238.257282 
L 137.925152 238.286307 
L 138.337583 238.386668 
L 138.451289 238.414964 
L 138.922251 238.523419 
L 139.035904 238.549634 
L 139.506918 238.650928 
L 139.620571 238.675813 
L 140.148998 238.783545 
L 140.262651 238.806755 
L 140.79225 238.906607 
L 140.905957 238.928072 
L 141.492913 239.033118 
L 141.606566 239.053603 
L 142.253386 239.162179 
L 142.366986 239.18133 
L 143.071163 239.29077 
L 143.18487 239.308034 
L 143.947578 239.412288 
L 144.061233 239.42769 
L 144.94116 239.535336 
L 145.055984 239.548672 
L 146.050738 239.65689 
L 146.165562 239.668679 
L 147.278655 239.77497 
L 147.394651 239.785536 
L 148.62257 239.891753 
L 148.738617 239.901528 
L 149.966479 240.008711 
L 150.081303 240.019382 
L 151.193278 240.125786 
L 151.308047 240.137221 
L 152.42114 240.243839 
L 152.535964 240.254436 
L 153.706471 240.359219 
L 153.822463 240.369205 
L 155.108965 240.475957 
L 155.224959 240.485161 
L 156.570041 240.591684 
L 156.686036 240.601021 
L 158.031124 240.709291 
L 158.148285 240.723405 
L 159.492195 240.82972 
L 159.609362 240.844613 
L 160.893515 240.949761 
L 161.009511 240.959875 
L 162.180015 241.064508 
L 162.294888 241.076003 
L 163.231 241.181615 
L 163.345823 241.196495 
L 164.108581 241.303691 
L 164.222288 241.321343 
L 164.867825 241.422683 
L 164.981477 241.44158 
L 165.627068 241.544514 
L 165.740719 241.563257 
L 166.387482 241.667908 
L 166.501189 241.687418 
L 167.088145 241.789164 
L 167.201793 241.809842 
L 167.790026 241.917456 
L 167.903624 241.93959 
L 168.432048 242.042426 
L 168.545754 242.065794 
L 169.075294 242.172559 
L 169.188946 242.196619 
L 169.718542 242.306227 
L 169.832194 242.33113 
L 170.302033 242.430239 
L 170.415686 242.455533 
L 170.886697 242.555378 
L 171.000404 242.580339 
L 171.47136 242.681409 
L 171.585012 242.706286 
L 172.056024 242.806321 
L 172.169678 242.830975 
L 172.639571 242.929187 
L 172.753167 242.953569 
L 173.282761 243.060496 
L 173.396467 243.083751 
L 173.926008 243.183751 
L 174.039659 243.205355 
L 174.685304 243.314753 
L 174.798901 243.333348 
L 175.561681 243.441696 
L 175.675363 243.456574 
L 176.613816 243.561071 
L 176.728639 243.572576 
L 178.074886 243.679546 
L 178.194451 243.690467 
L 182.398343 243.791969 
L 182.683058 243.793737 
L 191.632248 243.883944 
L 191.769333 243.889128 
L 194.378632 243.99213 
L 194.500483 244.001271 
L 196.307187 244.107558 
L 196.425578 244.120074 
L 197.825714 244.224415 
L 197.940483 244.234564 
L 199.05356 244.337626 
L 199.168383 244.349505 
L 200.163177 244.456658 
L 200.277945 244.469986 
L 201.15669 244.576478 
L 201.270395 244.591522 
L 202.033091 244.692912 
L 202.146743 244.709408 
L 202.909493 244.81868 
L 203.023143 244.835971 
L 203.728483 244.94242 
L 203.842187 244.960468 
L 204.487717 245.062999 
L 204.601368 245.082048 
L 205.246953 245.191013 
L 205.360603 245.21128 
L 205.948779 245.31683 
L 206.062481 245.33841 
L 206.590845 245.439162 
L 206.704495 245.462462 
L 207.234139 245.570334 
L 207.347736 245.594704 
L 207.818743 245.694029 
L 207.932393 245.72004 
L 208.403399 245.825214 
L 208.517105 245.852129 
L 208.986886 245.960302 
L 209.100537 245.987034 
L 209.571597 246.095565 
L 209.685194 246.122943 
L 210.1562 246.231172 
L 210.269858 246.258302 
L 210.740858 246.365799 
L 210.854564 246.392244 
L 211.324345 246.497867 
L 211.437995 246.524081 
L 211.909056 246.626914 
L 212.022653 246.6529 
L 212.493659 246.756028 
L 212.60731 246.782112 
L 213.078317 246.886293 
L 213.192021 246.91237 
L 213.661802 247.018278 
L 213.775453 247.044687 
L 214.246514 247.151381 
L 214.360111 247.178352 
L 214.831117 247.285464 
L 214.944769 247.312751 
L 215.415775 247.421353 
L 215.529479 247.448106 
L 215.99926 247.556843 
L 216.112911 247.583648 
L 216.58392 247.690935 
L 216.697567 247.718113 
L 217.168574 247.825052 
L 217.282225 247.851732 
L 217.753231 247.958831 
L 217.866937 247.985083 
L 218.336717 248.091895 
L 218.450371 248.118618 
L 218.921428 248.225501 
L 219.035025 248.252475 
L 219.506031 248.359365 
L 219.619682 248.386129 
L 220.090689 248.493993 
L 220.204393 248.520487 
L 220.674174 248.627 
L 220.787827 248.65338 
L 221.258886 248.758014 
L 221.372483 248.783939 
L 221.843489 248.887259 
L 221.957139 248.912448 
L 222.428146 249.011563 
L 222.541851 249.035507 
L 223.070218 249.14048 
L 223.183865 249.162987 
L 223.713508 249.262215 
L 223.827105 249.283938 
L 224.414105 249.390179 
L 224.52781 249.411168 
L 225.115927 249.513798 
L 225.229578 249.534004 
L 225.816631 249.634028 
L 225.930227 249.653574 
L 226.576982 249.761726 
L 226.690631 249.781009 
L 227.336214 249.88647 
L 227.449863 249.90505 
L 228.095499 250.007869 
L 228.209095 250.02615 
L 228.914431 250.134824 
L 229.028082 250.152379 
L 229.732244 250.257344 
L 229.845895 250.274504 
L 230.550112 250.375733 
L 230.663709 250.392357 
L 231.426457 250.500962 
L 231.540158 250.517578 
L 232.304021 250.625152 
L 232.41767 250.641996 
L 233.180469 250.750316 
L 233.294068 250.767179 
L 234.05681 250.875731 
L 234.170514 250.892559 
L 234.874622 250.993578 
L 234.988273 251.010497 
L 235.692434 251.112282 
L 235.806084 251.129387 
L 236.511417 251.232672 
L 236.625122 251.250038 
L 237.32923 251.354424 
L 237.442879 251.371785 
L 238.147042 251.476118 
L 238.260691 251.493264 
L 238.964854 251.595963 
L 239.078503 251.61279 
L 239.841301 251.720652 
L 239.954897 251.736828 
L 240.718813 251.841537 
L 240.832464 251.857412 
L 241.595208 251.958168 
L 241.708857 251.973655 
L 242.530238 252.080463 
L 242.643833 252.095592 
L 243.465162 252.200498 
L 243.578863 252.215293 
L 244.400136 252.317616 
L 244.514958 252.331761 
L 245.393752 252.435777 
L 245.508516 252.449325 
L 246.444663 252.554449 
L 246.559485 252.567167 
L 247.555386 252.67323 
L 247.670208 252.685531 
L 248.66611 252.78763 
L 248.781003 252.799244 
L 249.834242 252.901152 
L 249.950235 252.912166 
L 251.06213 253.014836 
L 251.177005 253.02534 
L 252.347428 253.130012 
L 252.463421 253.140217 
L 253.749892 253.246022 
L 253.865936 253.254918 
L 255.326924 253.358395 
L 255.445262 253.369833 
L 257.314037 253.473393 
L 257.435887 253.482375 
L 259.827217 253.584473 
L 259.952647 253.591408 
L 263.041035 253.690977 
L 263.176945 253.695695 
L 271.046866 253.777726 
L 271.448739 253.778708 
L 290.272308 253.820114 
L 290.677694 253.821007 
L 303.128684 253.885433 
L 303.306772 253.888671 
L 308.44557 253.979859 
L 308.588509 253.984126 
L 311.952279 254.080731 
L 312.081159 254.08689 
L 314.581434 254.185945 
L 314.703338 254.194426 
L 316.685697 254.296978 
L 316.805204 254.307598 
L 318.497051 254.411307 
L 318.615386 254.423201 
L 320.133903 254.525672 
L 320.251052 254.538677 
L 321.710863 254.643472 
L 321.82691 254.652404 
L 323.1719 254.756328 
L 323.287893 254.765463 
L 324.632994 254.870585 
L 324.748933 254.879723 
L 326.093979 254.984203 
L 326.209997 254.993216 
L 327.55502 255.095601 
L 327.673411 255.108927 
L 329.13211 255.211767 
L 329.248049 255.220162 
L 330.710267 255.322504 
L 330.828599 255.33466 
L 332.463048 255.43829 
L 332.581384 255.449675 
L 334.332999 255.553054 
L 334.452509 255.563572 
L 336.32017 255.665004 
L 336.439624 255.674627 
L 338.482982 255.775681 
L 338.604837 255.784408 
L 340.820427 255.883589 
L 340.943453 255.89145 
L 343.391117 255.99003 
L 343.51411 255.997097 
L 346.254555 256.095807 
L 346.383438 256.102104 
L 349.409824 256.199835 
L 349.539878 256.205486 
L 352.799481 256.301061 
L 352.930652 256.306286 
L 356.480777 256.40153 
L 356.61669 256.406288 
L 360.337881 256.499592 
L 360.477308 256.504083 
L 364.603954 256.595438 
L 364.749189 256.598964 
L 370.096656 256.685171 
L 370.268945 256.687432 
L 386.633519 256.723131 
L 387.301368 256.722542 
L 398.487273 256.749924 
L 398.487273 256.749924 
" clip-path="url(#p1b70a68105)" style="fill: none; stroke: #ff0000; stroke-width: 0.5; stroke-linecap: square"/>
   </g>
   <g id="line2d_63">
    <path d="M 73.832727 304.018101 
L 103.158954 303.952392 
L 103.310101 303.94838 
L 106.664645 303.843134 
L 106.790018 303.835644 
L 108.943577 303.73091 
L 109.06309 303.720633 
L 110.813591 303.613583 
L 110.931934 303.601309 
L 112.391852 303.496253 
L 112.507849 303.486822 
L 113.735775 303.382843 
L 113.850601 303.372204 
L 114.96253 303.266917 
L 115.077358 303.255225 
L 116.073288 303.150858 
L 116.188113 303.137867 
L 117.125461 303.02936 
L 117.240286 303.015189 
L 118.060465 302.911958 
L 118.174119 302.896494 
L 118.936939 302.79401 
L 119.050538 302.777808 
L 119.81332 302.669212 
L 119.927012 302.651797 
L 120.63114 302.545701 
L 120.744793 302.527737 
L 121.391617 302.425414 
L 121.505216 302.406282 
L 122.150813 302.30034 
L 122.26452 302.280788 
L 122.851483 302.180561 
L 122.965132 302.160315 
L 123.553371 302.056353 
L 123.66697 302.034896 
L 124.253983 301.926046 
L 124.36769 301.903988 
L 124.897237 301.801506 
L 125.01089 301.778518 
L 125.54049 301.671316 
L 125.654146 301.647686 
L 126.123988 301.549134 
L 126.237641 301.524155 
L 126.708674 301.42239 
L 126.822365 301.396492 
L 127.293327 301.293723 
L 127.40698 301.267337 
L 127.877996 301.161202 
L 127.991649 301.134277 
L 128.461493 301.025413 
L 128.575146 300.998311 
L 129.046162 300.888136 
L 129.159868 300.860557 
L 129.572246 300.763094 
L 129.685899 300.734788 
L 130.098331 300.635069 
L 130.211984 300.606429 
L 130.624469 300.505129 
L 130.738068 300.476109 
L 131.149329 300.37411 
L 131.263036 300.344865 
L 131.675412 300.242338 
L 131.789065 300.213128 
L 132.201497 300.110433 
L 132.31515 300.080976 
L 132.727635 299.978166 
L 132.841233 299.948956 
L 133.253665 299.844993 
L 133.36732 299.814985 
L 133.779749 299.710216 
L 133.893456 299.67993 
L 134.305834 299.57234 
L 134.419487 299.541159 
L 134.773334 299.446552 
L 134.886987 299.414864 
L 135.240888 299.319899 
L 135.354486 299.288033 
L 135.708334 299.192802 
L 135.821987 299.16113 
L 136.234421 299.051616 
L 136.348145 299.021027 
L 136.759331 298.913498 
L 136.872984 298.882976 
L 137.28547 298.777068 
L 137.399068 298.746737 
L 137.811499 298.642483 
L 137.925152 298.613457 
L 138.337583 298.513097 
L 138.451289 298.484801 
L 138.922251 298.376345 
L 139.035904 298.350131 
L 139.506918 298.248836 
L 139.620571 298.223951 
L 140.148998 298.11622 
L 140.262651 298.09301 
L 140.79225 297.993158 
L 140.905957 297.971693 
L 141.492913 297.866647 
L 141.606566 297.846162 
L 142.253386 297.737586 
L 142.366986 297.718435 
L 143.071163 297.608995 
L 143.18487 297.591731 
L 143.947578 297.487477 
L 144.061233 297.472075 
L 144.94116 297.364428 
L 145.055984 297.351093 
L 146.050738 297.242875 
L 146.165562 297.231086 
L 147.278655 297.124795 
L 147.394651 297.114228 
L 148.62257 297.008012 
L 148.738617 296.998237 
L 149.966479 296.891054 
L 150.081303 296.880382 
L 151.193278 296.773979 
L 151.308047 296.762543 
L 152.42114 296.655926 
L 152.535964 296.645329 
L 153.706471 296.540545 
L 153.822463 296.53056 
L 155.108965 296.423807 
L 155.224959 296.414604 
L 156.570041 296.308081 
L 156.686036 296.298744 
L 158.031124 296.190474 
L 158.148285 296.17636 
L 159.492195 296.070044 
L 159.609362 296.055151 
L 160.893515 295.950004 
L 161.009511 295.93989 
L 162.180015 295.835257 
L 162.294888 295.823761 
L 163.231 295.71815 
L 163.345823 295.70327 
L 164.108581 295.596074 
L 164.222288 295.578421 
L 164.867825 295.477082 
L 164.981477 295.458185 
L 165.627068 295.35525 
L 165.740719 295.336507 
L 166.387482 295.231856 
L 166.501189 295.212346 
L 167.088145 295.110601 
L 167.201793 295.089923 
L 167.790026 294.982308 
L 167.903624 294.960175 
L 168.432048 294.857339 
L 168.545754 294.833971 
L 169.075294 294.727206 
L 169.188946 294.703146 
L 169.718542 294.593538 
L 169.832194 294.568634 
L 170.302033 294.469526 
L 170.415686 294.444232 
L 170.886697 294.344386 
L 171.000404 294.319426 
L 171.47136 294.218355 
L 171.585012 294.193479 
L 172.056024 294.093443 
L 172.169678 294.068789 
L 172.639571 293.970578 
L 172.753167 293.946196 
L 173.282761 293.839269 
L 173.396467 293.816013 
L 173.926008 293.716013 
L 174.039659 293.69441 
L 174.685304 293.585012 
L 174.798901 293.566417 
L 175.561681 293.458069 
L 175.675363 293.44319 
L 176.613816 293.338694 
L 176.728639 293.327188 
L 178.074886 293.220218 
L 178.194451 293.209297 
L 182.398343 293.107796 
L 182.683058 293.106028 
L 191.632248 293.015821 
L 191.769333 293.010637 
L 194.378632 292.907634 
L 194.500483 292.898493 
L 196.307187 292.792207 
L 196.425578 292.779691 
L 197.825714 292.67535 
L 197.940483 292.665201 
L 199.05356 292.562138 
L 199.168383 292.55026 
L 200.163177 292.443106 
L 200.277945 292.429778 
L 201.15669 292.323287 
L 201.270395 292.308243 
L 202.033091 292.206853 
L 202.146743 292.190357 
L 202.909493 292.081084 
L 203.023143 292.063794 
L 203.728483 291.957345 
L 203.842187 291.939296 
L 204.487717 291.836766 
L 204.601368 291.817716 
L 205.246953 291.708752 
L 205.360603 291.688484 
L 205.948779 291.582935 
L 206.062481 291.561355 
L 206.590845 291.460603 
L 206.704495 291.437303 
L 207.234139 291.329431 
L 207.347736 291.305061 
L 207.818743 291.205736 
L 207.932393 291.179724 
L 208.403399 291.074551 
L 208.517105 291.047635 
L 208.986886 290.939463 
L 209.100537 290.912731 
L 209.571597 290.8042 
L 209.685194 290.776822 
L 210.1562 290.668593 
L 210.269858 290.641463 
L 210.740858 290.533966 
L 210.854564 290.50752 
L 211.324345 290.401898 
L 211.437995 290.375683 
L 211.909056 290.272851 
L 212.022653 290.246865 
L 212.493659 290.143736 
L 212.60731 290.117653 
L 213.078317 290.013472 
L 213.192021 289.987395 
L 213.661802 289.881487 
L 213.775453 289.855078 
L 214.246514 289.748383 
L 214.360111 289.721413 
L 214.831117 289.6143 
L 214.944769 289.587013 
L 215.415775 289.478412 
L 215.529479 289.451658 
L 215.99926 289.342922 
L 216.112911 289.316116 
L 216.58392 289.208829 
L 216.697567 289.181652 
L 217.168574 289.074713 
L 217.282225 289.048033 
L 217.753231 288.940934 
L 217.866937 288.914682 
L 218.336717 288.80787 
L 218.450371 288.781147 
L 218.921428 288.674263 
L 219.035025 288.647289 
L 219.506031 288.540399 
L 219.619682 288.513636 
L 220.090689 288.405772 
L 220.204393 288.379278 
L 220.674174 288.272764 
L 220.787827 288.246385 
L 221.258886 288.14175 
L 221.372483 288.115825 
L 221.843489 288.012506 
L 221.957139 287.987317 
L 222.428146 287.888202 
L 222.541851 287.864258 
L 223.070218 287.759285 
L 223.183865 287.736778 
L 223.713508 287.63755 
L 223.827105 287.615826 
L 224.414105 287.509585 
L 224.52781 287.488596 
L 225.115927 287.385967 
L 225.229578 287.36576 
L 225.816631 287.265737 
L 225.930227 287.246191 
L 226.576982 287.138039 
L 226.690631 287.118755 
L 227.336214 287.013294 
L 227.449863 286.994715 
L 228.095499 286.891895 
L 228.209095 286.873615 
L 228.914431 286.764941 
L 229.028082 286.747385 
L 229.732244 286.642421 
L 229.845895 286.625261 
L 230.550112 286.524032 
L 230.663709 286.507408 
L 231.426457 286.398803 
L 231.540158 286.382186 
L 232.304021 286.274613 
L 232.41767 286.257769 
L 233.180469 286.149448 
L 233.294068 286.132586 
L 234.05681 286.024033 
L 234.170514 286.007206 
L 234.874622 285.906186 
L 234.988273 285.889267 
L 235.692434 285.787483 
L 235.806084 285.770378 
L 236.511417 285.667093 
L 236.625122 285.649726 
L 237.32923 285.545341 
L 237.442879 285.527979 
L 238.147042 285.423647 
L 238.260691 285.406501 
L 238.964854 285.303802 
L 239.078503 285.286975 
L 239.841301 285.179112 
L 239.954897 285.162937 
L 240.718813 285.058227 
L 240.832464 285.042352 
L 241.595208 284.941597 
L 241.708857 284.926109 
L 242.530238 284.819302 
L 242.643833 284.804173 
L 243.465162 284.699267 
L 243.578863 284.684472 
L 244.400136 284.582149 
L 244.514958 284.568003 
L 245.393752 284.463988 
L 245.508516 284.45044 
L 246.444663 284.345316 
L 246.559485 284.332598 
L 247.555386 284.226534 
L 247.670208 284.214233 
L 248.66611 284.112135 
L 248.781003 284.100521 
L 249.834242 283.998613 
L 249.950235 283.987599 
L 251.06213 283.884929 
L 251.177005 283.874425 
L 252.347428 283.769753 
L 252.463421 283.759548 
L 253.749892 283.653743 
L 253.865936 283.644847 
L 255.326924 283.541369 
L 255.445262 283.529932 
L 257.314037 283.426372 
L 257.435887 283.41739 
L 259.827217 283.315292 
L 259.952647 283.308357 
L 263.041035 283.208787 
L 263.176945 283.20407 
L 271.046866 283.122039 
L 271.448739 283.121057 
L 290.272308 283.079651 
L 290.677694 283.078758 
L 303.128684 283.014331 
L 303.306772 283.011094 
L 308.44557 282.919905 
L 308.588509 282.915639 
L 311.952279 282.819034 
L 312.081159 282.812874 
L 314.581434 282.71382 
L 314.703338 282.705339 
L 316.685697 282.602787 
L 316.805204 282.592167 
L 318.497051 282.488458 
L 318.615386 282.476563 
L 320.133903 282.374093 
L 320.251052 282.361088 
L 321.710863 282.256293 
L 321.82691 282.247361 
L 323.1719 282.143437 
L 323.287893 282.134302 
L 324.632994 282.029179 
L 324.748933 282.020041 
L 326.093979 281.915562 
L 326.209997 281.906549 
L 327.55502 281.804164 
L 327.673411 281.790838 
L 329.13211 281.687997 
L 329.248049 281.679603 
L 330.710267 281.577261 
L 330.828599 281.565104 
L 332.463048 281.461475 
L 332.581384 281.45009 
L 334.332999 281.34671 
L 334.452509 281.336192 
L 336.32017 281.234761 
L 336.439624 281.225138 
L 338.482982 281.124084 
L 338.604837 281.115356 
L 340.820427 281.016175 
L 340.943453 281.008314 
L 343.391117 280.909735 
L 343.51411 280.902668 
L 346.254555 280.803958 
L 346.383438 280.797661 
L 349.409824 280.69993 
L 349.539878 280.694278 
L 352.799481 280.598704 
L 352.930652 280.593479 
L 356.480777 280.498234 
L 356.61669 280.493476 
L 360.337881 280.400173 
L 360.477308 280.395681 
L 364.603954 280.304327 
L 364.749189 280.300801 
L 370.096656 280.214594 
L 370.268945 280.212333 
L 386.633519 280.176634 
L 387.301368 280.177223 
L 398.487273 280.149841 
L 398.487273 280.149841 
" clip-path="url(#p1b70a68105)" style="fill: none; stroke: #ff0000; stroke-width: 0.5; stroke-linecap: square"/>
   </g>
   <g id="patch_13">
    <path d="M 57.6 307.584 
L 57.6 229.315765 
" style="fill: none; stroke: #000000; stroke-width: 0.8; stroke-linejoin: miter; stroke-linecap: square"/>
   </g>
   <g id="patch_14">
    <path d="M 414.72 307.584 
L 414.72 229.315765 
" style="fill: none; stroke: #000000; stroke-width: 0.8; stroke-linejoin: miter; stroke-linecap: square"/>
   </g>
   <g id="patch_15">
    <path d="M 57.6 307.584 
L 414.72 307.584 
" style="fill: none; stroke: #000000; stroke-width: 0.8; stroke-linejoin: miter; stroke-linecap: square"/>
   </g>
   <g id="patch_16">
    <path d="M 57.6 229.315765 
L 414.72 229.315765 
" style="fill: none; stroke: #000000; stroke-width: 0.8; stroke-linejoin: miter; stroke-linecap: square"/>
   </g>
   <g id="text_34">
    <!-- gyros bias error -->
    <g transform="translate(189.05625 223.315765) scale(0.12 -0.12)">
     <use xlink:href="#DejaVuSans-67"/>
     <use xlink:href="#DejaVuSans-79" x="63.476562"/>
     <use xlink:href="#DejaVuSans-72" x="122.65625"/>
     <use xlink:href="#DejaVuSans-6f" x="161.519531"/>
     <use xlink:href="#DejaVuSans-73" x="222.701172"/>
     <use xlink:href="#DejaVuSans-20" x="274.800781"/>
     <use xlink:href="#DejaVuSans-62" x="306.587891"/>
     <use xlink:href="#DejaVuSans-69" x="370.064453"/>
     <use xlink:href="#DejaVuSans-61" x="397.847656"/>
     <use xlink:href="#DejaVuSans-73" x="459.126953"/>
     <use xlink:href="#DejaVuSans-20" x="511.226562"/>
     <use xlink:href="#DejaVuSans-65" x="543.013672"/>
     <use xlink:href="#DejaVuSans-72" x="604.537109"/>
     <use xlink:href="#DejaVuSans-72" x="643.900391"/>
     <use xlink:href="#DejaVuSans-6f" x="682.763672"/>
     <use xlink:href="#DejaVuSans-72" x="743.945312"/>
    </g>
   </g>
   <g id="legend_1">
    <g id="patch_17">
     <path d="M 212.752187 251.99389 
L 259.567813 251.99389 
Q 261.567813 251.99389 261.567813 249.99389 
L 261.567813 236.315765 
Q 261.567813 234.315765 259.567813 234.315765 
L 212.752187 234.315765 
Q 210.752187 234.315765 210.752187 236.315765 
L 210.752187 249.99389 
Q 210.752187 251.99389 212.752187 251.99389 
z
" style="fill: #ffffff; opacity: 0.8; stroke: #cccccc; stroke-linejoin: miter"/>
    </g>
    <g id="line2d_64">
     <path d="M 214.752187 242.414202 
L 224.752187 242.414202 
L 234.752187 242.414202 
" style="fill: none; stroke: #1f77b4; stroke-width: 1.5; stroke-linecap: square"/>
    </g>
    <g id="text_35">
     <!-- vio -->
     <g transform="translate(242.752187 245.914202) scale(0.1 -0.1)">
      <defs>
       <path id="DejaVuSans-76" d="M 191 3500 
L 800 3500 
L 1894 563 
L 2988 3500 
L 3597 3500 
L 2284 0 
L 1503 0 
L 191 3500 
z
" transform="scale(0.015625)"/>
      </defs>
      <use xlink:href="#DejaVuSans-76"/>
      <use xlink:href="#DejaVuSans-69" x="59.179688"/>
      <use xlink:href="#DejaVuSans-6f" x="86.962891"/>
     </g>
    </g>
   </g>
  </g>
 </g>
 <defs>
  <clipPath id="p33736e33eb">
   <rect x="57.6" y="41.472" width="357.12" height="78.268235"/>
  </clipPath>
  <clipPath id="p4b526c133e">
   <rect x="57.6" y="135.393882" width="357.12" height="78.268235"/>
  </clipPath>
  <clipPath id="p1b70a68105">
   <rect x="57.6" y="229.315765" width="357.12" height="78.268235"/>
  </clipPath>
 </defs>
</svg>
