<?xml version="1.0" encoding="utf-8" standalone="no"?>
<!DOCTYPE svg PUBLIC "-//W3C//DTD SVG 1.1//EN"
  "http://www.w3.org/Graphics/SVG/1.1/DTD/svg11.dtd">
<svg xmlns:xlink="http://www.w3.org/1999/xlink" width="460.8pt" height="345.6pt" viewBox="0 0 460.8 345.6" xmlns="http://www.w3.org/2000/svg" version="1.1">
 <metadata>
  <rdf:RDF xmlns:dc="http://purl.org/dc/elements/1.1/" xmlns:cc="http://creativecommons.org/ns#" xmlns:rdf="http://www.w3.org/1999/02/22-rdf-syntax-ns#">
   <cc:Work>
    <dc:type rdf:resource="http://purl.org/dc/dcmitype/StillImage"/>
    <dc:date>2026-01-13T18:46:28.310796</dc:date>
    <dc:format>image/svg+xml</dc:format>
    <dc:creator>
     <cc:Agent>
      <dc:title>Matplotlib v3.9.4, https://matplotlib.org/</dc:title>
     </cc:Agent>
    </dc:creator>
   </cc:Work>
  </rdf:RDF>
 </metadata>
 <defs>
  <style type="text/css">*{stroke-linejoin: round; stroke-linecap: butt}</style>
 </defs>
 <g id="figure_1">
  <g id="patch_1">
   <path d="M 0 345.6 
L 460.8 345.6 
L 460.8 0 
L 0 0 
z
" style="fill: #ffffff"/>
  </g>
  <g id="patch_2">
   <path d="M 103.104 307.584 
L 369.216 307.584 
L 369.216 41.472 
L 103.104 41.472 
z
" style="fill: #ffffff"/>
  </g>
  <g id="pane3d_1">
   <g id="patch_3">
    <path d="M 123.197291 241.969309 
L 211.076164 168.307495 
L 209.854564 62.073991 
L 117.770234 129.272941 
" style="fill: #f2f2f2; opacity: 0.5; stroke: #f2f2f2; stroke-linejoin: miter"/>
   </g>
  </g>
  <g id="pane3d_2">
   <g id="patch_4">
    <path d="M 211.076164 168.307495 
L 352.090401 209.294766 
L 357.122702 99.402171 
L 209.854564 62.073991 
" style="fill: #e6e6e6; opacity: 0.5; stroke: #e6e6e6; stroke-linejoin: miter"/>
   </g>
  </g>
  <g id="pane3d_3">
   <g id="patch_5">
    <path d="M 123.197291 241.969309 
L 272.679269 290.790123 
L 352.090401 209.294766 
L 211.076164 168.307495 
" style="fill: #ececec; opacity: 0.5; stroke: #ececec; stroke-linejoin: miter"/>
   </g>
  </g>
  <g id="grid3d_1">
   <g id="Line3DCollection_1">
    <path d="M 123.708005 242.136108 
L 211.560072 168.448148 
L 210.35887 62.201818 
" style="fill: none; stroke: #b0b0b0; stroke-width: 0.8"/>
    <path d="M 141.790034 248.041699 
L 228.683598 173.425281 
L 228.208933 66.726288 
" style="fill: none; stroke: #b0b0b0; stroke-width: 0.8"/>
    <path d="M 160.110481 254.025157 
L 246.014229 178.462611 
L 246.2842 71.307842 
" style="fill: none; stroke: #b0b0b0; stroke-width: 0.8"/>
    <path d="M 178.674091 260.088032 
L 263.555745 183.561237 
L 264.588962 75.947565 
" style="fill: none; stroke: #b0b0b0; stroke-width: 0.8"/>
    <path d="M 197.485739 266.231916 
L 281.312018 188.722285 
L 283.127617 80.646574 
" style="fill: none; stroke: #b0b0b0; stroke-width: 0.8"/>
    <path d="M 216.550428 272.458443 
L 299.287017 193.946907 
L 301.904676 85.406011 
" style="fill: none; stroke: #b0b0b0; stroke-width: 0.8"/>
    <path d="M 235.873299 278.769293 
L 317.484808 199.236287 
L 320.924768 90.22705 
" style="fill: none; stroke: #b0b0b0; stroke-width: 0.8"/>
    <path d="M 255.459633 285.166189 
L 335.909559 204.591634 
L 340.192642 95.110894 
" style="fill: none; stroke: #b0b0b0; stroke-width: 0.8"/>
   </g>
  </g>
  <g id="grid3d_2">
   <g id="Line3DCollection_2">
    <path d="M 122.960308 125.485461 
L 128.132619 237.832419 
L 277.157664 286.194187 
" style="fill: none; stroke: #b0b0b0; stroke-width: 0.8"/>
    <path d="M 135.439107 116.379002 
L 140.007552 227.878615 
L 287.924056 275.145221 
" style="fill: none; stroke: #b0b0b0; stroke-width: 0.8"/>
    <path d="M 147.631719 107.481389 
L 151.621943 218.143203 
L 298.44179 264.351439 
" style="fill: none; stroke: #b0b0b0; stroke-width: 0.8"/>
    <path d="M 159.547875 98.785521 
L 162.984271 208.619074 
L 308.719382 253.804101 
" style="fill: none; stroke: #b0b0b0; stroke-width: 0.8"/>
    <path d="M 171.196874 90.284613 
L 174.102655 199.299424 
L 318.764964 243.494862 
" style="fill: none; stroke: #b0b0b0; stroke-width: 0.8"/>
    <path d="M 182.587599 81.97218 
L 184.984867 190.177738 
L 328.586305 233.415751 
" style="fill: none; stroke: #b0b0b0; stroke-width: 0.8"/>
    <path d="M 193.728546 73.842024 
L 195.638354 181.247774 
L 338.190829 223.559146 
" style="fill: none; stroke: #b0b0b0; stroke-width: 0.8"/>
    <path d="M 204.627843 65.888214 
L 206.07025 172.503551 
L 347.585638 213.91776 
" style="fill: none; stroke: #b0b0b0; stroke-width: 0.8"/>
   </g>
  </g>
  <g id="grid3d_3">
   <g id="Line3DCollection_3">
    <path d="M 352.698995 196.004609 
L 210.928153 155.435999 
L 122.541928 228.360259 
" style="fill: none; stroke: #b0b0b0; stroke-width: 0.8"/>
    <path d="M 353.318966 182.466025 
L 210.777452 142.330663 
L 121.874039 214.491116 
" style="fill: none; stroke: #b0b0b0; stroke-width: 0.8"/>
    <path d="M 353.945781 168.777988 
L 210.625167 129.087589 
L 121.198495 200.463014 
" style="fill: none; stroke: #b0b0b0; stroke-width: 0.8"/>
    <path d="M 354.579554 154.938008 
L 210.471273 115.704592 
L 120.515164 186.273205 
" style="fill: none; stroke: #b0b0b0; stroke-width: 0.8"/>
    <path d="M 355.220402 140.943542 
L 210.315745 102.179445 
L 119.823911 171.918875 
" style="fill: none; stroke: #b0b0b0; stroke-width: 0.8"/>
    <path d="M 355.868442 126.791989 
L 210.158555 88.509869 
L 119.124596 157.397148 
" style="fill: none; stroke: #b0b0b0; stroke-width: 0.8"/>
    <path d="M 356.523798 112.480689 
L 209.999679 74.693539 
L 118.417078 142.705077 
" style="fill: none; stroke: #b0b0b0; stroke-width: 0.8"/>
   </g>
  </g>
  <g id="axis3d_1">
   <g id="line2d_1">
    <path d="M 123.197291 241.969309 
L 272.679269 290.790123 
" style="fill: none; stroke: #000000; stroke-width: 0.8; stroke-linecap: square"/>
   </g>
   <g id="xtick_1">
    <g id="line2d_2">
     <path d="M 124.472824 241.494598 
L 122.175095 243.421872 
" style="fill: none; stroke: #000000; stroke-width: 0.8; stroke-linecap: square"/>
    </g>
    <g id="text_1">
     <!-- −30 -->
     <g transform="translate(105.618265 265.386276) scale(0.1 -0.1)">
      <defs>
       <path id="DejaVuSans-2212" d="M 678 2272 
L 4684 2272 
L 4684 1741 
L 678 1741 
L 678 2272 
z
" transform="scale(0.015625)"/>
       <path id="DejaVuSans-33" d="M 2597 2516 
Q 3050 2419 3304 2112 
Q 3559 1806 3559 1356 
Q 3559 666 3084 287 
Q 2609 -91 1734 -91 
Q 1441 -91 1130 -33 
Q 819 25 488 141 
L 488 750 
Q 750 597 1062 519 
Q 1375 441 1716 441 
Q 2309 441 2620 675 
Q 2931 909 2931 1356 
Q 2931 1769 2642 2001 
Q 2353 2234 1838 2234 
L 1294 2234 
L 1294 2753 
L 1863 2753 
Q 2328 2753 2575 2939 
Q 2822 3125 2822 3475 
Q 2822 3834 2567 4026 
Q 2313 4219 1838 4219 
Q 1578 4219 1281 4162 
Q 984 4106 628 3988 
L 628 4550 
Q 988 4650 1302 4700 
Q 1616 4750 1894 4750 
Q 2613 4750 3031 4423 
Q 3450 4097 3450 3541 
Q 3450 3153 3228 2886 
Q 3006 2619 2597 2516 
z
" transform="scale(0.015625)"/>
       <path id="DejaVuSans-30" d="M 2034 4250 
Q 1547 4250 1301 3770 
Q 1056 3291 1056 2328 
Q 1056 1369 1301 889 
Q 1547 409 2034 409 
Q 2525 409 2770 889 
Q 3016 1369 3016 2328 
Q 3016 3291 2770 3770 
Q 2525 4250 2034 4250 
z
M 2034 4750 
Q 2819 4750 3233 4129 
Q 3647 3509 3647 2328 
Q 3647 1150 3233 529 
Q 2819 -91 2034 -91 
Q 1250 -91 836 529 
Q 422 1150 422 2328 
Q 422 3509 836 4129 
Q 1250 4750 2034 4750 
z
" transform="scale(0.015625)"/>
      </defs>
      <use xlink:href="#DejaVuSans-2212"/>
      <use xlink:href="#DejaVuSans-33" x="83.789062"/>
      <use xlink:href="#DejaVuSans-30" x="147.412109"/>
     </g>
    </g>
   </g>
   <g id="xtick_2">
    <g id="line2d_3">
     <path d="M 142.54691 247.391762 
L 140.273023 249.344372 
" style="fill: none; stroke: #000000; stroke-width: 0.8; stroke-linecap: square"/>
    </g>
    <g id="text_2">
     <!-- −20 -->
     <g transform="translate(123.718193 271.416788) scale(0.1 -0.1)">
      <defs>
       <path id="DejaVuSans-32" d="M 1228 531 
L 3431 531 
L 3431 0 
L 469 0 
L 469 531 
Q 828 903 1448 1529 
Q 2069 2156 2228 2338 
Q 2531 2678 2651 2914 
Q 2772 3150 2772 3378 
Q 2772 3750 2511 3984 
Q 2250 4219 1831 4219 
Q 1534 4219 1204 4116 
Q 875 4013 500 3803 
L 500 4441 
Q 881 4594 1212 4672 
Q 1544 4750 1819 4750 
Q 2544 4750 2975 4387 
Q 3406 4025 3406 3419 
Q 3406 3131 3298 2873 
Q 3191 2616 2906 2266 
Q 2828 2175 2409 1742 
Q 1991 1309 1228 531 
z
" transform="scale(0.015625)"/>
      </defs>
      <use xlink:href="#DejaVuSans-2212"/>
      <use xlink:href="#DejaVuSans-32" x="83.789062"/>
      <use xlink:href="#DejaVuSans-30" x="147.412109"/>
     </g>
    </g>
   </g>
   <g id="xtick_3">
    <g id="line2d_4">
     <path d="M 160.859137 253.366625 
L 158.609923 255.345075 
" style="fill: none; stroke: #000000; stroke-width: 0.8; stroke-linecap: square"/>
    </g>
    <g id="text_3">
     <!-- −10 -->
     <g transform="translate(142.057669 277.527113) scale(0.1 -0.1)">
      <defs>
       <path id="DejaVuSans-31" d="M 794 531 
L 1825 531 
L 1825 4091 
L 703 3866 
L 703 4441 
L 1819 4666 
L 2450 4666 
L 2450 531 
L 3481 531 
L 3481 0 
L 794 0 
L 794 531 
z
" transform="scale(0.015625)"/>
      </defs>
      <use xlink:href="#DejaVuSans-2212"/>
      <use xlink:href="#DejaVuSans-31" x="83.789062"/>
      <use xlink:href="#DejaVuSans-30" x="147.412109"/>
     </g>
    </g>
   </g>
   <g id="xtick_4">
    <g id="line2d_5">
     <path d="M 179.414242 259.420733 
L 177.190559 261.42554 
" style="fill: none; stroke: #000000; stroke-width: 0.8; stroke-linecap: square"/>
    </g>
    <g id="text_4">
     <!-- 0 -->
     <g transform="translate(168.012576 283.718845) scale(0.1 -0.1)">
      <use xlink:href="#DejaVuSans-30"/>
     </g>
    </g>
   </g>
   <g id="xtick_5">
    <g id="line2d_6">
     <path d="M 198.21709 265.555675 
L 196.019823 267.587368 
" style="fill: none; stroke: #000000; stroke-width: 0.8; stroke-linecap: square"/>
    </g>
    <g id="text_5">
     <!-- 10 -->
     <g transform="translate(183.664391 289.993623) scale(0.1 -0.1)">
      <use xlink:href="#DejaVuSans-31"/>
      <use xlink:href="#DejaVuSans-30" x="63.623047"/>
     </g>
    </g>
   </g>
   <g id="xtick_6">
    <g id="line2d_7">
     <path d="M 217.272675 271.773079 
L 215.10274 273.832203 
" style="fill: none; stroke: #000000; stroke-width: 0.8; stroke-linecap: square"/>
    </g>
    <g id="text_6">
     <!-- 20 -->
     <g transform="translate(202.751756 296.353129) scale(0.1 -0.1)">
      <use xlink:href="#DejaVuSans-32"/>
      <use xlink:href="#DejaVuSans-30" x="63.623047"/>
     </g>
    </g>
   </g>
   <g id="xtick_7">
    <g id="line2d_8">
     <path d="M 236.586128 278.074619 
L 234.444468 280.161734 
" style="fill: none; stroke: #000000; stroke-width: 0.8; stroke-linecap: square"/>
    </g>
    <g id="text_7">
     <!-- 30 -->
     <g transform="translate(222.098607 302.79909) scale(0.1 -0.1)">
      <use xlink:href="#DejaVuSans-33"/>
      <use xlink:href="#DejaVuSans-30" x="63.623047"/>
     </g>
    </g>
   </g>
   <g id="xtick_8">
    <g id="line2d_9">
     <path d="M 256.162718 284.462015 
L 254.050311 286.577695 
" style="fill: none; stroke: #000000; stroke-width: 0.8; stroke-linecap: square"/>
    </g>
    <g id="text_8">
     <!-- 40 -->
     <g transform="translate(241.710272 309.333281) scale(0.1 -0.1)">
      <defs>
       <path id="DejaVuSans-34" d="M 2419 4116 
L 825 1625 
L 2419 1625 
L 2419 4116 
z
M 2253 4666 
L 3047 4666 
L 3047 1625 
L 3713 1625 
L 3713 1100 
L 3047 1100 
L 3047 0 
L 2419 0 
L 2419 1100 
L 313 1100 
L 313 1709 
L 2253 4666 
z
" transform="scale(0.015625)"/>
      </defs>
      <use xlink:href="#DejaVuSans-34"/>
      <use xlink:href="#DejaVuSans-30" x="63.623047"/>
     </g>
    </g>
   </g>
  </g>
  <g id="axis3d_2">
   <g id="line2d_10">
    <path d="M 352.090401 209.294766 
L 272.679269 290.790123 
" style="fill: none; stroke: #000000; stroke-width: 0.8; stroke-linecap: square"/>
   </g>
   <g id="xtick_9">
    <g id="line2d_11">
     <path d="M 275.901755 285.786619 
L 279.672733 287.01038 
" style="fill: none; stroke: #000000; stroke-width: 0.8; stroke-linecap: square"/>
    </g>
    <g id="text_9">
     <!-- −30 -->
     <g transform="translate(279.499573 307.23137) scale(0.1 -0.1)">
      <use xlink:href="#DejaVuSans-2212"/>
      <use xlink:href="#DejaVuSans-33" x="83.789062"/>
      <use xlink:href="#DejaVuSans-30" x="147.412109"/>
     </g>
    </g>
   </g>
   <g id="xtick_10">
    <g id="line2d_12">
     <path d="M 286.678228 274.747118 
L 290.4189 275.942446 
" style="fill: none; stroke: #000000; stroke-width: 0.8; stroke-linecap: square"/>
    </g>
    <g id="text_10">
     <!-- −20 -->
     <g transform="translate(290.121614 296.018763) scale(0.1 -0.1)">
      <use xlink:href="#DejaVuSans-2212"/>
      <use xlink:href="#DejaVuSans-32" x="83.789062"/>
      <use xlink:href="#DejaVuSans-30" x="147.412109"/>
     </g>
    </g>
   </g>
   <g id="xtick_11">
    <g id="line2d_13">
     <path d="M 297.205914 263.962475 
L 300.916666 265.13035 
" style="fill: none; stroke: #000000; stroke-width: 0.8; stroke-linecap: square"/>
    </g>
    <g id="text_11">
     <!-- −10 -->
     <g transform="translate(300.498186 285.065271) scale(0.1 -0.1)">
      <use xlink:href="#DejaVuSans-2212"/>
      <use xlink:href="#DejaVuSans-31" x="83.789062"/>
      <use xlink:href="#DejaVuSans-30" x="147.412109"/>
     </g>
    </g>
   </g>
   <g id="xtick_12">
    <g id="line2d_14">
     <path d="M 307.493332 253.423965 
L 311.174548 254.565322 
" style="fill: none; stroke: #000000; stroke-width: 0.8; stroke-linecap: square"/>
    </g>
    <g id="text_12">
     <!-- 0 -->
     <g transform="translate(318.008796 274.362015) scale(0.1 -0.1)">
      <use xlink:href="#DejaVuSans-30"/>
     </g>
    </g>
   </g>
   <g id="xtick_13">
    <g id="line2d_15">
     <path d="M 317.548613 243.123258 
L 321.200673 244.23899 
" style="fill: none; stroke: #000000; stroke-width: 0.8; stroke-linecap: square"/>
    </g>
    <g id="text_13">
     <!-- 10 -->
     <g transform="translate(324.738039 263.900516) scale(0.1 -0.1)">
      <use xlink:href="#DejaVuSans-31"/>
      <use xlink:href="#DejaVuSans-30" x="63.623047"/>
     </g>
    </g>
   </g>
   <g id="xtick_14">
    <g id="line2d_16">
     <path d="M 327.379528 233.052394 
L 331.002808 234.143354 
" style="fill: none; stroke: #000000; stroke-width: 0.8; stroke-linecap: square"/>
    </g>
    <g id="text_14">
     <!-- 20 -->
     <g transform="translate(334.42718 253.672675) scale(0.1 -0.1)">
      <use xlink:href="#DejaVuSans-32"/>
      <use xlink:href="#DejaVuSans-30" x="63.623047"/>
     </g>
    </g>
   </g>
   <g id="xtick_15">
    <g id="line2d_17">
     <path d="M 336.993502 223.203764 
L 340.588377 224.270769 
" style="fill: none; stroke: #000000; stroke-width: 0.8; stroke-linecap: square"/>
    </g>
    <g id="text_15">
     <!-- 30 -->
     <g transform="translate(343.902304 243.670751) scale(0.1 -0.1)">
      <use xlink:href="#DejaVuSans-33"/>
      <use xlink:href="#DejaVuSans-30" x="63.623047"/>
     </g>
    </g>
   </g>
   <g id="xtick_16">
    <g id="line2d_18">
     <path d="M 346.397639 213.570095 
L 349.964478 214.613923 
" style="fill: none; stroke: #000000; stroke-width: 0.8; stroke-linecap: square"/>
    </g>
    <g id="text_16">
     <!-- 40 -->
     <g transform="translate(353.170423 233.88734) scale(0.1 -0.1)">
      <use xlink:href="#DejaVuSans-34"/>
      <use xlink:href="#DejaVuSans-30" x="63.623047"/>
     </g>
    </g>
   </g>
  </g>
  <g id="axis3d_3">
   <g id="line2d_19">
    <path d="M 352.090401 209.294766 
L 357.122702 99.402171 
" style="fill: none; stroke: #000000; stroke-width: 0.8; stroke-linecap: square"/>
   </g>
   <g id="xtick_17">
    <g id="line2d_20">
     <path d="M 351.508846 195.664041 
L 355.08214 196.686561 
" style="fill: none; stroke: #000000; stroke-width: 0.8; stroke-linecap: square"/>
    </g>
    <g id="text_17">
     <!-- −30 -->
     <g transform="translate(360.492024 201.024041) scale(0.1 -0.1)">
      <use xlink:href="#DejaVuSans-2212"/>
      <use xlink:href="#DejaVuSans-33" x="83.789062"/>
      <use xlink:href="#DejaVuSans-30" x="147.412109"/>
     </g>
    </g>
   </g>
   <g id="xtick_18">
    <g id="line2d_21">
     <path d="M 352.122039 182.129007 
L 355.7157 183.140873 
" style="fill: none; stroke: #000000; stroke-width: 0.8; stroke-linecap: square"/>
    </g>
    <g id="text_18">
     <!-- −20 -->
     <g transform="translate(361.210513 187.512377) scale(0.1 -0.1)">
      <use xlink:href="#DejaVuSans-2212"/>
      <use xlink:href="#DejaVuSans-32" x="83.789062"/>
      <use xlink:href="#DejaVuSans-30" x="147.412109"/>
     </g>
    </g>
   </g>
   <g id="xtick_19">
    <g id="line2d_22">
     <path d="M 352.741997 168.444619 
L 356.35626 169.445532 
" style="fill: none; stroke: #000000; stroke-width: 0.8; stroke-linecap: square"/>
    </g>
    <g id="text_19">
     <!-- −10 -->
     <g transform="translate(361.93691 173.852012) scale(0.1 -0.1)">
      <use xlink:href="#DejaVuSans-2212"/>
      <use xlink:href="#DejaVuSans-31" x="83.789062"/>
      <use xlink:href="#DejaVuSans-30" x="147.412109"/>
     </g>
    </g>
   </g>
   <g id="xtick_20">
    <g id="line2d_23">
     <path d="M 353.368835 154.60839 
L 357.003936 155.598045 
" style="fill: none; stroke: #000000; stroke-width: 0.8; stroke-linecap: square"/>
    </g>
    <g id="text_20">
     <!-- 0 -->
     <g transform="translate(370.042438 160.040476) scale(0.1 -0.1)">
      <use xlink:href="#DejaVuSans-30"/>
     </g>
    </g>
   </g>
   <g id="xtick_21">
    <g id="line2d_24">
     <path d="M 354.002667 140.617781 
L 357.658847 141.595862 
" style="fill: none; stroke: #000000; stroke-width: 0.8; stroke-linecap: square"/>
    </g>
    <g id="text_21">
     <!-- 10 -->
     <g transform="translate(367.603796 146.075247) scale(0.1 -0.1)">
      <use xlink:href="#DejaVuSans-31"/>
      <use xlink:href="#DejaVuSans-30" x="63.623047"/>
     </g>
    </g>
   </g>
   <g id="xtick_22">
    <g id="line2d_25">
     <path d="M 354.643611 126.470192 
L 358.321116 127.436376 
" style="fill: none; stroke: #000000; stroke-width: 0.8; stroke-linecap: square"/>
    </g>
    <g id="text_22">
     <!-- 20 -->
     <g transform="translate(368.354713 131.953744) scale(0.1 -0.1)">
      <use xlink:href="#DejaVuSans-32"/>
      <use xlink:href="#DejaVuSans-30" x="63.623047"/>
     </g>
    </g>
   </g>
   <g id="xtick_23">
    <g id="line2d_26">
     <path d="M 355.291787 112.162966 
L 358.990867 113.116922 
" style="fill: none; stroke: #000000; stroke-width: 0.8; stroke-linecap: square"/>
    </g>
    <g id="text_23">
     <!-- 30 -->
     <g transform="translate(369.114081 117.673331) scale(0.1 -0.1)">
      <use xlink:href="#DejaVuSans-33"/>
      <use xlink:href="#DejaVuSans-30" x="63.623047"/>
     </g>
    </g>
   </g>
  </g>
  <g id="axes_1">
   <g id="line2d_27">
    <path d="M 216.991611 170.337487 
L 216.691136 170.244135 
L 216.694175 170.237135 
L 216.737282 170.214033 
L 216.800068 170.272242 
L 216.926534 170.376749 
L 216.940801 170.256463 
L 217.034486 170.2027 
L 216.877044 170.400385 
L 216.832311 170.721175 
L 216.871801 170.392342 
L 216.755195 170.425758 
L 216.564304 170.394597 
L 216.000467 170.573394 
L 215.808788 170.667774 
L 215.682567 170.624638 
L 215.835605 170.654337 
L 215.696069 170.605303 
L 215.627168 170.576275 
L 216.075402 170.423426 
L 216.859682 170.023089 
L 216.821449 170.053876 
L 217.047663 170.001335 
L 217.007442 170.059635 
L 217.155267 170.003168 
L 217.162628 170.030019 
L 218.081318 169.118443 
L 217.156876 170.049891 
L 218.07414 169.110069 
L 217.266539 168.345126 
L 217.284244 168.343713 
L 217.005377 168.107914 
L 217.048807 168.110121 
L 216.838673 167.988392 
L 216.886294 167.988681 
L 215.297348 167.6416 
L 214.286909 167.754041 
L 213.901515 167.94982 
L 214.298084 167.76634 
L 213.937836 167.947127 
L 211.835615 168.652443 
L 211.859212 168.66672 
L 209.382775 170.5059 
L 209.393617 170.490067 
L 209.197389 170.581195 
L 209.197138 170.570525 
L 208.714932 170.927859 
L 208.556008 171.283401 
L 208.585722 171.277627 
L 208.429996 171.413411 
L 208.445921 171.417865 
L 208.131575 171.776881 
L 207.816033 172.196178 
L 207.309624 172.756768 
L 206.623284 173.078855 
L 204.824994 173.637464 
L 204.12153 173.659154 
L 202.119229 173.53127 
L 202.143956 173.51397 
L 201.973368 173.498129 
L 201.282139 173.400002 
L 201.29428 173.388348 
L 197.471477 172.894407 
L 197.12162 172.82776 
L 197.502903 172.879692 
L 197.156912 172.817082 
L 196.69974 172.708361 
L 196.746255 172.704257 
L 196.37798 172.836788 
L 196.415358 172.844276 
L 196.372743 172.9965 
L 196.483138 173.035122 
L 196.46135 173.092425 
L 196.530411 173.081704 
L 196.514687 173.140889 
L 196.699456 173.200418 
L 196.694697 173.21482 
L 196.759245 173.328538 
L 196.89754 173.37122 
L 196.886472 173.391376 
L 196.935759 173.397756 
L 196.919222 173.473403 
L 197.013384 173.459734 
L 196.977254 173.56941 
L 197.031596 173.552157 
L 196.429704 173.915107 
L 196.460002 173.90201 
L 196.308362 174.098255 
L 196.345012 174.097355 
L 196.303541 174.231094 
L 196.388974 174.27696 
L 196.379138 174.320765 
L 196.448046 174.471737 
L 196.582397 174.527147 
L 196.562175 174.55457 
L 196.622655 174.564538 
L 196.599196 174.652372 
L 196.656623 174.642711 
L 196.609702 174.730922 
L 196.639641 174.757813 
L 196.619944 174.89329 
L 196.670378 174.773968 
L 196.667961 174.897894 
L 196.601846 175.137937 
L 196.669983 175.119115 
L 196.599104 175.252394 
L 196.658193 175.237149 
L 196.616272 175.358478 
L 196.650693 175.387471 
L 196.71057 175.380582 
L 196.693575 175.499763 
L 196.79586 175.538487 
L 196.768986 175.595327 
L 196.830686 175.595037 
L 196.833929 175.715169 
L 196.934138 175.778751 
L 196.893856 175.814748 
L 196.936249 175.816153 
L 196.850081 175.970897 
L 196.892999 175.967793 
L 196.836885 176.045251 
L 196.843186 176.082181 
L 196.717737 176.421462 
L 196.765097 176.418643 
L 196.695304 176.53331 
L 196.749315 176.535136 
L 196.741554 176.645781 
L 196.700808 176.865341 
L 196.745849 176.954302 
L 196.736845 176.976656 
L 196.75044 177.196441 
L 196.823827 177.256261 
L 196.79187 177.305385 
L 196.827502 177.313506 
L 196.718101 177.537204 
L 196.761918 177.541668 
L 196.69019 177.620968 
L 196.71899 177.648906 
L 196.578489 177.983339 
L 196.621047 177.979832 
L 196.524716 178.098155 
L 196.464029 178.257176 
L 196.554887 178.104641 
L 196.482275 178.276699 
L 196.419161 178.462701 
L 196.457963 178.458825 
L 196.400168 178.54561 
L 196.440731 178.571327 
L 196.421667 178.783929 
L 196.488596 178.841211 
L 196.443587 178.893206 
L 196.484556 178.900154 
L 196.345267 179.12909 
L 196.394835 179.133575 
L 196.314203 179.208356 
L 196.335452 179.239205 
L 196.162137 179.53804 
L 196.204695 179.535399 
L 196.081418 179.646817 
L 196.111612 179.651756 
L 195.886954 179.90786 
L 195.930206 179.908098 
L 195.861044 179.97901 
L 195.865695 180.01725 
L 195.771665 180.284465 
L 195.825129 180.284719 
L 195.752803 180.394802 
L 195.78842 180.398279 
L 195.488709 180.734732 
L 195.534366 180.738931 
L 195.432212 180.818517 
L 195.438573 180.841062 
L 194.819924 181.47051 
L 194.850651 181.465869 
L 194.752091 181.591909 
L 193.730372 182.498701 
L 193.743503 182.495925 
L 193.297149 182.811107 
L 192.219101 183.878758 
L 192.268777 183.860467 
L 192.154028 183.997205 
L 192.168497 184.015363 
L 192.126203 184.152503 
L 192.200056 184.027197 
L 192.185937 184.147774 
L 192.148962 184.367292 
L 192.213828 184.354783 
L 192.160866 184.433404 
L 192.182922 184.473671 
L 192.246447 184.47444 
L 192.203895 184.588384 
L 192.25832 184.576651 
L 192.198019 184.68169 
L 192.217752 184.698469 
L 192.122062 184.921432 
L 192.174458 184.910513 
L 192.106363 185.037613 
L 191.844301 185.543637 
L 191.854276 185.548446 
L 191.798535 185.906062 
L 191.810578 185.903258 
L 191.554991 186.804747 
L 191.633117 186.789088 
L 191.594842 186.909086 
L 191.653358 186.912751 
L 191.599044 187.001868 
L 191.697743 187.064878 
L 191.679839 187.097866 
L 191.658528 187.254997 
L 191.736089 187.235276 
L 191.733352 187.350268 
L 191.704695 187.567487 
L 191.760251 187.551191 
L 191.630874 187.704489 
L 191.667987 187.696717 
L 191.549317 187.931715 
L 191.580608 187.925084 
L 191.358929 188.314523 
L 191.417186 188.295219 
L 191.334143 188.420994 
L 191.357681 188.431171 
L 191.266795 188.703573 
L 191.306695 188.685861 
L 191.238033 188.823371 
L 191.26115 188.827142 
L 190.797806 189.421115 
L 190.8775 189.394927 
L 190.649926 189.57982 
L 190.688719 189.573408 
L 190.598748 189.802794 
L 190.657119 189.783875 
L 190.571755 189.919245 
L 190.611017 189.915249 
L 189.544483 191.133997 
L 189.599581 191.117155 
L 189.500553 191.254151 
L 189.532806 191.2531 
L 188.322892 192.505681 
L 188.359586 192.475319 
L 188.059386 192.839435 
L 188.127519 192.811964 
L 187.823116 193.054257 
L 187.832713 193.049974 
L 187.180769 193.697212 
L 187.244844 193.678091 
L 187.161355 193.870103 
L 187.226551 193.850323 
L 187.156533 193.953164 
L 187.192165 193.976432 
L 187.14254 194.199496 
L 187.20986 194.178453 
L 187.111309 194.306764 
L 187.132136 194.318164 
L 187.155138 194.34036 
L 187.047523 194.535213 
L 187.077826 194.557172 
L 186.962848 194.742249 
L 187.044306 194.71128 
L 186.932569 194.848579 
L 186.968806 194.858713 
L 187.009386 194.873473 
L 186.920439 195.048029 
L 186.99142 195.021074 
L 186.943172 195.154992 
L 187.013209 195.131472 
L 187.009386 195.320429 
L 187.081482 195.310832 
L 187.047959 195.407214 
L 187.176586 195.43559 
L 187.165238 195.480008 
L 187.222425 195.481148 
L 187.196962 195.556015 
L 187.33965 195.61563 
L 187.335179 195.621487 
L 187.299588 195.789983 
L 187.377021 195.762077 
L 187.312228 195.903139 
L 187.388011 195.881346 
L 187.310588 196.047571 
L 187.400388 196.020505 
L 187.313727 196.116236 
L 187.347121 196.152106 
L 187.420917 196.13936 
L 187.348929 196.264407 
L 187.445693 196.230492 
L 187.369898 196.351279 
L 187.417819 196.357349 
L 187.474002 196.369284 
L 187.426241 196.496237 
L 187.506897 196.466833 
L 187.45607 196.594645 
L 187.517048 196.581291 
L 187.517288 196.766743 
L 187.584443 196.733792 
L 187.547096 196.862472 
L 187.599053 196.849648 
L 187.334077 197.323343 
L 187.40985 197.300542 
L 187.287488 197.42779 
L 187.304141 197.447982 
L 187.341446 197.449965 
L 187.201182 197.647921 
L 187.271709 197.626994 
L 187.207356 197.730224 
L 187.247339 197.749998 
L 187.292313 197.744602 
L 187.258699 197.844279 
L 187.391558 197.9059 
L 187.378445 197.926431 
L 187.357064 197.9588 
L 187.425193 197.939963 
L 187.431069 198.003178 
L 187.576598 198.051633 
L 187.572552 198.060701 
L 187.615516 198.172761 
L 187.701377 198.163024 
L 187.70527 198.253686 
L 187.748256 198.243907 
L 187.760954 198.360844 
L 187.875645 198.378269 
L 187.837628 198.444653 
L 187.88548 198.408147 
L 187.879773 198.563606 
L 187.940139 198.553122 
L 187.843543 198.568738 
L 187.841865 198.458324 
L 187.854377 198.42808 
L 187.722621 198.341262 
L 187.787554 198.325451 
L 187.670421 198.260695 
L 187.687213 198.236097 
L 187.701292 198.210435 
L 187.571788 198.087139 
L 187.634198 198.079155 
L 187.550413 198.009331 
L 187.561278 197.976939 
L 187.602805 197.9619 
L 187.488808 197.837132 
L 187.806366 197.684335 
L 187.800229 197.682132 
L 188.291813 197.616359 
L 188.282065 197.621007 
L 190.145199 197.500632 
L 190.144482 197.503354 
L 190.144364 197.503496 
L 190.23729 197.491561 
L 190.231808 197.496515 
L 190.657354 197.528175 
L 190.649319 197.543979 
L 191.642253 197.686114 
L 191.640057 197.715532 
L 191.727834 197.777302 
L 191.989227 197.807064 
L 191.986229 197.835365 
L 192.06779 197.827073 
L 192.061767 197.867438 
L 192.318893 197.884341 
L 192.312238 197.917702 
L 192.579248 197.960933 
L 192.579762 197.99229 
L 192.665812 198.042882 
L 192.946611 198.150795 
L 193.392256 198.273722 
L 193.385468 198.300919 
L 193.46914 198.313054 
L 193.455236 198.365177 
L 193.609301 198.414615 
L 193.591201 198.474815 
L 193.688435 198.466803 
L 193.669108 198.540609 
L 193.846246 198.595971 
L 193.836463 198.638288 
L 193.9332 198.646978 
L 193.922607 198.696608 
L 194.195654 198.73511 
L 194.184936 198.761072 
L 194.183029 198.765596 
L 194.278618 198.75835 
L 194.269712 198.786199 
L 194.581389 198.824217 
L 194.584536 198.863708 
L 194.902829 198.967942 
L 195.040705 199.038152 
L 195.861231 199.16826 
L 195.975323 199.212549 
L 196.291165 199.327784 
L 196.408787 199.41063 
L 196.964982 199.514598 
L 198.806103 199.748664 
L 198.919703 199.802273 
L 199.236175 199.887945 
L 199.36314 199.934648 
L 199.959519 200.050835 
L 200.057293 200.073497 
L 200.82919 200.069294 
L 200.82638 200.074649 
L 200.817336 200.092364 
L 200.900534 200.076095 
L 200.889613 200.103055 
L 201.14133 200.154995 
L 201.137153 200.180712 
L 201.232594 200.181896 
L 201.222789 200.226521 
L 201.678936 200.277773 
L 201.677348 200.283272 
L 201.674161 200.292849 
L 201.765855 200.29371 
L 201.766027 200.305358 
L 202.564547 200.537145 
L 202.862669 200.585355 
L 203.165035 200.666663 
L 203.678901 200.886936 
L 204.933193 201.211488 
L 205.320591 201.307802 
L 206.311738 201.563267 
L 206.457838 201.681812 
L 206.770855 201.823009 
L 206.884703 201.872846 
L 207.359415 202.018787 
L 207.683805 202.16883 
L 208.213415 202.293737 
L 211.2288 203.381141 
L 211.4057 203.5294 
L 211.582771 203.616102 
L 211.758887 203.695882 
L 211.996088 203.781173 
L 212.258171 203.909469 
L 212.462159 203.991532 
L 212.836119 204.071573 
L 213.769547 204.49195 
L 214.361614 204.651347 
L 214.937505 204.671634 
L 215.158314 204.63811 
L 216.019024 204.431247 
L 216.428937 204.369808 
L 216.863567 204.291787 
L 218.626228 204.264614 
L 218.801581 204.251338 
L 219.275374 204.280136 
L 220.233594 204.479623 
L 220.583142 204.695166 
L 220.868529 204.767863 
L 221.682902 205.006371 
L 221.793224 205.020426 
L 222.348852 205.302489 
L 222.782353 205.573019 
L 222.938678 205.606726 
L 223.215252 205.701213 
L 223.380451 205.726627 
L 223.910705 205.90794 
L 224.079083 205.919907 
L 224.555533 205.971059 
L 224.711795 205.981051 
L 226.923298 206.820679 
L 228.073092 207.206178 
L 228.41242 207.369329 
L 228.41411 207.345184 
L 228.503138 207.394318 
L 228.522965 207.37757 
L 229.155509 207.569391 
L 229.562411 207.643866 
L 230.921403 208.021595 
L 231.333641 208.126702 
L 231.450213 208.125743 
L 232.188559 208.266202 
L 232.323128 208.262942 
L 232.537186 208.495349 
L 232.501183 209.070522 
L 232.542009 208.492993 
L 232.504264 209.06569 
L 232.710798 209.352041 
L 232.71141 209.348219 
L 232.805052 209.421514 
L 232.704657 209.466615 
L 232.111254 209.335089 
L 232.129929 209.329536 
L 232.126099 209.100655 
L 232.152423 209.106408 
L 232.157176 209.068588 
L 232.264293 209.044214 
L 232.263495 209.016521 
L 232.206509 209.090966 
L 232.155667 209.084717 
L 232.178849 209.065783 
L 231.95154 208.996192 
L 231.962062 208.972365 
L 231.539416 208.896174 
L 231.565657 208.880837 
L 231.386688 208.860702 
L 231.413385 208.839501 
L 231.27692 208.82019 
L 231.290111 208.795766 
L 231.027292 208.6618 
L 231.062943 208.627044 
L 230.922379 208.609446 
L 230.941537 208.572323 
L 230.624857 208.574582 
L 230.644811 208.531207 
L 230.512247 208.569 
L 230.527846 208.519657 
L 230.233705 208.488212 
L 229.88835 208.434775 
L 229.900285 208.381895 
L 229.784646 208.390073 
L 229.791254 208.341766 
L 229.576083 208.305083 
L 229.5824 208.262826 
L 229.468516 208.276479 
L 229.47198 208.233004 
L 229.239401 208.234056 
L 229.248142 208.188822 
L 229.131136 208.215275 
L 229.12878 208.173233 
L 228.887276 208.167469 
L 228.908185 208.111006 
L 228.787325 208.12032 
L 228.798653 208.075627 
L 228.682379 208.087553 
L 228.678397 208.039343 
L 228.445488 208.018863 
L 228.458719 207.966426 
L 228.341064 207.988296 
L 228.339741 207.935529 
L 228.094052 207.950909 
L 228.10083 207.901295 
L 227.985905 207.937059 
L 227.988791 207.887322 
L 227.71445 207.926554 
L 227.723978 207.869584 
L 227.60642 207.907074 
L 227.595819 207.85582 
L 227.437076 207.896237 
L 227.453017 207.833528 
L 227.334037 207.855355 
L 227.146698 207.830761 
L 227.168053 207.765834 
L 227.045803 207.788304 
L 227.042427 207.729069 
L 226.898286 207.748097 
L 226.920328 207.688686 
L 226.798955 207.701878 
L 226.807333 207.639868 
L 226.671311 207.65672 
L 226.700077 207.595853 
L 226.569199 207.617064 
L 226.590311 207.559215 
L 226.336312 207.557679 
L 226.368298 207.492439 
L 226.228044 207.52711 
L 226.251354 207.465488 
L 226.10487 207.49972 
L 226.135627 207.434637 
L 226.000239 207.462049 
L 226.03031 207.396691 
L 225.892332 207.409097 
L 225.921419 207.342652 
L 225.797455 207.354705 
L 225.819985 207.291957 
L 225.681584 207.313934 
L 225.723117 207.249412 
L 225.5843 207.273609 
L 225.61936 207.20748 
L 225.288254 207.17618 
L 225.336135 207.109246 
L 225.193061 207.148423 
L 225.214529 207.088824 
L 224.868654 207.097711 
L 224.903264 207.033127 
L 224.756338 207.076394 
L 224.780034 207.015828 
L 224.611231 207.048781 
L 224.642467 206.987745 
L 224.504274 207.014631 
L 224.517511 206.956382 
L 224.359105 206.985816 
L 224.400724 206.920764 
L 224.256749 206.940885 
L 224.291003 206.880207 
L 224.15537 206.895911 
L 224.193399 206.833724 
L 224.058944 206.850171 
L 224.092997 206.788479 
L 223.75131 206.746162 
L 223.784734 206.683381 
L 223.639995 206.722686 
L 223.664064 206.659712 
L 223.508236 206.700998 
L 223.537086 206.630586 
L 223.407898 206.659643 
L 223.413724 206.597228 
L 223.26343 206.6198 
L 223.299692 206.555074 
L 223.164829 206.569292 
L 223.179541 206.503401 
L 223.032049 206.525113 
L 223.077518 206.454885 
L 222.928872 206.481616 
L 222.97411 206.409765 
L 222.824714 206.440635 
L 222.865701 206.373617 
L 222.496023 206.355784 
L 222.547409 206.287526 
L 222.389419 206.334912 
L 222.420648 206.273561 
L 221.989922 206.310999 
L 222.034678 206.243075 
L 221.877521 206.280283 
L 221.88842 206.22021 
L 221.708699 206.257228 
L 221.75337 206.19075 
L 221.595532 206.226532 
L 221.623535 206.165426 
L 221.463368 206.196325 
L 221.503321 206.13198 
L 221.360174 206.155229 
L 221.392405 206.093671 
L 221.14607 206.081813 
L 221.19428 206.016008 
L 221.045053 206.045821 
L 221.084053 205.980829 
L 220.720643 205.959983 
L 220.761742 205.894983 
L 220.612089 205.927686 
L 220.649953 205.864654 
L 220.499502 205.887487 
L 220.539767 205.820636 
L 220.406265 205.831379 
L 220.427336 205.764088 
L 220.279824 205.782802 
L 220.322303 205.716244 
L 220.178307 205.737325 
L 220.217687 205.66929 
L 220.068912 205.694069 
L 220.117662 205.624752 
L 219.966496 205.656603 
L 220.009049 205.589906 
L 219.647976 205.567866 
L 219.697674 205.504555 
L 219.534051 205.552614 
L 219.566778 205.494148 
L 219.246898 205.476721 
L 219.030287 205.449767 
L 219.079282 205.379771 
L 218.925784 205.406384 
L 218.963646 205.337222 
L 218.80838 205.358935 
L 218.867765 205.288786 
L 218.728946 205.301748 
L 218.772985 205.231195 
L 218.590867 205.181694 
L 218.653909 205.113317 
L 218.525202 205.132675 
L 218.545049 205.06918 
L 218.385878 205.0408 
L 218.445186 204.96855 
L 218.312156 204.997621 
L 218.335496 204.929062 
L 218.190419 204.877321 
L 218.206143 204.73014 
L 218.17147 204.73105 
L 218.053141 204.675322 
L 218.069481 204.542619 
L 218.014621 204.547121 
L 218.033565 204.482195 
L 217.936806 204.492554 
L 217.966252 204.320342 
L 217.946844 204.323253 
L 217.79398 204.239259 
L 217.817649 204.11949 
L 217.760785 204.118493 
L 217.773926 204.0458 
L 217.656485 204.043444 
L 217.691455 203.910188 
L 217.639913 203.906808 
L 217.674795 203.840906 
L 217.602583 203.833445 
L 217.721286 203.587494 
L 217.689455 203.59201 
L 217.665908 203.596074 
L 217.774525 203.476365 
L 217.728638 203.484799 
L 217.998298 203.15575 
L 217.984801 203.154501 
L 217.954378 203.15073 
L 218.01484 203.092666 
L 217.963874 203.086515 
L 218.062642 202.905128 
L 218.011585 202.903364 
L 218.008106 202.903325 
L 218.082143 202.846096 
L 218.026543 202.846538 
L 218.164331 202.616255 
L 218.155019 202.613571 
L 218.120223 202.50579 
L 218.264627 202.295726 
L 218.247124 202.285608 
L 218.230354 202.274973 
L 218.298535 202.221975 
L 218.274294 202.204548 
L 219.138336 201.530337 
L 219.123832 201.520556 
L 219.112164 201.514122 
L 219.201632 201.471922 
L 219.173786 201.459117 
L 219.540237 201.171009 
L 219.534831 201.168017 
L 219.50833 201.143278 
L 219.591133 201.098362 
L 219.560144 201.059093 
L 219.832209 200.79312 
L 219.916696 200.724917 
L 220.842041 200.248499 
L 220.91072 200.185958 
L 221.277352 199.876362 
L 221.306381 199.780487 
L 221.420876 199.553413 
L 221.461784 199.443616 
L 222.075713 199.028438 
L 222.66974 198.672219 
L 222.751047 198.609531 
L 223.089959 198.451306 
L 223.175141 198.362306 
L 223.44389 198.195441 
L 223.54174 198.109479 
L 223.940456 197.939213 
L 224.186615 197.83993 
L 224.517559 197.69276 
L 224.626588 197.593901 
L 224.870716 197.440341 
L 224.941685 197.373148 
L 225.144564 197.276877 
L 225.138221 197.249406 
L 225.193092 197.185063 
L 225.316446 197.115916 
L 225.308432 197.068958 
L 225.389304 196.913796 
L 225.492299 196.791619 
L 225.615078 196.690829 
L 225.883035 196.568214 
L 226.21392 196.31079 
L 226.393256 196.165537 
L 226.456518 196.085147 
L 226.638819 195.959325 
L 226.692921 195.895246 
L 226.818745 195.765957 
L 226.870193 195.669369 
L 227.035036 195.535604 
L 227.122966 195.453013 
L 227.384269 195.31928 
L 227.609392 195.213828 
L 227.90493 195.054135 
L 228.08457 194.903061 
L 228.304024 194.781713 
L 228.381061 194.685107 
L 228.585266 194.574636 
L 228.647959 194.480015 
L 228.761298 194.40055 
L 228.758622 194.368224 
L 228.808807 194.255022 
L 228.935647 194.144513 
L 229.006683 194.061194 
L 229.227861 193.940638 
L 229.401611 193.867218 
L 229.672366 193.657281 
L 229.805313 193.544745 
L 229.872927 193.46561 
L 229.985994 193.355303 
L 230.100373 193.249298 
L 230.200339 193.205736 
L 230.198692 193.151081 
L 230.298214 193.095575 
L 230.295484 193.044661 
L 230.3837 192.86118 
L 230.511895 192.802261 
L 230.514967 192.765504 
L 230.593136 192.67271 
L 230.73461 192.577706 
L 230.820323 192.523254 
L 231.056151 192.452757 
L 231.257233 192.291283 
L 231.409874 192.201478 
L 231.484427 192.112929 
L 231.621003 192.065219 
L 231.625741 192.024917 
L 231.701146 191.953956 
L 231.832469 191.917411 
L 231.841512 191.870216 
L 231.906536 191.817007 
L 232.019642 191.773567 
L 232.023705 191.724742 
L 232.081928 191.626109 
L 232.216528 191.533535 
L 232.307563 191.433786 
L 232.46816 191.353349 
L 232.558542 191.277236 
L 232.719634 191.195612 
L 232.80625 191.148541 
L 232.977625 191.061653 
L 233.064611 190.948471 
L 233.195133 190.887027 
L 233.196132 190.855597 
L 233.258997 190.736567 
L 233.386047 190.695923 
L 233.384586 190.653092 
L 233.450789 190.574695 
L 233.566894 190.54099 
L 233.563051 190.492836 
L 233.626652 190.491416 
L 233.619475 190.4213 
L 233.743142 190.376996 
L 233.740573 190.338589 
L 233.785358 190.20743 
L 233.910762 190.161929 
L 233.91088 190.131895 
L 233.980866 190.011235 
L 234.096996 189.971716 
L 234.10429 189.939551 
L 234.199533 189.851921 
L 234.380098 189.806171 
L 234.501141 189.754576 
L 234.675733 189.706118 
L 234.869644 189.538549 
L 235.00437 189.496952 
L 235.010065 189.469395 
L 235.144722 189.304803 
L 235.252404 189.269994 
L 235.254785 189.223735 
L 235.350407 189.094587 
L 235.43333 189.035108 
L 235.434463 189.003739 
L 235.521273 188.782059 
L 235.617001 188.721701 
L 235.621915 188.699148 
L 235.769195 188.518136 
L 235.900718 188.455549 
L 236.079474 188.343997 
L 236.200203 188.315547 
L 236.212208 188.287353 
L 236.365417 188.113623 
L 236.476137 188.071104 
L 236.477285 188.044422 
L 236.578102 187.871441 
L 236.680676 187.845654 
L 236.683274 187.800508 
L 236.772709 187.670853 
L 236.882222 187.622574 
L 236.882288 187.596674 
L 236.969873 187.372944 
L 237.063995 187.316018 
L 237.068383 187.297406 
L 237.216976 187.1104 
L 237.326797 187.086618 
L 237.3433 187.054956 
L 237.514544 186.936394 
L 237.634145 186.903239 
L 237.64472 186.880274 
L 237.81687 186.695617 
L 237.939462 186.664101 
L 237.945331 186.640572 
L 238.032791 186.534922 
L 238.156119 186.516114 
L 238.166426 186.480348 
L 238.298809 186.361025 
L 238.397888 186.337783 
L 238.404308 186.29452 
L 238.534234 186.104885 
L 238.643101 186.068793 
L 238.648414 186.044488 
L 238.734364 185.917646 
L 238.860197 185.896412 
L 238.870132 185.867748 
L 239.027168 185.758264 
L 239.203398 185.658325 
L 239.34162 185.628811 
L 239.349463 185.611741 
L 239.473217 185.482866 
L 239.610399 185.451951 
L 239.61527 185.435326 
L 239.707276 185.307866 
L 239.833116 185.284381 
L 239.839994 185.256121 
L 239.923163 185.158696 
L 240.045348 185.148034 
L 240.053761 185.107919 
L 240.129793 185.005788 
L 240.246029 184.957895 
L 240.248027 184.947167 
L 240.395951 184.760469 
L 240.559889 184.629531 
L 240.744556 184.502982 
L 240.890434 184.475451 
L 241.131472 184.330447 
L 241.276164 184.294353 
L 241.278114 184.290676 
L 241.468634 184.074349 
L 241.58174 184.042924 
L 241.587427 184.019576 
L 241.73571 183.880922 
L 241.873438 183.768531 
L 241.980015 183.740833 
L 241.984495 183.716381 
L 242.119808 183.480224 
L 242.233715 183.444375 
L 242.237646 183.430349 
L 242.338865 183.289525 
L 242.464542 183.274534 
L 242.474185 183.249237 
L 242.573758 183.152289 
L 242.711182 183.153115 
L 242.727957 183.125591 
L 242.931342 182.987073 
L 243.06652 182.966121 
L 243.070191 182.958608 
L 243.244826 182.753684 
L 243.346397 182.733868 
L 243.350863 182.69835 
L 243.467607 182.551709 
L 243.560167 182.551284 
L 243.565653 182.491772 
L 243.609592 182.505348 
L 243.666579 182.35114 
L 243.708967 182.38425 
L 243.712129 182.273481 
L 243.753194 182.278123 
L 243.869654 182.076366 
L 243.8972 182.110553 
L 243.922904 182.015942 
L 243.963163 182.017704 
L 244.060804 181.907658 
L 244.111569 181.926915 
L 244.219225 181.823003 
L 244.264371 181.856615 
L 244.39662 181.745803 
L 244.513702 181.733926 
L 244.527257 181.707736 
L 244.703042 181.517385 
L 244.733481 181.553391 
L 244.761081 181.457826 
L 244.800247 181.461335 
L 244.921606 181.292347 
L 244.954074 181.333622 
L 244.972782 181.24568 
L 245.018887 181.236405 
L 245.120309 181.118009 
L 245.157675 181.154376 
L 245.168974 181.05767 
L 245.197912 181.040312 
L 245.294835 180.832159 
L 245.330541 180.865187 
L 245.357398 180.762171 
L 245.390978 180.772221 
L 245.568989 180.585149 
L 245.69045 180.575945 
L 245.700805 180.559686 
L 245.842038 180.462892 
L 245.984532 180.461636 
L 245.993026 180.450384 
L 246.223912 180.250453 
L 246.34024 180.22084 
L 246.344081 180.210758 
L 246.552533 179.941124 
L 246.651488 179.940494 
L 246.612255 179.895275 
L 246.662816 179.904599 
L 246.784165 179.760234 
L 246.815551 179.798401 
L 246.83761 179.694494 
L 246.86888 179.688903 
L 246.981449 179.463495 
L 247.017524 179.489871 
L 247.185906 179.266326 
L 247.295695 179.253283 
L 247.302855 179.24253 
L 247.448552 179.130229 
L 247.486246 179.169044 
L 247.774759 179.018534 
L 247.80485 179.060737 
L 247.876896 178.97313 
L 247.906876 179.001441 
L 248.175898 178.72507 
L 248.200269 178.762592 
L 248.235977 178.670979 
L 248.278199 178.680591 
L 248.438598 178.537249 
L 248.465059 178.578213 
L 248.499508 178.490959 
L 248.536068 178.483731 
L 248.716556 178.211233 
L 248.74548 178.25151 
L 248.78332 178.144773 
L 248.819626 178.16752 
L 249.009544 177.999047 
L 249.197036 177.884219 
L 249.313447 177.891112 
L 249.322828 177.880151 
L 249.556013 177.7347 
L 249.574601 177.777118 
L 249.637734 177.675312 
L 249.667202 177.711744 
L 249.889503 177.453175 
L 249.922056 177.499882 
L 249.954282 177.403773 
L 249.995339 177.413247 
L 250.152022 177.283131 
L 250.248371 177.300927 
L 250.265577 177.259267 
L 250.422822 177.097905 
L 250.450982 177.142627 
L 250.487535 177.028803 
L 250.524972 177.052518 
L 250.703737 176.855325 
L 250.727344 176.902969 
L 250.78184 176.806528 
L 250.816057 176.834355 
L 251.029899 176.697282 
L 251.038307 176.735325 
L 251.181695 176.622368 
L 251.190816 176.671858 
L 251.266189 176.59288 
L 251.29496 176.628012 
L 251.545695 176.460385 
L 251.655377 176.457291 
L 251.663159 176.445771 
L 251.873261 176.272997 
L 251.888271 176.31592 
L 251.943606 176.225639 
L 251.981404 176.2473 
L 252.163514 176.126555 
L 252.172973 176.17889 
L 252.227033 176.09456 
L 252.271818 176.101867 
L 252.521958 175.88034 
L 252.541798 175.931548 
L 252.603337 175.832894 
L 252.63164 175.859831 
L 252.862761 175.71017 
L 252.881488 175.761337 
L 252.983428 175.716882 
L 253.154703 175.633966 
L 253.183421 175.678344 
L 253.480574 175.575129 
L 253.493364 175.62154 
L 253.584519 175.54074 
L 253.597658 175.582282 
L 253.785736 175.468227 
L 253.799226 175.513883 
L 253.883047 175.432261 
L 253.901763 175.469387 
L 254.141567 175.332562 
L 254.151302 175.382644 
L 254.228158 175.303986 
L 254.25386 175.331045 
L 254.495894 175.217915 
L 254.499582 175.26037 
L 254.579364 175.179429 
L 254.603964 175.187619 
L 254.900669 174.997744 
L 254.900196 175.043159 
L 254.987415 174.968545 
L 255.009843 175.012815 
L 255.269862 174.934731 
L 255.272706 174.983718 
L 255.366034 174.929076 
L 255.382803 174.96942 
L 255.630269 174.967723 
L 255.922075 174.932643 
L 255.928873 174.981638 
L 256.031864 174.932594 
L 256.0463 174.9741 
L 256.265433 174.91399 
L 256.271443 174.958311 
L 256.372537 174.899051 
L 256.380873 174.939621 
L 256.661661 174.854769 
L 256.659397 174.902138 
L 256.760683 174.8471 
L 256.770006 174.887696 
L 257.072635 174.838749 
L 257.059747 174.88601 
L 257.176341 174.827728 
L 257.176013 174.875981 
L 257.51005 174.774039 
L 257.504434 174.819723 
L 257.613664 174.76797 
L 257.617416 174.80924 
L 257.893143 174.811801 
L 257.879159 174.861784 
L 257.988907 174.88092 
L 258.2826 174.936624 
L 258.529988 174.991671 
L 258.521095 175.035722 
L 258.638425 175.006556 
L 258.637003 175.047573 
L 258.966555 175.014676 
L 258.95812 175.063654 
L 259.073619 175.020715 
L 259.070811 175.062303 
L 259.37243 175.040268 
L 259.348097 175.091113 
L 259.469376 175.05102 
L 259.468462 175.093278 
L 259.759271 175.100432 
L 259.729828 175.153212 
L 259.869523 175.11142 
L 259.854772 175.155213 
L 260.306491 175.068838 
L 260.287735 175.120502 
L 260.406125 175.07034 
L 260.407091 175.113697 
L 260.762168 175.085416 
L 260.731957 175.136293 
L 260.854691 175.092266 
L 260.866813 175.124267 
L 261.20036 175.131162 
L 261.159956 175.174647 
L 261.336301 175.147469 
L 261.663823 175.12625 
L 261.628797 175.172261 
L 261.808796 175.119046 
L 261.793058 175.160134 
L 262.082475 175.107297 
L 262.047141 175.160029 
L 262.176514 175.114006 
L 262.18075 175.157815 
L 262.715683 175.05034 
L 262.682137 175.106423 
L 262.800655 175.044548 
L 262.834185 175.068604 
L 263.150264 175.038512 
L 263.129893 175.073526 
L 263.401009 175.064697 
L 264.581189 174.642976 
L 264.566908 174.663835 
L 264.948427 174.475552 
L 265.401362 174.362781 
L 265.359627 174.405259 
L 265.57223 174.333642 
L 265.546328 174.372412 
L 268.786629 172.737041 
L 268.776583 172.770248 
L 269.161148 172.517067 
L 269.134015 172.558777 
L 269.469688 172.246354 
L 269.448083 172.287467 
L 269.811308 172.001302 
L 269.800547 172.050819 
L 269.95236 171.870982 
L 269.967059 171.887378 
L 270.182486 171.722564 
L 270.162893 171.769748 
L 270.323725 171.668161 
L 270.310511 171.703669 
L 270.762164 171.483892 
L 271.509937 171.017159 
L 271.486092 171.065565 
L 271.713303 170.854827 
L 271.695719 170.886451 
L 271.993689 170.736018 
L 271.963543 170.780667 
L 272.132996 170.701399 
L 272.130018 170.731372 
L 272.909974 170.389472 
L 272.885388 170.439258 
L 273.043261 170.338199 
L 273.038785 170.378759 
L 273.373204 170.221899 
L 273.350496 170.279504 
L 273.532899 170.117811 
L 273.519131 170.141601 
L 273.825294 169.962844 
L 273.833534 169.982994 
L 274.804372 169.11534 
L 275.184273 168.778087 
L 275.145639 168.807048 
L 275.782774 168.125869 
L 276.056172 167.894592 
L 275.766531 168.143704 
L 276.05682 167.900813 
L 276.050002 167.904807 
L 276.79368 167.186058 
L 277.157272 166.956935 
L 277.161634 166.971674 
L 278.042379 166.416901 
L 278.021509 166.452191 
L 278.216074 166.340241 
L 278.20508 166.358933 
L 279.13733 165.752458 
L 279.119339 165.784118 
L 279.32224 165.651407 
L 280.450863 164.861241 
L 280.42514 164.892108 
L 280.655777 164.774448 
L 280.660835 164.782459 
L 282.247472 163.506065 
L 282.223584 163.523294 
L 282.856582 163.085734 
L 282.845629 163.119877 
L 282.994694 163.016129 
L 283.339719 162.875441 
L 282.978167 163.042946 
L 283.342374 162.887369 
L 284.369376 162.252327 
L 284.684631 162.04932 
L 284.666077 162.078734 
L 284.842907 161.991027 
L 284.842292 162.006648 
L 285.916233 161.528108 
L 285.903739 161.557204 
L 286.069392 161.452123 
L 286.431015 161.207778 
L 286.424337 161.232662 
L 286.742186 161.104958 
L 288.66203 160.171299 
L 288.660662 160.187755 
L 289.824806 159.932907 
L 289.809114 159.965477 
L 289.949233 159.929072 
L 290.686078 159.692268 
L 290.670083 159.72925 
L 290.809064 159.685873 
L 291.33196 159.547959 
L 291.295459 159.573846 
L 291.923216 159.264737 
L 294.037975 157.993939 
L 294.009462 158.014386 
L 294.700664 157.663277 
L 294.693573 157.670323 
L 296.946249 156.194726 
L 297.315333 155.925045 
L 296.948867 156.205223 
L 297.309298 155.93817 
L 298.069356 155.329861 
L 298.806475 154.661241 
L 298.788418 154.669952 
L 299.199144 154.290211 
L 299.180085 154.298186 
L 299.477632 153.874009 
L 299.872794 153.537951 
L 300.103427 153.249309 
L 300.080123 153.249215 
L 300.161968 152.976623 
L 300.131491 152.986554 
L 300.150208 152.881248 
L 300.135349 152.869448 
L 300.352027 151.689037 
L 300.337458 151.70104 
L 300.119615 151.371861 
L 300.05768 151.332014 
L 300.056702 151.278987 
L 300.042844 151.281748 
L 299.954997 151.095947 
L 299.852573 151.034002 
L 299.851589 151.031727 
L 299.650121 150.817719 
L 299.52799 150.751265 
L 299.343601 150.641426 
L 299.220331 150.602435 
L 298.970907 150.525758 
L 298.818585 150.47096 
L 298.352186 150.185248 
L 298.181431 150.159917 
L 297.75593 149.890049 
L 297.623441 149.846455 
L 297.385768 149.807051 
L 297.146774 149.801331 
L 295.186773 149.110487 
L 294.357659 148.82172 
L 293.517626 148.383887 
L 292.884722 148.236596 
L 292.393458 148.041505 
L 291.146887 147.231938 
L 290.860975 147.019192 
L 290.774929 146.800028 
L 290.685194 146.334023 
L 290.515402 146.237845 
L 289.979551 146.185852 
L 289.353544 146.191414 
L 285.493386 146.114387 
L 284.496377 146.186099 
L 282.565582 146.195652 
L 282.110827 146.179943 
L 281.941533 146.148582 
L 279.187415 145.801788 
L 277.418745 145.403459 
L 276.732518 145.171964 
L 274.630129 144.356386 
L 274.578521 144.294224 
L 274.545408 144.279563 
L 273.983097 143.923058 
L 273.919106 143.860376 
L 273.896752 143.849852 
L 268.457909 141.457432 
L 267.899144 141.277747 
L 266.937877 141.199467 
L 265.588723 141.043741 
L 265.592167 141.026467 
L 265.484574 141.024181 
L 265.482588 141.009481 
L 264.607661 141.139776 
L 264.138534 141.263158 
L 263.001779 141.49102 
L 262.872939 141.499638 
L 262.308597 141.805767 
L 262.303822 141.794535 
L 262.002107 141.975217 
L 260.619168 142.861282 
L 260.532876 142.956651 
L 260.133061 143.153829 
L 260.017378 143.23469 
L 259.636267 143.453358 
L 259.23221 143.833549 
L 259.02508 144.050915 
L 258.641829 144.708581 
L 258.666033 144.704921 
L 258.710933 145.04624 
L 258.713586 145.03727 
L 258.77438 145.194597 
L 258.789406 145.179134 
L 258.778475 145.307941 
L 258.801184 145.326115 
L 258.845812 145.333591 
L 258.873705 145.444866 
L 258.917435 145.421748 
L 258.893495 145.554526 
L 258.930685 145.540804 
L 258.86543 145.675932 
L 258.884061 145.675987 
L 258.870292 145.86871 
L 258.605526 146.256266 
L 258.485748 146.310316 
L 258.180874 146.427039 
L 258.055861 146.476177 
L 257.756271 146.608767 
L 257.648185 146.620699 
L 257.636893 146.628047 
L 257.205432 146.807605 
L 257.109802 146.811043 
L 257.089847 146.84756 
L 256.929349 146.945704 
L 256.812934 146.947303 
L 256.797385 146.965129 
L 256.560152 147.086721 
L 256.48064 147.112382 
L 256.462346 147.139807 
L 256.288366 147.266529 
L 256.140528 147.305374 
L 255.927362 147.399348 
L 255.750671 147.453615 
L 255.605358 147.607675 
L 255.491284 147.643349 
L 255.485044 147.671367 
L 255.342087 147.839107 
L 255.219858 147.896754 
L 255.064024 147.991011 
L 254.916552 148.04619 
L 254.626491 148.193008 
L 254.444156 148.248855 
L 254.292714 148.293583 
L 253.430298 149.039786 
L 253.338797 149.119356 
L 253.070846 149.381807 
L 253.059912 149.360772 
L 252.984287 149.455258 
L 252.96782 149.448489 
L 252.805475 149.790407 
L 252.706042 149.852563 
L 252.703892 149.863726 
L 252.564219 149.995593 
L 252.120554 150.366962 
L 252.001888 150.428 
L 249.99138 151.859506 
L 249.614595 152.242248 
L 249.499988 152.290478 
L 249.110427 152.546798 
L 248.985179 152.588742 
L 246.777378 154.230173 
L 246.640091 154.393382 
L 246.561373 154.481084 
L 246.321411 154.774968 
L 246.306356 154.763671 
L 246.246696 154.856617 
L 245.490414 155.955016 
L 245.388651 156.044953 
L 245.14631 156.280794 
L 244.184646 157.202488 
L 243.49516 157.556887 
L 243.368039 157.605129 
L 242.347301 158.070103 
L 241.684234 158.228879 
L 241.507122 158.25014 
L 241.138829 158.295949 
L 240.973223 158.318148 
L 240.060376 158.730962 
L 239.904916 158.763073 
L 238.539539 159.624411 
L 238.315207 159.854542 
L 236.750107 161.219756 
L 236.627622 161.273949 
L 236.171001 161.533768 
L 234.390414 162.533646 
L 234.24193 162.561006 
L 233.370268 163.053265 
L 233.111516 163.219341 
L 232.295912 163.656372 
L 231.380923 164.1765 
L 231.040483 164.340314 
L 227.3413 166.058582 
L 226.951753 166.306142 
L 226.144605 166.607117 
L 224.16505 167.232472 
L 224.176143 167.218482 
L 223.490003 167.392758 
L 223.567119 167.31481 
L 223.991147 167.023968 
L 223.722753 166.987929 
L 223.663882 166.96172 
L 223.903166 166.853312 
L 223.851999 166.844235 
L 223.732372 166.832039 
L 223.856766 166.845355 
L 223.713564 166.911161 
L 223.480046 167.169677 
L 223.481889 167.170078 
L 223.322212 167.378495 
L 223.300237 167.277248 
L 223.156642 167.209728 
L 223.546544 167.374125 
L 224.276928 167.729167 
L 224.251157 167.8174 
L 224.267807 167.846178 
L 224.24684 167.853147 
L 224.30245 168.086018 
L 224.324136 168.691936 
L 224.190392 168.84851 
L 223.975838 169.094659 
L 223.793082 169.184874 
L 223.765764 169.668648 
L 223.764069 169.806806 
L 223.571949 170.033166 
L 223.352848 170.253132 
L 223.106539 170.757846 
L 223.120509 170.765813 
L 223.102303 170.786392 
L 223.088887 170.867498 
L 223.029007 170.99449 
L 222.879241 171.120681 
L 222.821628 170.960385 
L 222.971253 170.80747 
L 223.155653 170.868844 
L 223.145137 170.87806 
L 223.166937 171.006781 
L 223.066095 171.109837 
L 222.944012 171.160992 
L 222.706581 171.029758 
L 222.801746 170.85692 
L 222.816709 170.860864 
L 223.06545 170.91664 
L 223.05246 170.924587 
L 223.066625 171.035872 
L 223.033324 170.935428 
L 223.038324 171.035783 
L 223.054554 171.068377 
L 222.973555 171.111547 
L 222.989434 171.133965 
L 222.802991 171.219001 
L 222.679457 171.239961 
L 222.606537 171.093727 
L 222.631872 171.087166 
L 223.095315 171.039302 
L 222.618913 171.077463 
L 222.609915 170.982659 
L 222.580426 170.919442 
L 222.774899 171.081958 
L 222.659071 171.114534 
L 222.649302 171.110228 
L 222.566278 171.414712 
L 222.549943 171.241425 
L 222.562638 171.455381 
L 222.562699 171.235088 
L 222.95056 171.048076 
L 222.55583 171.224395 
L 222.711233 171.050259 
L 222.576157 170.905972 
L 222.778557 171.075774 
L 222.817991 171.010674 
L 222.84139 170.993577 
L 222.721045 171.088557 
L 222.71909 171.1138 
L 222.599382 171.488261 
L 222.710705 171.103986 
L 222.592149 171.446455 
L 222.591286 171.178256 
L 222.594792 171.180609 
L 222.608125 171.179584 
L 222.532396 171.229778 
L 222.533586 171.255185 
" clip-path="url(#p23289a31a6)" style="fill: none; stroke: #1f77b4; stroke-width: 1.5; stroke-linecap: square"/>
   </g>
   <g id="line2d_28">
    <path d="M 216.991611 170.337487 
L 216.609538 170.258607 
L 216.544603 170.192895 
L 216.733435 170.31807 
L 216.764901 170.227098 
L 216.911244 170.080332 
L 216.718 170.647349 
L 216.72218 170.647678 
L 216.776608 170.529697 
L 216.800296 170.443621 
L 216.673577 170.487272 
L 215.440741 171.043373 
L 214.89836 171.194328 
L 214.29045 171.370543 
L 214.246218 171.407926 
L 215.521087 170.778156 
L 216.15779 170.459226 
L 216.615916 169.982623 
L 216.894027 169.652357 
L 217.154616 169.321724 
L 217.0645 169.035018 
L 216.139606 168.021452 
L 215.65595 167.917795 
L 213.287471 167.79692 
L 211.865217 168.277639 
L 211.209045 168.572363 
L 210.108195 169.454824 
L 209.522315 169.875383 
L 208.877375 170.468912 
L 208.149305 170.969595 
L 207.847779 171.273448 
L 207.440017 171.715017 
L 206.672595 172.38285 
L 206.025223 173.124761 
L 205.372878 173.419436 
L 204.747444 173.661803 
L 204.105328 173.939938 
L 202.414517 173.957265 
L 200.668994 173.833657 
L 195.915235 173.189316 
L 195.63969 173.108269 
L 195.616544 173.308225 
L 196.101884 174.174082 
L 195.733133 174.745296 
L 195.976079 175.101374 
L 196.064349 175.413992 
L 196.003794 175.93379 
L 196.043744 176.334233 
L 196.109097 177.086368 
L 196.12468 177.973136 
L 196.115776 178.357099 
L 195.798113 179.628726 
L 195.700591 179.861473 
L 195.065065 181.086466 
L 194.885789 181.324617 
L 193.066549 183.152819 
L 192.765772 183.496773 
L 191.917572 185.298556 
L 191.812531 185.732452 
L 191.789179 186.423313 
L 191.92095 187.313351 
L 191.772875 188.098335 
L 191.757075 188.473779 
L 191.396338 189.515159 
L 191.160562 190.218459 
L 188.731636 194.007046 
L 188.502853 194.435069 
L 187.923839 195.21395 
L 187.915174 195.695648 
L 187.767663 196.098863 
L 187.667892 196.794472 
L 187.856797 197.05011 
L 187.922449 197.293902 
L 187.692204 198.871312 
L 187.506492 199.490101 
L 187.793999 199.65944 
L 188.219581 200.10789 
L 188.356576 200.295401 
L 188.079775 199.628495 
L 188.149391 199.290676 
L 188.527199 199.126462 
L 189.146044 199.033729 
L 190.566722 198.932015 
L 191.20197 198.97498 
L 192.471637 198.994569 
L 193.083806 199.224096 
L 193.855259 199.49287 
L 195.478349 200.153929 
L 195.909035 200.400209 
L 197.391712 200.813105 
L 198.014008 200.998115 
L 198.632298 201.152152 
L 200.978233 201.480432 
L 201.772609 201.704196 
L 203.560955 202.232758 
L 204.071238 202.391574 
L 205.508021 202.540907 
L 206.121776 202.67539 
L 207.085374 202.872622 
L 208.654769 203.119969 
L 214.358782 205.156666 
L 215.239451 205.469927 
L 215.952526 205.642072 
L 216.709986 205.816415 
L 217.470523 205.790479 
L 218.017455 205.661207 
L 218.887255 205.305858 
L 220.454767 204.714361 
L 221.060034 204.788223 
L 221.769941 204.826894 
L 222.339055 204.82906 
L 223.655996 205.038997 
L 224.395971 205.330137 
L 226.132892 205.614343 
L 227.794695 206.238135 
L 228.393442 206.305474 
L 228.961354 206.429611 
L 230.749657 207.078712 
L 231.562708 207.25275 
L 233.214535 207.907284 
L 236.256555 208.811793 
L 236.082165 209.197412 
L 235.935917 209.661926 
L 236.091301 209.739464 
L 236.103118 209.728856 
L 236.062243 209.612592 
L 235.989938 209.314671 
L 236.122059 209.104284 
L 236.181613 208.993987 
L 236.115152 208.959481 
L 234.319926 208.151592 
L 233.785293 207.92358 
L 232.440511 207.582017 
L 230.717995 207.156781 
L 230.02582 206.981553 
L 228.709507 206.55904 
L 227.876438 206.414708 
L 227.246571 206.228027 
L 226.602536 206.031706 
L 223.682015 205.243676 
L 222.765416 204.914086 
L 222.070384 204.733865 
L 221.334789 204.195163 
L 220.762249 203.278575 
L 220.928645 202.819427 
L 221.101643 202.269519 
L 221.346592 201.672922 
L 222.918151 200.074851 
L 223.439258 199.744065 
L 224.950999 198.583576 
L 225.607393 198.048349 
L 226.452226 197.342593 
L 226.898511 196.902513 
L 227.93079 195.776656 
L 228.380803 195.334267 
L 229.630597 194.317177 
L 230.367022 193.62174 
L 230.735538 193.219251 
L 231.857656 192.331951 
L 232.495333 191.68553 
L 232.992411 191.321272 
L 234.068142 190.394936 
L 234.404757 190.086588 
L 235.42218 188.869941 
L 235.838696 188.539873 
L 238.301827 186.046964 
L 238.995541 185.494008 
L 239.366121 185.064797 
L 239.878155 184.719372 
L 240.458715 184.201581 
L 241.637086 183.266018 
L 242.273945 182.645555 
L 242.692677 182.179008 
L 243.526687 181.431762 
L 244.398681 180.49684 
L 244.909031 179.875112 
L 245.219019 179.462907 
L 246.28333 178.490101 
L 246.595579 178.089867 
L 247.183299 177.786756 
L 247.575888 177.419044 
L 247.812625 177.100421 
L 248.125037 176.782476 
L 248.924903 176.114059 
L 249.698154 175.31987 
L 250.241771 174.943335 
L 251.248022 174.179577 
L 252.516691 173.629749 
L 253.308509 173.317772 
L 255.07934 173.101422 
L 255.506876 173.090639 
L 257.481749 173.332401 
L 258.80292 173.263535 
L 259.920372 173.191423 
L 261.938531 172.782174 
L 263.616656 172.247151 
L 264.491146 171.841781 
L 265.066808 171.463436 
L 265.905386 170.954455 
L 266.915855 169.938086 
L 267.632774 169.092672 
L 268.138147 168.700315 
L 268.941221 168.071769 
L 269.432414 167.762035 
L 270.89537 166.213121 
L 271.096618 165.912109 
L 271.709968 165.154826 
L 272.049946 164.65466 
L 272.849197 163.978514 
L 273.264167 163.571609 
L 274.354859 162.650725 
L 274.628787 162.434278 
L 275.368981 161.795738 
L 276.330445 160.861906 
L 276.658399 160.374256 
L 276.98163 160.048155 
L 277.721016 159.432037 
L 278.298677 158.924855 
L 279.06081 158.481039 
L 279.30113 158.187746 
L 279.662095 157.931952 
L 280.536323 157.412519 
L 281.403217 156.719749 
L 282.112904 156.137721 
L 282.382811 155.954211 
L 284.253223 155.177148 
L 285.588454 154.365695 
L 285.981068 154.080617 
L 286.688897 153.618894 
L 287.467554 152.927465 
L 287.992727 152.540895 
L 289.768144 150.939009 
L 290.503447 150.080185 
L 290.725466 149.624755 
L 291.477646 148.770692 
L 291.671826 148.331513 
L 292.020189 147.700822 
L 292.081896 146.39935 
L 291.273072 145.487266 
L 290.687397 145.163949 
L 290.211135 144.911809 
L 289.441545 144.410908 
L 288.928397 144.246379 
L 288.344476 144.036127 
L 286.916201 143.366223 
L 286.066762 143.11001 
L 285.071105 142.68603 
L 284.450503 142.542621 
L 283.872114 142.37444 
L 281.767758 141.229182 
L 281.488745 140.717137 
L 280.408589 140.631258 
L 275.689627 140.599863 
L 275.000468 140.612341 
L 273.534299 140.595021 
L 271.605728 140.578197 
L 268.808954 140.054166 
L 268.10231 139.893589 
L 267.428552 139.724887 
L 265.989384 139.193325 
L 264.932402 138.883747 
L 263.430334 138.329298 
L 262.918162 138.100137 
L 262.430077 137.873521 
L 262.086788 137.673094 
L 261.533752 137.496056 
L 260.887407 137.315274 
L 259.439819 136.8324 
L 257.506636 136.432782 
L 256.792707 136.380136 
L 255.814667 136.343461 
L 254.704569 136.34842 
L 254.101851 136.523928 
L 253.264199 136.792773 
L 251.947784 137.250912 
L 250.852926 137.97768 
L 250.225201 138.396175 
L 249.953276 138.605616 
L 248.855142 139.171698 
L 247.700095 140.576026 
L 247.605688 140.954061 
L 247.374841 141.264312 
L 247.003065 141.656588 
L 246.519058 142.179357 
L 245.038244 142.977197 
L 244.297225 143.560068 
L 243.941547 143.891521 
L 243.324393 144.667514 
L 242.613297 145.392151 
L 242.342634 145.747627 
L 241.787016 146.390539 
L 241.39732 147.10386 
L 240.67839 147.591479 
L 238.576185 148.95101 
L 238.008399 149.448103 
L 236.650073 150.641999 
L 235.845698 151.545129 
L 235.444083 152.197317 
L 235.078848 152.828537 
L 234.893133 153.249604 
L 234.181143 154.286114 
L 233.917828 154.515653 
L 232.55628 155.302005 
L 232.159047 155.521751 
L 230.917106 155.942115 
L 230.517882 156.260177 
L 230.103633 156.54063 
L 229.636502 156.84203 
L 228.925252 157.447077 
L 228.664675 157.785984 
L 227.97101 158.505295 
L 227.515034 159.103538 
L 226.370884 160.003041 
L 225.975571 160.281593 
L 224.966803 160.883541 
L 223.513803 161.97116 
L 222.9912 162.402111 
L 222.548422 162.637459 
L 221.403936 163.257505 
L 220.7805 163.694061 
L 220.362045 163.929381 
L 216.821895 165.738328 
L 216.440276 165.883236 
L 216.077234 166.125667 
L 216.552043 165.847481 
L 216.323649 165.832633 
L 216.13846 165.933479 
L 216.434536 165.770234 
L 216.142679 165.951069 
L 216.273649 166.343916 
L 216.144775 166.361055 
L 215.753104 166.477198 
L 215.754851 166.488627 
L 215.891053 166.578983 
L 216.687157 166.982494 
L 216.911799 167.223045 
L 217.114411 168.181374 
L 216.865596 169.075686 
L 216.889093 169.520039 
L 216.628653 170.106017 
L 216.579476 170.483855 
L 216.327896 170.734503 
L 216.250687 170.599893 
L 216.276054 170.407925 
L 216.543607 170.372931 
L 216.708931 170.532037 
L 216.627213 170.709334 
L 216.383648 170.73593 
L 216.192581 170.553998 
L 216.240754 170.39942 
L 216.529117 170.382258 
L 216.633027 170.569389 
L 216.465132 170.685822 
L 216.30292 170.641839 
L 216.299938 170.630542 
L 216.397428 170.532112 
L 216.64745 170.524764 
L 216.844004 170.503536 
L 216.342184 170.408882 
L 216.331718 170.338707 
L 216.497379 170.498206 
L 216.510474 170.485518 
L 216.63053 170.294604 
L 216.447195 170.797862 
L 216.455929 170.862434 
L 216.552937 170.576159 
L 216.824894 170.533082 
L 216.420395 170.48384 
L 216.31784 170.351921 
L 216.543214 170.417518 
L 216.678304 170.245767 
L 216.514374 170.598194 
L 216.487004 170.792405 
L 216.504429 170.547286 
L 216.504922 170.547458 
" clip-path="url(#p23289a31a6)" style="fill: none; stroke: #2ca02c; stroke-width: 1.5; stroke-linecap: square"/>
   </g>
   <g id="line2d_29">
    <path d="M 216.991611 170.337487 
L 217.025506 170.347385 
L 216.731234 170.219311 
L 216.986623 170.225428 
L 217.021609 170.177776 
L 216.874217 170.55351 
L 216.827494 170.252112 
L 216.188281 170.485249 
L 216.29447 170.462972 
L 215.992215 170.514248 
L 215.805769 170.568305 
L 217.093611 170.306029 
L 217.448564 170.012769 
L 217.974142 169.42489 
L 217.937402 169.028322 
L 217.35058 168.357946 
L 216.714845 168.007036 
L 215.951197 167.774276 
L 215.104607 167.677118 
L 213.814246 167.729982 
L 212.567874 167.998903 
L 212.005647 168.278014 
L 208.597292 170.814155 
L 207.77709 171.693744 
L 206.302572 172.848944 
L 205.37099 173.214149 
L 203.988951 173.449382 
L 202.871789 173.439532 
L 200.222605 173.109658 
L 198.105962 172.823496 
L 196.543549 172.898451 
L 196.589054 173.028463 
L 196.747774 173.585467 
L 196.345484 174.377443 
L 196.581515 174.94605 
L 196.765057 175.534172 
L 196.720402 177.633496 
L 196.208335 179.655557 
L 195.486373 180.964004 
L 194.146395 182.29969 
L 192.846639 183.328421 
L 192.604402 183.867164 
L 192.323135 184.800821 
L 191.873584 185.866199 
L 192.148711 186.823644 
L 191.962446 187.927123 
L 191.455901 189.296798 
L 189.81215 191.43446 
L 188.519531 192.768052 
L 187.793877 193.84708 
L 187.619971 195.034176 
L 187.684237 195.406033 
L 188.069222 196.554566 
L 187.742411 198.119609 
L 188.241631 198.652429 
L 188.027016 198.242021 
L 188.154613 198.048137 
L 188.6149 197.81747 
L 189.225679 197.720148 
L 191.029837 197.669405 
L 191.940299 197.679832 
L 192.258833 197.544746 
L 192.250642 197.536566 
L 192.142596 197.463801 
L 192.384259 197.509497 
L 193.340054 197.743284 
L 196.424007 198.774165 
L 199.955282 199.277953 
L 201.821212 199.604581 
L 202.755416 199.922871 
L 207.504456 201.024032 
L 210.9826 202.164366 
L 214.768386 203.542707 
L 215.425456 203.483511 
L 216.114419 203.217758 
L 217.279508 202.856698 
L 218.1941 202.758949 
L 220.063883 202.810746 
L 221.131873 203.162649 
L 222.250714 203.496873 
L 228.50341 205.291863 
L 231.343706 206.073319 
L 233.233442 206.715723 
L 233.181322 206.840647 
L 232.976038 207.24702 
L 232.742335 207.500157 
L 232.566454 207.60582 
L 232.52915 207.530099 
L 232.559777 207.210329 
L 232.908156 207.062923 
L 232.804829 206.995766 
L 232.478196 206.817834 
L 230.04918 205.89136 
L 219.708496 202.958982 
L 218.940155 202.518795 
L 218.416276 201.945342 
L 218.327083 201.429363 
L 218.473912 200.995266 
L 218.979438 200.143368 
L 220.16925 199.1359 
L 222.51843 197.169057 
L 224.942814 195.912241 
L 225.603922 195.255636 
L 226.525749 194.499261 
L 227.659477 193.631042 
L 228.497998 193.059627 
L 228.994881 192.595843 
L 229.713255 191.946667 
L 234.058627 188.280923 
L 236.600366 185.762677 
L 237.197324 185.273872 
L 239.632364 183.38732 
L 240.287692 182.881018 
L 243.942417 179.890166 
L 246.914385 177.321787 
L 248.659545 176.064843 
L 249.654018 175.345263 
L 250.303728 174.884557 
L 252.131467 173.82753 
L 253.698079 173.138578 
L 255.934527 172.720018 
L 256.875177 172.803142 
L 258.384023 172.935545 
L 259.9968 172.803126 
L 261.058342 172.715971 
L 262.178506 172.44864 
L 265.597016 171.184312 
L 266.713713 170.543727 
L 267.14357 170.092966 
L 267.695603 169.626601 
L 268.375577 169.02632 
L 268.90476 168.611719 
L 269.496609 168.226084 
L 270.414216 167.718003 
L 271.396626 167.250801 
L 272.505524 166.210127 
L 273.08028 165.475749 
L 273.455781 165.03793 
L 273.636289 164.670617 
L 274.381239 164.097402 
L 280.102426 159.691947 
L 282.790986 158.192105 
L 283.429724 157.834693 
L 284.709452 157.003442 
L 286.170373 156.40715 
L 286.961486 156.041404 
L 287.480992 155.744517 
L 288.644355 155.066366 
L 289.260416 154.650519 
L 290.384545 153.835068 
L 293.897189 151.2814 
L 295.603667 149.361765 
L 295.855243 148.764945 
L 296.00538 148.183328 
L 295.945966 147.79505 
L 295.53961 147.300111 
L 295.041804 146.92389 
L 294.339962 146.533957 
L 293.084429 146.04551 
L 288.464851 144.522637 
L 286.832548 143.868948 
L 285.434317 143.109472 
L 285.338773 142.7839 
L 285.117564 142.648471 
L 283.356361 142.480191 
L 276.788131 142.552521 
L 273.793014 142.216114 
L 271.341114 141.561157 
L 266.926353 139.797586 
L 266.238922 139.461161 
L 265.272058 139.148014 
L 262.660408 138.426555 
L 260.510151 138.082646 
L 259.446791 138.103322 
L 258.196305 138.350696 
L 256.589341 138.927944 
L 255.383818 139.780716 
L 253.783479 141.138165 
L 253.51125 142.016538 
L 253.74051 142.39849 
L 253.661544 142.560507 
L 252.990686 143.268083 
L 252.38838 143.585927 
L 251.73161 143.887897 
L 249.938972 144.897387 
L 248.49714 146.045585 
L 248.216414 146.316564 
L 247.776695 146.724965 
L 247.006165 147.806373 
L 246.467858 148.216073 
L 245.352749 149.127875 
L 243.463317 150.40816 
L 242.362247 151.438634 
L 242.076089 151.932064 
L 241.653357 152.547214 
L 239.732775 154.829161 
L 238.755635 155.265082 
L 235.835326 156.353843 
L 235.005008 156.948017 
L 232.004698 159.471777 
L 227.255293 162.283657 
L 225.96994 162.91922 
L 223.614519 164.233656 
L 221.699818 165.057587 
L 220.770238 165.297814 
L 220.840381 165.179946 
L 221.050339 165.059386 
L 220.801884 165.385841 
L 220.770781 165.6198 
L 220.93974 165.526181 
L 221.472659 165.992287 
L 221.661522 166.457857 
L 221.571492 167.270952 
L 221.046359 168.701247 
L 220.925861 169.053079 
L 220.896168 169.354115 
L 220.854675 169.40568 
L 220.810177 169.283895 
L 220.777373 169.174828 
L 220.868592 169.167637 
L 220.986608 169.274675 
L 220.982429 169.297287 
L 220.845542 169.398612 
L 220.756592 169.27727 
L 220.757547 169.276716 
L 220.818036 169.284565 
L 220.833381 169.361081 
L 220.681394 169.405002 
L 220.663743 169.304266 
L 220.716318 169.297685 
L 221.005802 169.322462 
L 220.638112 169.172174 
L 220.624139 169.140719 
L 220.763411 169.307189 
L 220.77147 169.304668 
L 220.867671 169.198911 
L 220.74142 169.430385 
L 220.721393 169.540264 
L 220.903769 169.23679 
L 221.102753 169.204444 
L 220.859441 169.134856 
L 220.770139 169.054643 
L 221.048359 169.10478 
L 221.0631 169.080388 
L 220.915462 169.440194 
L 220.946621 169.230284 
" clip-path="url(#p23289a31a6)" style="fill: none; stroke: #d62728; stroke-width: 1.5; stroke-linecap: square"/>
   </g>
  </g>
 </g>
 <defs>
  <clipPath id="p23289a31a6">
   <rect x="103.104" y="41.472" width="266.112" height="266.112"/>
  </clipPath>
 </defs>
</svg>
